solid mesh
facet normal -1.000000 0.000000 0.000000
    outer loop
      vertex -207.009995 673.099976 -260.350006
      vertex -207.009995 647.700012 -260.350006
      vertex -207.009995 647.700012 -209.550003
    endloop
  endfacet
  facet normal -1.000000 -0.000000 -0.000000
    outer loop
      vertex -207.009995 673.099976 -209.550003
      vertex -207.009995 673.099976 -260.350006
      vertex -207.009995 647.700012 -209.550003
    endloop
  endfacet
  facet normal 0.000000 -1.000000 0.000000
    outer loop
      vertex 209.550003 647.700012 -260.350006
      vertex -207.009995 647.700012 -209.550003
      vertex -207.009995 647.700012 -260.350006
    endloop
  endfacet
  facet normal 0.000000 -1.000000 0.000000
    outer loop
      vertex 209.550003 647.700012 -260.350006
      vertex 209.550003 647.700012 -209.550003
      vertex -207.009995 647.700012 -209.550003
    endloop
  endfacet
  facet normal 0.000000 0.000000 1.000000
    outer loop
      vertex 209.550003 647.700012 -209.550003
      vertex -207.009995 673.099976 -209.550003
      vertex -207.009995 647.700012 -209.550003
    endloop
  endfacet
  facet normal 0.000000 -0.000000 1.000000
    outer loop
      vertex 209.550003 647.700012 -209.550003
      vertex 209.550003 673.099976 -209.550003
      vertex -207.009995 673.099976 -209.550003
    endloop
  endfacet
  facet normal 0.000000 1.000000 0.000000
    outer loop
      vertex 209.550003 673.099976 -260.350006
      vertex -207.009995 673.099976 -260.350006
      vertex -207.009995 673.099976 -209.550003
    endloop
  endfacet
  facet normal 0.000000 1.000000 0.000000
    outer loop
      vertex 209.550003 673.099976 -209.550003
      vertex 209.550003 673.099976 -260.350006
      vertex -207.009995 673.099976 -209.550003
    endloop
  endfacet
  facet normal 0.000000 0.000000 -1.000000
    outer loop
      vertex 209.550003 647.700012 -260.350006
      vertex -207.009995 647.700012 -260.350006
      vertex -207.009995 673.099976 -260.350006
    endloop
  endfacet
  facet normal -0.000000 -0.000000 -1.000000
    outer loop
      vertex 209.550003 673.099976 -260.350006
      vertex 209.550003 647.700012 -260.350006
      vertex -207.009995 673.099976 -260.350006
    endloop
  endfacet
  facet normal 1.000000 -0.000000 0.000000
    outer loop
      vertex 209.550003 647.700012 -209.550003
      vertex 209.550003 673.099976 -260.350006
      vertex 209.550003 673.099976 -209.550003
    endloop
  endfacet
  facet normal 1.000000 0.000000 0.000000
    outer loop
      vertex 209.550003 647.700012 -209.550003
      vertex 209.550003 647.700012 -260.350006
      vertex 209.550003 673.099976 -260.350006
    endloop
  endfacet
endsolid Mesh