solid Mesh
  facet normal 1.000000 0.000000 0.000000
    outer loop
      vertex 208.279999 546.099976 209.550003
      vertex 208.279999 571.500000 209.550003
      vertex 208.279999 571.500000 260.350006
    endloop
  endfacet
  facet normal 1.000000 -0.000000 0.000000
    outer loop
      vertex 208.279999 546.099976 260.350006
      vertex 208.279999 546.099976 209.550003
      vertex 208.279999 571.500000 260.350006
    endloop
  endfacet
  facet normal 0.000000 1.000000 0.000000
    outer loop
      vertex -208.279999 571.500000 209.550003
      vertex 208.279999 571.500000 260.350006
      vertex 208.279999 571.500000 209.550003
    endloop
  endfacet
  facet normal 0.000000 1.000000 0.000000
    outer loop
      vertex -208.279999 571.500000 209.550003
      vertex -208.279999 571.500000 260.350006
      vertex 208.279999 571.500000 260.350006
    endloop
  endfacet
  facet normal -0.000000 0.000000 1.000000
    outer loop
      vertex -208.279999 571.500000 260.350006
      vertex 208.279999 546.099976 260.350006
      vertex 208.279999 571.500000 260.350006
    endloop
  endfacet
  facet normal 0.000000 0.000000 1.000000
    outer loop
      vertex -208.279999 571.500000 260.350006
      vertex -208.279999 546.099976 260.350006
      vertex 208.279999 546.099976 260.350006
    endloop
  endfacet
  facet normal 0.000000 -1.000000 0.000000
    outer loop
      vertex -208.279999 546.099976 209.550003
      vertex 208.279999 546.099976 209.550003
      vertex 208.279999 546.099976 260.350006
    endloop
  endfacet
  facet normal 0.000000 -1.000000 0.000000
    outer loop
      vertex -208.279999 546.099976 260.350006
      vertex -208.279999 546.099976 209.550003
      vertex 208.279999 546.099976 260.350006
    endloop
  endfacet
  facet normal 0.000000 0.000000 -1.000000
    outer loop
      vertex -208.279999 571.500000 209.550003
      vertex 208.279999 571.500000 209.550003
      vertex 208.279999 546.099976 209.550003
    endloop
  endfacet
  facet normal 0.000000 0.000000 -1.000000
    outer loop
      vertex -208.279999 546.099976 209.550003
      vertex -208.279999 571.500000 209.550003
      vertex 208.279999 546.099976 209.550003
    endloop
  endfacet

  facet normal -1.000000 -0.000000 0.000000
    outer loop
      vertex -208.279999 571.500000 260.350006
      vertex -208.279999 546.099976 209.550003
      vertex -208.279999 546.099976 260.350006
    endloop
  endfacet
  facet normal -1.000000 0.000000 -0.000000
    outer loop
      vertex -208.279999 571.500000 260.350006
      vertex -208.279999 571.500000 209.550003
      vertex -208.279999 546.099976 209.550003
    endloop
  endfacet
endsolid Mesh
