solid Mesh
  facet normal -0.939693 0.000000 -0.342020
    outer loop
      vertex 249.147415 166.207397 -356.011017
      vertex 249.147415 185.257401 -356.011017
      vertex 301.271271 166.207397 -499.220154
    endloop
  endfacet
  facet normal -0.939693 0.000000 -0.342020
    outer loop
      vertex 301.271271 166.207397 -499.220154
      vertex 249.147415 185.257401 -356.011017
      vertex 294.755798 477.357391 -481.319000
    endloop
  endfacet
  facet normal -0.939693 0.000000 -0.342019
    outer loop
      vertex 301.271271 166.207397 -499.220154
      vertex 294.755798 477.357391 -481.319000
      vertex 301.271271 477.357391 -499.220154
    endloop
  endfacet
  facet normal 0.000000 1.000000 0.000000
    outer loop
      vertex 312.656952 477.357391 -474.803528
      vertex 301.271271 477.357391 -499.220154
      vertex 294.755798 477.357391 -481.319000
    endloop
  endfacet
  facet normal 0.000000 1.000000 0.000000
    outer loop
      vertex 312.656952 477.357391 -474.803528
      vertex 319.172424 477.357391 -492.704681
      vertex 301.271271 477.357391 -499.220154
    endloop
  endfacet
  facet normal 0.341995 0.000000 -0.939702
    outer loop
      vertex 310.842712 463.969696 -495.736450
      vertex 310.842712 223.791122 -495.736450
      vertex 310.221863 463.882690 -495.962402
    endloop
  endfacet
  facet normal 0.342000 0.000003 -0.939700
    outer loop
      vertex 309.022491 219.114700 -496.398956
      vertex 301.271271 166.207397 -499.220154
      vertex 308.525665 219.520370 -496.579773
    endloop
  endfacet
  facet normal 0.342030 0.000000 -0.939689
    outer loop
      vertex 311.421234 464.224701 -495.525879
      vertex 310.842712 223.791122 -495.736450
      vertex 310.842712 463.969696 -495.736450
    endloop
  endfacet
  facet normal 0.342030 0.000000 -0.939689
    outer loop
      vertex 311.421234 464.224701 -495.525879
      vertex 311.421234 223.536102 -495.525879
      vertex 310.842712 223.791122 -495.736450
    endloop
  endfacet
  facet normal 0.342017 0.000000 -0.939694
    outer loop
      vertex 311.421234 464.224701 -495.525879
      vertex 311.918030 223.130432 -495.345062
      vertex 311.421234 223.536102 -495.525879
    endloop
  endfacet
  facet normal 0.342056 -0.000006 -0.939679
    outer loop
      vertex 308.144470 220.049057 -496.718536
      vertex 308.525665 219.520370 -496.579773
      vertex 301.271271 166.207397 -499.220154
    endloop
  endfacet
  facet normal 0.342028 -0.000002 -0.939690
    outer loop
      vertex 307.904846 220.664719 -496.805756
      vertex 308.144470 220.049057 -496.718536
      vertex 301.271271 166.207397 -499.220154
    endloop
  endfacet
  facet normal 0.342016 0.000000 -0.939694
    outer loop
      vertex 311.918030 464.630371 -495.345062
      vertex 311.918030 223.130432 -495.345062
      vertex 311.421234 464.224701 -495.525879
    endloop
  endfacet
  facet normal 0.342029 -0.000002 -0.939689
    outer loop
      vertex 309.601013 218.859680 -496.188385
      vertex 301.271271 166.207397 -499.220154
      vertex 309.022491 219.114700 -496.398956
    endloop
  endfacet
  facet normal 0.341851 0.000023 -0.939754
    outer loop
      vertex 307.823090 221.325394 -496.835480
      vertex 307.904846 220.664719 -496.805756
      vertex 301.271271 166.207397 -499.220154
    endloop
  endfacet
  facet normal 0.342019 0.000000 -0.939693
    outer loop
      vertex 310.221863 218.772705 -495.962402
      vertex 319.172424 166.207397 -492.704681
      vertex 301.271271 166.207397 -499.220154
    endloop
  endfacet
  facet normal 0.341964 -0.000039 -0.939713
    outer loop
      vertex 301.271271 477.357391 -499.220154
      vertex 307.904846 467.096100 -496.805756
      vertex 307.823090 466.435394 -496.835480
    endloop
  endfacet
  facet normal 0.342036 -0.000003 -0.939687
    outer loop
      vertex 310.221863 218.772705 -495.962402
      vertex 301.271271 166.207397 -499.220154
      vertex 309.601013 218.859680 -496.188385
    endloop
  endfacet
  facet normal 0.342023 0.000004 -0.939692
    outer loop
      vertex 301.271271 477.357391 -499.220154
      vertex 308.144470 467.711761 -496.718536
      vertex 307.904846 467.096100 -496.805756
    endloop
  endfacet
  facet normal 0.342040 0.000018 -0.939685
    outer loop
      vertex 301.271271 477.357391 -499.220154
      vertex 308.525665 468.240417 -496.579773
      vertex 308.144470 467.711761 -496.718536
    endloop
  endfacet
  facet normal 0.342006 -0.000012 -0.939698
    outer loop
      vertex 301.271271 477.357391 -499.220154
      vertex 309.022491 468.646118 -496.398956
      vertex 308.525665 468.240417 -496.579773
    endloop
  endfacet
  facet normal 0.341988 -0.000019 -0.939704
    outer loop
      vertex 301.271271 477.357391 -499.220154
      vertex 307.904846 465.774719 -496.805756
      vertex 308.144470 465.159058 -496.718536
    endloop
  endfacet
  facet normal 0.342107 0.000059 -0.939661
    outer loop
      vertex 301.271271 477.357391 -499.220154
      vertex 307.823090 466.435394 -496.835480
      vertex 307.904846 465.774719 -496.805756
    endloop
  endfacet
  facet normal 0.341742 -0.000008 -0.939794
    outer loop
      vertex 301.271271 477.357391 -499.220154
      vertex 307.904846 221.986084 -496.805756
      vertex 307.823090 221.325394 -496.835480
    endloop
  endfacet
  facet normal 0.342031 0.000000 -0.939689
    outer loop
      vertex 301.271271 477.357391 -499.220154
      vertex 308.144470 222.601746 -496.718536
      vertex 307.904846 221.986084 -496.805756
    endloop
  endfacet
  facet normal 0.342021 0.000000 -0.939692
    outer loop
      vertex 301.271271 477.357391 -499.220154
      vertex 307.823090 221.325394 -496.835480
      vertex 301.271271 166.207397 -499.220154
    endloop
  endfacet
  facet normal 0.342017 0.000000 -0.939694
    outer loop
      vertex 301.271271 477.357391 -499.220154
      vertex 308.144470 465.159058 -496.718536
      vertex 308.144470 222.601746 -496.718536
    endloop
  endfacet
  facet normal 0.341996 -0.000004 -0.939701
    outer loop
      vertex 310.842712 218.859680 -495.736450
      vertex 319.172424 166.207397 -492.704681
      vertex 310.221863 218.772705 -495.962402
    endloop
  endfacet
  facet normal 0.342026 0.000008 -0.939690
    outer loop
      vertex 309.601013 468.901123 -496.188385
      vertex 309.022491 468.646118 -496.398956
      vertex 301.271271 477.357391 -499.220154
    endloop
  endfacet
  facet normal 0.342029 0.000002 -0.939689
    outer loop
      vertex 311.421234 219.114700 -495.525879
      vertex 319.172424 166.207397 -492.704681
      vertex 310.842712 218.859680 -495.736450
    endloop
  endfacet
  facet normal 0.342017 -0.000000 -0.939694
    outer loop
      vertex 311.918030 219.520370 -495.345062
      vertex 319.172424 166.207397 -492.704681
      vertex 311.421234 219.114700 -495.525879
    endloop
  endfacet
  facet normal 0.342034 0.000016 -0.939688
    outer loop
      vertex 310.221863 468.988098 -495.962402
      vertex 309.601013 468.901123 -496.188385
      vertex 301.271271 477.357391 -499.220154
    endloop
  endfacet
  facet normal 0.342056 0.000006 -0.939679
    outer loop
      vertex 312.299225 220.049057 -495.206299
      vertex 319.172424 166.207397 -492.704681
      vertex 311.918030 219.520370 -495.345062
    endloop
  endfacet
  facet normal 0.341999 -0.000003 -0.939700
    outer loop
      vertex 312.538879 220.664719 -495.119080
      vertex 319.172424 166.207397 -492.704681
      vertex 312.299225 220.049057 -495.206299
    endloop
  endfacet
  facet normal 0.341998 0.000025 -0.939701
    outer loop
      vertex 319.172424 477.357391 -492.704681
      vertex 310.842712 468.901123 -495.736450
      vertex 310.221863 468.988098 -495.962402
    endloop
  endfacet
  facet normal 0.342027 -0.000007 -0.939690
    outer loop
      vertex 319.172424 477.357391 -492.704681
      vertex 311.421234 468.646118 -495.525879
      vertex 310.842712 468.901123 -495.736450
    endloop
  endfacet
  facet normal 0.342018 0.000002 -0.939694
    outer loop
      vertex 319.172424 477.357391 -492.704681
      vertex 311.918030 468.240417 -495.345062
      vertex 311.421234 468.646118 -495.525879
    endloop
  endfacet
  facet normal 0.342040 -0.000018 -0.939685
    outer loop
      vertex 319.172424 477.357391 -492.704681
      vertex 312.299225 467.711761 -495.206299
      vertex 311.918030 468.240417 -495.345062
    endloop
  endfacet
  facet normal 0.341908 -0.000015 -0.939733
    outer loop
      vertex 312.620605 221.325394 -495.089355
      vertex 319.172424 166.207397 -492.704681
      vertex 312.538879 220.664719 -495.119080
    endloop
  endfacet
  facet normal 0.342009 0.000007 -0.939697
    outer loop
      vertex 319.172424 477.357391 -492.704681
      vertex 312.538879 467.096100 -495.119080
      vertex 312.299225 467.711761 -495.206299
    endloop
  endfacet
  facet normal 0.341983 0.000026 -0.939706
    outer loop
      vertex 319.172424 477.357391 -492.704681
      vertex 312.620605 466.435394 -495.089355
      vertex 312.538879 467.096100 -495.119080
    endloop
  endfacet
  facet normal 0.342078 -0.000039 -0.939671
    outer loop
      vertex 319.172424 477.357391 -492.704681
      vertex 312.538879 465.774719 -495.119080
      vertex 312.620605 466.435394 -495.089355
    endloop
  endfacet
  facet normal 0.342072 -0.000036 -0.939674
    outer loop
      vertex 319.172424 477.357391 -492.704681
      vertex 312.299225 465.159058 -495.206299
      vertex 312.538879 465.774719 -495.119080
    endloop
  endfacet
  facet normal 0.342019 -0.000001 -0.939693
    outer loop
      vertex 319.172424 477.357391 -492.704681
      vertex 310.221863 468.988098 -495.962402
      vertex 301.271271 477.357391 -499.220154
    endloop
  endfacet
  facet normal 0.342021 0.000000 -0.939692
    outer loop
      vertex 319.172424 477.357391 -492.704681
      vertex 319.172424 166.207397 -492.704681
      vertex 312.620605 221.325394 -495.089355
    endloop
  endfacet
  facet normal 0.341836 0.000005 -0.939760
    outer loop
      vertex 319.172424 477.357391 -492.704681
      vertex 312.620605 221.325394 -495.089355
      vertex 312.538879 221.986084 -495.119080
    endloop
  endfacet
  facet normal 0.341995 0.000001 -0.939702
    outer loop
      vertex 319.172424 477.357391 -492.704681
      vertex 312.538879 221.986084 -495.119080
      vertex 312.299225 222.601746 -495.206299
    endloop
  endfacet
  facet normal 0.342061 -0.000001 -0.939678
    outer loop
      vertex 319.172424 477.357391 -492.704681
      vertex 312.299225 222.601746 -495.206299
      vertex 311.918030 223.130432 -495.345062
    endloop
  endfacet
  facet normal 0.342017 0.000000 -0.939694
    outer loop
      vertex 319.172424 477.357391 -492.704681
      vertex 311.918030 223.130432 -495.345062
      vertex 312.299225 465.159058 -495.206299
    endloop
  endfacet
  facet normal 0.342063 0.000000 -0.939677
    outer loop
      vertex 312.299225 465.159058 -495.206299
      vertex 311.918030 223.130432 -495.345062
      vertex 311.918030 464.630371 -495.345062
    endloop
  endfacet
  facet normal 0.341998 0.000000 -0.939701
    outer loop
      vertex 308.525665 464.630371 -496.579773
      vertex 309.022491 223.536102 -496.398956
      vertex 308.525665 223.130432 -496.579773
    endloop
  endfacet
  facet normal 0.342063 0.000000 -0.939677
    outer loop
      vertex 308.144470 465.159058 -496.718536
      vertex 308.525665 223.130432 -496.579773
      vertex 308.144470 222.601746 -496.718536
    endloop
  endfacet
  facet normal 0.342063 0.000000 -0.939677
    outer loop
      vertex 308.144470 465.159058 -496.718536
      vertex 308.525665 464.630371 -496.579773
      vertex 308.525665 223.130432 -496.579773
    endloop
  endfacet
  facet normal 0.341998 0.000000 -0.939701
    outer loop
      vertex 309.022491 464.224701 -496.398956
      vertex 309.022491 223.536102 -496.398956
      vertex 308.525665 464.630371 -496.579773
    endloop
  endfacet
  facet normal 0.342030 0.000000 -0.939689
    outer loop
      vertex 309.601013 463.969696 -496.188385
      vertex 309.601013 223.791122 -496.188385
      vertex 309.022491 223.536102 -496.398956
    endloop
  endfacet
  facet normal 0.342030 0.000000 -0.939689
    outer loop
      vertex 309.601013 463.969696 -496.188385
      vertex 309.022491 223.536102 -496.398956
      vertex 309.022491 464.224701 -496.398956
    endloop
  endfacet
  facet normal 0.342036 0.000000 -0.939687
    outer loop
      vertex 310.221863 463.882690 -495.962402
      vertex 309.601013 223.791122 -496.188385
      vertex 309.601013 463.969696 -496.188385
    endloop
  endfacet
  facet normal 0.342036 0.000000 -0.939687
    outer loop
      vertex 310.221863 463.882690 -495.962402
      vertex 310.221863 223.878098 -495.962402
      vertex 309.601013 223.791122 -496.188385
    endloop
  endfacet
  facet normal 0.341995 0.000000 -0.939702
    outer loop
      vertex 310.221863 463.882690 -495.962402
      vertex 310.842712 223.791122 -495.736450
      vertex 310.221863 223.878098 -495.962402
    endloop
  endfacet
  facet normal -0.000000 -1.000000 0.000000
    outer loop
      vertex 319.172424 166.207397 -492.704681
      vertex 249.147415 166.207397 -356.011017
      vertex 301.271271 166.207397 -499.220154
    endloop
  endfacet
  facet normal 0.000000 -1.000000 0.000000
    outer loop
      vertex 319.172424 166.207397 -492.704681
      vertex 267.048553 166.207397 -349.495514
      vertex 249.147415 166.207397 -356.011017
    endloop
  endfacet
  facet normal -0.342021 0.000000 0.939692
    outer loop
      vertex 249.147415 166.207397 -356.011017
      vertex 267.048553 185.257401 -349.495514
      vertex 249.147415 185.257401 -356.011017
    endloop
  endfacet
  facet normal -0.342021 0.000000 0.939692
    outer loop
      vertex 267.048553 166.207397 -349.495514
      vertex 267.048553 185.257401 -349.495514
      vertex 249.147415 166.207397 -356.011017
    endloop
  endfacet
  facet normal -0.311189 0.415327 0.854790
    outer loop
      vertex 304.031158 465.398895 -472.133362
      vertex 312.656952 477.357391 -474.803528
      vertex 304.270172 465.921417 -472.300232
    endloop
  endfacet
  facet normal -0.311154 0.415278 0.854826
    outer loop
      vertex 300.319977 467.965393 -474.730988
      vertex 300.761444 468.387634 -474.775421
      vertex 294.755798 477.357391 -481.319000
    endloop
  endfacet
  facet normal -0.311095 0.415319 0.854828
    outer loop
      vertex 301.262756 468.706360 -474.747833
      vertex 294.755798 477.357391 -481.319000
      vertex 300.761444 468.387634 -474.775421
    endloop
  endfacet
  facet normal -0.311146 0.415283 0.854826
    outer loop
      vertex 299.970856 467.471893 -474.618317
      vertex 300.319977 467.965393 -474.730988
      vertex 294.755798 477.357391 -481.319000
    endloop
  endfacet
  facet normal -0.311110 0.415293 0.854834
    outer loop
      vertex 249.147415 185.257401 -356.011017
      vertex 301.725739 463.885864 -472.237427
      vertex 301.240570 463.911743 -472.426575
    endloop
  endfacet
  facet normal -0.311110 0.415291 0.854836
    outer loop
      vertex 249.147415 185.257401 -356.011017
      vertex 301.240570 463.911743 -472.426575
      vertex 300.776123 464.049072 -472.662323
    endloop
  endfacet
  facet normal -0.311161 0.415293 0.854816
    outer loop
      vertex 249.147415 185.257401 -356.011017
      vertex 300.776123 464.049072 -472.662323
      vertex 300.344543 464.309143 -472.945770
    endloop
  endfacet
  facet normal -0.311148 0.415293 0.854821
    outer loop
      vertex 249.147415 185.257401 -356.011017
      vertex 300.344543 464.309143 -472.945770
      vertex 299.983765 464.682037 -473.258240
    endloop
  endfacet
  facet normal -0.311178 0.415292 0.854811
    outer loop
      vertex 249.147415 185.257401 -356.011017
      vertex 299.983765 464.682037 -473.258240
      vertex 299.730255 465.145050 -473.575470
    endloop
  endfacet
  facet normal -0.311125 0.415296 0.854828
    outer loop
      vertex 301.775757 468.905060 -474.657654
      vertex 294.755798 477.357391 -481.319000
      vertex 301.262756 468.706360 -474.747833
    endloop
  endfacet
  facet normal -0.311129 0.415292 0.854828
    outer loop
      vertex 249.147415 185.257401 -356.011017
      vertex 299.730255 465.145050 -473.575470
      vertex 294.755798 477.357391 -481.319000
    endloop
  endfacet
  facet normal -0.311111 0.415303 0.854829
    outer loop
      vertex 299.731842 466.949371 -474.451447
      vertex 299.970856 467.471893 -474.618317
      vertex 294.755798 477.357391 -481.319000
    endloop
  endfacet
  facet normal -0.311088 0.415296 0.854841
    outer loop
      vertex 267.048553 185.257401 -349.495514
      vertex 303.240570 464.483185 -471.976257
      vertex 302.739258 464.164429 -472.003845
    endloop
  endfacet
  facet normal -0.311177 0.415293 0.854810
    outer loop
      vertex 267.048553 185.257401 -349.495514
      vertex 302.739258 464.164429 -472.003845
      vertex 302.226288 463.965729 -472.094025
    endloop
  endfacet
  facet normal -0.311129 0.415292 0.854828
    outer loop
      vertex 267.048553 185.257401 -349.495514
      vertex 302.226288 463.965729 -472.094025
      vertex 301.725739 463.885864 -472.237427
    endloop
  endfacet
  facet normal -0.311133 0.415292 0.854827
    outer loop
      vertex 267.048553 185.257401 -349.495514
      vertex 301.725739 463.885864 -472.237427
      vertex 249.147415 185.257401 -356.011017
    endloop
  endfacet
  facet normal -0.311129 0.415292 0.854828
    outer loop
      vertex 267.048553 185.257401 -349.495514
      vertex 312.656952 477.357391 -474.803528
      vertex 304.031158 465.398895 -472.133362
    endloop
  endfacet
  facet normal -0.311142 0.415295 0.854822
    outer loop
      vertex 267.048553 185.257401 -349.495514
      vertex 304.031158 465.398895 -472.133362
      vertex 303.682068 464.905426 -472.020691
    endloop
  endfacet
  facet normal -0.311140 0.415292 0.854824
    outer loop
      vertex 267.048553 185.257401 -349.495514
      vertex 303.682068 464.905426 -472.020691
      vertex 303.240570 464.483185 -471.976257
    endloop
  endfacet
  facet normal -0.311157 0.415270 0.854829
    outer loop
      vertex 302.276306 468.984924 -474.514252
      vertex 294.755798 477.357391 -481.319000
      vertex 301.775757 468.905060 -474.657654
    endloop
  endfacet
  facet normal -0.311183 0.415264 0.854822
    outer loop
      vertex 299.602264 466.435394 -474.248932
      vertex 299.731842 466.949371 -474.451447
      vertex 294.755798 477.357391 -481.319000
    endloop
  endfacet
  facet normal -0.311131 0.415292 0.854827
    outer loop
      vertex 312.656952 477.357391 -474.803528
      vertex 294.755798 477.357391 -481.319000
      vertex 302.276306 468.984924 -474.514252
    endloop
  endfacet
  facet normal -0.311149 0.415314 0.854810
    outer loop
      vertex 302.761444 468.959076 -474.325104
      vertex 312.656952 477.357391 -474.803528
      vertex 302.276306 468.984924 -474.514252
    endloop
  endfacet
  facet normal -0.311040 0.415338 0.854838
    outer loop
      vertex 299.569824 466.051636 -474.074280
      vertex 299.602264 466.435394 -474.248932
      vertex 294.755798 477.357391 -481.319000
    endloop
  endfacet
  facet normal -0.311117 0.415278 0.854840
    outer loop
      vertex 303.225891 468.821747 -474.089355
      vertex 312.656952 477.357391 -474.803528
      vertex 302.761444 468.959076 -474.325104
    endloop
  endfacet
  facet normal -0.311171 0.415272 0.854823
    outer loop
      vertex 299.594818 465.658081 -473.873993
      vertex 299.569824 466.051636 -474.074280
      vertex 294.755798 477.357391 -481.319000
    endloop
  endfacet
  facet normal -0.311134 0.415295 0.854825
    outer loop
      vertex 303.657471 468.561646 -473.805908
      vertex 312.656952 477.357391 -474.803528
      vertex 303.225891 468.821747 -474.089355
    endloop
  endfacet
  facet normal -0.311263 0.415227 0.854811
    outer loop
      vertex 299.730255 465.145050 -473.575470
      vertex 299.594818 465.658081 -473.873993
      vertex 294.755798 477.357391 -481.319000
    endloop
  endfacet
  facet normal -0.311119 0.415281 0.854837
    outer loop
      vertex 304.018280 468.188751 -473.493439
      vertex 312.656952 477.357391 -474.803528
      vertex 303.657471 468.561646 -473.805908
    endloop
  endfacet
  facet normal -0.311135 0.415295 0.854824
    outer loop
      vertex 304.271790 467.725769 -473.176239
      vertex 312.656952 477.357391 -474.803528
      vertex 304.018280 468.188751 -473.493439
    endloop
  endfacet
  facet normal -0.311148 0.415304 0.854815
    outer loop
      vertex 304.407196 467.212708 -472.877686
      vertex 312.656952 477.357391 -474.803528
      vertex 304.271790 467.725769 -473.176239
    endloop
  endfacet
  facet normal -0.311116 0.415283 0.854837
    outer loop
      vertex 304.432190 466.819153 -472.677399
      vertex 312.656952 477.357391 -474.803528
      vertex 304.407196 467.212708 -472.877686
    endloop
  endfacet
  facet normal -0.311080 0.415259 0.854862
    outer loop
      vertex 304.399780 466.435394 -472.502777
      vertex 312.656952 477.357391 -474.803528
      vertex 304.432190 466.819153 -472.677399
    endloop
  endfacet
  facet normal -0.311182 0.415322 0.854794
    outer loop
      vertex 304.270172 465.921417 -472.300232
      vertex 312.656952 477.357391 -474.803528
      vertex 304.399780 466.435394 -472.502777
    endloop
  endfacet
  facet normal 0.939693 0.000000 0.342020
    outer loop
      vertex 319.172424 166.207397 -492.704681
      vertex 267.048553 185.257401 -349.495514
      vertex 267.048553 166.207397 -349.495514
    endloop
  endfacet
  facet normal 0.939693 -0.000000 0.342020
    outer loop
      vertex 312.656952 477.357391 -474.803528
      vertex 267.048553 185.257401 -349.495514
      vertex 319.172424 166.207397 -492.704681
    endloop
  endfacet
  facet normal 0.939693 0.000000 0.342019
    outer loop
      vertex 319.172424 477.357391 -492.704681
      vertex 312.656952 477.357391 -474.803528
      vertex 319.172424 166.207397 -492.704681
    endloop
  endfacet
  facet normal 0.934829 -0.101614 0.340250
    outer loop
      vertex 299.731842 466.949371 -474.451447
      vertex 299.602264 466.435394 -474.248932
      vertex 307.823090 466.435394 -496.835480
    endloop
  endfacet
  facet normal 0.894936 -0.305512 0.325194
    outer loop
      vertex 299.970856 467.471893 -474.618317
      vertex 299.731842 466.949371 -474.451447
      vertex 307.904846 467.096100 -496.805756
    endloop
  endfacet
  facet normal 0.931436 -0.130539 0.339687
    outer loop
      vertex 299.731842 466.949371 -474.451447
      vertex 307.823090 466.435394 -496.835480
      vertex 307.904846 467.096100 -496.805756
    endloop
  endfacet
  facet normal 0.810607 -0.506263 0.294303
    outer loop
      vertex 300.319977 467.965393 -474.730988
      vertex 299.970856 467.471893 -474.618317
      vertex 308.144470 467.711761 -496.718536
    endloop
  endfacet
  facet normal 0.867865 -0.382669 0.316821
    outer loop
      vertex 299.970856 467.471893 -474.618317
      vertex 307.904846 467.096100 -496.805756
      vertex 308.144470 467.711761 -496.718536
    endloop
  endfacet
  facet normal 0.682561 -0.687575 0.247693
    outer loop
      vertex 300.761444 468.387634 -474.775421
      vertex 300.319977 467.965393 -474.730988
      vertex 308.525665 468.240417 -496.579773
    endloop
  endfacet
  facet normal 0.745184 -0.608775 0.272204
    outer loop
      vertex 300.319977 467.965393 -474.730988
      vertex 308.144470 467.711761 -496.718536
      vertex 308.525665 468.240417 -496.579773
    endloop
  endfacet
  facet normal 0.519499 -0.833418 0.188507
    outer loop
      vertex 301.262756 468.706360 -474.747833
      vertex 300.761444 468.387634 -474.775421
      vertex 309.022491 468.646118 -496.398956
    endloop
  endfacet
  facet normal 0.571784 -0.793346 0.208961
    outer loop
      vertex 300.761444 468.387634 -474.775421
      vertex 308.525665 468.240417 -496.579773
      vertex 309.022491 468.646118 -496.398956
    endloop
  endfacet
  facet normal 0.339456 -0.932473 0.123544
    outer loop
      vertex 301.775757 468.905060 -474.657654
      vertex 301.262756 468.706360 -474.747833
      vertex 309.601013 468.901123 -496.188385
    endloop
  endfacet
  facet normal 0.142782 -0.988383 0.052074
    outer loop
      vertex 302.276306 468.984924 -474.514252
      vertex 301.775757 468.905060 -474.657654
      vertex 309.601013 468.901123 -496.188385
    endloop
  endfacet
  facet normal 0.359414 -0.923883 0.131384
    outer loop
      vertex 301.262756 468.706360 -474.747833
      vertex 309.022491 468.646118 -496.398956
      vertex 309.601013 468.901123 -496.188385
    endloop
  endfacet
  facet normal -0.046449 -0.998770 -0.017355
    outer loop
      vertex 302.761444 468.959076 -474.325104
      vertex 302.276306 468.984924 -474.514252
      vertex 310.221863 468.988098 -495.962402
    endloop
  endfacet
  facet normal 0.122436 -0.991446 0.045210
    outer loop
      vertex 302.276306 468.984924 -474.514252
      vertex 309.601013 468.901123 -496.188385
      vertex 310.221863 468.988098 -495.962402
    endloop
  endfacet
  facet normal -0.240948 -0.966511 -0.088325
    outer loop
      vertex 303.225891 468.821747 -474.089355
      vertex 302.761444 468.959076 -474.325104
      vertex 310.842712 468.901123 -495.736450
    endloop
  endfacet
  facet normal -0.122976 -0.991446 -0.043731
    outer loop
      vertex 302.761444 468.959076 -474.325104
      vertex 310.221863 468.988098 -495.962402
      vertex 310.842712 468.901123 -495.736450
    endloop
  endfacet
  facet normal -0.431654 -0.888139 -0.157748
    outer loop
      vertex 303.657471 468.561646 -473.805908
      vertex 303.225891 468.821747 -474.089355
      vertex 311.421234 468.646118 -495.525879
    endloop
  endfacet
  facet normal -0.359908 -0.923883 -0.130026
    outer loop
      vertex 303.225891 468.821747 -474.089355
      vertex 310.842712 468.901123 -495.736450
      vertex 311.421234 468.646118 -495.525879
    endloop
  endfacet
  facet normal -0.602635 -0.767185 -0.219677
    outer loop
      vertex 304.018280 468.188751 -473.493439
      vertex 303.657471 468.561646 -473.805908
      vertex 311.918030 468.240417 -495.345062
    endloop
  endfacet
  facet normal -0.572285 -0.793330 -0.207648
    outer loop
      vertex 303.657471 468.561646 -473.805908
      vertex 311.421234 468.646118 -495.525879
      vertex 311.918030 468.240417 -495.345062
    endloop
  endfacet
  facet normal -0.752200 -0.599398 -0.273710
    outer loop
      vertex 304.271790 467.725769 -473.176239
      vertex 304.018280 468.188751 -473.493439
      vertex 312.299225 467.711761 -495.206299
    endloop
  endfacet
  facet normal -0.857832 -0.408140 -0.312322
    outer loop
      vertex 304.407196 467.212708 -472.877686
      vertex 304.271790 467.725769 -473.176239
      vertex 312.299225 467.711761 -495.206299
    endloop
  endfacet
  facet normal -0.745624 -0.608774 -0.270996
    outer loop
      vertex 304.018280 468.188751 -473.493439
      vertex 311.918030 468.240417 -495.345062
      vertex 312.299225 467.711761 -495.206299
    endloop
  endfacet
  facet normal -0.914903 -0.227728 -0.333304
    outer loop
      vertex 304.432190 466.819153 -472.677399
      vertex 304.407196 467.212708 -472.877686
      vertex 312.538879 467.096100 -495.119080
    endloop
  endfacet
  facet normal -0.868341 -0.382705 -0.315468
    outer loop
      vertex 304.407196 467.212708 -472.877686
      vertex 312.299225 467.711761 -495.206299
      vertex 312.538879 467.096100 -495.119080
    endloop
  endfacet
  facet normal -0.936972 -0.076048 -0.341029
    outer loop
      vertex 304.399780 466.435394 -472.502777
      vertex 304.432190 466.819153 -472.677399
      vertex 312.620605 466.435394 -495.089355
    endloop
  endfacet
  facet normal -0.931959 -0.130497 -0.338265
    outer loop
      vertex 304.432190 466.819153 -472.677399
      vertex 312.538879 467.096100 -495.119080
      vertex 312.620605 466.435394 -495.089355
    endloop
  endfacet
  facet normal -0.934826 0.101649 -0.340248
    outer loop
      vertex 304.270172 465.921417 -472.300232
      vertex 304.399780 466.435394 -472.502777
      vertex 312.620605 466.435394 -495.089355
    endloop
  endfacet
  facet normal -0.894720 0.305100 -0.326175
    outer loop
      vertex 304.031158 465.398895 -472.133362
      vertex 304.270172 465.921417 -472.300232
      vertex 312.538879 465.774719 -495.119080
    endloop
  endfacet
  facet normal -0.931868 0.130504 -0.338513
    outer loop
      vertex 304.270172 465.921417 -472.300232
      vertex 312.620605 466.435394 -495.089355
      vertex 312.538879 465.774719 -495.119080
    endloop
  endfacet
  facet normal -0.810406 0.505792 -0.295662
    outer loop
      vertex 303.682068 464.905426 -472.020691
      vertex 304.031158 465.398895 -472.133362
      vertex 312.299225 465.159058 -495.206299
    endloop
  endfacet
  facet normal -0.868446 0.382705 -0.315181
    outer loop
      vertex 304.031158 465.398895 -472.133362
      vertex 312.538879 465.774719 -495.119080
      vertex 312.299225 465.159058 -495.206299
    endloop
  endfacet
  facet normal -0.682366 0.687277 -0.249052
    outer loop
      vertex 303.240570 464.483185 -471.976257
      vertex 303.682068 464.905426 -472.020691
      vertex 311.918030 464.630371 -495.345062
    endloop
  endfacet
  facet normal -0.745811 0.608753 -0.270529
    outer loop
      vertex 303.682068 464.905426 -472.020691
      vertex 312.299225 465.159058 -495.206299
      vertex 311.918030 464.630371 -495.345062
    endloop
  endfacet
  facet normal -0.519384 0.833249 -0.189569
    outer loop
      vertex 302.739258 464.164429 -472.003845
      vertex 303.240570 464.483185 -471.976257
      vertex 311.421234 464.224701 -495.525879
    endloop
  endfacet
  facet normal -0.572303 0.793352 -0.207514
    outer loop
      vertex 303.240570 464.483185 -471.976257
      vertex 311.918030 464.630371 -495.345062
      vertex 311.421234 464.224701 -495.525879
    endloop
  endfacet
  facet normal -0.339470 0.932466 -0.123563
    outer loop
      vertex 302.226288 463.965729 -472.094025
      vertex 302.739258 464.164429 -472.003845
      vertex 310.842712 463.969696 -495.736450
    endloop
  endfacet
  facet normal -0.142835 0.988385 -0.051890
    outer loop
      vertex 301.725739 463.885864 -472.237427
      vertex 302.226288 463.965729 -472.094025
      vertex 310.842712 463.969696 -495.736450
    endloop
  endfacet
  facet normal -0.359764 0.923883 -0.130422
    outer loop
      vertex 302.739258 464.164429 -472.003845
      vertex 311.421234 464.224701 -495.525879
      vertex 310.842712 463.969696 -495.736450
    endloop
  endfacet
  facet normal 0.046793 0.998766 0.016624
    outer loop
      vertex 301.240570 463.911743 -472.426575
      vertex 301.725739 463.885864 -472.237427
      vertex 310.221863 463.882690 -495.962402
    endloop
  endfacet
  facet normal -0.122877 0.991440 -0.044136
    outer loop
      vertex 301.725739 463.885864 -472.237427
      vertex 310.842712 463.969696 -495.736450
      vertex 310.221863 463.882690 -495.962402
    endloop
  endfacet
  facet normal 0.241453 0.966477 0.087311
    outer loop
      vertex 300.776123 464.049072 -472.662323
      vertex 301.240570 463.911743 -472.426575
      vertex 309.601013 463.969696 -496.188385
    endloop
  endfacet
  facet normal 0.122386 0.991440 0.045479
    outer loop
      vertex 301.240570 463.911743 -472.426575
      vertex 310.221863 463.882690 -495.962402
      vertex 309.601013 463.969696 -496.188385
    endloop
  endfacet
  facet normal 0.432209 0.888050 0.156725
    outer loop
      vertex 300.344543 464.309143 -472.945770
      vertex 300.776123 464.049072 -472.662323
      vertex 309.022491 464.224701 -496.398956
    endloop
  endfacet
  facet normal 0.359312 0.923883 0.131665
    outer loop
      vertex 300.776123 464.049072 -472.662323
      vertex 309.601013 463.969696 -496.188385
      vertex 309.022491 464.224701 -496.398956
    endloop
  endfacet
  facet normal 0.602996 0.767050 0.219158
    outer loop
      vertex 299.983765 464.682037 -473.258240
      vertex 300.344543 464.309143 -472.945770
      vertex 308.525665 464.630371 -496.579773
    endloop
  endfacet
  facet normal 0.571838 0.793369 0.208730
    outer loop
      vertex 300.344543 464.309143 -472.945770
      vertex 309.022491 464.224701 -496.398956
      vertex 308.525665 464.630371 -496.579773
    endloop
  endfacet
  facet normal 0.752141 0.599421 0.273822
    outer loop
      vertex 299.730255 465.145050 -473.575470
      vertex 299.983765 464.682037 -473.258240
      vertex 308.144470 465.159058 -496.718536
    endloop
  endfacet
  facet normal 0.857902 0.408120 0.312158
    outer loop
      vertex 299.594818 465.658081 -473.873993
      vertex 299.730255 465.145050 -473.575470
      vertex 308.144470 465.159058 -496.718536
    endloop
  endfacet
  facet normal 0.745398 0.608753 0.271666
    outer loop
      vertex 299.983765 464.682037 -473.258240
      vertex 308.525665 464.630371 -496.579773
      vertex 308.144470 465.159058 -496.718536
    endloop
  endfacet
  facet normal 0.915152 0.227482 0.332790
    outer loop
      vertex 299.569824 466.051636 -474.074280
      vertex 299.594818 465.658081 -473.873993
      vertex 307.904846 465.774719 -496.805756
    endloop
  endfacet
  facet normal 0.867986 0.382669 0.316488
    outer loop
      vertex 299.594818 465.658081 -473.873993
      vertex 308.144470 465.159058 -496.718536
      vertex 307.904846 465.774719 -496.805756
    endloop
  endfacet
  facet normal 0.936975 0.076001 0.341031
    outer loop
      vertex 299.602264 466.435394 -474.248932
      vertex 299.569824 466.051636 -474.074280
      vertex 307.823090 466.435394 -496.835480
    endloop
  endfacet
  facet normal 0.931353 0.130545 0.339912
    outer loop
      vertex 299.569824 466.051636 -474.074280
      vertex 307.904846 465.774719 -496.805756
      vertex 307.823090 466.435394 -496.835480
    endloop
  endfacet
  facet normal 0.931652 -0.130542 0.339092
    outer loop
      vertex 299.135803 221.325394 -472.967285
      vertex 307.823090 221.325394 -496.835480
      vertex 307.904846 221.986084 -496.805756
    endloop
  endfacet
  facet normal 0.931657 -0.130500 0.339095
    outer loop
      vertex 299.217529 221.986084 -472.937561
      vertex 299.135803 221.325394 -472.967285
      vertex 307.904846 221.986084 -496.805756
    endloop
  endfacet
  facet normal 0.868169 -0.382668 0.315988
    outer loop
      vertex 299.457153 222.601746 -472.850342
      vertex 299.217529 221.986084 -472.937561
      vertex 308.144470 222.601746 -496.718536
    endloop
  endfacet
  facet normal 0.868169 -0.382669 0.315988
    outer loop
      vertex 299.217529 221.986084 -472.937561
      vertex 307.904846 221.986084 -496.805756
      vertex 308.144470 222.601746 -496.718536
    endloop
  endfacet
  facet normal 0.745495 -0.608780 0.271337
    outer loop
      vertex 299.838379 223.130432 -472.711578
      vertex 299.457153 222.601746 -472.850342
      vertex 308.525665 223.130432 -496.579773
    endloop
  endfacet
  facet normal 0.745515 -0.608753 0.271345
    outer loop
      vertex 299.457153 222.601746 -472.850342
      vertex 308.144470 222.601746 -496.718536
      vertex 308.525665 223.130432 -496.579773
    endloop
  endfacet
  facet normal 0.572050 -0.793352 0.208209
    outer loop
      vertex 300.335175 223.536102 -472.530762
      vertex 299.838379 223.130432 -472.711578
      vertex 309.022491 223.536102 -496.398956
    endloop
  endfacet
  facet normal 0.359615 -0.923875 0.130889
    outer loop
      vertex 300.913696 223.791122 -472.320190
      vertex 300.335175 223.536102 -472.530762
      vertex 309.022491 223.536102 -496.398956
    endloop
  endfacet
  facet normal 0.572030 -0.793369 0.208201
    outer loop
      vertex 299.838379 223.130432 -472.711578
      vertex 308.525665 223.130432 -496.579773
      vertex 309.022491 223.536102 -496.398956
    endloop
  endfacet
  facet normal 0.122646 -0.991446 0.044640
    outer loop
      vertex 301.534546 223.878098 -472.094238
      vertex 300.913696 223.791122 -472.320190
      vertex 309.601013 223.791122 -496.188385
    endloop
  endfacet
  facet normal 0.359615 -0.923875 0.130889
    outer loop
      vertex 300.913696 223.791122 -472.320190
      vertex 309.022491 223.536102 -496.398956
      vertex 309.601013 223.791122 -496.188385
    endloop
  endfacet
  facet normal 0.122644 -0.991446 0.044639
    outer loop
      vertex 301.534546 223.878098 -472.094238
      vertex 309.601013 223.791122 -496.188385
      vertex 310.221863 223.878098 -495.962402
    endloop
  endfacet
  facet normal -0.122644 -0.991446 -0.044639
    outer loop
      vertex 302.155396 223.791122 -471.868256
      vertex 301.534546 223.878098 -472.094238
      vertex 310.842712 223.791122 -495.736450
    endloop
  endfacet
  facet normal -0.122646 -0.991446 -0.044640
    outer loop
      vertex 301.534546 223.878098 -472.094238
      vertex 310.221863 223.878098 -495.962402
      vertex 310.842712 223.791122 -495.736450
    endloop
  endfacet
  facet normal -0.359615 -0.923875 -0.130889
    outer loop
      vertex 302.733917 223.536102 -471.657684
      vertex 302.155396 223.791122 -471.868256
      vertex 311.421234 223.536102 -495.525879
    endloop
  endfacet
  facet normal -0.359615 -0.923875 -0.130889
    outer loop
      vertex 302.155396 223.791122 -471.868256
      vertex 310.842712 223.791122 -495.736450
      vertex 311.421234 223.536102 -495.525879
    endloop
  endfacet
  facet normal -0.572050 -0.793352 -0.208209
    outer loop
      vertex 303.230713 223.130432 -471.476868
      vertex 302.733917 223.536102 -471.657684
      vertex 311.918030 223.130432 -495.345062
    endloop
  endfacet
  facet normal -0.745495 -0.608780 -0.271338
    outer loop
      vertex 303.611938 222.601746 -471.338104
      vertex 303.230713 223.130432 -471.476868
      vertex 311.918030 223.130432 -495.345062
    endloop
  endfacet
  facet normal -0.572049 -0.793353 -0.208209
    outer loop
      vertex 302.733917 223.536102 -471.657684
      vertex 311.421234 223.536102 -495.525879
      vertex 311.918030 223.130432 -495.345062
    endloop
  endfacet
  facet normal -0.745515 -0.608752 -0.271345
    outer loop
      vertex 303.611938 222.601746 -471.338104
      vertex 311.918030 223.130432 -495.345062
      vertex 312.299225 222.601746 -495.206299
    endloop
  endfacet
  facet normal -0.868169 -0.382668 -0.315988
    outer loop
      vertex 303.851562 221.986084 -471.250885
      vertex 303.611938 222.601746 -471.338104
      vertex 312.538879 221.986084 -495.119080
    endloop
  endfacet
  facet normal -0.868155 -0.382705 -0.315982
    outer loop
      vertex 303.611938 222.601746 -471.338104
      vertex 312.299225 222.601746 -495.206299
      vertex 312.538879 221.986084 -495.119080
    endloop
  endfacet
  facet normal -0.931657 -0.130500 -0.339095
    outer loop
      vertex 303.933289 221.325394 -471.221161
      vertex 303.851562 221.986084 -471.250885
      vertex 312.620605 221.325394 -495.089355
    endloop
  endfacet
  facet normal -0.931657 -0.130500 -0.339095
    outer loop
      vertex 303.851562 221.986084 -471.250885
      vertex 312.538879 221.986084 -495.119080
      vertex 312.620605 221.325394 -495.089355
    endloop
  endfacet
  facet normal -0.931656 0.130503 -0.339095
    outer loop
      vertex 303.933289 221.325394 -471.221161
      vertex 312.620605 221.325394 -495.089355
      vertex 312.538879 220.664719 -495.119080
    endloop
  endfacet
  facet normal -0.931656 0.130503 -0.339095
    outer loop
      vertex 303.851562 220.664719 -471.250885
      vertex 303.933289 221.325394 -471.221161
      vertex 312.538879 220.664719 -495.119080
    endloop
  endfacet
  facet normal -0.868169 0.382668 -0.315987
    outer loop
      vertex 303.611938 220.049057 -471.338104
      vertex 303.851562 220.664719 -471.250885
      vertex 312.299225 220.049057 -495.206299
    endloop
  endfacet
  facet normal -0.868154 0.382705 -0.315982
    outer loop
      vertex 303.851562 220.664719 -471.250885
      vertex 312.538879 220.664719 -495.119080
      vertex 312.299225 220.049057 -495.206299
    endloop
  endfacet
  facet normal -0.745495 0.608780 -0.271338
    outer loop
      vertex 303.230713 219.520370 -471.476868
      vertex 303.611938 220.049057 -471.338104
      vertex 311.918030 219.520370 -495.345062
    endloop
  endfacet
  facet normal -0.745515 0.608752 -0.271345
    outer loop
      vertex 303.611938 220.049057 -471.338104
      vertex 312.299225 220.049057 -495.206299
      vertex 311.918030 219.520370 -495.345062
    endloop
  endfacet
  facet normal -0.572050 0.793352 -0.208209
    outer loop
      vertex 302.733917 219.114700 -471.657684
      vertex 303.230713 219.520370 -471.476868
      vertex 311.421234 219.114700 -495.525879
    endloop
  endfacet
  facet normal -0.572049 0.793353 -0.208209
    outer loop
      vertex 303.230713 219.520370 -471.476868
      vertex 311.918030 219.520370 -495.345062
      vertex 311.421234 219.114700 -495.525879
    endloop
  endfacet
  facet normal -0.359615 0.923875 -0.130889
    outer loop
      vertex 302.155396 218.859680 -471.868256
      vertex 302.733917 219.114700 -471.657684
      vertex 310.842712 218.859680 -495.736450
    endloop
  endfacet
  facet normal -0.359615 0.923875 -0.130889
    outer loop
      vertex 302.733917 219.114700 -471.657684
      vertex 311.421234 219.114700 -495.525879
      vertex 310.842712 218.859680 -495.736450
    endloop
  endfacet
  facet normal -0.122644 0.991446 -0.044639
    outer loop
      vertex 301.534546 218.772705 -472.094238
      vertex 302.155396 218.859680 -471.868256
      vertex 310.221863 218.772705 -495.962402
    endloop
  endfacet
  facet normal 0.122646 0.991446 0.044640
    outer loop
      vertex 300.913696 218.859680 -472.320190
      vertex 301.534546 218.772705 -472.094238
      vertex 310.221863 218.772705 -495.962402
    endloop
  endfacet
  facet normal -0.122646 0.991446 -0.044640
    outer loop
      vertex 302.155396 218.859680 -471.868256
      vertex 310.842712 218.859680 -495.736450
      vertex 310.221863 218.772705 -495.962402
    endloop
  endfacet
  facet normal 0.122644 0.991446 0.044639
    outer loop
      vertex 300.913696 218.859680 -472.320190
      vertex 310.221863 218.772705 -495.962402
      vertex 309.601013 218.859680 -496.188385
    endloop
  endfacet
  facet normal 0.359615 0.923875 0.130889
    outer loop
      vertex 300.335175 219.114700 -472.530762
      vertex 300.913696 218.859680 -472.320190
      vertex 309.022491 219.114700 -496.398956
    endloop
  endfacet
  facet normal 0.572050 0.793352 0.208209
    outer loop
      vertex 299.838379 219.520370 -472.711578
      vertex 300.335175 219.114700 -472.530762
      vertex 309.022491 219.114700 -496.398956
    endloop
  endfacet
  facet normal 0.359615 0.923875 0.130889
    outer loop
      vertex 300.913696 218.859680 -472.320190
      vertex 309.601013 218.859680 -496.188385
      vertex 309.022491 219.114700 -496.398956
    endloop
  endfacet
  facet normal 0.572030 0.793369 0.208201
    outer loop
      vertex 299.838379 219.520370 -472.711578
      vertex 309.022491 219.114700 -496.398956
      vertex 308.525665 219.520370 -496.579773
    endloop
  endfacet
  facet normal 0.745495 0.608780 0.271338
    outer loop
      vertex 299.457153 220.049057 -472.850342
      vertex 299.838379 219.520370 -472.711578
      vertex 308.144470 220.049057 -496.718536
    endloop
  endfacet
  facet normal 0.745515 0.608752 0.271345
    outer loop
      vertex 299.838379 219.520370 -472.711578
      vertex 308.525665 219.520370 -496.579773
      vertex 308.144470 220.049057 -496.718536
    endloop
  endfacet
  facet normal 0.868169 0.382668 0.315988
    outer loop
      vertex 299.217529 220.664719 -472.937561
      vertex 299.457153 220.049057 -472.850342
      vertex 307.904846 220.664719 -496.805756
    endloop
  endfacet
  facet normal 0.868169 0.382669 0.315988
    outer loop
      vertex 299.457153 220.049057 -472.850342
      vertex 308.144470 220.049057 -496.718536
      vertex 307.904846 220.664719 -496.805756
    endloop
  endfacet
  facet normal 0.931657 0.130503 0.339094
    outer loop
      vertex 299.135803 221.325394 -472.967285
      vertex 299.217529 220.664719 -472.937561
      vertex 307.823090 221.325394 -496.835480
    endloop
  endfacet
  facet normal 0.931651 0.130545 0.339093
    outer loop
      vertex 299.217529 220.664719 -472.937561
      vertex 307.904846 220.664719 -496.805756
      vertex 307.823090 221.325394 -496.835480
    endloop
  endfacet
  facet normal 0.341799 0.000000 -0.939773
    outer loop
      vertex 303.851562 221.986084 -471.250885
      vertex 303.933289 221.325394 -471.221161
      vertex 303.851562 220.664719 -471.250885
    endloop
  endfacet
  facet normal 0.342031 0.000000 -0.939689
    outer loop
      vertex 303.851562 221.986084 -471.250885
      vertex 303.851562 220.664719 -471.250885
      vertex 303.611938 220.049057 -471.338104
    endloop
  endfacet
  facet normal 0.342041 -0.000001 -0.939685
    outer loop
      vertex 303.851562 221.986084 -471.250885
      vertex 303.611938 220.049057 -471.338104
      vertex 303.230713 219.520370 -471.476868
    endloop
  endfacet
  facet normal 0.342011 0.000007 -0.939696
    outer loop
      vertex 303.851562 221.986084 -471.250885
      vertex 303.230713 219.520370 -471.476868
      vertex 302.733917 219.114700 -471.657684
    endloop
  endfacet
  facet normal 0.342030 -0.000001 -0.939689
    outer loop
      vertex 303.851562 221.986084 -471.250885
      vertex 302.733917 219.114700 -471.657684
      vertex 302.155396 218.859680 -471.868256
    endloop
  endfacet
  facet normal 0.342045 0.000040 -0.939684
    outer loop
      vertex 302.155396 223.791122 -471.868256
      vertex 302.733917 223.536102 -471.657684
      vertex 303.230713 223.130432 -471.476868
    endloop
  endfacet
  facet normal 0.342011 -0.000023 -0.939696
    outer loop
      vertex 302.155396 223.791122 -471.868256
      vertex 303.230713 223.130432 -471.476868
      vertex 303.611938 222.601746 -471.338104
    endloop
  endfacet
  facet normal 0.342026 -0.000002 -0.939690
    outer loop
      vertex 302.155396 223.791122 -471.868256
      vertex 303.611938 222.601746 -471.338104
      vertex 303.851562 221.986084 -471.250885
    endloop
  endfacet
  facet normal 0.342036 0.000000 -0.939687
    outer loop
      vertex 302.155396 223.791122 -471.868256
      vertex 302.155396 218.859680 -471.868256
      vertex 301.534546 218.772705 -472.094238
    endloop
  endfacet
  facet normal 0.342028 0.000000 -0.939690
    outer loop
      vertex 302.155396 223.791122 -471.868256
      vertex 303.851562 221.986084 -471.250885
      vertex 302.155396 218.859680 -471.868256
    endloop
  endfacet
  facet normal 0.342016 -0.000165 -0.939694
    outer loop
      vertex 300.913696 223.791122 -472.320190
      vertex 301.534546 223.878098 -472.094238
      vertex 302.155396 223.791122 -471.868256
    endloop
  endfacet
  facet normal 0.341995 0.000000 -0.939702
    outer loop
      vertex 300.913696 223.791122 -472.320190
      vertex 301.534546 218.772705 -472.094238
      vertex 300.913696 218.859680 -472.320190
    endloop
  endfacet
  facet normal 0.342016 0.000003 -0.939694
    outer loop
      vertex 300.913696 223.791122 -472.320190
      vertex 302.155396 223.791122 -471.868256
      vertex 301.534546 218.772705 -472.094238
    endloop
  endfacet
  facet normal 0.342030 0.000001 -0.939689
    outer loop
      vertex 299.217529 221.986084 -472.937561
      vertex 300.913696 218.859680 -472.320190
      vertex 300.335175 219.114700 -472.530762
    endloop
  endfacet
  facet normal 0.342011 -0.000007 -0.939696
    outer loop
      vertex 299.217529 221.986084 -472.937561
      vertex 300.335175 219.114700 -472.530762
      vertex 299.838379 219.520370 -472.711578
    endloop
  endfacet
  facet normal 0.342041 0.000001 -0.939685
    outer loop
      vertex 299.217529 221.986084 -472.937561
      vertex 299.838379 219.520370 -472.711578
      vertex 299.457153 220.049057 -472.850342
    endloop
  endfacet
  facet normal 0.342031 0.000000 -0.939689
    outer loop
      vertex 299.217529 221.986084 -472.937561
      vertex 299.457153 220.049057 -472.850342
      vertex 299.217529 220.664719 -472.937561
    endloop
  endfacet
  facet normal 0.341799 0.000000 -0.939773
    outer loop
      vertex 299.217529 221.986084 -472.937561
      vertex 299.217529 220.664719 -472.937561
      vertex 299.135803 221.325394 -472.967285
    endloop
  endfacet
  facet normal 0.342028 0.000000 -0.939690
    outer loop
      vertex 299.217529 221.986084 -472.937561
      vertex 300.913696 223.791122 -472.320190
      vertex 300.913696 218.859680 -472.320190
    endloop
  endfacet
  facet normal 0.342026 0.000002 -0.939690
    outer loop
      vertex 299.457153 222.601746 -472.850342
      vertex 300.913696 223.791122 -472.320190
      vertex 299.217529 221.986084 -472.937561
    endloop
  endfacet
  facet normal 0.342045 -0.000040 -0.939684
    outer loop
      vertex 299.838379 223.130432 -472.711578
      vertex 300.335175 223.536102 -472.530762
      vertex 300.913696 223.791122 -472.320190
    endloop
  endfacet
  facet normal 0.342011 0.000023 -0.939696
    outer loop
      vertex 299.838379 223.130432 -472.711578
      vertex 300.913696 223.791122 -472.320190
      vertex 299.457153 222.601746 -472.850342
    endloop
  endfacet
endsolid Mesh
