solid Mesh
  facet normal -0.939693 0.000000 0.342020
    outer loop
      vertex -267.048553 166.207397 -349.495514
      vertex -267.048553 185.257401 -349.495514
      vertex -319.172424 166.207397 -492.704681
    endloop
  endfacet
  facet normal -0.939693 -0.000000 0.342020
    outer loop
      vertex -319.172424 166.207397 -492.704681
      vertex -267.048553 185.257401 -349.495514
      vertex -312.656952 477.357391 -474.803528
    endloop
  endfacet
  facet normal -0.939693 0.000000 0.342019
    outer loop
      vertex -319.172424 166.207397 -492.704681
      vertex -312.656952 477.357391 -474.803528
      vertex -319.172424 477.357391 -492.704681
    endloop
  endfacet
  facet normal 0.000000 1.000000 0.000000
    outer loop
      vertex -294.755798 477.357391 -481.319000
      vertex -319.172424 477.357391 -492.704681
      vertex -312.656952 477.357391 -474.803528
    endloop
  endfacet
  facet normal 0.000000 1.000000 0.000000
    outer loop
      vertex -294.755798 477.357391 -481.319000
      vertex -301.271271 477.357391 -499.220154
      vertex -319.172424 477.357391 -492.704681
    endloop
  endfacet
  facet normal -0.342036 -0.000000 -0.939687
    outer loop
      vertex -309.601013 463.969696 -496.188385
      vertex -309.601013 223.791122 -496.188385
      vertex -310.221863 463.882690 -495.962402
    endloop
  endfacet
  facet normal -0.342017 -0.000000 -0.939694
    outer loop
      vertex -311.421234 219.114700 -495.525879
      vertex -319.172424 166.207397 -492.704681
      vertex -311.918030 219.520370 -495.345062
    endloop
  endfacet
  facet normal -0.342030 0.000000 -0.939689
    outer loop
      vertex -309.022491 464.224701 -496.398956
      vertex -309.601013 223.791122 -496.188385
      vertex -309.601013 463.969696 -496.188385
    endloop
  endfacet
  facet normal -0.342030 -0.000000 -0.939689
    outer loop
      vertex -309.022491 464.224701 -496.398956
      vertex -309.022491 223.536102 -496.398956
      vertex -309.601013 223.791122 -496.188385
    endloop
  endfacet
  facet normal -0.341998 -0.000000 -0.939701
    outer loop
      vertex -309.022491 464.224701 -496.398956
      vertex -308.525665 223.130432 -496.579773
      vertex -309.022491 223.536102 -496.398956
    endloop
  endfacet
  facet normal -0.342056 0.000006 -0.939679
    outer loop
      vertex -312.299225 220.049057 -495.206299
      vertex -311.918030 219.520370 -495.345062
      vertex -319.172424 166.207397 -492.704681
    endloop
  endfacet
  facet normal -0.341999 -0.000003 -0.939700
    outer loop
      vertex -312.538879 220.664719 -495.119080
      vertex -312.299225 220.049057 -495.206299
      vertex -319.172424 166.207397 -492.704681
    endloop
  endfacet
  facet normal -0.341998 -0.000000 -0.939701
    outer loop
      vertex -308.525665 464.630371 -496.579773
      vertex -308.525665 223.130432 -496.579773
      vertex -309.022491 464.224701 -496.398956
    endloop
  endfacet
  facet normal -0.342029 0.000002 -0.939689
    outer loop
      vertex -310.842712 218.859680 -495.736450
      vertex -319.172424 166.207397 -492.704681
      vertex -311.421234 219.114700 -495.525879
    endloop
  endfacet
  facet normal -0.341908 -0.000015 -0.939733
    outer loop
      vertex -312.620605 221.325394 -495.089355
      vertex -312.538879 220.664719 -495.119080
      vertex -319.172424 166.207397 -492.704681
    endloop
  endfacet
  facet normal -0.342019 0.000000 -0.939693
    outer loop
      vertex -310.221863 218.772705 -495.962402
      vertex -301.271271 166.207397 -499.220154
      vertex -319.172424 166.207397 -492.704681
    endloop
  endfacet
  facet normal -0.341983 0.000026 -0.939706
    outer loop
      vertex -319.172424 477.357391 -492.704681
      vertex -312.538879 467.096100 -495.119080
      vertex -312.620605 466.435394 -495.089355
    endloop
  endfacet
  facet normal -0.341996 -0.000004 -0.939701
    outer loop
      vertex -310.221863 218.772705 -495.962402
      vertex -319.172424 166.207397 -492.704681
      vertex -310.842712 218.859680 -495.736450
    endloop
  endfacet
  facet normal -0.342009 0.000007 -0.939697
    outer loop
      vertex -319.172424 477.357391 -492.704681
      vertex -312.299225 467.711761 -495.206299
      vertex -312.538879 467.096100 -495.119080
    endloop
  endfacet
  facet normal -0.342040 -0.000018 -0.939685
    outer loop
      vertex -319.172424 477.357391 -492.704681
      vertex -311.918030 468.240417 -495.345062
      vertex -312.299225 467.711761 -495.206299
    endloop
  endfacet
  facet normal -0.342018 0.000002 -0.939694
    outer loop
      vertex -319.172424 477.357391 -492.704681
      vertex -311.421234 468.646118 -495.525879
      vertex -311.918030 468.240417 -495.345062
    endloop
  endfacet
  facet normal -0.342072 -0.000036 -0.939674
    outer loop
      vertex -319.172424 477.357391 -492.704681
      vertex -312.538879 465.774719 -495.119080
      vertex -312.299225 465.159058 -495.206299
    endloop
  endfacet
  facet normal -0.342078 -0.000039 -0.939671
    outer loop
      vertex -319.172424 477.357391 -492.704681
      vertex -312.620605 466.435394 -495.089355
      vertex -312.538879 465.774719 -495.119080
    endloop
  endfacet
  facet normal -0.341836 0.000005 -0.939760
    outer loop
      vertex -319.172424 477.357391 -492.704681
      vertex -312.538879 221.986084 -495.119080
      vertex -312.620605 221.325394 -495.089355
    endloop
  endfacet
  facet normal -0.341995 0.000001 -0.939702
    outer loop
      vertex -319.172424 477.357391 -492.704681
      vertex -312.299225 222.601746 -495.206299
      vertex -312.538879 221.986084 -495.119080
    endloop
  endfacet
  facet normal -0.342021 -0.000000 -0.939692
    outer loop
      vertex -319.172424 477.357391 -492.704681
      vertex -312.620605 221.325394 -495.089355
      vertex -319.172424 166.207397 -492.704681
    endloop
  endfacet
  facet normal -0.342017 0.000000 -0.939694
    outer loop
      vertex -319.172424 477.357391 -492.704681
      vertex -312.299225 465.159058 -495.206299
      vertex -312.299225 222.601746 -495.206299
    endloop
  endfacet
  facet normal -0.342036 -0.000003 -0.939687
    outer loop
      vertex -309.601013 218.859680 -496.188385
      vertex -301.271271 166.207397 -499.220154
      vertex -310.221863 218.772705 -495.962402
    endloop
  endfacet
  facet normal -0.342027 -0.000007 -0.939690
    outer loop
      vertex -310.842712 468.901123 -495.736450
      vertex -311.421234 468.646118 -495.525879
      vertex -319.172424 477.357391 -492.704681
    endloop
  endfacet
  facet normal -0.342029 -0.000002 -0.939690
    outer loop
      vertex -309.022491 219.114700 -496.398956
      vertex -301.271271 166.207397 -499.220154
      vertex -309.601013 218.859680 -496.188385
    endloop
  endfacet
  facet normal -0.342000 0.000003 -0.939700
    outer loop
      vertex -308.525665 219.520370 -496.579773
      vertex -301.271271 166.207397 -499.220154
      vertex -309.022491 219.114700 -496.398956
    endloop
  endfacet
  facet normal -0.341998 0.000025 -0.939701
    outer loop
      vertex -310.221863 468.988098 -495.962402
      vertex -310.842712 468.901123 -495.736450
      vertex -319.172424 477.357391 -492.704681
    endloop
  endfacet
  facet normal -0.342056 -0.000006 -0.939679
    outer loop
      vertex -308.144470 220.049057 -496.718536
      vertex -301.271271 166.207397 -499.220154
      vertex -308.525665 219.520370 -496.579773
    endloop
  endfacet
  facet normal -0.342028 -0.000002 -0.939690
    outer loop
      vertex -307.904846 220.664719 -496.805756
      vertex -301.271271 166.207397 -499.220154
      vertex -308.144470 220.049057 -496.718536
    endloop
  endfacet
  facet normal -0.342034 0.000016 -0.939688
    outer loop
      vertex -301.271271 477.357391 -499.220154
      vertex -309.601013 468.901123 -496.188385
      vertex -310.221863 468.988098 -495.962402
    endloop
  endfacet
  facet normal -0.342026 0.000008 -0.939690
    outer loop
      vertex -301.271271 477.357391 -499.220154
      vertex -309.022491 468.646118 -496.398956
      vertex -309.601013 468.901123 -496.188385
    endloop
  endfacet
  facet normal -0.342006 -0.000012 -0.939698
    outer loop
      vertex -301.271271 477.357391 -499.220154
      vertex -308.525665 468.240417 -496.579773
      vertex -309.022491 468.646118 -496.398956
    endloop
  endfacet
  facet normal -0.342040 0.000018 -0.939685
    outer loop
      vertex -301.271271 477.357391 -499.220154
      vertex -308.144470 467.711761 -496.718536
      vertex -308.525665 468.240417 -496.579773
    endloop
  endfacet
  facet normal -0.341851 0.000023 -0.939754
    outer loop
      vertex -307.823090 221.325394 -496.835480
      vertex -301.271271 166.207397 -499.220154
      vertex -307.904846 220.664719 -496.805756
    endloop
  endfacet
  facet normal -0.342023 0.000004 -0.939692
    outer loop
      vertex -301.271271 477.357391 -499.220154
      vertex -307.904846 467.096100 -496.805756
      vertex -308.144470 467.711761 -496.718536
    endloop
  endfacet
  facet normal -0.341964 -0.000039 -0.939713
    outer loop
      vertex -301.271271 477.357391 -499.220154
      vertex -307.823090 466.435394 -496.835480
      vertex -307.904846 467.096100 -496.805756
    endloop
  endfacet
  facet normal -0.342107 0.000059 -0.939661
    outer loop
      vertex -301.271271 477.357391 -499.220154
      vertex -307.904846 465.774719 -496.805756
      vertex -307.823090 466.435394 -496.835480
    endloop
  endfacet
  facet normal -0.341988 -0.000019 -0.939704
    outer loop
      vertex -301.271271 477.357391 -499.220154
      vertex -308.144470 465.159058 -496.718536
      vertex -307.904846 465.774719 -496.805756
    endloop
  endfacet
  facet normal -0.342019 -0.000001 -0.939693
    outer loop
      vertex -301.271271 477.357391 -499.220154
      vertex -310.221863 468.988098 -495.962402
      vertex -319.172424 477.357391 -492.704681
    endloop
  endfacet
  facet normal -0.342021 -0.000000 -0.939692
    outer loop
      vertex -301.271271 477.357391 -499.220154
      vertex -301.271271 166.207397 -499.220154
      vertex -307.823090 221.325394 -496.835480
    endloop
  endfacet
  facet normal -0.341742 -0.000008 -0.939794
    outer loop
      vertex -301.271271 477.357391 -499.220154
      vertex -307.823090 221.325394 -496.835480
      vertex -307.904846 221.986084 -496.805756
    endloop
  endfacet
  facet normal -0.342031 0.000000 -0.939689
    outer loop
      vertex -301.271271 477.357391 -499.220154
      vertex -307.904846 221.986084 -496.805756
      vertex -308.144470 222.601746 -496.718536
    endloop
  endfacet
  facet normal -0.342061 0.000001 -0.939678
    outer loop
      vertex -301.271271 477.357391 -499.220154
      vertex -308.144470 222.601746 -496.718536
      vertex -308.525665 223.130432 -496.579773
    endloop
  endfacet
  facet normal -0.342017 -0.000000 -0.939694
    outer loop
      vertex -301.271271 477.357391 -499.220154
      vertex -308.525665 223.130432 -496.579773
      vertex -308.144470 465.159058 -496.718536
    endloop
  endfacet
  facet normal -0.342063 0.000000 -0.939677
    outer loop
      vertex -308.144470 465.159058 -496.718536
      vertex -308.525665 223.130432 -496.579773
      vertex -308.525665 464.630371 -496.579773
    endloop
  endfacet
  facet normal -0.342016 -0.000000 -0.939694
    outer loop
      vertex -311.918030 464.630371 -495.345062
      vertex -311.421234 223.536102 -495.525879
      vertex -311.918030 223.130432 -495.345062
    endloop
  endfacet
  facet normal -0.342063 -0.000000 -0.939677
    outer loop
      vertex -312.299225 465.159058 -495.206299
      vertex -311.918030 223.130432 -495.345062
      vertex -312.299225 222.601746 -495.206299
    endloop
  endfacet
  facet normal -0.342063 0.000000 -0.939677
    outer loop
      vertex -312.299225 465.159058 -495.206299
      vertex -311.918030 464.630371 -495.345062
      vertex -311.918030 223.130432 -495.345062
    endloop
  endfacet
  facet normal -0.342017 -0.000000 -0.939694
    outer loop
      vertex -311.421234 464.224701 -495.525879
      vertex -311.421234 223.536102 -495.525879
      vertex -311.918030 464.630371 -495.345062
    endloop
  endfacet
  facet normal -0.342030 -0.000000 -0.939689
    outer loop
      vertex -310.842712 463.969696 -495.736450
      vertex -310.842712 223.791122 -495.736450
      vertex -311.421234 223.536102 -495.525879
    endloop
  endfacet
  facet normal -0.342030 0.000000 -0.939689
    outer loop
      vertex -310.842712 463.969696 -495.736450
      vertex -311.421234 223.536102 -495.525879
      vertex -311.421234 464.224701 -495.525879
    endloop
  endfacet
  facet normal -0.341995 0.000000 -0.939702
    outer loop
      vertex -310.221863 463.882690 -495.962402
      vertex -310.842712 223.791122 -495.736450
      vertex -310.842712 463.969696 -495.736450
    endloop
  endfacet
  facet normal -0.341995 -0.000000 -0.939702
    outer loop
      vertex -310.221863 463.882690 -495.962402
      vertex -310.221863 223.878098 -495.962402
      vertex -310.842712 223.791122 -495.736450
    endloop
  endfacet
  facet normal -0.342036 -0.000000 -0.939687
    outer loop
      vertex -310.221863 463.882690 -495.962402
      vertex -309.601013 223.791122 -496.188385
      vertex -310.221863 223.878098 -495.962402
    endloop
  endfacet
  facet normal 0.000000 -1.000000 0.000000
    outer loop
      vertex -301.271271 166.207397 -499.220154
      vertex -267.048553 166.207397 -349.495514
      vertex -319.172424 166.207397 -492.704681
    endloop
  endfacet
  facet normal 0.000000 -1.000000 0.000000
    outer loop
      vertex -301.271271 166.207397 -499.220154
      vertex -249.147415 166.207397 -356.011017
      vertex -267.048553 166.207397 -349.495514
    endloop
  endfacet
  facet normal 0.342021 -0.000000 0.939692
    outer loop
      vertex -267.048553 166.207397 -349.495514
      vertex -249.147415 185.257401 -356.011017
      vertex -267.048553 185.257401 -349.495514
    endloop
  endfacet
  facet normal 0.342021 -0.000000 0.939692
    outer loop
      vertex -249.147415 166.207397 -356.011017
      vertex -249.147415 185.257401 -356.011017
      vertex -267.048553 166.207397 -349.495514
    endloop
  endfacet
  facet normal 0.311073 0.415321 0.854835
    outer loop
      vertex -299.647186 465.398895 -473.729004
      vertex -294.755798 477.357391 -481.319000
      vertex -299.571350 465.921417 -474.010468
    endloop
  endfacet
  facet normal 0.311113 0.415277 0.854842
    outer loop
      vertex -304.159851 467.965393 -473.333405
      vertex -303.850220 468.387634 -473.651215
      vertex -312.656952 477.357391 -474.803528
    endloop
  endfacet
  facet normal 0.311143 0.415304 0.854818
    outer loop
      vertex -303.448456 468.706360 -473.952301
      vertex -312.656952 477.357391 -474.803528
      vertex -303.850220 468.387634 -473.651215
    endloop
  endfacet
  facet normal 0.311133 0.415293 0.854826
    outer loop
      vertex -304.354858 467.471893 -473.022675
      vertex -304.159851 467.965393 -473.333405
      vertex -312.656952 477.357391 -474.803528
    endloop
  endfacet
  facet normal 0.311157 0.415291 0.854819
    outer loop
      vertex -267.048553 185.257401 -349.495514
      vertex -301.480133 463.885864 -472.326813
      vertex -301.973358 463.911743 -472.159851
    endloop
  endfacet
  facet normal 0.311103 0.415294 0.854837
    outer loop
      vertex -267.048553 185.257401 -349.495514
      vertex -301.973358 463.911743 -472.159851
      vertex -302.480682 464.049072 -472.041931
    endloop
  endfacet
  facet normal 0.311137 0.415290 0.854827
    outer loop
      vertex -267.048553 185.257401 -349.495514
      vertex -302.480682 464.049072 -472.041931
      vertex -302.993500 464.309143 -471.981628
    endloop
  endfacet
  facet normal 0.311137 0.415292 0.854825
    outer loop
      vertex -267.048553 185.257401 -349.495514
      vertex -302.993500 464.309143 -471.981628
      vertex -303.470734 464.682037 -471.989075
    endloop
  endfacet
  facet normal 0.311115 0.415297 0.854831
    outer loop
      vertex -267.048553 185.257401 -349.495514
      vertex -303.470734 464.682037 -471.989075
      vertex -303.868835 465.145050 -472.069122
    endloop
  endfacet
  facet normal 0.311115 0.415276 0.854841
    outer loop
      vertex -302.997498 468.905060 -474.212952
      vertex -312.656952 477.357391 -474.803528
      vertex -303.448456 468.706360 -473.952301
    endloop
  endfacet
  facet normal 0.311129 0.415292 0.854828
    outer loop
      vertex -267.048553 185.257401 -349.495514
      vertex -303.868835 465.145050 -472.069122
      vertex -312.656952 477.357391 -474.803528
    endloop
  endfacet
  facet normal 0.311145 0.415301 0.854818
    outer loop
      vertex -304.430695 466.949371 -472.741211
      vertex -304.354858 467.471893 -473.022675
      vertex -312.656952 477.357391 -474.803528
    endloop
  endfacet
  facet normal 0.311154 0.415294 0.854818
    outer loop
      vertex -249.147415 185.257401 -356.011017
      vertex -300.151825 464.483185 -473.100464
      vertex -300.553589 464.164429 -472.799377
    endloop
  endfacet
  facet normal 0.311102 0.415291 0.854838
    outer loop
      vertex -249.147415 185.257401 -356.011017
      vertex -300.553589 464.164429 -472.799377
      vertex -301.004517 463.965729 -472.538727
    endloop
  endfacet
  facet normal 0.311163 0.415295 0.854815
    outer loop
      vertex -249.147415 185.257401 -356.011017
      vertex -301.004517 463.965729 -472.538727
      vertex -301.480133 463.885864 -472.326813
    endloop
  endfacet
  facet normal 0.311133 0.415292 0.854827
    outer loop
      vertex -249.147415 185.257401 -356.011017
      vertex -301.480133 463.885864 -472.326813
      vertex -267.048553 185.257401 -349.495514
    endloop
  endfacet
  facet normal 0.311131 0.415292 0.854827
    outer loop
      vertex -249.147415 185.257401 -356.011017
      vertex -294.755798 477.357391 -481.319000
      vertex -299.647186 465.398895 -473.729004
    endloop
  endfacet
  facet normal 0.311088 0.415295 0.854842
    outer loop
      vertex -249.147415 185.257401 -356.011017
      vertex -299.647186 465.398895 -473.729004
      vertex -299.842194 464.905426 -473.418304
    endloop
  endfacet
  facet normal 0.311161 0.415292 0.854817
    outer loop
      vertex -249.147415 185.257401 -356.011017
      vertex -299.842194 464.905426 -473.418304
      vertex -300.151825 464.483185 -473.100464
    endloop
  endfacet
  facet normal 0.311136 0.415298 0.854823
    outer loop
      vertex -302.521881 468.984924 -474.424866
      vertex -312.656952 477.357391 -474.803528
      vertex -302.997498 468.905060 -474.212952
    endloop
  endfacet
  facet normal 0.311104 0.415275 0.854846
    outer loop
      vertex -304.399780 466.435394 -472.502777
      vertex -304.430695 466.949371 -472.741211
      vertex -312.656952 477.357391 -474.803528
    endloop
  endfacet
  facet normal 0.311131 0.415293 0.854827
    outer loop
      vertex -294.755798 477.357391 -481.319000
      vertex -312.656952 477.357391 -474.803528
      vertex -302.521881 468.984924 -474.424866
    endloop
  endfacet
  facet normal 0.311132 0.415292 0.854827
    outer loop
      vertex -302.028656 468.959076 -474.591827
      vertex -294.755798 477.357391 -481.319000
      vertex -302.521881 468.984924 -474.424866
    endloop
  endfacet
  facet normal 0.311194 0.415330 0.854786
    outer loop
      vertex -304.312347 466.051636 -472.348145
      vertex -304.399780 466.435394 -472.502777
      vertex -312.656952 477.357391 -474.803528
    endloop
  endfacet
  facet normal 0.311155 0.415273 0.854828
    outer loop
      vertex -301.521332 468.821747 -474.709778
      vertex -294.755798 477.357391 -481.319000
      vertex -302.028656 468.959076 -474.591827
    endloop
  endfacet
  facet normal 0.311081 0.415262 0.854860
    outer loop
      vertex -304.164459 465.658081 -472.210785
      vertex -304.312347 466.051636 -472.348145
      vertex -312.656952 477.357391 -474.803528
    endloop
  endfacet
  facet normal 0.311126 0.415295 0.854828
    outer loop
      vertex -301.008545 468.561646 -474.770050
      vertex -294.755798 477.357391 -481.319000
      vertex -301.521332 468.821747 -474.709778
    endloop
  endfacet
  facet normal 0.311314 0.415398 0.854710
    outer loop
      vertex -303.868835 465.145050 -472.069122
      vertex -304.164459 465.658081 -472.210785
      vertex -312.656952 477.357391 -474.803528
    endloop
  endfacet
  facet normal 0.311135 0.415289 0.854828
    outer loop
      vertex -300.531281 468.188751 -474.762604
      vertex -294.755798 477.357391 -481.319000
      vertex -301.008545 468.561646 -474.770050
    endloop
  endfacet
  facet normal 0.311108 0.415307 0.854829
    outer loop
      vertex -300.133179 467.725769 -474.682556
      vertex -294.755798 477.357391 -481.319000
      vertex -300.531281 468.188751 -474.762604
    endloop
  endfacet
  facet normal 0.311140 0.415287 0.854827
    outer loop
      vertex -299.837585 467.212708 -474.540894
      vertex -294.755798 477.357391 -481.319000
      vertex -300.133179 467.725769 -474.682556
    endloop
  endfacet
  facet normal 0.311129 0.415293 0.854828
    outer loop
      vertex -299.689667 466.819153 -474.403534
      vertex -294.755798 477.357391 -481.319000
      vertex -299.837585 467.212708 -474.540894
    endloop
  endfacet
  facet normal 0.311204 0.415253 0.854820
    outer loop
      vertex -299.602264 466.435394 -474.248932
      vertex -294.755798 477.357391 -481.319000
      vertex -299.689667 466.819153 -474.403534
    endloop
  endfacet
  facet normal 0.311078 0.415319 0.854834
    outer loop
      vertex -299.571350 465.921417 -474.010468
      vertex -294.755798 477.357391 -481.319000
      vertex -299.602264 466.435394 -474.248932
    endloop
  endfacet
  facet normal 0.939693 0.000000 -0.342020
    outer loop
      vertex -301.271271 166.207397 -499.220154
      vertex -249.147415 185.257401 -356.011017
      vertex -249.147415 166.207397 -356.011017
    endloop
  endfacet
  facet normal 0.939693 0.000000 -0.342020
    outer loop
      vertex -294.755798 477.357391 -481.319000
      vertex -249.147415 185.257401 -356.011017
      vertex -301.271271 166.207397 -499.220154
    endloop
  endfacet
  facet normal 0.939693 0.000000 -0.342019
    outer loop
      vertex -301.271271 477.357391 -499.220154
      vertex -294.755798 477.357391 -481.319000
      vertex -301.271271 166.207397 -499.220154
    endloop
  endfacet
  facet normal 0.934829 -0.101614 -0.340249
    outer loop
      vertex -304.430695 466.949371 -472.741211
      vertex -304.399780 466.435394 -472.502777
      vertex -312.620605 466.435394 -495.089355
    endloop
  endfacet
  facet normal 0.894590 -0.305516 -0.326141
    outer loop
      vertex -304.354858 467.471893 -473.022675
      vertex -304.430695 466.949371 -472.741211
      vertex -312.538879 467.096100 -495.119080
    endloop
  endfacet
  facet normal 0.931873 -0.130497 -0.338502
    outer loop
      vertex -304.430695 466.949371 -472.741211
      vertex -312.620605 466.435394 -495.089355
      vertex -312.538879 467.096100 -495.119080
    endloop
  endfacet
  facet normal 0.810141 -0.506252 -0.295601
    outer loop
      vertex -304.159851 467.965393 -473.333405
      vertex -304.354858 467.471893 -473.022675
      vertex -312.299225 467.711761 -495.206299
    endloop
  endfacet
  facet normal 0.868457 -0.382705 -0.315149
    outer loop
      vertex -304.354858 467.471893 -473.022675
      vertex -312.538879 467.096100 -495.119080
      vertex -312.299225 467.711761 -495.206299
    endloop
  endfacet
  facet normal 0.682079 -0.687583 -0.248995
    outer loop
      vertex -303.850220 468.387634 -473.651215
      vertex -304.159851 467.965393 -473.333405
      vertex -311.918030 468.240417 -495.345062
    endloop
  endfacet
  facet normal 0.745813 -0.608774 -0.270474
    outer loop
      vertex -304.159851 467.965393 -473.333405
      vertex -312.299225 467.711761 -495.206299
      vertex -311.918030 468.240417 -495.345062
    endloop
  endfacet
  facet normal 0.519131 -0.833417 -0.189524
    outer loop
      vertex -303.448456 468.706360 -473.952301
      vertex -303.850220 468.387634 -473.651215
      vertex -311.421234 468.646118 -495.525879
    endloop
  endfacet
  facet normal 0.572349 -0.793330 -0.207470
    outer loop
      vertex -303.850220 468.387634 -473.651215
      vertex -311.918030 468.240417 -495.345062
      vertex -311.421234 468.646118 -495.525879
    endloop
  endfacet
  facet normal 0.339449 -0.932474 -0.123557
    outer loop
      vertex -302.997498 468.905060 -474.212952
      vertex -303.448456 468.706360 -473.952301
      vertex -310.842712 468.901123 -495.736450
    endloop
  endfacet
  facet normal 0.142849 -0.988384 -0.051887
    outer loop
      vertex -302.521881 468.984924 -474.424866
      vertex -302.997498 468.905060 -474.212952
      vertex -310.842712 468.901123 -495.736450
    endloop
  endfacet
  facet normal 0.359779 -0.923883 -0.130381
    outer loop
      vertex -303.448456 468.706360 -473.952301
      vertex -311.421234 468.646118 -495.525879
      vertex -310.842712 468.901123 -495.736450
    endloop
  endfacet
  facet normal -0.046736 -0.998770 0.016562
    outer loop
      vertex -302.028656 468.959076 -474.591827
      vertex -302.521881 468.984924 -474.424866
      vertex -310.221863 468.988098 -495.962402
    endloop
  endfacet
  facet normal 0.122854 -0.991446 -0.044068
    outer loop
      vertex -302.521881 468.984924 -474.424866
      vertex -310.842712 468.901123 -495.736450
      vertex -310.221863 468.988098 -495.962402
    endloop
  endfacet
  facet normal -0.241350 -0.966511 0.087218
    outer loop
      vertex -301.521332 468.821747 -474.709778
      vertex -302.028656 468.959076 -474.591827
      vertex -309.601013 468.901123 -496.188385
    endloop
  endfacet
  facet normal -0.122313 -0.991446 0.045547
    outer loop
      vertex -302.028656 468.959076 -474.591827
      vertex -310.221863 468.988098 -495.962402
      vertex -309.601013 468.901123 -496.188385
    endloop
  endfacet
  facet normal -0.432078 -0.888131 0.156625
    outer loop
      vertex -301.008545 468.561646 -474.770050
      vertex -301.521332 468.821747 -474.709778
      vertex -309.022491 468.646118 -496.398956
    endloop
  endfacet
  facet normal -0.359285 -0.923883 0.131739
    outer loop
      vertex -301.521332 468.821747 -474.709778
      vertex -309.601013 468.901123 -496.188385
      vertex -309.022491 468.646118 -496.398956
    endloop
  endfacet
  facet normal -0.602840 -0.767195 0.219080
    outer loop
      vertex -300.531281 468.188751 -474.762604
      vertex -301.008545 468.561646 -474.770050
      vertex -308.525665 468.240417 -496.579773
    endloop
  endfacet
  facet normal -0.571849 -0.793346 0.208783
    outer loop
      vertex -301.008545 468.561646 -474.770050
      vertex -309.022491 468.646118 -496.398956
      vertex -308.525665 468.240417 -496.579773
    endloop
  endfacet
  facet normal -0.752152 -0.599404 0.273829
    outer loop
      vertex -300.133179 467.725769 -474.682556
      vertex -300.531281 468.188751 -474.762604
      vertex -308.144470 467.711761 -496.718536
    endloop
  endfacet
  facet normal -0.857917 -0.408086 0.312160
    outer loop
      vertex -299.837585 467.212708 -474.540894
      vertex -300.133179 467.725769 -474.682556
      vertex -308.144470 467.711761 -496.718536
    endloop
  endfacet
  facet normal -0.745374 -0.608774 0.271683
    outer loop
      vertex -300.531281 468.188751 -474.762604
      vertex -308.525665 468.240417 -496.579773
      vertex -308.144470 467.711761 -496.718536
    endloop
  endfacet
  facet normal -0.915085 -0.227798 0.332757
    outer loop
      vertex -299.689667 466.819153 -474.403534
      vertex -299.837585 467.212708 -474.540894
      vertex -307.904846 467.096100 -496.805756
    endloop
  endfacet
  facet normal -0.867981 -0.382668 0.316501
    outer loop
      vertex -299.837585 467.212708 -474.540894
      vertex -308.144470 467.711761 -496.718536
      vertex -307.904846 467.096100 -496.805756
    endloop
  endfacet
  facet normal -0.936974 -0.076011 0.341030
    outer loop
      vertex -299.602264 466.435394 -474.248932
      vertex -299.689667 466.819153 -474.403534
      vertex -307.823090 466.435394 -496.835480
    endloop
  endfacet
  facet normal -0.931349 -0.130539 0.339924
    outer loop
      vertex -299.689667 466.819153 -474.403534
      vertex -307.904846 467.096100 -496.805756
      vertex -307.823090 466.435394 -496.835480
    endloop
  endfacet
  facet normal -0.934827 0.101634 0.340249
    outer loop
      vertex -299.571350 465.921417 -474.010468
      vertex -299.602264 466.435394 -474.248932
      vertex -307.823090 466.435394 -496.835480
    endloop
  endfacet
  facet normal -0.895055 0.305104 0.325251
    outer loop
      vertex -299.647186 465.398895 -473.729004
      vertex -299.571350 465.921417 -474.010468
      vertex -307.904846 465.774719 -496.805756
    endloop
  endfacet
  facet normal -0.931439 0.130544 0.339675
    outer loop
      vertex -299.571350 465.921417 -474.010468
      vertex -307.823090 466.435394 -496.835480
      vertex -307.904846 465.774719 -496.805756
    endloop
  endfacet
  facet normal -0.810848 0.505805 0.294425
    outer loop
      vertex -299.842194 464.905426 -473.418304
      vertex -299.647186 465.398895 -473.729004
      vertex -308.144470 465.159058 -496.718536
    endloop
  endfacet
  facet normal -0.867877 0.382668 0.316788
    outer loop
      vertex -299.647186 465.398895 -473.729004
      vertex -307.904846 465.774719 -496.805756
      vertex -308.144470 465.159058 -496.718536
    endloop
  endfacet
  facet normal -0.682818 0.687269 0.247834
    outer loop
      vertex -300.151825 464.483185 -473.100464
      vertex -299.842194 464.905426 -473.418304
      vertex -308.525665 464.630371 -496.579773
    endloop
  endfacet
  facet normal -0.745218 0.608752 0.272160
    outer loop
      vertex -299.842194 464.905426 -473.418304
      vertex -308.144470 465.159058 -496.718536
      vertex -308.525665 464.630371 -496.579773
    endloop
  endfacet
  facet normal -0.519726 0.833248 0.188636
    outer loop
      vertex -300.553589 464.164429 -472.799377
      vertex -300.151825 464.483185 -473.100464
      vertex -309.022491 464.224701 -496.398956
    endloop
  endfacet
  facet normal -0.571777 0.793368 0.208896
    outer loop
      vertex -300.151825 464.483185 -473.100464
      vertex -308.525665 464.630371 -496.579773
      vertex -309.022491 464.224701 -496.398956
    endloop
  endfacet
  facet normal -0.339472 0.932467 0.123552
    outer loop
      vertex -301.004517 463.965729 -472.538727
      vertex -300.553589 464.164429 -472.799377
      vertex -309.601013 463.969696 -496.188385
    endloop
  endfacet
  facet normal -0.142771 0.988386 0.052062
    outer loop
      vertex -301.480133 463.885864 -472.326813
      vertex -301.004517 463.965729 -472.538727
      vertex -309.601013 463.969696 -496.188385
    endloop
  endfacet
  facet normal -0.359429 0.923883 0.131344
    outer loop
      vertex -300.553589 464.164429 -472.799377
      vertex -309.022491 464.224701 -496.398956
      vertex -309.601013 463.969696 -496.188385
    endloop
  endfacet
  facet normal 0.046533 0.998766 -0.017344
    outer loop
      vertex -301.973358 463.911743 -472.159851
      vertex -301.480133 463.885864 -472.326813
      vertex -310.221863 463.882690 -495.962402
    endloop
  endfacet
  facet normal -0.122497 0.991440 0.045173
    outer loop
      vertex -301.480133 463.885864 -472.326813
      vertex -309.601013 463.969696 -496.188385
      vertex -310.221863 463.882690 -495.962402
    endloop
  endfacet
  facet normal 0.241089 0.966476 -0.088321
    outer loop
      vertex -302.480682 464.049072 -472.041931
      vertex -301.973358 463.911743 -472.159851
      vertex -310.842712 463.969696 -495.736450
    endloop
  endfacet
  facet normal 0.122988 0.991440 -0.043830
    outer loop
      vertex -301.973358 463.911743 -472.159851
      vertex -310.221863 463.882690 -495.962402
      vertex -310.842712 463.969696 -495.736450
    endloop
  endfacet
  facet normal 0.431819 0.888057 -0.157756
    outer loop
      vertex -302.993500 464.309143 -471.981628
      vertex -302.480682 464.049072 -472.041931
      vertex -311.421234 464.224701 -495.525879
    endloop
  endfacet
  facet normal 0.359881 0.923883 -0.130101
    outer loop
      vertex -302.480682 464.049072 -472.041931
      vertex -310.842712 463.969696 -495.736450
      vertex -311.421234 464.224701 -495.525879
    endloop
  endfacet
  facet normal 0.602783 0.767060 -0.219709
    outer loop
      vertex -303.470734 464.682037 -471.989075
      vertex -302.993500 464.309143 -471.981628
      vertex -311.918030 464.630371 -495.345062
    endloop
  endfacet
  facet normal 0.572242 0.793352 -0.207681
    outer loop
      vertex -302.993500 464.309143 -471.981628
      vertex -311.421234 464.224701 -495.525879
      vertex -311.918030 464.630371 -495.345062
    endloop
  endfacet
  facet normal 0.752187 0.599416 -0.273708
    outer loop
      vertex -303.868835 465.145050 -472.069122
      vertex -303.470734 464.682037 -471.989075
      vertex -312.299225 465.159058 -495.206299
    endloop
  endfacet
  facet normal 0.857859 0.408081 -0.312327
    outer loop
      vertex -304.164459 465.658081 -472.210785
      vertex -303.868835 465.145050 -472.069122
      vertex -312.299225 465.159058 -495.206299
    endloop
  endfacet
  facet normal 0.745632 0.608753 -0.271024
    outer loop
      vertex -303.470734 464.682037 -471.989075
      vertex -311.918030 464.630371 -495.345062
      vertex -312.299225 465.159058 -495.206299
    endloop
  endfacet
  facet normal 0.914959 0.227484 -0.333317
    outer loop
      vertex -304.312347 466.051636 -472.348145
      vertex -304.164459 465.658081 -472.210785
      vertex -312.538879 465.774719 -495.119080
    endloop
  endfacet
  facet normal 0.868336 0.382705 -0.315483
    outer loop
      vertex -304.164459 465.658081 -472.210785
      vertex -312.299225 465.159058 -495.206299
      vertex -312.538879 465.774719 -495.119080
    endloop
  endfacet
  facet normal 0.936971 0.076058 -0.341029
    outer loop
      vertex -304.399780 466.435394 -472.502777
      vertex -304.312347 466.051636 -472.348145
      vertex -312.620605 466.435394 -495.089355
    endloop
  endfacet
  facet normal 0.931954 0.130502 -0.338277
    outer loop
      vertex -304.312347 466.051636 -472.348145
      vertex -312.538879 465.774719 -495.119080
      vertex -312.620605 466.435394 -495.089355
    endloop
  endfacet
  facet normal 0.931657 -0.130500 -0.339095
    outer loop
      vertex -303.933289 221.325394 -471.221161
      vertex -312.620605 221.325394 -495.089355
      vertex -312.538879 221.986084 -495.119080
    endloop
  endfacet
  facet normal 0.931657 -0.130500 -0.339095
    outer loop
      vertex -303.851562 221.986084 -471.250885
      vertex -303.933289 221.325394 -471.221161
      vertex -312.538879 221.986084 -495.119080
    endloop
  endfacet
  facet normal 0.868169 -0.382668 -0.315987
    outer loop
      vertex -303.611938 222.601746 -471.338104
      vertex -303.851562 221.986084 -471.250885
      vertex -312.299225 222.601746 -495.206299
    endloop
  endfacet
  facet normal 0.868154 -0.382705 -0.315982
    outer loop
      vertex -303.851562 221.986084 -471.250885
      vertex -312.538879 221.986084 -495.119080
      vertex -312.299225 222.601746 -495.206299
    endloop
  endfacet
  facet normal 0.745495 -0.608780 -0.271338
    outer loop
      vertex -303.230713 223.130432 -471.476868
      vertex -303.611938 222.601746 -471.338104
      vertex -311.918030 223.130432 -495.345062
    endloop
  endfacet
  facet normal 0.745515 -0.608752 -0.271345
    outer loop
      vertex -303.611938 222.601746 -471.338104
      vertex -312.299225 222.601746 -495.206299
      vertex -311.918030 223.130432 -495.345062
    endloop
  endfacet
  facet normal 0.572050 -0.793352 -0.208209
    outer loop
      vertex -302.733917 223.536102 -471.657684
      vertex -303.230713 223.130432 -471.476868
      vertex -311.421234 223.536102 -495.525879
    endloop
  endfacet
  facet normal 0.359615 -0.923875 -0.130889
    outer loop
      vertex -302.155396 223.791122 -471.868256
      vertex -302.733917 223.536102 -471.657684
      vertex -311.421234 223.536102 -495.525879
    endloop
  endfacet
  facet normal 0.572049 -0.793353 -0.208209
    outer loop
      vertex -303.230713 223.130432 -471.476868
      vertex -311.918030 223.130432 -495.345062
      vertex -311.421234 223.536102 -495.525879
    endloop
  endfacet
  facet normal 0.122644 -0.991446 -0.044639
    outer loop
      vertex -301.534546 223.878098 -472.094238
      vertex -302.155396 223.791122 -471.868256
      vertex -310.842712 223.791122 -495.736450
    endloop
  endfacet
  facet normal 0.359615 -0.923875 -0.130889
    outer loop
      vertex -302.155396 223.791122 -471.868256
      vertex -311.421234 223.536102 -495.525879
      vertex -310.842712 223.791122 -495.736450
    endloop
  endfacet
  facet normal 0.122646 -0.991446 -0.044640
    outer loop
      vertex -301.534546 223.878098 -472.094238
      vertex -310.842712 223.791122 -495.736450
      vertex -310.221863 223.878098 -495.962402
    endloop
  endfacet
  facet normal -0.122646 -0.991446 0.044640
    outer loop
      vertex -300.913696 223.791122 -472.320190
      vertex -301.534546 223.878098 -472.094238
      vertex -309.601013 223.791122 -496.188385
    endloop
  endfacet
  facet normal -0.122644 -0.991446 0.044639
    outer loop
      vertex -301.534546 223.878098 -472.094238
      vertex -310.221863 223.878098 -495.962402
      vertex -309.601013 223.791122 -496.188385
    endloop
  endfacet
  facet normal -0.359615 -0.923875 0.130889
    outer loop
      vertex -300.335175 223.536102 -472.530762
      vertex -300.913696 223.791122 -472.320190
      vertex -309.022491 223.536102 -496.398956
    endloop
  endfacet
  facet normal -0.359615 -0.923875 0.130889
    outer loop
      vertex -300.913696 223.791122 -472.320190
      vertex -309.601013 223.791122 -496.188385
      vertex -309.022491 223.536102 -496.398956
    endloop
  endfacet
  facet normal -0.572050 -0.793352 0.208209
    outer loop
      vertex -299.838379 223.130432 -472.711578
      vertex -300.335175 223.536102 -472.530762
      vertex -308.525665 223.130432 -496.579773
    endloop
  endfacet
  facet normal -0.745495 -0.608780 0.271337
    outer loop
      vertex -299.457153 222.601746 -472.850342
      vertex -299.838379 223.130432 -472.711578
      vertex -308.525665 223.130432 -496.579773
    endloop
  endfacet
  facet normal -0.572030 -0.793368 0.208202
    outer loop
      vertex -300.335175 223.536102 -472.530762
      vertex -309.022491 223.536102 -496.398956
      vertex -308.525665 223.130432 -496.579773
    endloop
  endfacet
  facet normal -0.745515 -0.608753 0.271345
    outer loop
      vertex -299.457153 222.601746 -472.850342
      vertex -308.525665 223.130432 -496.579773
      vertex -308.144470 222.601746 -496.718536
    endloop
  endfacet
  facet normal -0.868169 -0.382668 0.315988
    outer loop
      vertex -299.217529 221.986084 -472.937561
      vertex -299.457153 222.601746 -472.850342
      vertex -307.904846 221.986084 -496.805756
    endloop
  endfacet
  facet normal -0.868169 -0.382669 0.315988
    outer loop
      vertex -299.457153 222.601746 -472.850342
      vertex -308.144470 222.601746 -496.718536
      vertex -307.904846 221.986084 -496.805756
    endloop
  endfacet
  facet normal -0.931657 -0.130500 0.339094
    outer loop
      vertex -299.135803 221.325394 -472.967285
      vertex -299.217529 221.986084 -472.937561
      vertex -307.823090 221.325394 -496.835480
    endloop
  endfacet
  facet normal -0.931651 -0.130542 0.339094
    outer loop
      vertex -299.217529 221.986084 -472.937561
      vertex -307.904846 221.986084 -496.805756
      vertex -307.823090 221.325394 -496.835480
    endloop
  endfacet
  facet normal -0.931651 0.130545 0.339092
    outer loop
      vertex -299.135803 221.325394 -472.967285
      vertex -307.823090 221.325394 -496.835480
      vertex -307.904846 220.664719 -496.805756
    endloop
  endfacet
  facet normal -0.931656 0.130503 0.339095
    outer loop
      vertex -299.217529 220.664719 -472.937561
      vertex -299.135803 221.325394 -472.967285
      vertex -307.904846 220.664719 -496.805756
    endloop
  endfacet
  facet normal -0.868169 0.382668 0.315988
    outer loop
      vertex -299.457153 220.049057 -472.850342
      vertex -299.217529 220.664719 -472.937561
      vertex -308.144470 220.049057 -496.718536
    endloop
  endfacet
  facet normal -0.868169 0.382669 0.315988
    outer loop
      vertex -299.217529 220.664719 -472.937561
      vertex -307.904846 220.664719 -496.805756
      vertex -308.144470 220.049057 -496.718536
    endloop
  endfacet
  facet normal -0.745495 0.608780 0.271337
    outer loop
      vertex -299.838379 219.520370 -472.711578
      vertex -299.457153 220.049057 -472.850342
      vertex -308.525665 219.520370 -496.579773
    endloop
  endfacet
  facet normal -0.745515 0.608753 0.271345
    outer loop
      vertex -299.457153 220.049057 -472.850342
      vertex -308.144470 220.049057 -496.718536
      vertex -308.525665 219.520370 -496.579773
    endloop
  endfacet
  facet normal -0.572050 0.793352 0.208209
    outer loop
      vertex -300.335175 219.114700 -472.530762
      vertex -299.838379 219.520370 -472.711578
      vertex -309.022491 219.114700 -496.398956
    endloop
  endfacet
  facet normal -0.572030 0.793369 0.208201
    outer loop
      vertex -299.838379 219.520370 -472.711578
      vertex -308.525665 219.520370 -496.579773
      vertex -309.022491 219.114700 -496.398956
    endloop
  endfacet
  facet normal -0.359615 0.923875 0.130889
    outer loop
      vertex -300.913696 218.859680 -472.320190
      vertex -300.335175 219.114700 -472.530762
      vertex -309.601013 218.859680 -496.188385
    endloop
  endfacet
  facet normal -0.359615 0.923875 0.130889
    outer loop
      vertex -300.335175 219.114700 -472.530762
      vertex -309.022491 219.114700 -496.398956
      vertex -309.601013 218.859680 -496.188385
    endloop
  endfacet
  facet normal -0.122646 0.991446 0.044640
    outer loop
      vertex -301.534546 218.772705 -472.094238
      vertex -300.913696 218.859680 -472.320190
      vertex -310.221863 218.772705 -495.962402
    endloop
  endfacet
  facet normal 0.122644 0.991446 -0.044639
    outer loop
      vertex -302.155396 218.859680 -471.868256
      vertex -301.534546 218.772705 -472.094238
      vertex -310.221863 218.772705 -495.962402
    endloop
  endfacet
  facet normal -0.122644 0.991446 0.044639
    outer loop
      vertex -300.913696 218.859680 -472.320190
      vertex -309.601013 218.859680 -496.188385
      vertex -310.221863 218.772705 -495.962402
    endloop
  endfacet
  facet normal 0.122646 0.991446 -0.044640
    outer loop
      vertex -302.155396 218.859680 -471.868256
      vertex -310.221863 218.772705 -495.962402
      vertex -310.842712 218.859680 -495.736450
    endloop
  endfacet
  facet normal 0.359615 0.923875 -0.130889
    outer loop
      vertex -302.733917 219.114700 -471.657684
      vertex -302.155396 218.859680 -471.868256
      vertex -311.421234 219.114700 -495.525879
    endloop
  endfacet
  facet normal 0.572050 0.793352 -0.208209
    outer loop
      vertex -303.230713 219.520370 -471.476868
      vertex -302.733917 219.114700 -471.657684
      vertex -311.421234 219.114700 -495.525879
    endloop
  endfacet
  facet normal 0.359615 0.923875 -0.130889
    outer loop
      vertex -302.155396 218.859680 -471.868256
      vertex -310.842712 218.859680 -495.736450
      vertex -311.421234 219.114700 -495.525879
    endloop
  endfacet
  facet normal 0.572049 0.793353 -0.208209
    outer loop
      vertex -303.230713 219.520370 -471.476868
      vertex -311.421234 219.114700 -495.525879
      vertex -311.918030 219.520370 -495.345062
    endloop
  endfacet
  facet normal 0.745495 0.608780 -0.271337
    outer loop
      vertex -303.611938 220.049057 -471.338104
      vertex -303.230713 219.520370 -471.476868
      vertex -312.299225 220.049057 -495.206299
    endloop
  endfacet
  facet normal 0.745515 0.608753 -0.271345
    outer loop
      vertex -303.230713 219.520370 -471.476868
      vertex -311.918030 219.520370 -495.345062
      vertex -312.299225 220.049057 -495.206299
    endloop
  endfacet
  facet normal 0.868169 0.382668 -0.315988
    outer loop
      vertex -303.851562 220.664719 -471.250885
      vertex -303.611938 220.049057 -471.338104
      vertex -312.538879 220.664719 -495.119080
    endloop
  endfacet
  facet normal 0.868155 0.382705 -0.315982
    outer loop
      vertex -303.611938 220.049057 -471.338104
      vertex -312.299225 220.049057 -495.206299
      vertex -312.538879 220.664719 -495.119080
    endloop
  endfacet
  facet normal 0.931656 0.130503 -0.339095
    outer loop
      vertex -303.933289 221.325394 -471.221161
      vertex -303.851562 220.664719 -471.250885
      vertex -312.620605 221.325394 -495.089355
    endloop
  endfacet
  facet normal 0.931656 0.130503 -0.339095
    outer loop
      vertex -303.851562 220.664719 -471.250885
      vertex -312.538879 220.664719 -495.119080
      vertex -312.620605 221.325394 -495.089355
    endloop
  endfacet
  facet normal -0.341799 -0.000000 -0.939773
    outer loop
      vertex -299.217529 221.986084 -472.937561
      vertex -299.135803 221.325394 -472.967285
      vertex -299.217529 220.664719 -472.937561
    endloop
  endfacet
  facet normal -0.342031 -0.000000 -0.939689
    outer loop
      vertex -299.217529 221.986084 -472.937561
      vertex -299.217529 220.664719 -472.937561
      vertex -299.457153 220.049057 -472.850342
    endloop
  endfacet
  facet normal -0.342041 0.000001 -0.939685
    outer loop
      vertex -299.217529 221.986084 -472.937561
      vertex -299.457153 220.049057 -472.850342
      vertex -299.838379 219.520370 -472.711578
    endloop
  endfacet
  facet normal -0.342011 -0.000007 -0.939696
    outer loop
      vertex -299.217529 221.986084 -472.937561
      vertex -299.838379 219.520370 -472.711578
      vertex -300.335175 219.114700 -472.530762
    endloop
  endfacet
  facet normal -0.342030 0.000001 -0.939689
    outer loop
      vertex -299.217529 221.986084 -472.937561
      vertex -300.335175 219.114700 -472.530762
      vertex -300.913696 218.859680 -472.320190
    endloop
  endfacet
  facet normal -0.342045 -0.000040 -0.939684
    outer loop
      vertex -300.913696 223.791122 -472.320190
      vertex -300.335175 223.536102 -472.530762
      vertex -299.838379 223.130432 -472.711578
    endloop
  endfacet
  facet normal -0.342011 0.000023 -0.939696
    outer loop
      vertex -300.913696 223.791122 -472.320190
      vertex -299.838379 223.130432 -472.711578
      vertex -299.457153 222.601746 -472.850342
    endloop
  endfacet
  facet normal -0.342026 0.000002 -0.939690
    outer loop
      vertex -300.913696 223.791122 -472.320190
      vertex -299.457153 222.601746 -472.850342
      vertex -299.217529 221.986084 -472.937561
    endloop
  endfacet
  facet normal -0.341995 -0.000000 -0.939702
    outer loop
      vertex -300.913696 223.791122 -472.320190
      vertex -300.913696 218.859680 -472.320190
      vertex -301.534546 218.772705 -472.094238
    endloop
  endfacet
  facet normal -0.342028 -0.000000 -0.939690
    outer loop
      vertex -300.913696 223.791122 -472.320190
      vertex -299.217529 221.986084 -472.937561
      vertex -300.913696 218.859680 -472.320190
    endloop
  endfacet
  facet normal -0.342016 -0.000165 -0.939694
    outer loop
      vertex -302.155396 223.791122 -471.868256
      vertex -301.534546 223.878098 -472.094238
      vertex -300.913696 223.791122 -472.320190
    endloop
  endfacet
  facet normal -0.342036 -0.000000 -0.939687
    outer loop
      vertex -302.155396 223.791122 -471.868256
      vertex -301.534546 218.772705 -472.094238
      vertex -302.155396 218.859680 -471.868256
    endloop
  endfacet
  facet normal -0.342016 0.000003 -0.939694
    outer loop
      vertex -302.155396 223.791122 -471.868256
      vertex -300.913696 223.791122 -472.320190
      vertex -301.534546 218.772705 -472.094238
    endloop
  endfacet
  facet normal -0.342030 -0.000001 -0.939689
    outer loop
      vertex -303.851562 221.986084 -471.250885
      vertex -302.155396 218.859680 -471.868256
      vertex -302.733917 219.114700 -471.657684
    endloop
  endfacet
  facet normal -0.342011 0.000007 -0.939696
    outer loop
      vertex -303.851562 221.986084 -471.250885
      vertex -302.733917 219.114700 -471.657684
      vertex -303.230713 219.520370 -471.476868
    endloop
  endfacet
  facet normal -0.342041 -0.000001 -0.939685
    outer loop
      vertex -303.851562 221.986084 -471.250885
      vertex -303.230713 219.520370 -471.476868
      vertex -303.611938 220.049057 -471.338104
    endloop
  endfacet
  facet normal -0.342031 -0.000000 -0.939689
    outer loop
      vertex -303.851562 221.986084 -471.250885
      vertex -303.611938 220.049057 -471.338104
      vertex -303.851562 220.664719 -471.250885
    endloop
  endfacet
  facet normal -0.341799 -0.000000 -0.939773
    outer loop
      vertex -303.851562 221.986084 -471.250885
      vertex -303.851562 220.664719 -471.250885
      vertex -303.933289 221.325394 -471.221161
    endloop
  endfacet
  facet normal -0.342028 0.000000 -0.939690
    outer loop
      vertex -303.851562 221.986084 -471.250885
      vertex -302.155396 223.791122 -471.868256
      vertex -302.155396 218.859680 -471.868256
    endloop
  endfacet
  facet normal -0.342026 -0.000002 -0.939690
    outer loop
      vertex -303.611938 222.601746 -471.338104
      vertex -302.155396 223.791122 -471.868256
      vertex -303.851562 221.986084 -471.250885
    endloop
  endfacet
  facet normal -0.342045 0.000040 -0.939684
    outer loop
      vertex -303.230713 223.130432 -471.476868
      vertex -302.733917 223.536102 -471.657684
      vertex -302.155396 223.791122 -471.868256
    endloop
  endfacet
  facet normal -0.342011 -0.000023 -0.939696
    outer loop
      vertex -303.230713 223.130432 -471.476868
      vertex -302.155396 223.791122 -471.868256
      vertex -303.611938 222.601746 -471.338104
    endloop
  endfacet
endsolid Mesh
