solid Mesh
  facet normal 0.000000 -1.000000 0.000000
    outer loop
      vertex 236.170166 166.207397 -411.177826
      vertex 240.726273 166.207397 -332.874084
      vertex 234.973679 166.207397 -410.682220
    endloop
  endfacet
  facet normal 0.000000 -1.000000 0.000000
    outer loop
      vertex 240.726273 166.207397 -332.874084
      vertex 236.170166 166.207397 -411.177826
      vertex 237.197601 166.207397 -411.966217
    endloop
  endfacet
  facet normal 0.000000 -1.000000 0.000000
    outer loop
      vertex 234.973679 166.207397 -410.682220
      vertex 240.726273 166.207397 -332.874084
      vertex 233.689697 166.207397 -410.513184
    endloop
  endfacet
  facet normal 0.000000 -1.000000 0.000000
    outer loop
      vertex 240.726273 166.207397 -332.874084
      vertex 237.197601 166.207397 -411.966217
      vertex 237.985992 166.207397 -412.993652
    endloop
  endfacet
  facet normal 0.000000 -1.000000 0.000000
    outer loop
      vertex 240.726273 166.207397 -332.874084
      vertex 237.985992 166.207397 -412.993652
      vertex 238.481583 166.207397 -414.190125
    endloop
  endfacet
  facet normal 0.000000 -1.000000 0.000000
    outer loop
      vertex 240.726273 166.207397 -332.874084
      vertex 238.481583 166.207397 -414.190125
      vertex 238.650635 166.207397 -415.474121
    endloop
  endfacet
  facet normal 0.000000 -1.000000 0.000000
    outer loop
      vertex 233.689697 166.207397 -410.513184
      vertex 240.726273 166.207397 -332.874084
      vertex 227.339691 166.207397 -410.513184
    endloop
  endfacet
  facet normal -0.000000 -1.000000 0.000000
    outer loop
      vertex 227.339691 166.207397 -410.513184
      vertex 240.726273 166.207397 -332.874084
      vertex 226.055710 166.207397 -410.682220
    endloop
  endfacet
  facet normal -0.000000 -1.000000 0.000000
    outer loop
      vertex 226.055710 166.207397 -410.682220
      vertex 240.726273 166.207397 -332.874084
      vertex 224.859222 166.207397 -411.177826
    endloop
  endfacet
  facet normal -0.000000 -1.000000 0.000000
    outer loop
      vertex 224.859222 166.207397 -411.177826
      vertex 240.726273 166.207397 -332.874084
      vertex 223.831772 166.207397 -411.966217
    endloop
  endfacet
  facet normal -0.000000 -1.000000 0.000000
    outer loop
      vertex 240.726273 166.207397 -332.874084
      vertex 15.657009 166.207397 -332.874084
      vertex 111.936073 166.207397 -410.682220
    endloop
  endfacet
  facet normal 0.000000 -1.000000 0.000000
    outer loop
      vertex 113.132561 166.207397 -411.177826
      vertex 240.726273 166.207397 -332.874084
      vertex 111.936073 166.207397 -410.682220
    endloop
  endfacet
  facet normal 0.000000 -1.000000 0.000000
    outer loop
      vertex 223.831772 166.207397 -411.966217
      vertex 240.726273 166.207397 -332.874084
      vertex 114.160004 166.207397 -411.966217
    endloop
  endfacet
  facet normal 0.000000 -1.000000 0.000000
    outer loop
      vertex 240.726273 166.207397 -332.874084
      vertex 113.132561 166.207397 -411.177826
      vertex 114.160004 166.207397 -411.966217
    endloop
  endfacet
  facet normal 0.000000 -1.000000 0.000000
    outer loop
      vertex 111.936073 166.207397 -410.682220
      vertex 15.657009 166.207397 -332.874084
      vertex 110.652092 166.207397 -410.513184
    endloop
  endfacet
  facet normal 0.000000 -1.000000 0.000000
    outer loop
      vertex 223.043396 166.207397 -412.993652
      vertex 223.831772 166.207397 -411.966217
      vertex 114.948387 166.207397 -412.993652
    endloop
  endfacet
  facet normal -0.000000 -1.000000 0.000000
    outer loop
      vertex 223.831772 166.207397 -411.966217
      vertex 114.160004 166.207397 -411.966217
      vertex 114.948387 166.207397 -412.993652
    endloop
  endfacet
  facet normal 0.000000 -1.000000 0.000000
    outer loop
      vertex 222.547791 166.207397 -414.190125
      vertex 223.043396 166.207397 -412.993652
      vertex 115.443985 166.207397 -414.190125
    endloop
  endfacet
  facet normal -0.000000 -1.000000 0.000000
    outer loop
      vertex 223.043396 166.207397 -412.993652
      vertex 114.948387 166.207397 -412.993652
      vertex 115.443985 166.207397 -414.190125
    endloop
  endfacet
  facet normal 0.000000 -1.000000 0.000000
    outer loop
      vertex 222.378754 166.207397 -415.474121
      vertex 222.547791 166.207397 -414.190125
      vertex 115.613029 166.207397 -415.474121
    endloop
  endfacet
  facet normal -0.000000 -1.000000 0.000000
    outer loop
      vertex 222.547791 166.207397 -414.190125
      vertex 115.443985 166.207397 -414.190125
      vertex 115.613029 166.207397 -415.474121
    endloop
  endfacet
  facet normal 0.000000 -1.000000 0.000000
    outer loop
      vertex 110.652092 166.207397 -410.513184
      vertex 15.657009 166.207397 -332.874084
      vertex 104.302094 166.207397 -410.513184
    endloop
  endfacet
  facet normal -0.000000 -1.000000 0.000000
    outer loop
      vertex 104.302094 166.207397 -410.513184
      vertex 15.657009 166.207397 -332.874084
      vertex 103.018105 166.207397 -410.682220
    endloop
  endfacet
  facet normal 0.000000 -1.000000 0.000000
    outer loop
      vertex 222.547791 166.207397 -416.758118
      vertex 222.378754 166.207397 -415.474121
      vertex 115.443985 166.207397 -416.758118
    endloop
  endfacet
  facet normal -0.000000 -1.000000 0.000000
    outer loop
      vertex 222.378754 166.207397 -415.474121
      vertex 115.613029 166.207397 -415.474121
      vertex 115.443985 166.207397 -416.758118
    endloop
  endfacet
  facet normal -0.000000 -1.000000 0.000000
    outer loop
      vertex 103.018105 166.207397 -410.682220
      vertex 15.657009 166.207397 -332.874084
      vertex 101.821625 166.207397 -411.177826
    endloop
  endfacet
  facet normal 0.000000 -1.000000 0.000000
    outer loop
      vertex 223.043396 166.207397 -417.954590
      vertex 222.547791 166.207397 -416.758118
      vertex 114.948387 166.207397 -417.954590
    endloop
  endfacet
  facet normal -0.000000 -1.000000 0.000000
    outer loop
      vertex 222.547791 166.207397 -416.758118
      vertex 115.443985 166.207397 -416.758118
      vertex 114.948387 166.207397 -417.954590
    endloop
  endfacet
  facet normal -0.000000 -1.000000 0.000000
    outer loop
      vertex 101.821625 166.207397 -411.177826
      vertex 15.657009 166.207397 -332.874084
      vertex 100.794174 166.207397 -411.966217
    endloop
  endfacet
  facet normal 0.000000 -1.000000 0.000000
    outer loop
      vertex 223.831772 166.207397 -418.982025
      vertex 223.043396 166.207397 -417.954590
      vertex 114.160004 166.207397 -418.982025
    endloop
  endfacet
  facet normal -0.000000 -1.000000 0.000000
    outer loop
      vertex 223.043396 166.207397 -417.954590
      vertex 114.948387 166.207397 -417.954590
      vertex 114.160004 166.207397 -418.982025
    endloop
  endfacet
  facet normal -0.000000 -1.000000 0.000000
    outer loop
      vertex 100.794174 166.207397 -411.966217
      vertex 15.657009 166.207397 -332.874084
      vertex 100.005791 166.207397 -412.993652
    endloop
  endfacet
  facet normal 0.000000 -1.000000 -0.000000
    outer loop
      vertex 15.657009 166.207397 -332.874084
      vertex 1.971252 166.207397 -337.855316
      vertex 99.510193 166.207397 -414.190125
    endloop
  endfacet
  facet normal -0.000000 -1.000000 0.000000
    outer loop
      vertex 100.005791 166.207397 -412.993652
      vertex 15.657009 166.207397 -332.874084
      vertex 99.510193 166.207397 -414.190125
    endloop
  endfacet
  facet normal -0.000000 -1.000000 0.000000
    outer loop
      vertex 99.510193 166.207397 -414.190125
      vertex 1.971252 166.207397 -337.855316
      vertex 99.341156 166.207397 -415.474121
    endloop
  endfacet
  facet normal -0.000000 -1.000000 -0.000000
    outer loop
      vertex 99.341156 166.207397 -415.474121
      vertex 1.971252 166.207397 -337.855316
      vertex 99.510193 166.207397 -416.758118
    endloop
  endfacet
  facet normal 0.000000 -1.000000 -0.000000
    outer loop
      vertex 236.170166 166.207397 -419.770416
      vertex 234.973679 166.207397 -420.266022
      vertex 236.170166 166.207397 -512.777832
    endloop
  endfacet
  facet normal 0.000000 -1.000000 0.000000
    outer loop
      vertex 236.170166 166.207397 -512.777832
      vertex 234.973679 166.207397 -420.266022
      vertex 234.973679 166.207397 -512.282227
    endloop
  endfacet
  facet normal 0.000000 -1.000000 0.000000
    outer loop
      vertex 236.170166 166.207397 -419.770416
      vertex 236.170166 166.207397 -512.777832
      vertex 237.197601 166.207397 -513.566223
    endloop
  endfacet
  facet normal 0.000000 -1.000000 -0.000000
    outer loop
      vertex 237.197601 166.207397 -418.982025
      vertex 236.170166 166.207397 -419.770416
      vertex 237.197601 166.207397 -513.566223
    endloop
  endfacet
  facet normal 0.000000 -1.000000 0.000000
    outer loop
      vertex 234.973679 166.207397 -420.266022
      vertex 233.689697 166.207397 -420.435059
      vertex 233.689697 166.207397 -512.113159
    endloop
  endfacet
  facet normal 0.000000 -1.000000 0.000000
    outer loop
      vertex 234.973679 166.207397 -512.282227
      vertex 234.973679 166.207397 -420.266022
      vertex 233.689697 166.207397 -512.113159
    endloop
  endfacet
  facet normal -0.000000 -1.000000 -0.000000
    outer loop
      vertex 233.689697 166.207397 -420.435059
      vertex 227.339691 166.207397 -420.435059
      vertex 233.689697 166.207397 -512.113159
    endloop
  endfacet
  facet normal 0.000000 -1.000000 -0.000000
    outer loop
      vertex 237.985992 166.207397 -417.954590
      vertex 237.197601 166.207397 -418.982025
      vertex 237.985992 166.207397 -514.593628
    endloop
  endfacet
  facet normal 0.000000 -1.000000 0.000000
    outer loop
      vertex 237.197601 166.207397 -418.982025
      vertex 237.197601 166.207397 -513.566223
      vertex 237.985992 166.207397 -514.593628
    endloop
  endfacet
  facet normal 0.000000 -1.000000 -0.000000
    outer loop
      vertex 238.481583 166.207397 -416.758118
      vertex 237.985992 166.207397 -417.954590
      vertex 238.481583 166.207397 -515.790161
    endloop
  endfacet
  facet normal 0.000000 -1.000000 0.000000
    outer loop
      vertex 237.985992 166.207397 -417.954590
      vertex 237.985992 166.207397 -514.593628
      vertex 238.481583 166.207397 -515.790161
    endloop
  endfacet
  facet normal 0.000000 -1.000000 0.000000
    outer loop
      vertex 233.689697 166.207397 -512.113159
      vertex 227.339691 166.207397 -420.435059
      vertex 227.339691 166.207397 -512.113159
    endloop
  endfacet
  facet normal -0.000000 -1.000000 0.000000
    outer loop
      vertex 227.339691 166.207397 -420.435059
      vertex 226.055710 166.207397 -420.266022
      vertex 226.055710 166.207397 -512.282227
    endloop
  endfacet
  facet normal -0.000000 -1.000000 -0.000000
    outer loop
      vertex 226.055710 166.207397 -420.266022
      vertex 224.859222 166.207397 -419.770416
      vertex 226.055710 166.207397 -512.282227
    endloop
  endfacet
  facet normal -0.000000 -1.000000 0.000000
    outer loop
      vertex 227.339691 166.207397 -512.113159
      vertex 227.339691 166.207397 -420.435059
      vertex 226.055710 166.207397 -512.282227
    endloop
  endfacet
  facet normal -0.000000 -1.000000 -0.000000
    outer loop
      vertex 224.859222 166.207397 -419.770416
      vertex 223.831772 166.207397 -418.982025
      vertex 224.859222 166.207397 -512.777832
    endloop
  endfacet
  facet normal -0.000000 -1.000000 0.000000
    outer loop
      vertex 226.055710 166.207397 -512.282227
      vertex 224.859222 166.207397 -419.770416
      vertex 224.859222 166.207397 -512.777832
    endloop
  endfacet
  facet normal -0.000000 -1.000000 0.000000
    outer loop
      vertex 224.859222 166.207397 -512.777832
      vertex 223.831772 166.207397 -418.982025
      vertex 223.831772 166.207397 -513.566223
    endloop
  endfacet
  facet normal -0.000000 -1.000000 -0.000000
    outer loop
      vertex 223.831772 166.207397 -418.982025
      vertex 114.160004 166.207397 -418.982025
      vertex 223.831772 166.207397 -513.566223
    endloop
  endfacet
  facet normal 0.000000 -1.000000 0.000000
    outer loop
      vertex 238.481583 166.207397 -416.758118
      vertex 238.481583 166.207397 -515.790161
      vertex 336.020538 166.207397 -594.692932
    endloop
  endfacet
  facet normal -0.000000 -1.000000 -0.000000
    outer loop
      vertex 233.689697 166.207397 -522.035034
      vertex 227.339691 166.207397 -522.035034
      vertex 336.020538 166.207397 -594.692932
    endloop
  endfacet
  facet normal 0.000000 -1.000000 -0.000000
    outer loop
      vertex 238.650635 166.207397 -415.474121
      vertex 238.481583 166.207397 -416.758118
      vertex 336.020538 166.207397 -594.692932
    endloop
  endfacet
  facet normal 0.000000 -1.000000 -0.000000
    outer loop
      vertex 240.726273 166.207397 -332.874084
      vertex 238.650635 166.207397 -415.474121
      vertex 336.020538 166.207397 -594.692932
    endloop
  endfacet
  facet normal 0.000000 -1.000000 0.000000
    outer loop
      vertex 238.481583 166.207397 -515.790161
      vertex 238.650635 166.207397 -517.074097
      vertex 336.020538 166.207397 -594.692932
    endloop
  endfacet
  facet normal 0.000000 -1.000000 -0.000000
    outer loop
      vertex 238.650635 166.207397 -517.074097
      vertex 238.481583 166.207397 -518.358093
      vertex 336.020538 166.207397 -594.692932
    endloop
  endfacet
  facet normal 0.000000 -1.000000 -0.000000
    outer loop
      vertex 238.481583 166.207397 -518.358093
      vertex 237.985992 166.207397 -519.554565
      vertex 336.020538 166.207397 -594.692932
    endloop
  endfacet
  facet normal 0.000000 -1.000000 -0.000000
    outer loop
      vertex 237.985992 166.207397 -519.554565
      vertex 237.197601 166.207397 -520.582031
      vertex 336.020538 166.207397 -594.692932
    endloop
  endfacet
  facet normal 0.000000 -1.000000 -0.000000
    outer loop
      vertex 237.197601 166.207397 -520.582031
      vertex 236.170166 166.207397 -521.370422
      vertex 336.020538 166.207397 -594.692932
    endloop
  endfacet
  facet normal 0.000000 -1.000000 -0.000000
    outer loop
      vertex 236.170166 166.207397 -521.370422
      vertex 234.973679 166.207397 -521.866028
      vertex 336.020538 166.207397 -594.692932
    endloop
  endfacet
  facet normal 0.000000 -1.000000 -0.000000
    outer loop
      vertex 234.973679 166.207397 -521.866028
      vertex 233.689697 166.207397 -522.035034
      vertex 336.020538 166.207397 -594.692932
    endloop
  endfacet
  facet normal 0.000000 -1.000000 -0.000000
    outer loop
      vertex 113.132561 166.207397 -419.770416
      vertex 111.936073 166.207397 -420.266022
      vertex 113.132561 166.207397 -512.777832
    endloop
  endfacet
  facet normal 0.000000 -1.000000 0.000000
    outer loop
      vertex 113.132561 166.207397 -512.777832
      vertex 111.936073 166.207397 -420.266022
      vertex 111.936073 166.207397 -512.282227
    endloop
  endfacet
  facet normal 0.000000 -1.000000 0.000000
    outer loop
      vertex 223.831772 166.207397 -513.566223
      vertex 114.160004 166.207397 -418.982025
      vertex 114.160004 166.207397 -513.566223
    endloop
  endfacet
  facet normal 0.000000 -1.000000 0.000000
    outer loop
      vertex 113.132561 166.207397 -419.770416
      vertex 113.132561 166.207397 -512.777832
      vertex 114.160004 166.207397 -513.566223
    endloop
  endfacet
  facet normal 0.000000 -1.000000 -0.000000
    outer loop
      vertex 114.160004 166.207397 -418.982025
      vertex 113.132561 166.207397 -419.770416
      vertex 114.160004 166.207397 -513.566223
    endloop
  endfacet
  facet normal 0.000000 -1.000000 0.000000
    outer loop
      vertex 111.936073 166.207397 -420.266022
      vertex 110.652092 166.207397 -420.435059
      vertex 110.652092 166.207397 -512.113159
    endloop
  endfacet
  facet normal -0.000000 -1.000000 -0.000000
    outer loop
      vertex 110.652092 166.207397 -420.435059
      vertex 104.302094 166.207397 -420.435059
      vertex 110.652092 166.207397 -512.113159
    endloop
  endfacet
  facet normal 0.000000 -1.000000 0.000000
    outer loop
      vertex 111.936073 166.207397 -512.282227
      vertex 111.936073 166.207397 -420.266022
      vertex 110.652092 166.207397 -512.113159
    endloop
  endfacet
  facet normal 0.000000 -1.000000 0.000000
    outer loop
      vertex 223.043396 166.207397 -514.593628
      vertex 223.831772 166.207397 -513.566223
      vertex 114.948387 166.207397 -514.593628
    endloop
  endfacet
  facet normal -0.000000 -1.000000 0.000000
    outer loop
      vertex 223.831772 166.207397 -513.566223
      vertex 114.160004 166.207397 -513.566223
      vertex 114.948387 166.207397 -514.593628
    endloop
  endfacet
  facet normal 0.000000 -1.000000 0.000000
    outer loop
      vertex 222.547791 166.207397 -515.790161
      vertex 223.043396 166.207397 -514.593628
      vertex 115.443985 166.207397 -515.790161
    endloop
  endfacet
  facet normal -0.000000 -1.000000 0.000000
    outer loop
      vertex 223.043396 166.207397 -514.593628
      vertex 114.948387 166.207397 -514.593628
      vertex 115.443985 166.207397 -515.790161
    endloop
  endfacet
  facet normal 0.000000 -1.000000 0.000000
    outer loop
      vertex 222.378754 166.207397 -517.074097
      vertex 222.547791 166.207397 -515.790161
      vertex 115.613029 166.207397 -517.074097
    endloop
  endfacet
  facet normal -0.000000 -1.000000 0.000000
    outer loop
      vertex 222.547791 166.207397 -515.790161
      vertex 115.443985 166.207397 -515.790161
      vertex 115.613029 166.207397 -517.074097
    endloop
  endfacet
  facet normal 0.000000 -1.000000 0.000000
    outer loop
      vertex 110.652092 166.207397 -512.113159
      vertex 104.302094 166.207397 -420.435059
      vertex 104.302094 166.207397 -512.113159
    endloop
  endfacet
  facet normal -0.000000 -1.000000 0.000000
    outer loop
      vertex 104.302094 166.207397 -420.435059
      vertex 103.018105 166.207397 -420.266022
      vertex 103.018105 166.207397 -512.282227
    endloop
  endfacet
  facet normal -0.000000 -1.000000 -0.000000
    outer loop
      vertex 103.018105 166.207397 -420.266022
      vertex 101.821625 166.207397 -419.770416
      vertex 103.018105 166.207397 -512.282227
    endloop
  endfacet
  facet normal -0.000000 -1.000000 0.000000
    outer loop
      vertex 104.302094 166.207397 -512.113159
      vertex 104.302094 166.207397 -420.435059
      vertex 103.018105 166.207397 -512.282227
    endloop
  endfacet
  facet normal 0.000000 -1.000000 0.000000
    outer loop
      vertex 222.547791 166.207397 -518.358093
      vertex 222.378754 166.207397 -517.074097
      vertex 115.443985 166.207397 -518.358093
    endloop
  endfacet
  facet normal -0.000000 -1.000000 0.000000
    outer loop
      vertex 222.378754 166.207397 -517.074097
      vertex 115.613029 166.207397 -517.074097
      vertex 115.443985 166.207397 -518.358093
    endloop
  endfacet
  facet normal -0.000000 -1.000000 0.000000
    outer loop
      vertex 103.018105 166.207397 -512.282227
      vertex 101.821625 166.207397 -419.770416
      vertex 101.821625 166.207397 -512.777832
    endloop
  endfacet
  facet normal -0.000000 -1.000000 -0.000000
    outer loop
      vertex 101.821625 166.207397 -419.770416
      vertex 100.794174 166.207397 -418.982025
      vertex 101.821625 166.207397 -512.777832
    endloop
  endfacet
  facet normal 0.000000 -1.000000 0.000000
    outer loop
      vertex 223.043396 166.207397 -519.554565
      vertex 222.547791 166.207397 -518.358093
      vertex 114.948387 166.207397 -519.554565
    endloop
  endfacet
  facet normal -0.000000 -1.000000 0.000000
    outer loop
      vertex 222.547791 166.207397 -518.358093
      vertex 115.443985 166.207397 -518.358093
      vertex 114.948387 166.207397 -519.554565
    endloop
  endfacet
  facet normal -0.000000 -1.000000 -0.000000
    outer loop
      vertex 100.794174 166.207397 -418.982025
      vertex 100.005791 166.207397 -417.954590
      vertex 100.794174 166.207397 -513.566223
    endloop
  endfacet
  facet normal -0.000000 -1.000000 0.000000
    outer loop
      vertex 101.821625 166.207397 -512.777832
      vertex 100.794174 166.207397 -418.982025
      vertex 100.794174 166.207397 -513.566223
    endloop
  endfacet
  facet normal -0.000000 -1.000000 0.000000
    outer loop
      vertex 223.043396 166.207397 -519.554565
      vertex 114.948387 166.207397 -519.554565
      vertex 114.160004 166.207397 -520.582031
    endloop
  endfacet
  facet normal 0.000000 -1.000000 0.000000
    outer loop
      vertex 223.831772 166.207397 -520.582031
      vertex 223.043396 166.207397 -519.554565
      vertex 114.160004 166.207397 -520.582031
    endloop
  endfacet
  facet normal -0.000000 -1.000000 -0.000000
    outer loop
      vertex 100.005791 166.207397 -417.954590
      vertex 99.510193 166.207397 -416.758118
      vertex 100.005791 166.207397 -514.593628
    endloop
  endfacet
  facet normal -0.000000 -1.000000 0.000000
    outer loop
      vertex 100.794174 166.207397 -513.566223
      vertex 100.005791 166.207397 -417.954590
      vertex 100.005791 166.207397 -514.593628
    endloop
  endfacet
  facet normal -0.000000 -1.000000 0.000000
    outer loop
      vertex 223.831772 166.207397 -520.582031
      vertex 114.160004 166.207397 -520.582031
      vertex 113.132561 166.207397 -521.370422
    endloop
  endfacet
  facet normal 0.000000 -1.000000 0.000000
    outer loop
      vertex 224.859222 166.207397 -521.370422
      vertex 223.831772 166.207397 -520.582031
      vertex 113.132561 166.207397 -521.370422
    endloop
  endfacet
  facet normal -0.000000 -1.000000 -0.000000
    outer loop
      vertex 99.510193 166.207397 -416.758118
      vertex 1.971252 166.207397 -337.855316
      vertex 99.510193 166.207397 -515.790161
    endloop
  endfacet
  facet normal -0.000000 -1.000000 0.000000
    outer loop
      vertex 100.005791 166.207397 -514.593628
      vertex 99.510193 166.207397 -416.758118
      vertex 99.510193 166.207397 -515.790161
    endloop
  endfacet
  facet normal -0.000000 -1.000000 0.000000
    outer loop
      vertex 99.510193 166.207397 -515.790161
      vertex 1.971252 166.207397 -337.855316
      vertex 99.341156 166.207397 -517.074097
    endloop
  endfacet
  facet normal -0.000000 -1.000000 0.000000
    outer loop
      vertex 224.859222 166.207397 -521.370422
      vertex 113.132561 166.207397 -521.370422
      vertex 123.593613 166.207397 -672.010010
    endloop
  endfacet
  facet normal -0.000000 -1.000000 0.000000
    outer loop
      vertex 336.020538 166.207397 -594.692932
      vertex 227.339691 166.207397 -522.035034
      vertex 123.593613 166.207397 -672.010010
    endloop
  endfacet
  facet normal 0.000000 -1.000000 -0.000000
    outer loop
      vertex 113.132561 166.207397 -521.370422
      vertex 111.936073 166.207397 -521.866028
      vertex 123.593613 166.207397 -672.010010
    endloop
  endfacet
  facet normal 0.000000 -1.000000 -0.000000
    outer loop
      vertex 111.936073 166.207397 -521.866028
      vertex 110.652092 166.207397 -522.035034
      vertex 123.593613 166.207397 -672.010010
    endloop
  endfacet
  facet normal -0.000000 -1.000000 -0.000000
    outer loop
      vertex 104.302094 166.207397 -522.035034
      vertex 103.018105 166.207397 -521.866028
      vertex 123.593613 166.207397 -672.010010
    endloop
  endfacet
  facet normal -0.000000 -1.000000 -0.000000
    outer loop
      vertex 103.018105 166.207397 -521.866028
      vertex 101.821625 166.207397 -521.370422
      vertex 123.593613 166.207397 -672.010010
    endloop
  endfacet
  facet normal -0.000000 -1.000000 -0.000000
    outer loop
      vertex 101.821625 166.207397 -521.370422
      vertex 100.794174 166.207397 -520.582031
      vertex 123.593613 166.207397 -672.010010
    endloop
  endfacet
  facet normal -0.000000 -1.000000 -0.000000
    outer loop
      vertex 100.794174 166.207397 -520.582031
      vertex 100.005791 166.207397 -519.554565
      vertex 123.593613 166.207397 -672.010010
    endloop
  endfacet
  facet normal -0.000000 -1.000000 -0.000000
    outer loop
      vertex 110.652092 166.207397 -522.035034
      vertex 104.302094 166.207397 -522.035034
      vertex 123.593613 166.207397 -672.010010
    endloop
  endfacet
  facet normal -0.000000 -1.000000 0.000000
    outer loop
      vertex 227.339691 166.207397 -522.035034
      vertex 226.055710 166.207397 -521.866028
      vertex 123.593613 166.207397 -672.010010
    endloop
  endfacet
  facet normal -0.000000 -1.000000 0.000000
    outer loop
      vertex 226.055710 166.207397 -521.866028
      vertex 224.859222 166.207397 -521.370422
      vertex 123.593613 166.207397 -672.010010
    endloop
  endfacet
  facet normal -0.000000 -1.000000 -0.000000
    outer loop
      vertex 99.510193 166.207397 -518.358093
      vertex 1.971252 166.207397 -337.855316
      vertex 123.593613 166.207397 -672.010010
    endloop
  endfacet
  facet normal -0.000000 -1.000000 -0.000000
    outer loop
      vertex 100.005791 166.207397 -519.554565
      vertex 99.510193 166.207397 -518.358093
      vertex 123.593613 166.207397 -672.010010
    endloop
  endfacet
  facet normal -0.000000 -1.000000 -0.000000
    outer loop
      vertex 99.341156 166.207397 -517.074097
      vertex 1.971252 166.207397 -337.855316
      vertex 99.510193 166.207397 -518.358093
    endloop
  endfacet
  facet normal -0.130524 0.000000 -0.991445
    outer loop
      vertex 111.936073 166.207397 -410.682220
      vertex 110.652092 166.207397 -410.513184
      vertex 111.936073 185.257401 -410.682220
    endloop
  endfacet
  facet normal -0.130524 0.000000 -0.991445
    outer loop
      vertex 110.652092 166.207397 -410.513184
      vertex 110.652092 185.257401 -410.513184
      vertex 111.936073 185.257401 -410.682220
    endloop
  endfacet
  facet normal -0.382686 0.000000 -0.923878
    outer loop
      vertex 113.132561 166.207397 -411.177826
      vertex 111.936073 166.207397 -410.682220
      vertex 113.132561 185.257401 -411.177826
    endloop
  endfacet
  facet normal -0.608765 0.000000 -0.793351
    outer loop
      vertex 114.160004 166.207397 -411.966217
      vertex 113.132561 166.207397 -411.177826
      vertex 113.132561 185.257401 -411.177826
    endloop
  endfacet
  facet normal -0.382686 0.000000 -0.923878
    outer loop
      vertex 111.936073 166.207397 -410.682220
      vertex 111.936073 185.257401 -410.682220
      vertex 113.132561 185.257401 -411.177826
    endloop
  endfacet
  facet normal -0.608765 0.000000 -0.793351
    outer loop
      vertex 114.160004 166.207397 -411.966217
      vertex 113.132561 185.257401 -411.177826
      vertex 114.160004 185.257401 -411.966217
    endloop
  endfacet
  facet normal -0.793352 0.000000 -0.608764
    outer loop
      vertex 114.948387 166.207397 -412.993652
      vertex 114.160004 166.207397 -411.966217
      vertex 114.948387 185.257401 -412.993652
    endloop
  endfacet
  facet normal -0.793352 0.000000 -0.608764
    outer loop
      vertex 114.160004 166.207397 -411.966217
      vertex 114.160004 185.257401 -411.966217
      vertex 114.948387 185.257401 -412.993652
    endloop
  endfacet
  facet normal -0.923879 0.000000 -0.382685
    outer loop
      vertex 115.443985 166.207397 -414.190125
      vertex 114.948387 166.207397 -412.993652
      vertex 115.443985 185.257401 -414.190125
    endloop
  endfacet
  facet normal -0.923879 0.000000 -0.382685
    outer loop
      vertex 114.948387 166.207397 -412.993652
      vertex 114.948387 185.257401 -412.993652
      vertex 115.443985 185.257401 -414.190125
    endloop
  endfacet
  facet normal -0.991445 0.000000 -0.130529
    outer loop
      vertex 115.613029 166.207397 -415.474121
      vertex 115.443985 166.207397 -414.190125
      vertex 115.613029 185.257401 -415.474121
    endloop
  endfacet
  facet normal -0.991445 0.000000 0.130529
    outer loop
      vertex 115.443985 166.207397 -416.758118
      vertex 115.613029 166.207397 -415.474121
      vertex 115.613029 185.257401 -415.474121
    endloop
  endfacet
  facet normal -0.991445 0.000000 -0.130529
    outer loop
      vertex 115.443985 166.207397 -414.190125
      vertex 115.443985 185.257401 -414.190125
      vertex 115.613029 185.257401 -415.474121
    endloop
  endfacet
  facet normal -0.991445 0.000000 0.130529
    outer loop
      vertex 115.443985 166.207397 -416.758118
      vertex 115.613029 185.257401 -415.474121
      vertex 115.443985 185.257401 -416.758118
    endloop
  endfacet
  facet normal -0.923879 0.000000 0.382685
    outer loop
      vertex 114.948387 166.207397 -417.954590
      vertex 115.443985 166.207397 -416.758118
      vertex 114.948387 185.257401 -417.954590
    endloop
  endfacet
  facet normal -0.923879 0.000000 0.382685
    outer loop
      vertex 115.443985 166.207397 -416.758118
      vertex 115.443985 185.257401 -416.758118
      vertex 114.948387 185.257401 -417.954590
    endloop
  endfacet
  facet normal -0.793352 0.000000 0.608764
    outer loop
      vertex 114.160004 166.207397 -418.982025
      vertex 114.948387 166.207397 -417.954590
      vertex 114.160004 185.257401 -418.982025
    endloop
  endfacet
  facet normal -0.793352 0.000000 0.608764
    outer loop
      vertex 114.948387 166.207397 -417.954590
      vertex 114.948387 185.257401 -417.954590
      vertex 114.160004 185.257401 -418.982025
    endloop
  endfacet
  facet normal -0.608765 0.000000 0.793351
    outer loop
      vertex 113.132561 166.207397 -419.770416
      vertex 114.160004 166.207397 -418.982025
      vertex 113.132561 185.257401 -419.770416
    endloop
  endfacet
  facet normal -0.608765 0.000000 0.793351
    outer loop
      vertex 114.160004 166.207397 -418.982025
      vertex 114.160004 185.257401 -418.982025
      vertex 113.132561 185.257401 -419.770416
    endloop
  endfacet
  facet normal -0.382686 0.000000 0.923878
    outer loop
      vertex 111.936073 166.207397 -420.266022
      vertex 113.132561 166.207397 -419.770416
      vertex 111.936073 185.257401 -420.266022
    endloop
  endfacet
  facet normal -0.382686 0.000000 0.923878
    outer loop
      vertex 113.132561 166.207397 -419.770416
      vertex 113.132561 185.257401 -419.770416
      vertex 111.936073 185.257401 -420.266022
    endloop
  endfacet
  facet normal -0.130524 0.000000 0.991445
    outer loop
      vertex 110.652092 166.207397 -420.435059
      vertex 111.936073 166.207397 -420.266022
      vertex 110.652092 185.257401 -420.435059
    endloop
  endfacet
  facet normal -0.130524 0.000000 0.991445
    outer loop
      vertex 111.936073 166.207397 -420.266022
      vertex 111.936073 185.257401 -420.266022
      vertex 110.652092 185.257401 -420.435059
    endloop
  endfacet
  facet normal 0.000000 0.000000 1.000000
    outer loop
      vertex 104.302094 166.207397 -420.435059
      vertex 110.652092 166.207397 -420.435059
      vertex 104.302094 185.257401 -420.435059
    endloop
  endfacet
  facet normal 0.000000 -0.000000 1.000000
    outer loop
      vertex 110.652092 166.207397 -420.435059
      vertex 110.652092 185.257401 -420.435059
      vertex 104.302094 185.257401 -420.435059
    endloop
  endfacet
  facet normal 0.130524 -0.000000 0.991445
    outer loop
      vertex 103.018105 166.207397 -420.266022
      vertex 104.302094 166.207397 -420.435059
      vertex 103.018105 185.257401 -420.266022
    endloop
  endfacet
  facet normal 0.130524 -0.000000 0.991445
    outer loop
      vertex 104.302094 166.207397 -420.435059
      vertex 104.302094 185.257401 -420.435059
      vertex 103.018105 185.257401 -420.266022
    endloop
  endfacet
  facet normal 0.382688 -0.000000 0.923878
    outer loop
      vertex 101.821625 166.207397 -419.770416
      vertex 103.018105 166.207397 -420.266022
      vertex 101.821625 185.257401 -419.770416
    endloop
  endfacet
  facet normal 0.382688 -0.000000 0.923878
    outer loop
      vertex 103.018105 166.207397 -420.266022
      vertex 103.018105 185.257401 -420.266022
      vertex 101.821625 185.257401 -419.770416
    endloop
  endfacet
  facet normal 0.608762 -0.000000 0.793353
    outer loop
      vertex 100.794174 166.207397 -418.982025
      vertex 101.821625 166.207397 -419.770416
      vertex 100.794174 185.257401 -418.982025
    endloop
  endfacet
  facet normal 0.608762 -0.000000 0.793353
    outer loop
      vertex 101.821625 166.207397 -419.770416
      vertex 101.821625 185.257401 -419.770416
      vertex 100.794174 185.257401 -418.982025
    endloop
  endfacet
  facet normal 0.793352 -0.000000 0.608764
    outer loop
      vertex 100.005791 166.207397 -417.954590
      vertex 100.794174 166.207397 -418.982025
      vertex 100.005791 185.257401 -417.954590
    endloop
  endfacet
  facet normal 0.793352 -0.000000 0.608764
    outer loop
      vertex 100.794174 166.207397 -418.982025
      vertex 100.794174 185.257401 -418.982025
      vertex 100.005791 185.257401 -417.954590
    endloop
  endfacet
  facet normal 0.923879 -0.000000 0.382685
    outer loop
      vertex 99.510193 166.207397 -416.758118
      vertex 100.005791 166.207397 -417.954590
      vertex 99.510193 185.257401 -416.758118
    endloop
  endfacet
  facet normal 0.923879 -0.000000 0.382685
    outer loop
      vertex 100.005791 166.207397 -417.954590
      vertex 100.005791 185.257401 -417.954590
      vertex 99.510193 185.257401 -416.758118
    endloop
  endfacet
  facet normal 0.991445 -0.000000 0.130523
    outer loop
      vertex 99.341156 166.207397 -415.474121
      vertex 99.510193 166.207397 -416.758118
      vertex 99.341156 185.257401 -415.474121
    endloop
  endfacet
  facet normal 0.991445 0.000000 -0.130523
    outer loop
      vertex 99.510193 166.207397 -414.190125
      vertex 99.341156 166.207397 -415.474121
      vertex 99.341156 185.257401 -415.474121
    endloop
  endfacet
  facet normal 0.991445 -0.000000 0.130523
    outer loop
      vertex 99.510193 166.207397 -416.758118
      vertex 99.510193 185.257401 -416.758118
      vertex 99.341156 185.257401 -415.474121
    endloop
  endfacet
  facet normal 0.991445 0.000000 -0.130523
    outer loop
      vertex 99.510193 166.207397 -414.190125
      vertex 99.341156 185.257401 -415.474121
      vertex 99.510193 185.257401 -414.190125
    endloop
  endfacet
  facet normal 0.923879 0.000000 -0.382685
    outer loop
      vertex 100.005791 166.207397 -412.993652
      vertex 99.510193 166.207397 -414.190125
      vertex 100.005791 185.257401 -412.993652
    endloop
  endfacet
  facet normal 0.923879 0.000000 -0.382685
    outer loop
      vertex 99.510193 166.207397 -414.190125
      vertex 99.510193 185.257401 -414.190125
      vertex 100.005791 185.257401 -412.993652
    endloop
  endfacet
  facet normal 0.793352 0.000000 -0.608764
    outer loop
      vertex 100.794174 166.207397 -411.966217
      vertex 100.005791 166.207397 -412.993652
      vertex 100.794174 185.257401 -411.966217
    endloop
  endfacet
  facet normal 0.793352 0.000000 -0.608764
    outer loop
      vertex 100.005791 166.207397 -412.993652
      vertex 100.005791 185.257401 -412.993652
      vertex 100.794174 185.257401 -411.966217
    endloop
  endfacet
  facet normal 0.608762 0.000000 -0.793353
    outer loop
      vertex 101.821625 166.207397 -411.177826
      vertex 100.794174 166.207397 -411.966217
      vertex 101.821625 185.257401 -411.177826
    endloop
  endfacet
  facet normal 0.608762 0.000000 -0.793353
    outer loop
      vertex 100.794174 166.207397 -411.966217
      vertex 100.794174 185.257401 -411.966217
      vertex 101.821625 185.257401 -411.177826
    endloop
  endfacet
  facet normal 0.382688 0.000000 -0.923878
    outer loop
      vertex 103.018105 166.207397 -410.682220
      vertex 101.821625 166.207397 -411.177826
      vertex 103.018105 185.257401 -410.682220
    endloop
  endfacet
  facet normal 0.382688 0.000000 -0.923878
    outer loop
      vertex 101.821625 166.207397 -411.177826
      vertex 101.821625 185.257401 -411.177826
      vertex 103.018105 185.257401 -410.682220
    endloop
  endfacet
  facet normal 0.130524 0.000000 -0.991445
    outer loop
      vertex 104.302094 166.207397 -410.513184
      vertex 103.018105 166.207397 -410.682220
      vertex 104.302094 185.257401 -410.513184
    endloop
  endfacet
  facet normal 0.130524 0.000000 -0.991445
    outer loop
      vertex 103.018105 166.207397 -410.682220
      vertex 103.018105 185.257401 -410.682220
      vertex 104.302094 185.257401 -410.513184
    endloop
  endfacet
  facet normal 0.000000 0.000000 -1.000000
    outer loop
      vertex 110.652092 166.207397 -410.513184
      vertex 104.302094 166.207397 -410.513184
      vertex 110.652092 185.257401 -410.513184
    endloop
  endfacet
  facet normal 0.000000 0.000000 -1.000000
    outer loop
      vertex 104.302094 166.207397 -410.513184
      vertex 104.302094 185.257401 -410.513184
      vertex 110.652092 185.257401 -410.513184
    endloop
  endfacet
  facet normal -0.000000 1.000000 0.000000
    outer loop
      vertex 234.973679 185.257401 -410.682220
      vertex 240.726273 185.257401 -332.874084
      vertex 236.170166 185.257401 -411.177826
    endloop
  endfacet
  facet normal 0.000000 1.000000 -0.000000
    outer loop
      vertex 237.197601 185.257401 -411.966217
      vertex 236.170166 185.257401 -411.177826
      vertex 240.726273 185.257401 -332.874084
    endloop
  endfacet
  facet normal -0.000000 1.000000 0.000000
    outer loop
      vertex 233.689697 185.257401 -410.513184
      vertex 240.726273 185.257401 -332.874084
      vertex 234.973679 185.257401 -410.682220
    endloop
  endfacet
  facet normal 0.000000 1.000000 -0.000000
    outer loop
      vertex 237.985992 185.257401 -412.993652
      vertex 237.197601 185.257401 -411.966217
      vertex 240.726273 185.257401 -332.874084
    endloop
  endfacet
  facet normal 0.000000 1.000000 -0.000000
    outer loop
      vertex 238.481583 185.257401 -414.190125
      vertex 237.985992 185.257401 -412.993652
      vertex 240.726273 185.257401 -332.874084
    endloop
  endfacet
  facet normal 0.000000 1.000000 -0.000000
    outer loop
      vertex 238.650635 185.257401 -415.474121
      vertex 238.481583 185.257401 -414.190125
      vertex 240.726273 185.257401 -332.874084
    endloop
  endfacet
  facet normal 0.000000 1.000000 0.000000
    outer loop
      vertex 227.339691 185.257401 -410.513184
      vertex 240.726273 185.257401 -332.874084
      vertex 233.689697 185.257401 -410.513184
    endloop
  endfacet
  facet normal 0.000000 1.000000 0.000000
    outer loop
      vertex 226.055710 185.257401 -410.682220
      vertex 240.726273 185.257401 -332.874084
      vertex 227.339691 185.257401 -410.513184
    endloop
  endfacet
  facet normal 0.000000 1.000000 0.000000
    outer loop
      vertex 224.859222 185.257401 -411.177826
      vertex 240.726273 185.257401 -332.874084
      vertex 226.055710 185.257401 -410.682220
    endloop
  endfacet
  facet normal 0.000000 1.000000 0.000000
    outer loop
      vertex 223.831772 185.257401 -411.966217
      vertex 240.726273 185.257401 -332.874084
      vertex 224.859222 185.257401 -411.177826
    endloop
  endfacet
  facet normal 0.000000 1.000000 -0.000000
    outer loop
      vertex 111.936073 185.257401 -410.682220
      vertex 15.657009 185.257401 -332.874084
      vertex 240.726273 185.257401 -332.874084
    endloop
  endfacet
  facet normal -0.000000 1.000000 0.000000
    outer loop
      vertex 111.936073 185.257401 -410.682220
      vertex 240.726273 185.257401 -332.874084
      vertex 113.132561 185.257401 -411.177826
    endloop
  endfacet
  facet normal 0.000000 1.000000 0.000000
    outer loop
      vertex 114.160004 185.257401 -411.966217
      vertex 240.726273 185.257401 -332.874084
      vertex 223.831772 185.257401 -411.966217
    endloop
  endfacet
  facet normal 0.000000 1.000000 -0.000000
    outer loop
      vertex 114.160004 185.257401 -411.966217
      vertex 113.132561 185.257401 -411.177826
      vertex 240.726273 185.257401 -332.874084
    endloop
  endfacet
  facet normal -0.000000 1.000000 -0.000000
    outer loop
      vertex 110.652092 185.257401 -410.513184
      vertex 15.657009 185.257401 -332.874084
      vertex 111.936073 185.257401 -410.682220
    endloop
  endfacet
  facet normal 0.000000 1.000000 0.000000
    outer loop
      vertex 114.948387 185.257401 -412.993652
      vertex 223.831772 185.257401 -411.966217
      vertex 223.043396 185.257401 -412.993652
    endloop
  endfacet
  facet normal 0.000000 1.000000 -0.000000
    outer loop
      vertex 114.948387 185.257401 -412.993652
      vertex 114.160004 185.257401 -411.966217
      vertex 223.831772 185.257401 -411.966217
    endloop
  endfacet
  facet normal 0.000000 1.000000 0.000000
    outer loop
      vertex 115.443985 185.257401 -414.190125
      vertex 223.043396 185.257401 -412.993652
      vertex 222.547791 185.257401 -414.190125
    endloop
  endfacet
  facet normal 0.000000 1.000000 -0.000000
    outer loop
      vertex 115.443985 185.257401 -414.190125
      vertex 114.948387 185.257401 -412.993652
      vertex 223.043396 185.257401 -412.993652
    endloop
  endfacet
  facet normal 0.000000 1.000000 0.000000
    outer loop
      vertex 115.613029 185.257401 -415.474121
      vertex 222.547791 185.257401 -414.190125
      vertex 222.378754 185.257401 -415.474121
    endloop
  endfacet
  facet normal 0.000000 1.000000 -0.000000
    outer loop
      vertex 115.613029 185.257401 -415.474121
      vertex 115.443985 185.257401 -414.190125
      vertex 222.547791 185.257401 -414.190125
    endloop
  endfacet
  facet normal 0.000000 1.000000 -0.000000
    outer loop
      vertex 104.302094 185.257401 -410.513184
      vertex 15.657009 185.257401 -332.874084
      vertex 110.652092 185.257401 -410.513184
    endloop
  endfacet
  facet normal 0.000000 1.000000 -0.000000
    outer loop
      vertex 103.018105 185.257401 -410.682220
      vertex 15.657009 185.257401 -332.874084
      vertex 104.302094 185.257401 -410.513184
    endloop
  endfacet
  facet normal 0.000000 1.000000 0.000000
    outer loop
      vertex 115.443985 185.257401 -416.758118
      vertex 222.378754 185.257401 -415.474121
      vertex 222.547791 185.257401 -416.758118
    endloop
  endfacet
  facet normal 0.000000 1.000000 0.000000
    outer loop
      vertex 115.443985 185.257401 -416.758118
      vertex 115.613029 185.257401 -415.474121
      vertex 222.378754 185.257401 -415.474121
    endloop
  endfacet
  facet normal 0.000000 1.000000 -0.000000
    outer loop
      vertex 101.821625 185.257401 -411.177826
      vertex 15.657009 185.257401 -332.874084
      vertex 103.018105 185.257401 -410.682220
    endloop
  endfacet
  facet normal 0.000000 1.000000 0.000000
    outer loop
      vertex 114.948387 185.257401 -417.954590
      vertex 222.547791 185.257401 -416.758118
      vertex 223.043396 185.257401 -417.954590
    endloop
  endfacet
  facet normal 0.000000 1.000000 0.000000
    outer loop
      vertex 114.948387 185.257401 -417.954590
      vertex 115.443985 185.257401 -416.758118
      vertex 222.547791 185.257401 -416.758118
    endloop
  endfacet
  facet normal 0.000000 1.000000 -0.000000
    outer loop
      vertex 100.794174 185.257401 -411.966217
      vertex 15.657009 185.257401 -332.874084
      vertex 101.821625 185.257401 -411.177826
    endloop
  endfacet
  facet normal 0.000000 1.000000 0.000000
    outer loop
      vertex 114.160004 185.257401 -418.982025
      vertex 223.043396 185.257401 -417.954590
      vertex 223.831772 185.257401 -418.982025
    endloop
  endfacet
  facet normal 0.000000 1.000000 0.000000
    outer loop
      vertex 114.160004 185.257401 -418.982025
      vertex 114.948387 185.257401 -417.954590
      vertex 223.043396 185.257401 -417.954590
    endloop
  endfacet
  facet normal 0.000000 1.000000 -0.000000
    outer loop
      vertex 100.005791 185.257401 -412.993652
      vertex 15.657009 185.257401 -332.874084
      vertex 100.794174 185.257401 -411.966217
    endloop
  endfacet
  facet normal 0.000000 1.000000 0.000000
    outer loop
      vertex 99.510193 185.257401 -414.190125
      vertex 1.971252 185.257401 -337.855316
      vertex 15.657009 185.257401 -332.874084
    endloop
  endfacet
  facet normal 0.000000 1.000000 -0.000000
    outer loop
      vertex 99.510193 185.257401 -414.190125
      vertex 15.657009 185.257401 -332.874084
      vertex 100.005791 185.257401 -412.993652
    endloop
  endfacet
  facet normal 0.000000 1.000000 -0.000000
    outer loop
      vertex 99.341156 185.257401 -415.474121
      vertex 1.971252 185.257401 -337.855316
      vertex 99.510193 185.257401 -414.190125
    endloop
  endfacet
  facet normal 0.000000 1.000000 0.000000
    outer loop
      vertex 99.510193 185.257401 -416.758118
      vertex 1.971252 185.257401 -337.855316
      vertex 99.341156 185.257401 -415.474121
    endloop
  endfacet
  facet normal 0.000000 1.000000 -0.000000
    outer loop
      vertex 236.170166 185.257401 -512.777832
      vertex 234.973679 185.257401 -420.266022
      vertex 236.170166 185.257401 -419.770416
    endloop
  endfacet
  facet normal -0.000000 1.000000 0.000000
    outer loop
      vertex 234.973679 185.257401 -512.282227
      vertex 234.973679 185.257401 -420.266022
      vertex 236.170166 185.257401 -512.777832
    endloop
  endfacet
  facet normal 0.000000 1.000000 0.000000
    outer loop
      vertex 237.197601 185.257401 -513.566223
      vertex 236.170166 185.257401 -512.777832
      vertex 236.170166 185.257401 -419.770416
    endloop
  endfacet
  facet normal 0.000000 1.000000 -0.000000
    outer loop
      vertex 237.197601 185.257401 -513.566223
      vertex 236.170166 185.257401 -419.770416
      vertex 237.197601 185.257401 -418.982025
    endloop
  endfacet
  facet normal 0.000000 1.000000 0.000000
    outer loop
      vertex 233.689697 185.257401 -512.113159
      vertex 233.689697 185.257401 -420.435059
      vertex 234.973679 185.257401 -420.266022
    endloop
  endfacet
  facet normal 0.000000 1.000000 -0.000000
    outer loop
      vertex 233.689697 185.257401 -512.113159
      vertex 227.339691 185.257401 -420.435059
      vertex 233.689697 185.257401 -420.435059
    endloop
  endfacet
  facet normal -0.000000 1.000000 0.000000
    outer loop
      vertex 233.689697 185.257401 -512.113159
      vertex 234.973679 185.257401 -420.266022
      vertex 234.973679 185.257401 -512.282227
    endloop
  endfacet
  facet normal 0.000000 1.000000 -0.000000
    outer loop
      vertex 237.985992 185.257401 -514.593628
      vertex 237.197601 185.257401 -418.982025
      vertex 237.985992 185.257401 -417.954590
    endloop
  endfacet
  facet normal 0.000000 1.000000 0.000000
    outer loop
      vertex 237.985992 185.257401 -514.593628
      vertex 237.197601 185.257401 -513.566223
      vertex 237.197601 185.257401 -418.982025
    endloop
  endfacet
  facet normal 0.000000 1.000000 -0.000000
    outer loop
      vertex 238.481583 185.257401 -515.790161
      vertex 237.985992 185.257401 -417.954590
      vertex 238.481583 185.257401 -416.758118
    endloop
  endfacet
  facet normal 0.000000 1.000000 0.000000
    outer loop
      vertex 238.481583 185.257401 -515.790161
      vertex 237.985992 185.257401 -514.593628
      vertex 237.985992 185.257401 -417.954590
    endloop
  endfacet
  facet normal 0.000000 1.000000 0.000000
    outer loop
      vertex 227.339691 185.257401 -512.113159
      vertex 227.339691 185.257401 -420.435059
      vertex 233.689697 185.257401 -512.113159
    endloop
  endfacet
  facet normal 0.000000 1.000000 0.000000
    outer loop
      vertex 226.055710 185.257401 -512.282227
      vertex 226.055710 185.257401 -420.266022
      vertex 227.339691 185.257401 -420.435059
    endloop
  endfacet
  facet normal 0.000000 1.000000 -0.000000
    outer loop
      vertex 226.055710 185.257401 -512.282227
      vertex 224.859222 185.257401 -419.770416
      vertex 226.055710 185.257401 -420.266022
    endloop
  endfacet
  facet normal 0.000000 1.000000 0.000000
    outer loop
      vertex 226.055710 185.257401 -512.282227
      vertex 227.339691 185.257401 -420.435059
      vertex 227.339691 185.257401 -512.113159
    endloop
  endfacet
  facet normal 0.000000 1.000000 -0.000000
    outer loop
      vertex 224.859222 185.257401 -512.777832
      vertex 223.831772 185.257401 -418.982025
      vertex 224.859222 185.257401 -419.770416
    endloop
  endfacet
  facet normal 0.000000 1.000000 0.000000
    outer loop
      vertex 224.859222 185.257401 -512.777832
      vertex 224.859222 185.257401 -419.770416
      vertex 226.055710 185.257401 -512.282227
    endloop
  endfacet
  facet normal 0.000000 1.000000 0.000000
    outer loop
      vertex 223.831772 185.257401 -513.566223
      vertex 223.831772 185.257401 -418.982025
      vertex 224.859222 185.257401 -512.777832
    endloop
  endfacet
  facet normal 0.000000 1.000000 -0.000000
    outer loop
      vertex 223.831772 185.257401 -513.566223
      vertex 114.160004 185.257401 -418.982025
      vertex 223.831772 185.257401 -418.982025
    endloop
  endfacet
  facet normal 0.000000 1.000000 0.000000
    outer loop
      vertex 336.020538 185.257401 -594.692932
      vertex 238.481583 185.257401 -416.758118
      vertex 238.650635 185.257401 -415.474121
    endloop
  endfacet
  facet normal 0.000000 1.000000 0.000000
    outer loop
      vertex 336.020538 185.257401 -594.692932
      vertex 238.650635 185.257401 -415.474121
      vertex 240.726273 185.257401 -332.874084
    endloop
  endfacet
  facet normal 0.000000 1.000000 0.000000
    outer loop
      vertex 336.020538 185.257401 -594.692932
      vertex 238.481583 185.257401 -515.790161
      vertex 238.481583 185.257401 -416.758118
    endloop
  endfacet
  facet normal 0.000000 1.000000 0.000000
    outer loop
      vertex 336.020538 185.257401 -594.692932
      vertex 238.650635 185.257401 -517.074097
      vertex 238.481583 185.257401 -515.790161
    endloop
  endfacet
  facet normal 0.000000 1.000000 0.000000
    outer loop
      vertex 336.020538 185.257401 -594.692932
      vertex 238.481583 185.257401 -518.358093
      vertex 238.650635 185.257401 -517.074097
    endloop
  endfacet
  facet normal 0.000000 1.000000 0.000000
    outer loop
      vertex 336.020538 185.257401 -594.692932
      vertex 237.985992 185.257401 -519.554565
      vertex 238.481583 185.257401 -518.358093
    endloop
  endfacet
  facet normal 0.000000 1.000000 0.000000
    outer loop
      vertex 336.020538 185.257401 -594.692932
      vertex 237.197601 185.257401 -520.582031
      vertex 237.985992 185.257401 -519.554565
    endloop
  endfacet
  facet normal 0.000000 1.000000 0.000000
    outer loop
      vertex 336.020538 185.257401 -594.692932
      vertex 236.170166 185.257401 -521.370422
      vertex 237.197601 185.257401 -520.582031
    endloop
  endfacet
  facet normal 0.000000 1.000000 0.000000
    outer loop
      vertex 336.020538 185.257401 -594.692932
      vertex 234.973679 185.257401 -521.866028
      vertex 236.170166 185.257401 -521.370422
    endloop
  endfacet
  facet normal 0.000000 1.000000 0.000000
    outer loop
      vertex 336.020538 185.257401 -594.692932
      vertex 233.689697 185.257401 -522.035034
      vertex 234.973679 185.257401 -521.866028
    endloop
  endfacet
  facet normal 0.000000 1.000000 0.000000
    outer loop
      vertex 336.020538 185.257401 -594.692932
      vertex 227.339691 185.257401 -522.035034
      vertex 233.689697 185.257401 -522.035034
    endloop
  endfacet
  facet normal 0.000000 1.000000 -0.000000
    outer loop
      vertex 113.132561 185.257401 -512.777832
      vertex 111.936073 185.257401 -420.266022
      vertex 113.132561 185.257401 -419.770416
    endloop
  endfacet
  facet normal -0.000000 1.000000 0.000000
    outer loop
      vertex 111.936073 185.257401 -512.282227
      vertex 111.936073 185.257401 -420.266022
      vertex 113.132561 185.257401 -512.777832
    endloop
  endfacet
  facet normal 0.000000 1.000000 0.000000
    outer loop
      vertex 114.160004 185.257401 -513.566223
      vertex 114.160004 185.257401 -418.982025
      vertex 223.831772 185.257401 -513.566223
    endloop
  endfacet
  facet normal 0.000000 1.000000 0.000000
    outer loop
      vertex 114.160004 185.257401 -513.566223
      vertex 113.132561 185.257401 -512.777832
      vertex 113.132561 185.257401 -419.770416
    endloop
  endfacet
  facet normal 0.000000 1.000000 -0.000000
    outer loop
      vertex 114.160004 185.257401 -513.566223
      vertex 113.132561 185.257401 -419.770416
      vertex 114.160004 185.257401 -418.982025
    endloop
  endfacet
  facet normal 0.000000 1.000000 0.000000
    outer loop
      vertex 110.652092 185.257401 -512.113159
      vertex 110.652092 185.257401 -420.435059
      vertex 111.936073 185.257401 -420.266022
    endloop
  endfacet
  facet normal 0.000000 1.000000 -0.000000
    outer loop
      vertex 110.652092 185.257401 -512.113159
      vertex 104.302094 185.257401 -420.435059
      vertex 110.652092 185.257401 -420.435059
    endloop
  endfacet
  facet normal -0.000000 1.000000 0.000000
    outer loop
      vertex 110.652092 185.257401 -512.113159
      vertex 111.936073 185.257401 -420.266022
      vertex 111.936073 185.257401 -512.282227
    endloop
  endfacet
  facet normal 0.000000 1.000000 0.000000
    outer loop
      vertex 114.948387 185.257401 -514.593628
      vertex 223.831772 185.257401 -513.566223
      vertex 223.043396 185.257401 -514.593628
    endloop
  endfacet
  facet normal 0.000000 1.000000 -0.000000
    outer loop
      vertex 114.948387 185.257401 -514.593628
      vertex 114.160004 185.257401 -513.566223
      vertex 223.831772 185.257401 -513.566223
    endloop
  endfacet
  facet normal 0.000000 1.000000 0.000000
    outer loop
      vertex 115.443985 185.257401 -515.790161
      vertex 223.043396 185.257401 -514.593628
      vertex 222.547791 185.257401 -515.790161
    endloop
  endfacet
  facet normal 0.000000 1.000000 -0.000000
    outer loop
      vertex 115.443985 185.257401 -515.790161
      vertex 114.948387 185.257401 -514.593628
      vertex 223.043396 185.257401 -514.593628
    endloop
  endfacet
  facet normal 0.000000 1.000000 0.000000
    outer loop
      vertex 115.613029 185.257401 -517.074097
      vertex 222.547791 185.257401 -515.790161
      vertex 222.378754 185.257401 -517.074097
    endloop
  endfacet
  facet normal 0.000000 1.000000 -0.000000
    outer loop
      vertex 115.613029 185.257401 -517.074097
      vertex 115.443985 185.257401 -515.790161
      vertex 222.547791 185.257401 -515.790161
    endloop
  endfacet
  facet normal 0.000000 1.000000 0.000000
    outer loop
      vertex 104.302094 185.257401 -512.113159
      vertex 104.302094 185.257401 -420.435059
      vertex 110.652092 185.257401 -512.113159
    endloop
  endfacet
  facet normal 0.000000 1.000000 0.000000
    outer loop
      vertex 103.018105 185.257401 -512.282227
      vertex 103.018105 185.257401 -420.266022
      vertex 104.302094 185.257401 -420.435059
    endloop
  endfacet
  facet normal 0.000000 1.000000 -0.000000
    outer loop
      vertex 103.018105 185.257401 -512.282227
      vertex 101.821625 185.257401 -419.770416
      vertex 103.018105 185.257401 -420.266022
    endloop
  endfacet
  facet normal 0.000000 1.000000 0.000000
    outer loop
      vertex 103.018105 185.257401 -512.282227
      vertex 104.302094 185.257401 -420.435059
      vertex 104.302094 185.257401 -512.113159
    endloop
  endfacet
  facet normal 0.000000 1.000000 0.000000
    outer loop
      vertex 115.443985 185.257401 -518.358093
      vertex 222.378754 185.257401 -517.074097
      vertex 222.547791 185.257401 -518.358093
    endloop
  endfacet
  facet normal 0.000000 1.000000 0.000000
    outer loop
      vertex 115.443985 185.257401 -518.358093
      vertex 115.613029 185.257401 -517.074097
      vertex 222.378754 185.257401 -517.074097
    endloop
  endfacet
  facet normal 0.000000 1.000000 -0.000000
    outer loop
      vertex 101.821625 185.257401 -512.777832
      vertex 100.794174 185.257401 -418.982025
      vertex 101.821625 185.257401 -419.770416
    endloop
  endfacet
  facet normal 0.000000 1.000000 0.000000
    outer loop
      vertex 101.821625 185.257401 -512.777832
      vertex 101.821625 185.257401 -419.770416
      vertex 103.018105 185.257401 -512.282227
    endloop
  endfacet
  facet normal 0.000000 1.000000 0.000000
    outer loop
      vertex 114.948387 185.257401 -519.554565
      vertex 222.547791 185.257401 -518.358093
      vertex 223.043396 185.257401 -519.554565
    endloop
  endfacet
  facet normal 0.000000 1.000000 0.000000
    outer loop
      vertex 114.948387 185.257401 -519.554565
      vertex 115.443985 185.257401 -518.358093
      vertex 222.547791 185.257401 -518.358093
    endloop
  endfacet
  facet normal 0.000000 1.000000 -0.000000
    outer loop
      vertex 100.794174 185.257401 -513.566223
      vertex 100.005791 185.257401 -417.954590
      vertex 100.794174 185.257401 -418.982025
    endloop
  endfacet
  facet normal 0.000000 1.000000 0.000000
    outer loop
      vertex 100.794174 185.257401 -513.566223
      vertex 100.794174 185.257401 -418.982025
      vertex 101.821625 185.257401 -512.777832
    endloop
  endfacet
  facet normal 0.000000 1.000000 0.000000
    outer loop
      vertex 114.160004 185.257401 -520.582031
      vertex 114.948387 185.257401 -519.554565
      vertex 223.043396 185.257401 -519.554565
    endloop
  endfacet
  facet normal 0.000000 1.000000 0.000000
    outer loop
      vertex 114.160004 185.257401 -520.582031
      vertex 223.043396 185.257401 -519.554565
      vertex 223.831772 185.257401 -520.582031
    endloop
  endfacet
  facet normal 0.000000 1.000000 0.000000
    outer loop
      vertex 100.005791 185.257401 -514.593628
      vertex 100.005791 185.257401 -417.954590
      vertex 100.794174 185.257401 -513.566223
    endloop
  endfacet
  facet normal 0.000000 1.000000 -0.000000
    outer loop
      vertex 100.005791 185.257401 -514.593628
      vertex 99.510193 185.257401 -416.758118
      vertex 100.005791 185.257401 -417.954590
    endloop
  endfacet
  facet normal 0.000000 1.000000 0.000000
    outer loop
      vertex 113.132561 185.257401 -521.370422
      vertex 114.160004 185.257401 -520.582031
      vertex 223.831772 185.257401 -520.582031
    endloop
  endfacet
  facet normal 0.000000 1.000000 0.000000
    outer loop
      vertex 113.132561 185.257401 -521.370422
      vertex 223.831772 185.257401 -520.582031
      vertex 224.859222 185.257401 -521.370422
    endloop
  endfacet
  facet normal 0.000000 1.000000 -0.000000
    outer loop
      vertex 99.510193 185.257401 -515.790161
      vertex 1.971252 185.257401 -337.855316
      vertex 99.510193 185.257401 -416.758118
    endloop
  endfacet
  facet normal 0.000000 1.000000 0.000000
    outer loop
      vertex 99.510193 185.257401 -515.790161
      vertex 99.510193 185.257401 -416.758118
      vertex 100.005791 185.257401 -514.593628
    endloop
  endfacet
  facet normal 0.000000 1.000000 -0.000000
    outer loop
      vertex 99.341156 185.257401 -517.074097
      vertex 1.971252 185.257401 -337.855316
      vertex 99.510193 185.257401 -515.790161
    endloop
  endfacet
  facet normal 0.000000 1.000000 -0.000000
    outer loop
      vertex 123.593613 185.257401 -672.010010
      vertex 113.132561 185.257401 -521.370422
      vertex 224.859222 185.257401 -521.370422
    endloop
  endfacet
  facet normal 0.000000 1.000000 0.000000
    outer loop
      vertex 123.593613 185.257401 -672.010010
      vertex 111.936073 185.257401 -521.866028
      vertex 113.132561 185.257401 -521.370422
    endloop
  endfacet
  facet normal 0.000000 1.000000 0.000000
    outer loop
      vertex 123.593613 185.257401 -672.010010
      vertex 110.652092 185.257401 -522.035034
      vertex 111.936073 185.257401 -521.866028
    endloop
  endfacet
  facet normal 0.000000 1.000000 0.000000
    outer loop
      vertex 123.593613 185.257401 -672.010010
      vertex 104.302094 185.257401 -522.035034
      vertex 110.652092 185.257401 -522.035034
    endloop
  endfacet
  facet normal 0.000000 1.000000 0.000000
    outer loop
      vertex 123.593613 185.257401 -672.010010
      vertex 103.018105 185.257401 -521.866028
      vertex 104.302094 185.257401 -522.035034
    endloop
  endfacet
  facet normal 0.000000 1.000000 0.000000
    outer loop
      vertex 123.593613 185.257401 -672.010010
      vertex 101.821625 185.257401 -521.370422
      vertex 103.018105 185.257401 -521.866028
    endloop
  endfacet
  facet normal 0.000000 1.000000 0.000000
    outer loop
      vertex 123.593613 185.257401 -672.010010
      vertex 100.794174 185.257401 -520.582031
      vertex 101.821625 185.257401 -521.370422
    endloop
  endfacet
  facet normal 0.000000 1.000000 0.000000
    outer loop
      vertex 123.593613 185.257401 -672.010010
      vertex 100.005791 185.257401 -519.554565
      vertex 100.794174 185.257401 -520.582031
    endloop
  endfacet
  facet normal 0.000000 1.000000 0.000000
    outer loop
      vertex 123.593613 185.257401 -672.010010
      vertex 227.339691 185.257401 -522.035034
      vertex 336.020538 185.257401 -594.692932
    endloop
  endfacet
  facet normal 0.000000 1.000000 0.000000
    outer loop
      vertex 123.593613 185.257401 -672.010010
      vertex 226.055710 185.257401 -521.866028
      vertex 227.339691 185.257401 -522.035034
    endloop
  endfacet
  facet normal 0.000000 1.000000 0.000000
    outer loop
      vertex 123.593613 185.257401 -672.010010
      vertex 224.859222 185.257401 -521.370422
      vertex 226.055710 185.257401 -521.866028
    endloop
  endfacet
  facet normal 0.000000 1.000000 0.000000
    outer loop
      vertex 123.593613 185.257401 -672.010010
      vertex 1.971252 185.257401 -337.855316
      vertex 99.510193 185.257401 -518.358093
    endloop
  endfacet
  facet normal 0.000000 1.000000 0.000000
    outer loop
      vertex 123.593613 185.257401 -672.010010
      vertex 99.510193 185.257401 -518.358093
      vertex 100.005791 185.257401 -519.554565
    endloop
  endfacet
  facet normal 0.000000 1.000000 0.000000
    outer loop
      vertex 99.510193 185.257401 -518.358093
      vertex 1.971252 185.257401 -337.855316
      vertex 99.341156 185.257401 -517.074097
    endloop
  endfacet
  facet normal -0.130524 0.000000 -0.991445
    outer loop
      vertex 234.973679 166.207397 -410.682220
      vertex 233.689697 166.207397 -410.513184
      vertex 234.973679 185.257401 -410.682220
    endloop
  endfacet
  facet normal -0.130524 0.000000 -0.991445
    outer loop
      vertex 233.689697 166.207397 -410.513184
      vertex 233.689697 185.257401 -410.513184
      vertex 234.973679 185.257401 -410.682220
    endloop
  endfacet
  facet normal -0.382686 0.000000 -0.923878
    outer loop
      vertex 236.170166 166.207397 -411.177826
      vertex 234.973679 166.207397 -410.682220
      vertex 236.170166 185.257401 -411.177826
    endloop
  endfacet
  facet normal -0.382686 0.000000 -0.923878
    outer loop
      vertex 234.973679 166.207397 -410.682220
      vertex 234.973679 185.257401 -410.682220
      vertex 236.170166 185.257401 -411.177826
    endloop
  endfacet
  facet normal -0.608767 0.000000 -0.793349
    outer loop
      vertex 237.197601 166.207397 -411.966217
      vertex 236.170166 166.207397 -411.177826
      vertex 237.197601 185.257401 -411.966217
    endloop
  endfacet
  facet normal -0.608767 0.000000 -0.793349
    outer loop
      vertex 236.170166 166.207397 -411.177826
      vertex 236.170166 185.257401 -411.177826
      vertex 237.197601 185.257401 -411.966217
    endloop
  endfacet
  facet normal -0.793349 0.000000 -0.608767
    outer loop
      vertex 237.985992 166.207397 -412.993652
      vertex 237.197601 166.207397 -411.966217
      vertex 237.985992 185.257401 -412.993652
    endloop
  endfacet
  facet normal -0.793349 0.000000 -0.608767
    outer loop
      vertex 237.197601 166.207397 -411.966217
      vertex 237.197601 185.257401 -411.966217
      vertex 237.985992 185.257401 -412.993652
    endloop
  endfacet
  facet normal -0.923881 0.000000 -0.382680
    outer loop
      vertex 238.481583 166.207397 -414.190125
      vertex 237.985992 166.207397 -412.993652
      vertex 238.481583 185.257401 -414.190125
    endloop
  endfacet
  facet normal -0.923881 0.000000 -0.382680
    outer loop
      vertex 237.985992 166.207397 -412.993652
      vertex 237.985992 185.257401 -412.993652
      vertex 238.481583 185.257401 -414.190125
    endloop
  endfacet
  facet normal -0.991444 0.000000 -0.130534
    outer loop
      vertex 238.650635 166.207397 -415.474121
      vertex 238.481583 166.207397 -414.190125
      vertex 238.650635 185.257401 -415.474121
    endloop
  endfacet
  facet normal -0.991444 0.000000 -0.130534
    outer loop
      vertex 238.481583 166.207397 -414.190125
      vertex 238.481583 185.257401 -414.190125
      vertex 238.650635 185.257401 -415.474121
    endloop
  endfacet
  facet normal -0.991444 0.000000 0.130534
    outer loop
      vertex 238.481583 166.207397 -416.758118
      vertex 238.650635 166.207397 -415.474121
      vertex 238.481583 185.257401 -416.758118
    endloop
  endfacet
  facet normal -0.991444 0.000000 0.130534
    outer loop
      vertex 238.650635 166.207397 -415.474121
      vertex 238.650635 185.257401 -415.474121
      vertex 238.481583 185.257401 -416.758118
    endloop
  endfacet
  facet normal -0.923881 0.000000 0.382680
    outer loop
      vertex 237.985992 166.207397 -417.954590
      vertex 238.481583 166.207397 -416.758118
      vertex 237.985992 185.257401 -417.954590
    endloop
  endfacet
  facet normal -0.793349 0.000000 0.608767
    outer loop
      vertex 237.197601 166.207397 -418.982025
      vertex 237.985992 166.207397 -417.954590
      vertex 237.985992 185.257401 -417.954590
    endloop
  endfacet
  facet normal -0.923881 0.000000 0.382680
    outer loop
      vertex 238.481583 166.207397 -416.758118
      vertex 238.481583 185.257401 -416.758118
      vertex 237.985992 185.257401 -417.954590
    endloop
  endfacet
  facet normal -0.793349 0.000000 0.608767
    outer loop
      vertex 237.197601 166.207397 -418.982025
      vertex 237.985992 185.257401 -417.954590
      vertex 237.197601 185.257401 -418.982025
    endloop
  endfacet
  facet normal -0.608767 0.000000 0.793349
    outer loop
      vertex 236.170166 166.207397 -419.770416
      vertex 237.197601 166.207397 -418.982025
      vertex 236.170166 185.257401 -419.770416
    endloop
  endfacet
  facet normal -0.608767 0.000000 0.793349
    outer loop
      vertex 237.197601 166.207397 -418.982025
      vertex 237.197601 185.257401 -418.982025
      vertex 236.170166 185.257401 -419.770416
    endloop
  endfacet
  facet normal -0.382686 0.000000 0.923878
    outer loop
      vertex 234.973679 166.207397 -420.266022
      vertex 236.170166 166.207397 -419.770416
      vertex 234.973679 185.257401 -420.266022
    endloop
  endfacet
  facet normal -0.382686 0.000000 0.923878
    outer loop
      vertex 236.170166 166.207397 -419.770416
      vertex 236.170166 185.257401 -419.770416
      vertex 234.973679 185.257401 -420.266022
    endloop
  endfacet
  facet normal -0.130524 0.000000 0.991445
    outer loop
      vertex 233.689697 166.207397 -420.435059
      vertex 234.973679 166.207397 -420.266022
      vertex 233.689697 185.257401 -420.435059
    endloop
  endfacet
  facet normal -0.130524 0.000000 0.991445
    outer loop
      vertex 234.973679 166.207397 -420.266022
      vertex 234.973679 185.257401 -420.266022
      vertex 233.689697 185.257401 -420.435059
    endloop
  endfacet
  facet normal 0.000000 0.000000 1.000000
    outer loop
      vertex 227.339691 166.207397 -420.435059
      vertex 233.689697 166.207397 -420.435059
      vertex 227.339691 185.257401 -420.435059
    endloop
  endfacet
  facet normal 0.000000 -0.000000 1.000000
    outer loop
      vertex 233.689697 166.207397 -420.435059
      vertex 233.689697 185.257401 -420.435059
      vertex 227.339691 185.257401 -420.435059
    endloop
  endfacet
  facet normal 0.130524 -0.000000 0.991445
    outer loop
      vertex 226.055710 166.207397 -420.266022
      vertex 227.339691 166.207397 -420.435059
      vertex 226.055710 185.257401 -420.266022
    endloop
  endfacet
  facet normal 0.130524 -0.000000 0.991445
    outer loop
      vertex 227.339691 166.207397 -420.435059
      vertex 227.339691 185.257401 -420.435059
      vertex 226.055710 185.257401 -420.266022
    endloop
  endfacet
  facet normal 0.382686 -0.000000 0.923878
    outer loop
      vertex 224.859222 166.207397 -419.770416
      vertex 226.055710 166.207397 -420.266022
      vertex 224.859222 185.257401 -419.770416
    endloop
  endfacet
  facet normal 0.382686 -0.000000 0.923878
    outer loop
      vertex 226.055710 166.207397 -420.266022
      vertex 226.055710 185.257401 -420.266022
      vertex 224.859222 185.257401 -419.770416
    endloop
  endfacet
  facet normal 0.608762 -0.000000 0.793353
    outer loop
      vertex 223.831772 166.207397 -418.982025
      vertex 224.859222 166.207397 -419.770416
      vertex 223.831772 185.257401 -418.982025
    endloop
  endfacet
  facet normal 0.793354 0.000000 0.608760
    outer loop
      vertex 223.043396 166.207397 -417.954590
      vertex 223.831772 166.207397 -418.982025
      vertex 223.831772 185.257401 -418.982025
    endloop
  endfacet
  facet normal 0.608762 -0.000000 0.793353
    outer loop
      vertex 224.859222 166.207397 -419.770416
      vertex 224.859222 185.257401 -419.770416
      vertex 223.831772 185.257401 -418.982025
    endloop
  endfacet
  facet normal 0.793354 -0.000000 0.608760
    outer loop
      vertex 223.043396 166.207397 -417.954590
      vertex 223.831772 185.257401 -418.982025
      vertex 223.043396 185.257401 -417.954590
    endloop
  endfacet
  facet normal 0.923877 -0.000000 0.382690
    outer loop
      vertex 222.547791 166.207397 -416.758118
      vertex 223.043396 166.207397 -417.954590
      vertex 222.547791 185.257401 -416.758118
    endloop
  endfacet
  facet normal 0.923877 -0.000000 0.382690
    outer loop
      vertex 223.043396 166.207397 -417.954590
      vertex 223.043396 185.257401 -417.954590
      vertex 222.547791 185.257401 -416.758118
    endloop
  endfacet
  facet normal 0.991445 -0.000000 0.130523
    outer loop
      vertex 222.378754 166.207397 -415.474121
      vertex 222.547791 166.207397 -416.758118
      vertex 222.378754 185.257401 -415.474121
    endloop
  endfacet
  facet normal 0.991445 0.000000 -0.130523
    outer loop
      vertex 222.547791 166.207397 -414.190125
      vertex 222.378754 166.207397 -415.474121
      vertex 222.378754 185.257401 -415.474121
    endloop
  endfacet
  facet normal 0.991445 -0.000000 0.130523
    outer loop
      vertex 222.547791 166.207397 -416.758118
      vertex 222.547791 185.257401 -416.758118
      vertex 222.378754 185.257401 -415.474121
    endloop
  endfacet
  facet normal 0.923877 0.000000 -0.382690
    outer loop
      vertex 223.043396 166.207397 -412.993652
      vertex 222.547791 166.207397 -414.190125
      vertex 222.547791 185.257401 -414.190125
    endloop
  endfacet
  facet normal 0.991445 0.000000 -0.130523
    outer loop
      vertex 222.547791 166.207397 -414.190125
      vertex 222.378754 185.257401 -415.474121
      vertex 222.547791 185.257401 -414.190125
    endloop
  endfacet
  facet normal 0.923877 0.000000 -0.382690
    outer loop
      vertex 223.043396 166.207397 -412.993652
      vertex 222.547791 185.257401 -414.190125
      vertex 223.043396 185.257401 -412.993652
    endloop
  endfacet
  facet normal 0.793354 0.000000 -0.608760
    outer loop
      vertex 223.831772 166.207397 -411.966217
      vertex 223.043396 166.207397 -412.993652
      vertex 223.831772 185.257401 -411.966217
    endloop
  endfacet
  facet normal 0.793354 0.000000 -0.608760
    outer loop
      vertex 223.043396 166.207397 -412.993652
      vertex 223.043396 185.257401 -412.993652
      vertex 223.831772 185.257401 -411.966217
    endloop
  endfacet
  facet normal 0.608762 0.000000 -0.793353
    outer loop
      vertex 224.859222 166.207397 -411.177826
      vertex 223.831772 166.207397 -411.966217
      vertex 224.859222 185.257401 -411.177826
    endloop
  endfacet
  facet normal 0.382686 0.000000 -0.923878
    outer loop
      vertex 226.055710 166.207397 -410.682220
      vertex 224.859222 166.207397 -411.177826
      vertex 224.859222 185.257401 -411.177826
    endloop
  endfacet
  facet normal 0.608762 0.000000 -0.793353
    outer loop
      vertex 223.831772 166.207397 -411.966217
      vertex 223.831772 185.257401 -411.966217
      vertex 224.859222 185.257401 -411.177826
    endloop
  endfacet
  facet normal 0.382686 0.000000 -0.923878
    outer loop
      vertex 226.055710 166.207397 -410.682220
      vertex 224.859222 185.257401 -411.177826
      vertex 226.055710 185.257401 -410.682220
    endloop
  endfacet
  facet normal 0.130524 0.000000 -0.991445
    outer loop
      vertex 227.339691 166.207397 -410.513184
      vertex 226.055710 166.207397 -410.682220
      vertex 227.339691 185.257401 -410.513184
    endloop
  endfacet
  facet normal 0.130524 0.000000 -0.991445
    outer loop
      vertex 226.055710 166.207397 -410.682220
      vertex 226.055710 185.257401 -410.682220
      vertex 227.339691 185.257401 -410.513184
    endloop
  endfacet
  facet normal 0.000000 0.000000 -1.000000
    outer loop
      vertex 233.689697 166.207397 -410.513184
      vertex 227.339691 166.207397 -410.513184
      vertex 227.339691 185.257401 -410.513184
    endloop
  endfacet
  facet normal 0.000000 0.000000 -1.000000
    outer loop
      vertex 233.689697 166.207397 -410.513184
      vertex 227.339691 185.257401 -410.513184
      vertex 233.689697 185.257401 -410.513184
    endloop
  endfacet
  facet normal -0.130547 0.000000 -0.991442
    outer loop
      vertex 111.936073 166.207397 -512.282227
      vertex 110.652092 166.207397 -512.113159
      vertex 111.936073 185.257401 -512.282227
    endloop
  endfacet
  facet normal -0.130547 0.000000 -0.991442
    outer loop
      vertex 110.652092 166.207397 -512.113159
      vertex 110.652092 185.257401 -512.113159
      vertex 111.936073 185.257401 -512.282227
    endloop
  endfacet
  facet normal -0.382686 0.000000 -0.923878
    outer loop
      vertex 113.132561 166.207397 -512.777832
      vertex 111.936073 166.207397 -512.282227
      vertex 113.132561 185.257401 -512.777832
    endloop
  endfacet
  facet normal -0.608765 0.000000 -0.793351
    outer loop
      vertex 114.160004 166.207397 -513.566223
      vertex 113.132561 166.207397 -512.777832
      vertex 113.132561 185.257401 -512.777832
    endloop
  endfacet
  facet normal -0.382686 0.000000 -0.923878
    outer loop
      vertex 111.936073 166.207397 -512.282227
      vertex 111.936073 185.257401 -512.282227
      vertex 113.132561 185.257401 -512.777832
    endloop
  endfacet
  facet normal -0.608765 0.000000 -0.793351
    outer loop
      vertex 114.160004 166.207397 -513.566223
      vertex 113.132561 185.257401 -512.777832
      vertex 114.160004 185.257401 -513.566223
    endloop
  endfacet
  facet normal -0.793343 0.000000 -0.608775
    outer loop
      vertex 114.948387 166.207397 -514.593628
      vertex 114.160004 166.207397 -513.566223
      vertex 114.948387 185.257401 -514.593628
    endloop
  endfacet
  facet normal -0.923886 0.000000 -0.382669
    outer loop
      vertex 115.443985 166.207397 -515.790161
      vertex 114.948387 166.207397 -514.593628
      vertex 114.948387 185.257401 -514.593628
    endloop
  endfacet
  facet normal -0.793343 0.000000 -0.608775
    outer loop
      vertex 114.160004 166.207397 -513.566223
      vertex 114.160004 185.257401 -513.566223
      vertex 114.948387 185.257401 -514.593628
    endloop
  endfacet
  facet normal -0.923886 0.000000 -0.382669
    outer loop
      vertex 115.443985 166.207397 -515.790161
      vertex 114.948387 185.257401 -514.593628
      vertex 115.443985 185.257401 -515.790161
    endloop
  endfacet
  facet normal -0.991444 0.000000 -0.130535
    outer loop
      vertex 115.613029 166.207397 -517.074097
      vertex 115.443985 166.207397 -515.790161
      vertex 115.613029 185.257401 -517.074097
    endloop
  endfacet
  facet normal -0.991444 0.000000 -0.130535
    outer loop
      vertex 115.443985 166.207397 -515.790161
      vertex 115.443985 185.257401 -515.790161
      vertex 115.613029 185.257401 -517.074097
    endloop
  endfacet
  facet normal -0.991445 0.000000 0.130529
    outer loop
      vertex 115.443985 166.207397 -518.358093
      vertex 115.613029 166.207397 -517.074097
      vertex 115.443985 185.257401 -518.358093
    endloop
  endfacet
  facet normal -0.991445 0.000000 0.130529
    outer loop
      vertex 115.613029 166.207397 -517.074097
      vertex 115.613029 185.257401 -517.074097
      vertex 115.443985 185.257401 -518.358093
    endloop
  endfacet
  facet normal -0.923879 0.000000 0.382685
    outer loop
      vertex 114.948387 166.207397 -519.554565
      vertex 115.443985 166.207397 -518.358093
      vertex 114.948387 185.257401 -519.554565
    endloop
  endfacet
  facet normal -0.923879 0.000000 0.382685
    outer loop
      vertex 115.443985 166.207397 -518.358093
      vertex 115.443985 185.257401 -518.358093
      vertex 114.948387 185.257401 -519.554565
    endloop
  endfacet
  facet normal -0.793360 0.000000 0.608752
    outer loop
      vertex 114.160004 166.207397 -520.582031
      vertex 114.948387 166.207397 -519.554565
      vertex 114.160004 185.257401 -520.582031
    endloop
  endfacet
  facet normal -0.793360 0.000000 0.608752
    outer loop
      vertex 114.948387 166.207397 -519.554565
      vertex 114.948387 185.257401 -519.554565
      vertex 114.160004 185.257401 -520.582031
    endloop
  endfacet
  facet normal -0.608765 0.000000 0.793351
    outer loop
      vertex 113.132561 166.207397 -521.370422
      vertex 114.160004 166.207397 -520.582031
      vertex 113.132561 185.257401 -521.370422
    endloop
  endfacet
  facet normal -0.382686 0.000000 0.923878
    outer loop
      vertex 111.936073 166.207397 -521.866028
      vertex 113.132561 166.207397 -521.370422
      vertex 113.132561 185.257401 -521.370422
    endloop
  endfacet
  facet normal -0.608765 0.000000 0.793351
    outer loop
      vertex 114.160004 166.207397 -520.582031
      vertex 114.160004 185.257401 -520.582031
      vertex 113.132561 185.257401 -521.370422
    endloop
  endfacet
  facet normal -0.382686 0.000000 0.923878
    outer loop
      vertex 111.936073 166.207397 -521.866028
      vertex 113.132561 185.257401 -521.370422
      vertex 111.936073 185.257401 -521.866028
    endloop
  endfacet
  facet normal -0.130501 0.000000 0.991448
    outer loop
      vertex 110.652092 166.207397 -522.035034
      vertex 111.936073 166.207397 -521.866028
      vertex 110.652092 185.257401 -522.035034
    endloop
  endfacet
  facet normal -0.130501 0.000000 0.991448
    outer loop
      vertex 111.936073 166.207397 -521.866028
      vertex 111.936073 185.257401 -521.866028
      vertex 110.652092 185.257401 -522.035034
    endloop
  endfacet
  facet normal 0.000000 0.000000 1.000000
    outer loop
      vertex 104.302094 166.207397 -522.035034
      vertex 110.652092 166.207397 -522.035034
      vertex 110.652092 185.257401 -522.035034
    endloop
  endfacet
  facet normal 0.000000 0.000000 1.000000
    outer loop
      vertex 104.302094 166.207397 -522.035034
      vertex 110.652092 185.257401 -522.035034
      vertex 104.302094 185.257401 -522.035034
    endloop
  endfacet
  facet normal 0.130500 -0.000000 0.991448
    outer loop
      vertex 103.018105 166.207397 -521.866028
      vertex 104.302094 166.207397 -522.035034
      vertex 103.018105 185.257401 -521.866028
    endloop
  endfacet
  facet normal 0.130500 -0.000000 0.991448
    outer loop
      vertex 104.302094 166.207397 -522.035034
      vertex 104.302094 185.257401 -522.035034
      vertex 103.018105 185.257401 -521.866028
    endloop
  endfacet
  facet normal 0.382688 -0.000000 0.923878
    outer loop
      vertex 101.821625 166.207397 -521.370422
      vertex 103.018105 166.207397 -521.866028
      vertex 101.821625 185.257401 -521.370422
    endloop
  endfacet
  facet normal 0.382688 -0.000000 0.923878
    outer loop
      vertex 103.018105 166.207397 -521.866028
      vertex 103.018105 185.257401 -521.866028
      vertex 101.821625 185.257401 -521.370422
    endloop
  endfacet
  facet normal 0.608762 -0.000000 0.793353
    outer loop
      vertex 100.794174 166.207397 -520.582031
      vertex 101.821625 166.207397 -521.370422
      vertex 100.794174 185.257401 -520.582031
    endloop
  endfacet
  facet normal 0.608762 -0.000000 0.793353
    outer loop
      vertex 101.821625 166.207397 -521.370422
      vertex 101.821625 185.257401 -521.370422
      vertex 100.794174 185.257401 -520.582031
    endloop
  endfacet
  facet normal 0.793360 -0.000000 0.608752
    outer loop
      vertex 100.005791 166.207397 -519.554565
      vertex 100.794174 166.207397 -520.582031
      vertex 100.005791 185.257401 -519.554565
    endloop
  endfacet
  facet normal 0.793360 -0.000000 0.608752
    outer loop
      vertex 100.794174 166.207397 -520.582031
      vertex 100.794174 185.257401 -520.582031
      vertex 100.005791 185.257401 -519.554565
    endloop
  endfacet
  facet normal 0.923879 -0.000000 0.382685
    outer loop
      vertex 99.510193 166.207397 -518.358093
      vertex 100.005791 166.207397 -519.554565
      vertex 99.510193 185.257401 -518.358093
    endloop
  endfacet
  facet normal 0.923879 -0.000000 0.382685
    outer loop
      vertex 100.005791 166.207397 -519.554565
      vertex 100.005791 185.257401 -519.554565
      vertex 99.510193 185.257401 -518.358093
    endloop
  endfacet
  facet normal 0.991445 -0.000000 0.130523
    outer loop
      vertex 99.341156 166.207397 -517.074097
      vertex 99.510193 166.207397 -518.358093
      vertex 99.341156 185.257401 -517.074097
    endloop
  endfacet
  facet normal 0.991445 -0.000000 0.130523
    outer loop
      vertex 99.510193 166.207397 -518.358093
      vertex 99.510193 185.257401 -518.358093
      vertex 99.341156 185.257401 -517.074097
    endloop
  endfacet
  facet normal 0.991445 0.000000 -0.130529
    outer loop
      vertex 99.510193 166.207397 -515.790161
      vertex 99.341156 166.207397 -517.074097
      vertex 99.510193 185.257401 -515.790161
    endloop
  endfacet
  facet normal 0.991445 0.000000 -0.130529
    outer loop
      vertex 99.341156 166.207397 -517.074097
      vertex 99.341156 185.257401 -517.074097
      vertex 99.510193 185.257401 -515.790161
    endloop
  endfacet
  facet normal 0.923886 0.000000 -0.382669
    outer loop
      vertex 100.005791 166.207397 -514.593628
      vertex 99.510193 166.207397 -515.790161
      vertex 100.005791 185.257401 -514.593628
    endloop
  endfacet
  facet normal 0.793343 0.000000 -0.608775
    outer loop
      vertex 100.794174 166.207397 -513.566223
      vertex 100.005791 166.207397 -514.593628
      vertex 100.005791 185.257401 -514.593628
    endloop
  endfacet
  facet normal 0.923886 0.000000 -0.382669
    outer loop
      vertex 99.510193 166.207397 -515.790161
      vertex 99.510193 185.257401 -515.790161
      vertex 100.005791 185.257401 -514.593628
    endloop
  endfacet
  facet normal 0.793343 0.000000 -0.608775
    outer loop
      vertex 100.794174 166.207397 -513.566223
      vertex 100.005791 185.257401 -514.593628
      vertex 100.794174 185.257401 -513.566223
    endloop
  endfacet
  facet normal 0.608762 0.000000 -0.793353
    outer loop
      vertex 101.821625 166.207397 -512.777832
      vertex 100.794174 166.207397 -513.566223
      vertex 101.821625 185.257401 -512.777832
    endloop
  endfacet
  facet normal 0.608762 0.000000 -0.793353
    outer loop
      vertex 100.794174 166.207397 -513.566223
      vertex 100.794174 185.257401 -513.566223
      vertex 101.821625 185.257401 -512.777832
    endloop
  endfacet
  facet normal 0.382688 0.000000 -0.923878
    outer loop
      vertex 103.018105 166.207397 -512.282227
      vertex 101.821625 166.207397 -512.777832
      vertex 103.018105 185.257401 -512.282227
    endloop
  endfacet
  facet normal 0.382688 0.000000 -0.923878
    outer loop
      vertex 101.821625 166.207397 -512.777832
      vertex 101.821625 185.257401 -512.777832
      vertex 103.018105 185.257401 -512.282227
    endloop
  endfacet
  facet normal 0.130547 0.000000 -0.991442
    outer loop
      vertex 104.302094 166.207397 -512.113159
      vertex 103.018105 166.207397 -512.282227
      vertex 104.302094 185.257401 -512.113159
    endloop
  endfacet
  facet normal 0.130547 0.000000 -0.991442
    outer loop
      vertex 103.018105 166.207397 -512.282227
      vertex 103.018105 185.257401 -512.282227
      vertex 104.302094 185.257401 -512.113159
    endloop
  endfacet
  facet normal 0.000000 0.000000 -1.000000
    outer loop
      vertex 110.652092 166.207397 -512.113159
      vertex 104.302094 166.207397 -512.113159
      vertex 110.652092 185.257401 -512.113159
    endloop
  endfacet
  facet normal 0.000000 0.000000 -1.000000
    outer loop
      vertex 104.302094 166.207397 -512.113159
      vertex 104.302094 185.257401 -512.113159
      vertex 110.652092 185.257401 -512.113159
    endloop
  endfacet
  facet normal -0.000000 0.000000 1.000000
    outer loop
      vertex 15.657009 185.257401 -332.874084
      vertex 15.657009 166.207397 -332.874084
      vertex 240.726273 185.257401 -332.874084
    endloop
  endfacet
  facet normal 0.000000 0.000000 1.000000
    outer loop
      vertex 240.726273 185.257401 -332.874084
      vertex 15.657009 166.207397 -332.874084
      vertex 240.726273 166.207397 -332.874084
    endloop
  endfacet
  facet normal -0.342022 0.000000 0.939692
    outer loop
      vertex 15.657009 185.257401 -332.874084
      vertex 1.971252 166.207397 -337.855316
      vertex 15.657009 166.207397 -332.874084
    endloop
  endfacet
  facet normal -0.342022 0.000000 0.939692
    outer loop
      vertex 15.657009 185.257401 -332.874084
      vertex 1.971252 185.257401 -337.855316
      vertex 1.971252 166.207397 -337.855316
    endloop
  endfacet
  facet normal -0.939693 -0.000000 -0.342020
    outer loop
      vertex 1.971252 185.257401 -337.855316
      vertex 123.593613 166.207397 -672.010010
      vertex 1.971252 166.207397 -337.855316
    endloop
  endfacet
  facet normal -0.939693 0.000000 -0.342020
    outer loop
      vertex 1.971252 185.257401 -337.855316
      vertex 123.593613 185.257401 -672.010010
      vertex 123.593613 166.207397 -672.010010
    endloop
  endfacet
  facet normal 0.342020 0.000000 -0.939693
    outer loop
      vertex 123.593613 185.257401 -672.010010
      vertex 336.020538 166.207397 -594.692932
      vertex 123.593613 166.207397 -672.010010
    endloop
  endfacet
  facet normal 0.342020 0.000000 -0.939693
    outer loop
      vertex 123.593613 185.257401 -672.010010
      vertex 336.020538 185.257401 -594.692932
      vertex 336.020538 166.207397 -594.692932
    endloop
  endfacet
  facet normal 0.939693 0.000000 0.342020
    outer loop
      vertex 336.020538 166.207397 -594.692932
      vertex 240.726273 185.257401 -332.874084
      vertex 240.726273 166.207397 -332.874084
    endloop
  endfacet
  facet normal 0.939693 0.000000 0.342020
    outer loop
      vertex 336.020538 185.257401 -594.692932
      vertex 240.726273 185.257401 -332.874084
      vertex 336.020538 166.207397 -594.692932
    endloop
  endfacet
  facet normal -0.130547 0.000000 -0.991442
    outer loop
      vertex 234.973679 166.207397 -512.282227
      vertex 233.689697 166.207397 -512.113159
      vertex 234.973679 185.257401 -512.282227
    endloop
  endfacet
  facet normal -0.130547 0.000000 -0.991442
    outer loop
      vertex 233.689697 166.207397 -512.113159
      vertex 233.689697 185.257401 -512.113159
      vertex 234.973679 185.257401 -512.282227
    endloop
  endfacet
  facet normal -0.382686 0.000000 -0.923878
    outer loop
      vertex 236.170166 166.207397 -512.777832
      vertex 234.973679 166.207397 -512.282227
      vertex 236.170166 185.257401 -512.777832
    endloop
  endfacet
  facet normal -0.608767 0.000000 -0.793349
    outer loop
      vertex 237.197601 166.207397 -513.566223
      vertex 236.170166 166.207397 -512.777832
      vertex 236.170166 185.257401 -512.777832
    endloop
  endfacet
  facet normal -0.382686 0.000000 -0.923878
    outer loop
      vertex 234.973679 166.207397 -512.282227
      vertex 234.973679 185.257401 -512.282227
      vertex 236.170166 185.257401 -512.777832
    endloop
  endfacet
  facet normal -0.608767 0.000000 -0.793349
    outer loop
      vertex 237.197601 166.207397 -513.566223
      vertex 236.170166 185.257401 -512.777832
      vertex 237.197601 185.257401 -513.566223
    endloop
  endfacet
  facet normal -0.793340 0.000000 -0.608779
    outer loop
      vertex 237.985992 166.207397 -514.593628
      vertex 237.197601 166.207397 -513.566223
      vertex 237.985992 185.257401 -514.593628
    endloop
  endfacet
  facet normal -0.793340 0.000000 -0.608779
    outer loop
      vertex 237.197601 166.207397 -513.566223
      vertex 237.197601 185.257401 -513.566223
      vertex 237.985992 185.257401 -514.593628
    endloop
  endfacet
  facet normal -0.923888 0.000000 -0.382664
    outer loop
      vertex 238.481583 166.207397 -515.790161
      vertex 237.985992 166.207397 -514.593628
      vertex 238.481583 185.257401 -515.790161
    endloop
  endfacet
  facet normal -0.923888 0.000000 -0.382664
    outer loop
      vertex 237.985992 166.207397 -514.593628
      vertex 237.985992 185.257401 -514.593628
      vertex 238.481583 185.257401 -515.790161
    endloop
  endfacet
  facet normal -0.991443 0.000000 -0.130540
    outer loop
      vertex 238.650635 166.207397 -517.074097
      vertex 238.481583 166.207397 -515.790161
      vertex 238.650635 185.257401 -517.074097
    endloop
  endfacet
  facet normal -0.991444 0.000000 0.130534
    outer loop
      vertex 238.481583 166.207397 -518.358093
      vertex 238.650635 166.207397 -517.074097
      vertex 238.650635 185.257401 -517.074097
    endloop
  endfacet
  facet normal -0.991443 0.000000 -0.130540
    outer loop
      vertex 238.481583 166.207397 -515.790161
      vertex 238.481583 185.257401 -515.790161
      vertex 238.650635 185.257401 -517.074097
    endloop
  endfacet
  facet normal -0.991444 0.000000 0.130534
    outer loop
      vertex 238.481583 166.207397 -518.358093
      vertex 238.650635 185.257401 -517.074097
      vertex 238.481583 185.257401 -518.358093
    endloop
  endfacet
  facet normal -0.923881 0.000000 0.382680
    outer loop
      vertex 237.985992 166.207397 -519.554565
      vertex 238.481583 166.207397 -518.358093
      vertex 237.985992 185.257401 -519.554565
    endloop
  endfacet
  facet normal -0.923881 0.000000 0.382680
    outer loop
      vertex 238.481583 166.207397 -518.358093
      vertex 238.481583 185.257401 -518.358093
      vertex 237.985992 185.257401 -519.554565
    endloop
  endfacet
  facet normal -0.793357 0.000000 0.608756
    outer loop
      vertex 237.197601 166.207397 -520.582031
      vertex 237.985992 166.207397 -519.554565
      vertex 237.197601 185.257401 -520.582031
    endloop
  endfacet
  facet normal -0.793357 0.000000 0.608756
    outer loop
      vertex 237.985992 166.207397 -519.554565
      vertex 237.985992 185.257401 -519.554565
      vertex 237.197601 185.257401 -520.582031
    endloop
  endfacet
  facet normal -0.608767 0.000000 0.793349
    outer loop
      vertex 236.170166 166.207397 -521.370422
      vertex 237.197601 166.207397 -520.582031
      vertex 236.170166 185.257401 -521.370422
    endloop
  endfacet
  facet normal -0.608767 0.000000 0.793349
    outer loop
      vertex 237.197601 166.207397 -520.582031
      vertex 237.197601 185.257401 -520.582031
      vertex 236.170166 185.257401 -521.370422
    endloop
  endfacet
  facet normal -0.382686 0.000000 0.923878
    outer loop
      vertex 234.973679 166.207397 -521.866028
      vertex 236.170166 166.207397 -521.370422
      vertex 234.973679 185.257401 -521.866028
    endloop
  endfacet
  facet normal -0.130501 0.000000 0.991448
    outer loop
      vertex 233.689697 166.207397 -522.035034
      vertex 234.973679 166.207397 -521.866028
      vertex 234.973679 185.257401 -521.866028
    endloop
  endfacet
  facet normal -0.382686 0.000000 0.923878
    outer loop
      vertex 236.170166 166.207397 -521.370422
      vertex 236.170166 185.257401 -521.370422
      vertex 234.973679 185.257401 -521.866028
    endloop
  endfacet
  facet normal -0.130501 0.000000 0.991448
    outer loop
      vertex 233.689697 166.207397 -522.035034
      vertex 234.973679 185.257401 -521.866028
      vertex 233.689697 185.257401 -522.035034
    endloop
  endfacet
  facet normal 0.000000 0.000000 1.000000
    outer loop
      vertex 227.339691 166.207397 -522.035034
      vertex 233.689697 166.207397 -522.035034
      vertex 227.339691 185.257401 -522.035034
    endloop
  endfacet
  facet normal 0.000000 -0.000000 1.000000
    outer loop
      vertex 233.689697 166.207397 -522.035034
      vertex 233.689697 185.257401 -522.035034
      vertex 227.339691 185.257401 -522.035034
    endloop
  endfacet
  facet normal 0.130501 -0.000000 0.991448
    outer loop
      vertex 226.055710 166.207397 -521.866028
      vertex 227.339691 166.207397 -522.035034
      vertex 226.055710 185.257401 -521.866028
    endloop
  endfacet
  facet normal 0.382686 0.000000 0.923878
    outer loop
      vertex 224.859222 166.207397 -521.370422
      vertex 226.055710 166.207397 -521.866028
      vertex 226.055710 185.257401 -521.866028
    endloop
  endfacet
  facet normal 0.130501 -0.000000 0.991448
    outer loop
      vertex 227.339691 166.207397 -522.035034
      vertex 227.339691 185.257401 -522.035034
      vertex 226.055710 185.257401 -521.866028
    endloop
  endfacet
  facet normal 0.608762 0.000000 0.793353
    outer loop
      vertex 223.831772 166.207397 -520.582031
      vertex 224.859222 166.207397 -521.370422
      vertex 224.859222 185.257401 -521.370422
    endloop
  endfacet
  facet normal 0.382686 -0.000000 0.923878
    outer loop
      vertex 224.859222 166.207397 -521.370422
      vertex 226.055710 185.257401 -521.866028
      vertex 224.859222 185.257401 -521.370422
    endloop
  endfacet
  facet normal 0.608762 -0.000000 0.793353
    outer loop
      vertex 223.831772 166.207397 -520.582031
      vertex 224.859222 185.257401 -521.370422
      vertex 223.831772 185.257401 -520.582031
    endloop
  endfacet
  facet normal 0.793363 -0.000000 0.608749
    outer loop
      vertex 223.043396 166.207397 -519.554565
      vertex 223.831772 166.207397 -520.582031
      vertex 223.043396 185.257401 -519.554565
    endloop
  endfacet
  facet normal 0.793363 -0.000000 0.608749
    outer loop
      vertex 223.831772 166.207397 -520.582031
      vertex 223.831772 185.257401 -520.582031
      vertex 223.043396 185.257401 -519.554565
    endloop
  endfacet
  facet normal 0.923877 -0.000000 0.382690
    outer loop
      vertex 222.547791 166.207397 -518.358093
      vertex 223.043396 166.207397 -519.554565
      vertex 222.547791 185.257401 -518.358093
    endloop
  endfacet
  facet normal 0.991445 0.000000 0.130523
    outer loop
      vertex 222.378754 166.207397 -517.074097
      vertex 222.547791 166.207397 -518.358093
      vertex 222.547791 185.257401 -518.358093
    endloop
  endfacet
  facet normal 0.923877 -0.000000 0.382690
    outer loop
      vertex 223.043396 166.207397 -519.554565
      vertex 223.043396 185.257401 -519.554565
      vertex 222.547791 185.257401 -518.358093
    endloop
  endfacet
  facet normal 0.991445 -0.000000 0.130523
    outer loop
      vertex 222.378754 166.207397 -517.074097
      vertex 222.547791 185.257401 -518.358093
      vertex 222.378754 185.257401 -517.074097
    endloop
  endfacet
  facet normal 0.991445 0.000000 -0.130529
    outer loop
      vertex 222.547791 166.207397 -515.790161
      vertex 222.378754 166.207397 -517.074097
      vertex 222.547791 185.257401 -515.790161
    endloop
  endfacet
  facet normal 0.991445 0.000000 -0.130529
    outer loop
      vertex 222.378754 166.207397 -517.074097
      vertex 222.378754 185.257401 -517.074097
      vertex 222.547791 185.257401 -515.790161
    endloop
  endfacet
  facet normal 0.923884 0.000000 -0.382674
    outer loop
      vertex 223.043396 166.207397 -514.593628
      vertex 222.547791 166.207397 -515.790161
      vertex 223.043396 185.257401 -514.593628
    endloop
  endfacet
  facet normal 0.923884 0.000000 -0.382674
    outer loop
      vertex 222.547791 166.207397 -515.790161
      vertex 222.547791 185.257401 -515.790161
      vertex 223.043396 185.257401 -514.593628
    endloop
  endfacet
  facet normal 0.793346 0.000000 -0.608771
    outer loop
      vertex 223.831772 166.207397 -513.566223
      vertex 223.043396 166.207397 -514.593628
      vertex 223.831772 185.257401 -513.566223
    endloop
  endfacet
  facet normal 0.793346 0.000000 -0.608771
    outer loop
      vertex 223.043396 166.207397 -514.593628
      vertex 223.043396 185.257401 -514.593628
      vertex 223.831772 185.257401 -513.566223
    endloop
  endfacet
  facet normal 0.608762 0.000000 -0.793353
    outer loop
      vertex 224.859222 166.207397 -512.777832
      vertex 223.831772 166.207397 -513.566223
      vertex 224.859222 185.257401 -512.777832
    endloop
  endfacet
  facet normal 0.382686 0.000000 -0.923878
    outer loop
      vertex 226.055710 166.207397 -512.282227
      vertex 224.859222 166.207397 -512.777832
      vertex 224.859222 185.257401 -512.777832
    endloop
  endfacet
  facet normal 0.608762 0.000000 -0.793353
    outer loop
      vertex 223.831772 166.207397 -513.566223
      vertex 223.831772 185.257401 -513.566223
      vertex 224.859222 185.257401 -512.777832
    endloop
  endfacet
  facet normal 0.382686 0.000000 -0.923878
    outer loop
      vertex 226.055710 166.207397 -512.282227
      vertex 224.859222 185.257401 -512.777832
      vertex 226.055710 185.257401 -512.282227
    endloop
  endfacet
  facet normal 0.130547 0.000000 -0.991442
    outer loop
      vertex 227.339691 166.207397 -512.113159
      vertex 226.055710 166.207397 -512.282227
      vertex 227.339691 185.257401 -512.113159
    endloop
  endfacet
  facet normal 0.130547 0.000000 -0.991442
    outer loop
      vertex 226.055710 166.207397 -512.282227
      vertex 226.055710 185.257401 -512.282227
      vertex 227.339691 185.257401 -512.113159
    endloop
  endfacet
   facet normal 0.000000 0.000000 -1.000000
    outer loop
      vertex 233.689697 166.207397 -512.113159
      vertex 227.339691 166.207397 -512.113159
      vertex 233.689697 185.257401 -512.113159
    endloop
  endfacet
  facet normal 0.000000 0.000000 -1.000000
    outer loop
      vertex 227.339691 166.207397 -512.113159
      vertex 227.339691 185.257401 -512.113159
      vertex 233.689697 185.257401 -512.113159
    endloop
  endfacet
endsolid Mesh
