solid Mesh
  facet normal -0.939693 0.000000 0.342020
    outer loop
      vertex -36.720497 166.207397 -433.328064
      vertex -36.720497 185.257401 -433.328064
      vertex -88.844368 166.207397 -576.537231
    endloop
  endfacet
  facet normal -0.939693 0.000000 0.342020
    outer loop
      vertex -88.844368 166.207397 -576.537231
      vertex -36.720497 185.257401 -433.328064
      vertex -82.328888 477.357391 -558.636108
    endloop
  endfacet
  facet normal -0.939693 0.000000 0.342020
    outer loop
      vertex -88.844368 166.207397 -576.537231
      vertex -82.328888 477.357391 -558.636108
      vertex -88.844368 477.357391 -576.537231
    endloop
  endfacet
  facet normal 0.000000 1.000000 0.000000
    outer loop
      vertex -64.427742 477.357391 -565.151550
      vertex -88.844368 477.357391 -576.537231
      vertex -82.328888 477.357391 -558.636108
    endloop
  endfacet
  facet normal 0.000000 1.000000 0.000000
    outer loop
      vertex -64.427742 477.357391 -565.151550
      vertex -70.943222 477.357391 -583.052734
      vertex -88.844368 477.357391 -576.537231
    endloop
  endfacet
  facet normal -0.341995 -0.000000 -0.939702
    outer loop
      vertex -79.272949 463.969696 -580.020935
      vertex -79.272949 223.791122 -580.020935
      vertex -79.893799 463.882690 -579.794983
    endloop
  endfacet
  facet normal -0.342059 0.000006 -0.939679
    outer loop
      vertex -81.093170 219.114700 -579.358459
      vertex -88.844368 166.207397 -576.537231
      vertex -81.589973 219.520370 -579.177612
    endloop
  endfacet
  facet normal -0.342026 0.000000 -0.939691
    outer loop
      vertex -78.694420 464.224701 -580.231506
      vertex -79.272949 223.791122 -580.020935
      vertex -79.272949 463.969696 -580.020935
    endloop
  endfacet
  facet normal -0.342026 -0.000000 -0.939691
    outer loop
      vertex -78.694420 464.224701 -580.231506
      vertex -78.694420 223.536102 -580.231506
      vertex -79.272949 223.791122 -580.020935
    endloop
  endfacet
  facet normal -0.342067 -0.000000 -0.939675
    outer loop
      vertex -78.694420 464.224701 -580.231506
      vertex -78.197624 223.130432 -580.412354
      vertex -78.694420 223.536102 -580.231506
    endloop
  endfacet
  facet normal -0.341995 -0.000004 -0.939702
    outer loop
      vertex -81.971176 220.049057 -579.038879
      vertex -81.589973 219.520370 -579.177612
      vertex -88.844368 166.207397 -576.537231
    endloop
  endfacet
  facet normal -0.342014 -0.000001 -0.939695
    outer loop
      vertex -82.210815 220.664719 -578.951660
      vertex -81.971176 220.049057 -579.038879
      vertex -88.844368 166.207397 -576.537231
    endloop
  endfacet
  facet normal -0.342067 -0.000000 -0.939675
    outer loop
      vertex -78.197624 464.630371 -580.412354
      vertex -78.197624 223.130432 -580.412354
      vertex -78.694420 464.224701 -580.231506
    endloop
  endfacet
  facet normal -0.342025 0.000000 -0.939691
    outer loop
      vertex -80.514641 218.859680 -579.569031
      vertex -88.844368 166.207397 -576.537231
      vertex -81.093170 219.114700 -579.358459
    endloop
  endfacet
  facet normal -0.342208 0.000026 -0.939624
    outer loop
      vertex -82.292549 221.325394 -578.921875
      vertex -82.210815 220.664719 -578.951660
      vertex -88.844368 166.207397 -576.537231
    endloop
  endfacet
  facet normal -0.342021 -0.000000 -0.939692
    outer loop
      vertex -79.893799 218.772705 -579.794983
      vertex -70.943222 166.207397 -583.052734
      vertex -88.844368 166.207397 -576.537231
    endloop
  endfacet
  facet normal -0.342081 -0.000043 -0.939670
    outer loop
      vertex -88.844368 477.357391 -576.537231
      vertex -82.210815 467.096100 -578.951660
      vertex -82.292549 466.435394 -578.921875
    endloop
  endfacet
  facet normal -0.341999 -0.000004 -0.939700
    outer loop
      vertex -79.893799 218.772705 -579.794983
      vertex -88.844368 166.207397 -576.537231
      vertex -80.514641 218.859680 -579.569031
    endloop
  endfacet
  facet normal -0.342018 0.000003 -0.939693
    outer loop
      vertex -88.844368 477.357391 -576.537231
      vertex -81.971176 467.711761 -579.038879
      vertex -82.210815 467.096100 -578.951660
    endloop
  endfacet
  facet normal -0.342006 0.000013 -0.939698
    outer loop
      vertex -88.844368 477.357391 -576.537231
      vertex -81.589973 468.240417 -579.177612
      vertex -81.971176 467.711761 -579.038879
    endloop
  endfacet
  facet normal -0.342046 -0.000024 -0.939683
    outer loop
      vertex -88.844368 477.357391 -576.537231
      vertex -81.093170 468.646118 -579.358459
      vertex -81.589973 468.240417 -579.177612
    endloop
  endfacet
  facet normal -0.342042 -0.000014 -0.939685
    outer loop
      vertex -88.844368 477.357391 -576.537231
      vertex -82.210815 465.774719 -578.951660
      vertex -81.971176 465.159058 -579.038879
    endloop
  endfacet
  facet normal -0.341920 0.000066 -0.939729
    outer loop
      vertex -88.844368 477.357391 -576.537231
      vertex -82.292549 466.435394 -578.921875
      vertex -82.210815 465.774719 -578.951660
    endloop
  endfacet
  facet normal -0.342326 -0.000009 -0.939581
    outer loop
      vertex -88.844368 477.357391 -576.537231
      vertex -82.210815 221.986084 -578.951660
      vertex -82.292549 221.325394 -578.921875
    endloop
  endfacet
  facet normal -0.342013 0.000000 -0.939695
    outer loop
      vertex -88.844368 477.357391 -576.537231
      vertex -81.971176 222.601746 -579.038879
      vertex -82.210815 221.986084 -578.951660
    endloop
  endfacet
  facet normal -0.342017 -0.000000 -0.939694
    outer loop
      vertex -88.844368 477.357391 -576.537231
      vertex -82.292549 221.325394 -578.921875
      vertex -88.844368 166.207397 -576.537231
    endloop
  endfacet
  facet normal -0.342021 0.000000 -0.939692
    outer loop
      vertex -88.844368 477.357391 -576.537231
      vertex -81.971176 465.159058 -579.038879
      vertex -81.971176 222.601746 -579.038879
    endloop
  endfacet
  facet normal -0.341996 0.000005 -0.939701
    outer loop
      vertex -79.272949 218.859680 -580.020935
      vertex -70.943222 166.207397 -583.052734
      vertex -79.893799 218.772705 -579.794983
    endloop
  endfacet
  facet normal -0.342025 -0.000002 -0.939691
    outer loop
      vertex -80.514641 468.901123 -579.569031
      vertex -81.093170 468.646118 -579.358459
      vertex -88.844368 477.357391 -576.537231
    endloop
  endfacet
  facet normal -0.342025 -0.000000 -0.939691
    outer loop
      vertex -78.694420 219.114700 -580.231506
      vertex -70.943222 166.207397 -583.052734
      vertex -79.272949 218.859680 -580.020935
    endloop
  endfacet
  facet normal -0.342063 -0.000007 -0.939677
    outer loop
      vertex -78.197624 219.520370 -580.412354
      vertex -70.943222 166.207397 -583.052734
      vertex -78.694420 219.114700 -580.231506
    endloop
  endfacet
  facet normal -0.342002 0.000023 -0.939699
    outer loop
      vertex -79.893799 468.988098 -579.794983
      vertex -80.514641 468.901123 -579.569031
      vertex -88.844368 477.357391 -576.537231
    endloop
  endfacet
  facet normal -0.341990 0.000005 -0.939704
    outer loop
      vertex -77.816414 220.049057 -580.551086
      vertex -70.943222 166.207397 -583.052734
      vertex -78.197624 219.520370 -580.412354
    endloop
  endfacet
  facet normal -0.342014 0.000001 -0.939695
    outer loop
      vertex -77.576775 220.664719 -580.638306
      vertex -70.943222 166.207397 -583.052734
      vertex -77.816414 220.049057 -580.551086
    endloop
  endfacet
  facet normal -0.341999 -0.000027 -0.939700
    outer loop
      vertex -70.943222 477.357391 -583.052734
      vertex -79.272949 468.901123 -580.020935
      vertex -79.893799 468.988098 -579.794983
    endloop
  endfacet
  facet normal -0.342025 0.000002 -0.939691
    outer loop
      vertex -70.943222 477.357391 -583.052734
      vertex -78.694420 468.646118 -580.231506
      vertex -79.272949 468.901123 -580.020935
    endloop
  endfacet
  facet normal -0.342049 0.000026 -0.939682
    outer loop
      vertex -70.943222 477.357391 -583.052734
      vertex -78.197624 468.240417 -580.412354
      vertex -78.694420 468.646118 -580.231506
    endloop
  endfacet
  facet normal -0.342003 -0.000015 -0.939699
    outer loop
      vertex -70.943222 477.357391 -583.052734
      vertex -77.816414 467.711761 -580.551086
      vertex -78.197624 468.240417 -580.412354
    endloop
  endfacet
  facet normal -0.341896 0.000017 -0.939738
    outer loop
      vertex -77.495041 221.325394 -580.668030
      vertex -70.943222 166.207397 -583.052734
      vertex -77.576775 220.664719 -580.638306
    endloop
  endfacet
  facet normal -0.342018 -0.000003 -0.939693
    outer loop
      vertex -70.943222 477.357391 -583.052734
      vertex -77.576775 467.096100 -580.638306
      vertex -77.816414 467.711761 -580.551086
    endloop
  endfacet
  facet normal -0.341982 -0.000030 -0.939707
    outer loop
      vertex -70.943222 477.357391 -583.052734
      vertex -77.495041 466.435394 -580.668030
      vertex -77.576775 467.096100 -580.638306
    endloop
  endfacet
  facet normal -0.342091 0.000045 -0.939667
    outer loop
      vertex -70.943222 477.357391 -583.052734
      vertex -77.576775 465.774719 -580.638306
      vertex -77.495041 466.435394 -580.668030
    endloop
  endfacet
  facet normal -0.342042 0.000014 -0.939685
    outer loop
      vertex -70.943222 477.357391 -583.052734
      vertex -77.816414 465.159058 -580.551086
      vertex -77.576775 465.774719 -580.638306
    endloop
  endfacet
  facet normal -0.342021 0.000000 -0.939692
    outer loop
      vertex -70.943222 477.357391 -583.052734
      vertex -79.893799 468.988098 -579.794983
      vertex -88.844368 477.357391 -576.537231
    endloop
  endfacet
  facet normal -0.342025 -0.000000 -0.939691
    outer loop
      vertex -70.943222 477.357391 -583.052734
      vertex -70.943222 166.207397 -583.052734
      vertex -77.495041 221.325394 -580.668030
    endloop
  endfacet
  facet normal -0.341814 -0.000006 -0.939768
    outer loop
      vertex -70.943222 477.357391 -583.052734
      vertex -77.495041 221.325394 -580.668030
      vertex -77.576775 221.986084 -580.638306
    endloop
  endfacet
  facet normal -0.342013 -0.000000 -0.939695
    outer loop
      vertex -70.943222 477.357391 -583.052734
      vertex -77.576775 221.986084 -580.638306
      vertex -77.816414 222.601746 -580.551086
    endloop
  endfacet
  facet normal -0.341986 -0.000001 -0.939705
    outer loop
      vertex -70.943222 477.357391 -583.052734
      vertex -77.816414 222.601746 -580.551086
      vertex -78.197624 223.130432 -580.412354
    endloop
  endfacet
  facet normal -0.342022 0.000000 -0.939692
    outer loop
      vertex -70.943222 477.357391 -583.052734
      vertex -78.197624 223.130432 -580.412354
      vertex -77.816414 465.159058 -580.551086
    endloop
  endfacet
  facet normal -0.341985 0.000000 -0.939706
    outer loop
      vertex -77.816414 465.159058 -580.551086
      vertex -78.197624 223.130432 -580.412354
      vertex -78.197624 464.630371 -580.412354
    endloop
  endfacet
  facet normal -0.342063 -0.000000 -0.939677
    outer loop
      vertex -81.589973 464.630371 -579.177612
      vertex -81.093170 223.536102 -579.358459
      vertex -81.589973 223.130432 -579.177612
    endloop
  endfacet
  facet normal -0.341991 -0.000000 -0.939703
    outer loop
      vertex -81.971176 465.159058 -579.038879
      vertex -81.589973 223.130432 -579.177612
      vertex -81.971176 222.601746 -579.038879
    endloop
  endfacet
  facet normal -0.341991 0.000000 -0.939703
    outer loop
      vertex -81.971176 465.159058 -579.038879
      vertex -81.589973 464.630371 -579.177612
      vertex -81.589973 223.130432 -579.177612
    endloop
  endfacet
  facet normal -0.342063 -0.000000 -0.939677
    outer loop
      vertex -81.093170 464.224701 -579.358459
      vertex -81.093170 223.536102 -579.358459
      vertex -81.589973 464.630371 -579.177612
    endloop
  endfacet
  facet normal -0.342026 -0.000000 -0.939691
    outer loop
      vertex -80.514641 463.969696 -579.569031
      vertex -80.514641 223.791122 -579.569031
      vertex -81.093170 223.536102 -579.358459
    endloop
  endfacet
  facet normal -0.342026 0.000000 -0.939691
    outer loop
      vertex -80.514641 463.969696 -579.569031
      vertex -81.093170 223.536102 -579.358459
      vertex -81.093170 464.224701 -579.358459
    endloop
  endfacet
  facet normal -0.341999 0.000000 -0.939700
    outer loop
      vertex -79.893799 463.882690 -579.794983
      vertex -80.514641 223.791122 -579.569031
      vertex -80.514641 463.969696 -579.569031
    endloop
  endfacet
  facet normal -0.341999 -0.000000 -0.939700
    outer loop
      vertex -79.893799 463.882690 -579.794983
      vertex -79.893799 223.878098 -579.794983
      vertex -80.514641 223.791122 -579.569031
    endloop
  endfacet
  facet normal -0.341995 -0.000000 -0.939702
    outer loop
      vertex -79.893799 463.882690 -579.794983
      vertex -79.272949 223.791122 -580.020935
      vertex -79.893799 223.878098 -579.794983
    endloop
  endfacet
  facet normal 0.000000 -1.000000 0.000000
    outer loop
      vertex -70.943222 166.207397 -583.052734
      vertex -36.720497 166.207397 -433.328064
      vertex -88.844368 166.207397 -576.537231
    endloop
  endfacet
  facet normal 0.000000 -1.000000 0.000000
    outer loop
      vertex -70.943222 166.207397 -583.052734
      vertex -18.819353 166.207397 -439.843567
      vertex -36.720497 166.207397 -433.328064
    endloop
  endfacet
  facet normal 0.342021 -0.000000 0.939692
    outer loop
      vertex -36.720497 166.207397 -433.328064
      vertex -18.819353 185.257401 -439.843567
      vertex -36.720497 185.257401 -433.328064
    endloop
  endfacet
  facet normal 0.342021 -0.000000 0.939692
    outer loop
      vertex -18.819353 166.207397 -439.843567
      vertex -18.819353 185.257401 -439.843567
      vertex -36.720497 166.207397 -433.328064
    endloop
  endfacet
  facet normal 0.311231 0.415242 0.854815
    outer loop
      vertex -69.319115 465.398895 -557.561584
      vertex -64.427742 477.357391 -565.151550
      vertex -69.243286 465.921417 -557.843018
    endloop
  endfacet
  facet normal 0.311111 0.415278 0.854842
    outer loop
      vertex -73.831787 467.965393 -557.165955
      vertex -73.522156 468.387634 -557.483765
      vertex -82.328888 477.357391 -558.636108
    endloop
  endfacet
  facet normal 0.311139 0.415303 0.854819
    outer loop
      vertex -73.120384 468.706360 -557.784851
      vertex -82.328888 477.357391 -558.636108
      vertex -73.522156 468.387634 -557.483765
    endloop
  endfacet
  facet normal 0.311131 0.415294 0.854827
    outer loop
      vertex -74.026794 467.471893 -556.855225
      vertex -73.831787 467.965393 -557.165955
      vertex -82.328888 477.357391 -558.636108
    endloop
  endfacet
  facet normal 0.311113 0.415292 0.854834
    outer loop
      vertex -36.720497 185.257401 -433.328064
      vertex -71.152077 463.885864 -556.159363
      vertex -71.645302 463.911743 -555.992432
    endloop
  endfacet
  facet normal 0.311186 0.415292 0.854807
    outer loop
      vertex -36.720497 185.257401 -433.328064
      vertex -71.645302 463.911743 -555.992432
      vertex -72.152634 464.049072 -555.874451
    endloop
  endfacet
  facet normal 0.311058 0.415293 0.854854
    outer loop
      vertex -36.720497 185.257401 -433.328064
      vertex -72.152634 464.049072 -555.874451
      vertex -72.665436 464.309143 -555.814209
    endloop
  endfacet
  facet normal 0.311132 0.415293 0.854827
    outer loop
      vertex -36.720497 185.257401 -433.328064
      vertex -72.665436 464.309143 -555.814209
      vertex -73.142677 464.682037 -555.821655
    endloop
  endfacet
  facet normal 0.311177 0.415295 0.854809
    outer loop
      vertex -36.720497 185.257401 -433.328064
      vertex -73.142677 464.682037 -555.821655
      vertex -73.540779 465.145050 -555.901672
    endloop
  endfacet
  facet normal 0.311149 0.415313 0.854811
    outer loop
      vertex -72.669441 468.905060 -558.045532
      vertex -82.328888 477.357391 -558.636108
      vertex -73.120384 468.706360 -557.784851
    endloop
  endfacet
  facet normal 0.311126 0.415293 0.854829
    outer loop
      vertex -36.720497 185.257401 -433.328064
      vertex -73.540779 465.145050 -555.901672
      vertex -82.328888 477.357391 -558.636108
    endloop
  endfacet
  facet normal 0.311106 0.415276 0.854844
    outer loop
      vertex -74.102623 466.949371 -556.573792
      vertex -74.026794 467.471893 -556.855225
      vertex -82.328888 477.357391 -558.636108
    endloop
  endfacet
  facet normal 0.311150 0.415292 0.854821
    outer loop
      vertex -18.819353 185.257401 -439.843567
      vertex -69.823753 464.483185 -556.933044
      vertex -70.225525 464.164429 -556.631958
    endloop
  endfacet
  facet normal 0.311136 0.415292 0.854826
    outer loop
      vertex -18.819353 185.257401 -439.843567
      vertex -70.225525 464.164429 -556.631958
      vertex -70.676468 463.965729 -556.371277
    endloop
  endfacet
  facet normal 0.311167 0.415294 0.854814
    outer loop
      vertex -18.819353 185.257401 -439.843567
      vertex -70.676468 463.965729 -556.371277
      vertex -71.152077 463.885864 -556.159363
    endloop
  endfacet
  facet normal 0.311132 0.415292 0.854827
    outer loop
      vertex -18.819353 185.257401 -439.843567
      vertex -71.152077 463.885864 -556.159363
      vertex -36.720497 185.257401 -433.328064
    endloop
  endfacet
  facet normal 0.311129 0.415292 0.854828
    outer loop
      vertex -18.819353 185.257401 -439.843567
      vertex -64.427742 477.357391 -565.151550
      vertex -69.319115 465.398895 -557.561584
    endloop
  endfacet
  facet normal 0.311162 0.415297 0.854814
    outer loop
      vertex -18.819353 185.257401 -439.843567
      vertex -69.319115 465.398895 -557.561584
      vertex -69.514122 464.905426 -557.250854
    endloop
  endfacet
  facet normal 0.311093 0.415292 0.854841
    outer loop
      vertex -18.819353 185.257401 -439.843567
      vertex -69.514122 464.905426 -557.250854
      vertex -69.823753 464.483185 -556.933044
    endloop
  endfacet
  facet normal 0.311139 0.415302 0.854820
    outer loop
      vertex -72.193832 468.984924 -558.257446
      vertex -82.328888 477.357391 -558.636108
      vertex -72.669441 468.905060 -558.045532
    endloop
  endfacet
  facet normal 0.311160 0.415311 0.854808
    outer loop
      vertex -74.071709 466.435394 -556.335327
      vertex -74.102623 466.949371 -556.573792
      vertex -82.328888 477.357391 -558.636108
    endloop
  endfacet
  facet normal 0.311130 0.415291 0.854828
    outer loop
      vertex -64.427742 477.357391 -565.151550
      vertex -82.328888 477.357391 -558.636108
      vertex -72.193832 468.984924 -558.257446
    endloop
  endfacet
  facet normal 0.311080 0.415335 0.854825
    outer loop
      vertex -71.700607 468.959076 -558.424377
      vertex -64.427742 477.357391 -565.151550
      vertex -72.193832 468.984924 -558.257446
    endloop
  endfacet
  facet normal 0.311058 0.415248 0.854876
    outer loop
      vertex -73.984299 466.051636 -556.180725
      vertex -74.071709 466.435394 -556.335327
      vertex -82.328888 477.357391 -558.636108
    endloop
  endfacet
  facet normal 0.311109 0.415311 0.854826
    outer loop
      vertex -71.193275 468.821747 -558.542297
      vertex -64.427742 477.357391 -565.151550
      vertex -71.700607 468.959076 -558.424377
    endloop
  endfacet
  facet normal 0.311256 0.415367 0.854746
    outer loop
      vertex -73.836395 465.658081 -556.043335
      vertex -73.984299 466.051636 -556.180725
      vertex -82.328888 477.357391 -558.636108
    endloop
  endfacet
  facet normal 0.311156 0.415274 0.854827
    outer loop
      vertex -70.680473 468.561646 -558.602600
      vertex -64.427742 477.357391 -565.151550
      vertex -71.193275 468.821747 -558.542297
    endloop
  endfacet
  facet normal 0.311276 0.415378 0.854733
    outer loop
      vertex -73.540779 465.145050 -555.901672
      vertex -73.836395 465.658081 -556.043335
      vertex -82.328888 477.357391 -558.636108
    endloop
  endfacet
  facet normal 0.311145 0.415282 0.854827
    outer loop
      vertex -70.203232 468.188751 -558.595154
      vertex -64.427742 477.357391 -565.151550
      vertex -70.680473 468.561646 -558.602600
    endloop
  endfacet
  facet normal 0.311145 0.415282 0.854827
    outer loop
      vertex -69.805130 467.725769 -558.515137
      vertex -64.427742 477.357391 -565.151550
      vertex -70.203232 468.188751 -558.595154
    endloop
  endfacet
  facet normal 0.311126 0.415294 0.854829
    outer loop
      vertex -69.509514 467.212708 -558.373474
      vertex -64.427742 477.357391 -565.151550
      vertex -69.805130 467.725769 -558.515137
    endloop
  endfacet
  facet normal 0.311067 0.415326 0.854834
    outer loop
      vertex -69.361610 466.819153 -558.236084
      vertex -64.427742 477.357391 -565.151550
      vertex -69.509514 467.212708 -558.373474
    endloop
  endfacet
  facet normal 0.311196 0.415258 0.854821
    outer loop
      vertex -69.274200 466.435394 -558.081482
      vertex -64.427742 477.357391 -565.151550
      vertex -69.361610 466.819153 -558.236084
    endloop
  endfacet
  facet normal 0.311078 0.415318 0.854834
    outer loop
      vertex -69.243286 465.921417 -557.843018
      vertex -64.427742 477.357391 -565.151550
      vertex -69.274200 466.435394 -558.081482
    endloop
  endfacet
  facet normal 0.939693 0.000000 -0.342020
    outer loop
      vertex -70.943222 166.207397 -583.052734
      vertex -18.819353 185.257401 -439.843567
      vertex -18.819353 166.207397 -439.843567
    endloop
  endfacet
  facet normal 0.939693 0.000000 -0.342020
    outer loop
      vertex -64.427742 477.357391 -565.151550
      vertex -18.819353 185.257401 -439.843567
      vertex -70.943222 166.207397 -583.052734
    endloop
  endfacet
  facet normal 0.939693 0.000000 -0.342019
    outer loop
      vertex -70.943222 477.357391 -583.052734
      vertex -64.427742 477.357391 -565.151550
      vertex -70.943222 166.207397 -583.052734
    endloop
  endfacet
  facet normal 0.934827 -0.101635 -0.340249
    outer loop
      vertex -74.102623 466.949371 -556.573792
      vertex -74.071709 466.435394 -556.335327
      vertex -82.292549 466.435394 -578.921875
    endloop
  endfacet
  facet normal 0.894599 -0.305487 -0.326144
    outer loop
      vertex -74.026794 467.471893 -556.855225
      vertex -74.102623 466.949371 -556.573792
      vertex -82.210815 467.096100 -578.951660
    endloop
  endfacet
  facet normal 0.931868 -0.130538 -0.338500
    outer loop
      vertex -74.102623 466.949371 -556.573792
      vertex -82.292549 466.435394 -578.921875
      vertex -82.210815 467.096100 -578.951660
    endloop
  endfacet
  facet normal 0.810141 -0.506252 -0.295601
    outer loop
      vertex -73.831787 467.965393 -557.165955
      vertex -74.026794 467.471893 -556.855225
      vertex -81.971176 467.711761 -579.038879
    endloop
  endfacet
  facet normal 0.868464 -0.382687 -0.315151
    outer loop
      vertex -74.026794 467.471893 -556.855225
      vertex -82.210815 467.096100 -578.951660
      vertex -81.971176 467.711761 -579.038879
    endloop
  endfacet
  facet normal 0.682078 -0.687583 -0.248995
    outer loop
      vertex -73.522156 468.387634 -557.483765
      vertex -73.831787 467.965393 -557.165955
      vertex -81.589973 468.240417 -579.177612
    endloop
  endfacet
  facet normal 0.745816 -0.608771 -0.270475
    outer loop
      vertex -73.831787 467.965393 -557.165955
      vertex -81.971176 467.711761 -579.038879
      vertex -81.589973 468.240417 -579.177612
    endloop
  endfacet
  facet normal 0.519126 -0.833421 -0.189522
    outer loop
      vertex -73.120384 468.706360 -557.784851
      vertex -73.522156 468.387634 -557.483765
      vertex -81.093170 468.646118 -579.358459
    endloop
  endfacet
  facet normal 0.572337 -0.793340 -0.207465
    outer loop
      vertex -73.522156 468.387634 -557.483765
      vertex -81.589973 468.240417 -579.177612
      vertex -81.093170 468.646118 -579.358459
    endloop
  endfacet
  facet normal 0.339451 -0.932473 -0.123558
    outer loop
      vertex -72.669441 468.905060 -558.045532
      vertex -73.120384 468.706360 -557.784851
      vertex -80.514641 468.901123 -579.569031
    endloop
  endfacet
  facet normal 0.142851 -0.988383 -0.051888
    outer loop
      vertex -72.193832 468.984924 -558.257446
      vertex -72.669441 468.905060 -558.045532
      vertex -80.514641 468.901123 -579.569031
    endloop
  endfacet
  facet normal 0.359776 -0.923884 -0.130380
    outer loop
      vertex -73.120384 468.706360 -557.784851
      vertex -81.093170 468.646118 -579.358459
      vertex -80.514641 468.901123 -579.569031
    endloop
  endfacet
  facet normal -0.046737 -0.998770 0.016562
    outer loop
      vertex -71.700607 468.959076 -558.424377
      vertex -72.193832 468.984924 -558.257446
      vertex -79.893799 468.988098 -579.794983
    endloop
  endfacet
  facet normal 0.122855 -0.991446 -0.044069
    outer loop
      vertex -72.193832 468.984924 -558.257446
      vertex -80.514641 468.901123 -579.569031
      vertex -79.893799 468.988098 -579.794983
    endloop
  endfacet
  facet normal -0.241351 -0.966510 0.087218
    outer loop
      vertex -71.193275 468.821747 -558.542297
      vertex -71.700607 468.959076 -558.424377
      vertex -79.272949 468.901123 -580.020935
    endloop
  endfacet
  facet normal -0.122315 -0.991446 0.045548
    outer loop
      vertex -71.700607 468.959076 -558.424377
      vertex -79.893799 468.988098 -579.794983
      vertex -79.272949 468.901123 -580.020935
    endloop
  endfacet
  facet normal -0.432061 -0.888140 0.156619
    outer loop
      vertex -70.680473 468.561646 -558.602600
      vertex -71.193275 468.821747 -558.542297
      vertex -78.694420 468.646118 -580.231506
    endloop
  endfacet
  facet normal -0.359282 -0.923884 0.131738
    outer loop
      vertex -71.193275 468.821747 -558.542297
      vertex -79.272949 468.901123 -580.020935
      vertex -78.694420 468.646118 -580.231506
    endloop
  endfacet
  facet normal -0.602857 -0.767180 0.219086
    outer loop
      vertex -70.203232 468.188751 -558.595154
      vertex -70.680473 468.561646 -558.602600
      vertex -78.197624 468.240417 -580.412354
    endloop
  endfacet
  facet normal -0.571862 -0.793336 0.208788
    outer loop
      vertex -70.680473 468.561646 -558.602600
      vertex -78.694420 468.646118 -580.231506
      vertex -78.197624 468.240417 -580.412354
    endloop
  endfacet
  facet normal -0.752143 -0.599416 0.273827
    outer loop
      vertex -69.805130 467.725769 -558.515137
      vertex -70.203232 468.188751 -558.595154
      vertex -77.816414 467.711761 -580.551086
    endloop
  endfacet
  facet normal -0.857904 -0.408118 0.312155
    outer loop
      vertex -69.509514 467.212708 -558.373474
      vertex -69.805130 467.725769 -558.515137
      vertex -77.816414 467.711761 -580.551086
    endloop
  endfacet
  facet normal -0.745371 -0.608778 0.271682
    outer loop
      vertex -70.203232 468.188751 -558.595154
      vertex -78.197624 468.240417 -580.412354
      vertex -77.816414 467.711761 -580.551086
    endloop
  endfacet
  facet normal -0.915098 -0.227739 0.332762
    outer loop
      vertex -69.361610 466.819153 -558.236084
      vertex -69.509514 467.212708 -558.373474
      vertex -77.576775 467.096100 -580.638306
    endloop
  endfacet
  facet normal -0.867974 -0.382687 0.316499
    outer loop
      vertex -69.509514 467.212708 -558.373474
      vertex -77.816414 467.711761 -580.551086
      vertex -77.576775 467.096100 -580.638306
    endloop
  endfacet
  facet normal -0.936973 -0.076029 0.341031
    outer loop
      vertex -69.274200 466.435394 -558.081482
      vertex -69.361610 466.819153 -558.236084
      vertex -77.495041 466.435394 -580.668030
    endloop
  endfacet
  facet normal -0.931353 -0.130508 0.339925
    outer loop
      vertex -69.361610 466.819153 -558.236084
      vertex -77.576775 467.096100 -580.638306
      vertex -77.495041 466.435394 -580.668030
    endloop
  endfacet
  facet normal -0.934827 0.101635 0.340249
    outer loop
      vertex -69.243286 465.921417 -557.843018
      vertex -69.274200 466.435394 -558.081482
      vertex -77.495041 466.435394 -580.668030
    endloop
  endfacet
  facet normal -0.895064 0.305075 0.325254
    outer loop
      vertex -69.319115 465.398895 -557.561584
      vertex -69.243286 465.921417 -557.843018
      vertex -77.576775 465.774719 -580.638306
    endloop
  endfacet
  facet normal -0.931443 0.130514 0.339676
    outer loop
      vertex -69.243286 465.921417 -557.843018
      vertex -77.495041 466.435394 -580.668030
      vertex -77.576775 465.774719 -580.638306
    endloop
  endfacet
  facet normal -0.810841 0.505819 0.294423
    outer loop
      vertex -69.514122 464.905426 -557.250854
      vertex -69.319115 465.398895 -557.561584
      vertex -77.816414 465.159058 -580.551086
    endloop
  endfacet
  facet normal -0.867870 0.382686 0.316787
    outer loop
      vertex -69.319115 465.398895 -557.561584
      vertex -77.576775 465.774719 -580.638306
      vertex -77.816414 465.159058 -580.551086
    endloop
  endfacet
  facet normal -0.682826 0.687260 0.247837
    outer loop
      vertex -69.823753 464.483185 -556.933044
      vertex -69.514122 464.905426 -557.250854
      vertex -78.197624 464.630371 -580.412354
    endloop
  endfacet
  facet normal -0.745214 0.608757 0.272160
    outer loop
      vertex -69.514122 464.905426 -557.250854
      vertex -77.816414 465.159058 -580.551086
      vertex -78.197624 464.630371 -580.412354
    endloop
  endfacet
  facet normal -0.519720 0.833251 0.188634
    outer loop
      vertex -70.225525 464.164429 -556.631958
      vertex -69.823753 464.483185 -556.933044
      vertex -78.694420 464.224701 -580.231506
    endloop
  endfacet
  facet normal -0.571790 0.793358 0.208902
    outer loop
      vertex -69.823753 464.483185 -556.933044
      vertex -78.197624 464.630371 -580.412354
      vertex -78.694420 464.224701 -580.231506
    endloop
  endfacet
  facet normal -0.339457 0.932472 0.123547
    outer loop
      vertex -70.676468 463.965729 -556.371277
      vertex -70.225525 464.164429 -556.631958
      vertex -79.272949 463.969696 -580.020935
    endloop
  endfacet
  facet normal -0.142773 0.988385 0.052063
    outer loop
      vertex -71.152077 463.885864 -556.159363
      vertex -70.676468 463.965729 -556.371277
      vertex -79.272949 463.969696 -580.020935
    endloop
  endfacet
  facet normal -0.359426 0.923884 0.131342
    outer loop
      vertex -70.225525 464.164429 -556.631958
      vertex -78.694420 464.224701 -580.231506
      vertex -79.272949 463.969696 -580.020935
    endloop
  endfacet
  facet normal 0.046534 0.998766 -0.017345
    outer loop
      vertex -71.645302 463.911743 -555.992432
      vertex -71.152077 463.885864 -556.159363
      vertex -79.893799 463.882690 -579.794983
    endloop
  endfacet
  facet normal -0.122499 0.991440 0.045174
    outer loop
      vertex -71.152077 463.885864 -556.159363
      vertex -79.272949 463.969696 -580.020935
      vertex -79.893799 463.882690 -579.794983
    endloop
  endfacet
  facet normal 0.241077 0.966479 -0.088316
    outer loop
      vertex -72.152634 464.049072 -555.874451
      vertex -71.645302 463.911743 -555.992432
      vertex -80.514641 463.969696 -579.569031
    endloop
  endfacet
  facet normal 0.122990 0.991440 -0.043831
    outer loop
      vertex -71.645302 463.911743 -555.992432
      vertex -79.893799 463.882690 -579.794983
      vertex -80.514641 463.969696 -579.569031
    endloop
  endfacet
  facet normal 0.431843 0.888044 -0.157765
    outer loop
      vertex -72.665436 464.309143 -555.814209
      vertex -72.152634 464.049072 -555.874451
      vertex -81.093170 464.224701 -579.358459
    endloop
  endfacet
  facet normal 0.359878 0.923884 -0.130099
    outer loop
      vertex -72.152634 464.049072 -555.874451
      vertex -80.514641 463.969696 -579.569031
      vertex -81.093170 464.224701 -579.358459
    endloop
  endfacet
  facet normal 0.602777 0.767065 -0.219707
    outer loop
      vertex -73.142677 464.682037 -555.821655
      vertex -72.665436 464.309143 -555.814209
      vertex -81.589973 464.630371 -579.177612
    endloop
  endfacet
  facet normal 0.572230 0.793362 -0.207677
    outer loop
      vertex -72.665436 464.309143 -555.814209
      vertex -81.093170 464.224701 -579.358459
      vertex -81.589973 464.630371 -579.177612
    endloop
  endfacet
  facet normal 0.752178 0.599427 -0.273705
    outer loop
      vertex -73.540779 465.145050 -555.901672
      vertex -73.142677 464.682037 -555.821655
      vertex -81.971176 465.159058 -579.038879
    endloop
  endfacet
  facet normal 0.857863 0.408071 -0.312329
    outer loop
      vertex -73.836395 465.658081 -556.043335
      vertex -73.540779 465.145050 -555.901672
      vertex -81.971176 465.159058 -579.038879
    endloop
  endfacet
  facet normal 0.745634 0.608750 -0.271025
    outer loop
      vertex -73.142677 464.682037 -555.821655
      vertex -81.589973 464.630371 -579.177612
      vertex -81.971176 465.159058 -579.038879
    endloop
  endfacet
  facet normal 0.914958 0.227493 -0.333316
    outer loop
      vertex -73.984299 466.051636 -556.180725
      vertex -73.836395 465.658081 -556.043335
      vertex -82.210815 465.774719 -578.951660
    endloop
  endfacet
  facet normal 0.868343 0.382687 -0.315485
    outer loop
      vertex -73.836395 465.658081 -556.043335
      vertex -81.971176 465.159058 -579.038879
      vertex -82.210815 465.774719 -578.951660
    endloop
  endfacet
  facet normal 0.936973 0.076029 -0.341031
    outer loop
      vertex -74.071709 466.435394 -556.335327
      vertex -73.984299 466.051636 -556.180725
      vertex -82.292549 466.435394 -578.921875
    endloop
  endfacet
  facet normal 0.931949 0.130544 -0.338275
    outer loop
      vertex -73.984299 466.051636 -556.180725
      vertex -82.210815 465.774719 -578.951660
      vertex -82.292549 466.435394 -578.921875
    endloop
  endfacet
  facet normal 0.931652 -0.130541 -0.339094
    outer loop
      vertex -73.605240 221.325394 -555.053711
      vertex -82.292549 221.325394 -578.921875
      vertex -82.210815 221.986084 -578.951660
    endloop
  endfacet
  facet normal 0.931654 -0.130521 -0.339094
    outer loop
      vertex -73.523499 221.986084 -555.083435
      vertex -73.605240 221.325394 -555.053711
      vertex -82.210815 221.986084 -578.951660
    endloop
  endfacet
  facet normal 0.868165 -0.382678 -0.315986
    outer loop
      vertex -73.283867 222.601746 -555.170654
      vertex -73.523499 221.986084 -555.083435
      vertex -81.971176 222.601746 -579.038879
    endloop
  endfacet
  facet normal 0.868162 -0.382687 -0.315985
    outer loop
      vertex -73.523499 221.986084 -555.083435
      vertex -82.210815 221.986084 -578.951660
      vertex -81.971176 222.601746 -579.038879
    endloop
  endfacet
  facet normal 0.745498 -0.608776 -0.271339
    outer loop
      vertex -72.902657 223.130432 -555.309448
      vertex -73.283867 222.601746 -555.170654
      vertex -81.589973 223.130432 -579.177612
    endloop
  endfacet
  facet normal 0.745517 -0.608750 -0.271346
    outer loop
      vertex -73.283867 222.601746 -555.170654
      vertex -81.971176 222.601746 -579.038879
      vertex -81.589973 223.130432 -579.177612
    endloop
  endfacet
  facet normal 0.572057 -0.793347 -0.208211
    outer loop
      vertex -72.405861 223.536102 -555.490234
      vertex -72.902657 223.130432 -555.309448
      vertex -81.093170 223.536102 -579.358459
    endloop
  endfacet
  facet normal 0.359608 -0.923878 -0.130886
    outer loop
      vertex -71.827324 223.791122 -555.700806
      vertex -72.405861 223.536102 -555.490234
      vertex -81.093170 223.536102 -579.358459
    endloop
  endfacet
  facet normal 0.572037 -0.793362 -0.208205
    outer loop
      vertex -72.902657 223.130432 -555.309448
      vertex -81.589973 223.130432 -579.177612
      vertex -81.093170 223.536102 -579.358459
    endloop
  endfacet
  facet normal 0.122647 -0.991446 -0.044640
    outer loop
      vertex -71.206482 223.878098 -555.926758
      vertex -71.827324 223.791122 -555.700806
      vertex -80.514641 223.791122 -579.569031
    endloop
  endfacet
  facet normal 0.359612 -0.923877 -0.130888
    outer loop
      vertex -71.827324 223.791122 -555.700806
      vertex -81.093170 223.536102 -579.358459
      vertex -80.514641 223.791122 -579.569031
    endloop
  endfacet
  facet normal 0.122647 -0.991446 -0.044640
    outer loop
      vertex -71.206482 223.878098 -555.926758
      vertex -80.514641 223.791122 -579.569031
      vertex -79.893799 223.878098 -579.794983
    endloop
  endfacet
  facet normal -0.122643 -0.991446 0.044639
    outer loop
      vertex -70.585640 223.791122 -556.152771
      vertex -71.206482 223.878098 -555.926758
      vertex -79.272949 223.791122 -580.020935
    endloop
  endfacet
  facet normal -0.122646 -0.991446 0.044639
    outer loop
      vertex -71.206482 223.878098 -555.926758
      vertex -79.893799 223.878098 -579.794983
      vertex -79.272949 223.791122 -580.020935
    endloop
  endfacet
  facet normal -0.359612 -0.923877 0.130888
    outer loop
      vertex -70.007111 223.536102 -556.363342
      vertex -70.585640 223.791122 -556.152771
      vertex -78.694420 223.536102 -580.231506
    endloop
  endfacet
  facet normal -0.359611 -0.923877 0.130888
    outer loop
      vertex -70.585640 223.791122 -556.152771
      vertex -79.272949 223.791122 -580.020935
      vertex -78.694420 223.536102 -580.231506
    endloop
  endfacet
  facet normal -0.572052 -0.793351 0.208210
    outer loop
      vertex -69.510307 223.130432 -556.544128
      vertex -70.007111 223.536102 -556.363342
      vertex -78.197624 223.130432 -580.412354
    endloop
  endfacet
  facet normal -0.745517 -0.608750 0.271346
    outer loop
      vertex -69.129105 222.601746 -556.682861
      vertex -69.510307 223.130432 -556.544128
      vertex -78.197624 223.130432 -580.412354
    endloop
  endfacet
  facet normal -0.572042 -0.793358 0.208207
    outer loop
      vertex -70.007111 223.536102 -556.363342
      vertex -78.694420 223.536102 -580.231506
      vertex -78.197624 223.130432 -580.412354
    endloop
  endfacet
  facet normal -0.745512 -0.608756 0.271344
    outer loop
      vertex -69.129105 222.601746 -556.682861
      vertex -78.197624 223.130432 -580.412354
      vertex -77.816414 222.601746 -580.551086
    endloop
  endfacet
  facet normal -0.868162 -0.382687 0.315984
    outer loop
      vertex -68.889465 221.986084 -556.770081
      vertex -69.129105 222.601746 -556.682861
      vertex -77.576775 221.986084 -580.638306
    endloop
  endfacet
  facet normal -0.868162 -0.382687 0.315984
    outer loop
      vertex -69.129105 222.601746 -556.682861
      vertex -77.816414 222.601746 -580.551086
      vertex -77.576775 221.986084 -580.638306
    endloop
  endfacet
  facet normal -0.931652 -0.130541 0.339094
    outer loop
      vertex -68.807732 221.325394 -556.799866
      vertex -68.889465 221.986084 -556.770081
      vertex -77.495041 221.325394 -580.668030
    endloop
  endfacet
  facet normal -0.931656 -0.130510 0.339094
    outer loop
      vertex -68.889465 221.986084 -556.770081
      vertex -77.576775 221.986084 -580.638306
      vertex -77.495041 221.325394 -580.668030
    endloop
  endfacet
  facet normal -0.931655 0.130513 0.339095
    outer loop
      vertex -68.807732 221.325394 -556.799866
      vertex -77.495041 221.325394 -580.668030
      vertex -77.576775 220.664719 -580.638306
    endloop
  endfacet
  facet normal -0.931651 0.130544 0.339093
    outer loop
      vertex -68.889465 220.664719 -556.770081
      vertex -68.807732 221.325394 -556.799866
      vertex -77.576775 220.664719 -580.638306
    endloop
  endfacet
  facet normal -0.868162 0.382687 0.315984
    outer loop
      vertex -69.129105 220.049057 -556.682861
      vertex -68.889465 220.664719 -556.770081
      vertex -77.816414 220.049057 -580.551086
    endloop
  endfacet
  facet normal -0.868162 0.382687 0.315984
    outer loop
      vertex -68.889465 220.664719 -556.770081
      vertex -77.576775 220.664719 -580.638306
      vertex -77.816414 220.049057 -580.551086
    endloop
  endfacet
  facet normal -0.745517 0.608750 0.271346
    outer loop
      vertex -69.510307 219.520370 -556.544128
      vertex -69.129105 220.049057 -556.682861
      vertex -78.197624 219.520370 -580.412354
    endloop
  endfacet
  facet normal -0.745512 0.608756 0.271344
    outer loop
      vertex -69.129105 220.049057 -556.682861
      vertex -77.816414 220.049057 -580.551086
      vertex -78.197624 219.520370 -580.412354
    endloop
  endfacet
  facet normal -0.572052 0.793351 0.208210
    outer loop
      vertex -70.007111 219.114700 -556.363342
      vertex -69.510307 219.520370 -556.544128
      vertex -78.694420 219.114700 -580.231506
    endloop
  endfacet
  facet normal -0.572042 0.793358 0.208206
    outer loop
      vertex -69.510307 219.520370 -556.544128
      vertex -78.197624 219.520370 -580.412354
      vertex -78.694420 219.114700 -580.231506
    endloop
  endfacet
  facet normal -0.359612 0.923877 0.130888
    outer loop
      vertex -70.585640 218.859680 -556.152771
      vertex -70.007111 219.114700 -556.363342
      vertex -79.272949 218.859680 -580.020935
    endloop
  endfacet
  facet normal -0.359612 0.923876 0.130888
    outer loop
      vertex -70.007111 219.114700 -556.363342
      vertex -78.694420 219.114700 -580.231506
      vertex -79.272949 218.859680 -580.020935
    endloop
  endfacet
  facet normal -0.122644 0.991446 0.044639
    outer loop
      vertex -71.206482 218.772705 -555.926758
      vertex -70.585640 218.859680 -556.152771
      vertex -79.893799 218.772705 -579.794983
    endloop
  endfacet
  facet normal 0.122647 0.991446 -0.044640
    outer loop
      vertex -71.827324 218.859680 -555.700806
      vertex -71.206482 218.772705 -555.926758
      vertex -79.893799 218.772705 -579.794983
    endloop
  endfacet
  facet normal -0.122646 0.991446 0.044640
    outer loop
      vertex -70.585640 218.859680 -556.152771
      vertex -79.272949 218.859680 -580.020935
      vertex -79.893799 218.772705 -579.794983
    endloop
  endfacet
  facet normal 0.122647 0.991446 -0.044640
    outer loop
      vertex -71.827324 218.859680 -555.700806
      vertex -79.893799 218.772705 -579.794983
      vertex -80.514641 218.859680 -579.569031
    endloop
  endfacet
  facet normal 0.359608 0.923878 -0.130886
    outer loop
      vertex -72.405861 219.114700 -555.490234
      vertex -71.827324 218.859680 -555.700806
      vertex -81.093170 219.114700 -579.358459
    endloop
  endfacet
  facet normal 0.572057 0.793347 -0.208211
    outer loop
      vertex -72.902657 219.520370 -555.309448
      vertex -72.405861 219.114700 -555.490234
      vertex -81.093170 219.114700 -579.358459
    endloop
  endfacet
  facet normal 0.359612 0.923877 -0.130888
    outer loop
      vertex -71.827324 218.859680 -555.700806
      vertex -80.514641 218.859680 -579.569031
      vertex -81.093170 219.114700 -579.358459
    endloop
  endfacet
  facet normal 0.572037 0.793362 -0.208205
    outer loop
      vertex -72.902657 219.520370 -555.309448
      vertex -81.093170 219.114700 -579.358459
      vertex -81.589973 219.520370 -579.177612
    endloop
  endfacet
  facet normal 0.745498 0.608776 -0.271339
    outer loop
      vertex -73.283867 220.049057 -555.170654
      vertex -72.902657 219.520370 -555.309448
      vertex -81.971176 220.049057 -579.038879
    endloop
  endfacet
  facet normal 0.745516 0.608750 -0.271346
    outer loop
      vertex -72.902657 219.520370 -555.309448
      vertex -81.589973 219.520370 -579.177612
      vertex -81.971176 220.049057 -579.038879
    endloop
  endfacet
  facet normal 0.868165 0.382678 -0.315986
    outer loop
      vertex -73.523499 220.664719 -555.083435
      vertex -73.283867 220.049057 -555.170654
      vertex -82.210815 220.664719 -578.951660
    endloop
  endfacet
  facet normal 0.868162 0.382687 -0.315984
    outer loop
      vertex -73.283867 220.049057 -555.170654
      vertex -81.971176 220.049057 -579.038879
      vertex -82.210815 220.664719 -578.951660
    endloop
  endfacet
  facet normal 0.931654 0.130524 -0.339095
    outer loop
      vertex -73.605240 221.325394 -555.053711
      vertex -73.523499 220.664719 -555.083435
      vertex -82.292549 221.325394 -578.921875
    endloop
  endfacet
  facet normal 0.931651 0.130543 -0.339093
    outer loop
      vertex -73.523499 220.664719 -555.083435
      vertex -82.210815 220.664719 -578.951660
      vertex -82.292549 221.325394 -578.921875
    endloop
  endfacet
  facet normal -0.342391 -0.000000 -0.939558
    outer loop
      vertex -68.889465 221.986084 -556.770081
      vertex -68.807732 221.325394 -556.799866
      vertex -68.889465 220.664719 -556.770081
    endloop
  endfacet
  facet normal -0.342012 -0.000000 -0.939696
    outer loop
      vertex -68.889465 221.986084 -556.770081
      vertex -68.889465 220.664719 -556.770081
      vertex -69.129105 220.049057 -556.682861
    endloop
  endfacet
  facet normal -0.341986 -0.000004 -0.939705
    outer loop
      vertex -68.889465 221.986084 -556.770081
      vertex -69.129105 220.049057 -556.682861
      vertex -69.510307 219.520370 -556.544128
    endloop
  endfacet
  facet normal -0.341951 -0.000014 -0.939718
    outer loop
      vertex -68.889465 221.986084 -556.770081
      vertex -69.510307 219.520370 -556.544128
      vertex -70.007111 219.114700 -556.363342
    endloop
  endfacet
  facet normal -0.342035 0.000023 -0.939687
    outer loop
      vertex -68.889465 221.986084 -556.770081
      vertex -70.007111 219.114700 -556.363342
      vertex -70.585640 218.859680 -556.152771
    endloop
  endfacet
  facet normal -0.342102 -0.000195 -0.939663
    outer loop
      vertex -70.585640 223.791122 -556.152771
      vertex -70.007111 223.536102 -556.363342
      vertex -69.510307 223.130432 -556.544128
    endloop
  endfacet
  facet normal -0.342000 -0.000007 -0.939700
    outer loop
      vertex -70.585640 223.791122 -556.152771
      vertex -69.510307 223.130432 -556.544128
      vertex -69.129105 222.601746 -556.682861
    endloop
  endfacet
  facet normal -0.341986 0.000011 -0.939705
    outer loop
      vertex -70.585640 223.791122 -556.152771
      vertex -69.129105 222.601746 -556.682861
      vertex -68.889465 221.986084 -556.770081
    endloop
  endfacet
  facet normal -0.342081 -0.000000 -0.939671
    outer loop
      vertex -70.585640 223.791122 -556.152771
      vertex -70.585640 218.859680 -556.152771
      vertex -71.206482 218.772705 -555.926758
    endloop
  endfacet
  facet normal -0.341997 -0.000000 -0.939701
    outer loop
      vertex -70.585640 223.791122 -556.152771
      vertex -68.889465 221.986084 -556.770081
      vertex -70.585640 218.859680 -556.152771
    endloop
  endfacet
  facet normal -0.342040 0.000330 -0.939685
    outer loop
      vertex -71.827324 223.791122 -555.700806
      vertex -71.206482 223.878098 -555.926758
      vertex -70.585640 223.791122 -556.152771
    endloop
  endfacet
  facet normal -0.341999 -0.000000 -0.939700
    outer loop
      vertex -71.827324 223.791122 -555.700806
      vertex -71.206482 218.772705 -555.926758
      vertex -71.827324 218.859680 -555.700806
    endloop
  endfacet
  facet normal -0.342040 -0.000006 -0.939685
    outer loop
      vertex -71.827324 223.791122 -555.700806
      vertex -70.585640 223.791122 -556.152771
      vertex -71.206482 218.772705 -555.926758
    endloop
  endfacet
  facet normal -0.342020 0.000004 -0.939693
    outer loop
      vertex -73.523499 221.986084 -555.083435
      vertex -71.827324 218.859680 -555.700806
      vertex -72.405861 219.114700 -555.490234
    endloop
  endfacet
  facet normal -0.341936 0.000041 -0.939723
    outer loop
      vertex -73.523499 221.986084 -555.083435
      vertex -72.405861 219.114700 -555.490234
      vertex -72.902657 219.520370 -555.309448
    endloop
  endfacet
  facet normal -0.342137 -0.000016 -0.939650
    outer loop
      vertex -73.523499 221.986084 -555.083435
      vertex -72.902657 219.520370 -555.309448
      vertex -73.283867 220.049057 -555.170654
    endloop
  endfacet
  facet normal -0.342022 -0.000000 -0.939692
    outer loop
      vertex -73.523499 221.986084 -555.083435
      vertex -73.283867 220.049057 -555.170654
      vertex -73.523499 220.664719 -555.083435
    endloop
  endfacet
  facet normal -0.341743 -0.000000 -0.939793
    outer loop
      vertex -73.523499 221.986084 -555.083435
      vertex -73.523499 220.664719 -555.083435
      vertex -73.605240 221.325394 -555.053711
    endloop
  endfacet
  facet normal -0.342027 0.000000 -0.939690
    outer loop
      vertex -73.523499 221.986084 -555.083435
      vertex -71.827324 223.791122 -555.700806
      vertex -71.827324 218.859680 -555.700806
    endloop
  endfacet
  facet normal -0.342030 0.000004 -0.939689
    outer loop
      vertex -73.283867 222.601746 -555.170654
      vertex -71.827324 223.791122 -555.700806
      vertex -73.523499 221.986084 -555.083435
    endloop
  endfacet
  facet normal -0.342088 0.000169 -0.939668
    outer loop
      vertex -72.902657 223.130432 -555.309448
      vertex -72.405861 223.536102 -555.490234
      vertex -71.827324 223.791122 -555.700806
    endloop
  endfacet
  facet normal -0.341899 -0.000179 -0.939737
    outer loop
      vertex -72.902657 223.130432 -555.309448
      vertex -71.827324 223.791122 -555.700806
      vertex -73.283867 222.601746 -555.170654
    endloop
  endfacet
endsolid Mesh
