solid Mesh
  facet normal -0.000000 -1.000000 0.000000
    outer loop
      vertex 128.531143 368.680786 -156.267349
      vertex 124.847725 368.680786 -146.147247
      vertex 127.940048 368.680786 -156.575058
    endloop
  endfacet
  facet normal 0.000000 -1.000000 -0.000000
    outer loop
      vertex 124.847725 368.680786 -146.147247
      vertex 124.197128 368.680786 -146.291473
      vertex 127.940048 368.680786 -156.575058
    endloop
  endfacet
  facet normal 0.000000 -1.000000 0.000000
    outer loop
      vertex 125.053467 368.680786 -141.434952
      vertex 127.782784 368.680786 -134.929153
      vertex 124.417923 368.680786 -141.234573
    endloop
  endfacet
  facet normal -0.000000 -1.000000 -0.000000
    outer loop
      vertex 124.197128 368.680786 -146.291473
      vertex 123.531380 368.680786 -146.262405
      vertex 127.940048 368.680786 -156.575058
    endloop
  endfacet
  facet normal 0.000000 -1.000000 0.000000
    outer loop
      vertex 127.782784 368.680786 -134.929153
      vertex 125.053467 368.680786 -141.434952
      vertex 125.615494 368.680786 -141.792999
    endloop
  endfacet
  facet normal -0.000000 -1.000000 0.000000
    outer loop
      vertex 127.940048 368.680786 -156.575058
      vertex 123.531380 368.680786 -146.262405
      vertex 127.448738 368.680786 -157.025269
    endloop
  endfacet
  facet normal -0.000000 -1.000000 -0.000000
    outer loop
      vertex 123.531380 368.680786 -146.262405
      vertex 122.895828 368.680786 -146.062012
      vertex 127.448738 368.680786 -157.025269
    endloop
  endfacet
  facet normal 0.000000 -1.000000 0.000000
    outer loop
      vertex 127.782784 368.680786 -134.929153
      vertex 125.615494 368.680786 -141.792999
      vertex 126.065697 368.680786 -142.284317
    endloop
  endfacet
  facet normal 0.000000 -1.000000 0.000000
    outer loop
      vertex 124.417923 368.680786 -141.234573
      vertex 127.782784 368.680786 -134.929153
      vertex 123.752167 368.680786 -141.205505
    endloop
  endfacet
  facet normal 0.000000 -1.000000 0.000000
    outer loop
      vertex 131.495270 368.680786 -157.201935
      vertex 131.802979 368.680786 -157.793030
      vertex 137.556015 368.680786 -161.780869
    endloop
  endfacet
  facet normal 0.000000 -1.000000 0.000000
    outer loop
      vertex 131.802979 368.680786 -157.793030
      vertex 131.947205 368.680786 -158.443619
      vertex 137.556015 368.680786 -161.780869
    endloop
  endfacet
  facet normal 0.000000 -1.000000 -0.000000
    outer loop
      vertex 131.947205 368.680786 -158.443619
      vertex 131.918137 368.680786 -159.109375
      vertex 137.556015 368.680786 -161.780869
    endloop
  endfacet
  facet normal 0.000000 -1.000000 0.000000
    outer loop
      vertex 127.782784 368.680786 -134.929153
      vertex 126.065697 368.680786 -142.284317
      vertex 126.373405 368.680786 -142.875412
    endloop
  endfacet
  facet normal 0.000000 -1.000000 -0.000000
    outer loop
      vertex 127.782784 368.680786 -134.929153
      vertex 126.517639 368.680786 -143.526001
      vertex 137.556015 368.680786 -161.780869
    endloop
  endfacet
  facet normal 0.000000 -1.000000 0.000000
    outer loop
      vertex 126.517639 368.680786 -143.526001
      vertex 131.495270 368.680786 -157.201935
      vertex 137.556015 368.680786 -161.780869
    endloop
  endfacet
  facet normal 0.000000 -1.000000 0.000000
    outer loop
      vertex 137.556015 368.680786 -161.780869
      vertex 131.918137 368.680786 -159.109375
      vertex 131.717758 368.680786 -159.744919
    endloop
  endfacet
  facet normal -0.000000 -1.000000 0.000000
    outer loop
      vertex 123.752167 368.680786 -141.205505
      vertex 127.782784 368.680786 -134.929153
      vertex 123.101578 368.680786 -141.349731
    endloop
  endfacet
  facet normal -0.000000 -1.000000 0.000000
    outer loop
      vertex 127.448738 368.680786 -157.025269
      vertex 122.895828 368.680786 -146.062012
      vertex 127.090691 368.680786 -157.587296
    endloop
  endfacet
  facet normal -0.000000 -1.000000 -0.000000
    outer loop
      vertex 122.895828 368.680786 -146.062012
      vertex 122.333809 368.680786 -145.703964
      vertex 127.090691 368.680786 -157.587296
    endloop
  endfacet
  facet normal -0.000000 -1.000000 -0.000000
    outer loop
      vertex 122.333809 368.680786 -145.703964
      vertex 121.883598 368.680786 -145.212662
      vertex 126.890297 368.680786 -158.222839
    endloop
  endfacet
  facet normal 0.000000 -1.000000 0.000000
    outer loop
      vertex 127.782784 368.680786 -134.929153
      vertex 126.373405 368.680786 -142.875412
      vertex 126.517639 368.680786 -143.526001
    endloop
  endfacet
  facet normal -0.000000 -1.000000 0.000000
    outer loop
      vertex 127.090691 368.680786 -157.587296
      vertex 122.333809 368.680786 -145.703964
      vertex 126.890297 368.680786 -158.222839
    endloop
  endfacet
  facet normal 0.000000 -1.000000 0.000000
    outer loop
      vertex 137.556015 368.680786 -161.780869
      vertex 131.717758 368.680786 -159.744919
      vertex 131.359695 368.680786 -160.306946
    endloop
  endfacet
  facet normal -0.000000 -1.000000 0.000000
    outer loop
      vertex 126.890297 368.680786 -158.222839
      vertex 121.883598 368.680786 -145.212662
      vertex 126.861237 368.680786 -158.888596
    endloop
  endfacet
  facet normal 0.000000 -1.000000 0.000000
    outer loop
      vertex 122.019165 368.680786 -142.107651
      vertex 122.510483 368.680786 -141.657440
      vertex 115.848686 368.680786 -139.272812
    endloop
  endfacet
  facet normal 0.000000 -1.000000 0.000000
    outer loop
      vertex 122.510483 368.680786 -141.657440
      vertex 123.101578 368.680786 -141.349731
      vertex 115.848686 368.680786 -139.272812
    endloop
  endfacet
  facet normal 0.000000 -1.000000 0.000000
    outer loop
      vertex 137.556015 368.680786 -161.780869
      vertex 131.359695 368.680786 -160.306946
      vertex 130.868393 368.680786 -160.757156
    endloop
  endfacet
  facet normal 0.000000 -1.000000 0.000000
    outer loop
      vertex 123.101578 368.680786 -141.349731
      vertex 127.782784 368.680786 -134.929153
      vertex 115.848686 368.680786 -139.272812
    endloop
  endfacet
  facet normal -0.000000 -1.000000 0.000000
    outer loop
      vertex 122.019165 368.680786 -142.107651
      vertex 115.848686 368.680786 -139.272812
      vertex 121.661118 368.680786 -142.669662
    endloop
  endfacet
  facet normal 0.000000 -1.000000 0.000000
    outer loop
      vertex 137.556015 368.680786 -161.780869
      vertex 130.868393 368.680786 -160.757156
      vertex 130.277298 368.680786 -161.064865
    endloop
  endfacet
  facet normal -0.000000 -1.000000 0.000000
    outer loop
      vertex 121.661118 368.680786 -142.669662
      vertex 115.848686 368.680786 -139.272812
      vertex 121.460732 368.680786 -143.305222
    endloop
  endfacet
  facet normal -0.000000 -1.000000 0.000000
    outer loop
      vertex 121.460732 368.680786 -143.305222
      vertex 115.848686 368.680786 -139.272812
      vertex 121.431664 368.680786 -143.970963
    endloop
  endfacet
  facet normal 0.000000 -1.000000 -0.000000
    outer loop
      vertex 130.277298 368.680786 -161.064865
      vertex 129.626709 368.680786 -161.209091
      vertex 131.863174 368.680786 -173.989182
    endloop
  endfacet
  facet normal -0.000000 -1.000000 -0.000000
    outer loop
      vertex 129.626709 368.680786 -161.209091
      vertex 128.960953 368.680786 -161.180023
      vertex 131.863174 368.680786 -173.989182
    endloop
  endfacet
  facet normal -0.000000 -1.000000 0.000000
    outer loop
      vertex 137.556015 368.680786 -161.780869
      vertex 130.277298 368.680786 -161.064865
      vertex 131.863174 368.680786 -173.989182
    endloop
  endfacet
  facet normal -0.000000 -1.000000 -0.000000
    outer loop
      vertex 121.431664 368.680786 -143.970963
      vertex 115.848686 368.680786 -139.272812
      vertex 121.575897 368.680786 -144.621567
    endloop
  endfacet
  facet normal -0.000000 -1.000000 0.000000
    outer loop
      vertex 128.960953 368.680786 -161.180023
      vertex 128.325409 368.680786 -160.979645
      vertex 128.879654 368.680786 -175.075104
    endloop
  endfacet
  facet normal -0.000000 -1.000000 -0.000000
    outer loop
      vertex 128.325409 368.680786 -160.979645
      vertex 127.763374 368.680786 -160.621582
      vertex 128.879654 368.680786 -175.075104
    endloop
  endfacet
  facet normal -0.000000 -1.000000 -0.000000
    outer loop
      vertex 127.763374 368.680786 -160.621582
      vertex 127.313171 368.680786 -160.130280
      vertex 128.879654 368.680786 -175.075104
    endloop
  endfacet
  facet normal -0.000000 -1.000000 -0.000000
    outer loop
      vertex 127.313171 368.680786 -160.130280
      vertex 127.005463 368.680786 -159.539185
      vertex 128.879654 368.680786 -175.075104
    endloop
  endfacet
  facet normal -0.000000 -1.000000 -0.000000
    outer loop
      vertex 121.575897 368.680786 -144.621567
      vertex 115.848686 368.680786 -139.272812
      vertex 121.883598 368.680786 -145.212662
    endloop
  endfacet
  facet normal -0.000000 -1.000000 0.000000
    outer loop
      vertex 131.863174 368.680786 -173.989182
      vertex 128.960953 368.680786 -161.180023
      vertex 128.879654 368.680786 -175.075104
    endloop
  endfacet
  facet normal -0.000000 -1.000000 -0.000000
    outer loop
      vertex 127.005463 368.680786 -159.539185
      vertex 115.848686 368.680786 -139.272812
      vertex 128.879654 368.680786 -175.075104
    endloop
  endfacet
  facet normal -0.000000 -1.000000 -0.000000
    outer loop
      vertex 126.861237 368.680786 -158.888596
      vertex 115.848686 368.680786 -139.272812
      vertex 127.005463 368.680786 -159.539185
    endloop
  endfacet
  facet normal -0.000000 -1.000000 -0.000000
    outer loop
      vertex 121.883598 368.680786 -145.212662
      vertex 115.848686 368.680786 -139.272812
      vertex 126.861237 368.680786 -158.888596
    endloop
  endfacet
  facet normal 0.000000 -1.000000 -0.000000
    outer loop
      vertex 126.488571 368.680786 -144.191757
      vertex 126.288177 368.680786 -144.827301
      vertex 130.483032 368.680786 -156.352570
    endloop
  endfacet
  facet normal 0.000000 -1.000000 0.000000
    outer loop
      vertex 126.488571 368.680786 -144.191757
      vertex 130.483032 368.680786 -156.352570
      vertex 131.045059 368.680786 -156.710632
    endloop
  endfacet
  facet normal 0.000000 -1.000000 -0.000000
    outer loop
      vertex 126.288177 368.680786 -144.827301
      vertex 125.930130 368.680786 -145.389328
      vertex 129.847488 368.680786 -156.152191
    endloop
  endfacet
  facet normal 0.000000 -1.000000 0.000000
    outer loop
      vertex 130.483032 368.680786 -156.352570
      vertex 126.288177 368.680786 -144.827301
      vertex 129.847488 368.680786 -156.152191
    endloop
  endfacet
  facet normal 0.000000 -1.000000 -0.000000
    outer loop
      vertex 125.930130 368.680786 -145.389328
      vertex 125.438820 368.680786 -145.839539
      vertex 129.181732 368.680786 -156.123123
    endloop
  endfacet
  facet normal 0.000000 -1.000000 -0.000000
    outer loop
      vertex 125.438820 368.680786 -145.839539
      vertex 124.847725 368.680786 -146.147247
      vertex 129.181732 368.680786 -156.123123
    endloop
  endfacet
  facet normal 0.000000 -1.000000 0.000000
    outer loop
      vertex 129.847488 368.680786 -156.152191
      vertex 125.930130 368.680786 -145.389328
      vertex 129.181732 368.680786 -156.123123
    endloop
  endfacet
  facet normal 0.000000 -1.000000 0.000000
    outer loop
      vertex 126.488571 368.680786 -144.191757
      vertex 131.045059 368.680786 -156.710632
      vertex 131.495270 368.680786 -157.201935
    endloop
  endfacet
  facet normal 0.000000 -1.000000 -0.000000
    outer loop
      vertex 126.517639 368.680786 -143.526001
      vertex 126.488571 368.680786 -144.191757
      vertex 131.495270 368.680786 -157.201935
    endloop
  endfacet
  facet normal -0.000000 -1.000000 0.000000
    outer loop
      vertex 129.181732 368.680786 -156.123123
      vertex 124.847725 368.680786 -146.147247
      vertex 128.531143 368.680786 -156.267349
    endloop
  endfacet
  facet normal -0.216429 0.000000 0.976298
    outer loop
      vertex 124.197128 368.680786 -146.291473
      vertex 124.847725 368.680786 -146.147247
      vertex 124.197128 378.205780 -146.291473
    endloop
  endfacet
  facet normal 0.043621 0.000000 0.999048
    outer loop
      vertex 123.531380 368.680786 -146.262405
      vertex 124.197128 368.680786 -146.291473
      vertex 124.197128 378.205780 -146.291473
    endloop
  endfacet
  facet normal -0.216429 0.000000 0.976298
    outer loop
      vertex 124.847725 368.680786 -146.147247
      vertex 124.847725 378.205780 -146.147247
      vertex 124.197128 378.205780 -146.291473
    endloop
  endfacet
  facet normal 0.300713 0.000000 0.953715
    outer loop
      vertex 122.895828 368.680786 -146.062012
      vertex 123.531380 368.680786 -146.262405
      vertex 123.531380 378.205780 -146.262405
    endloop
  endfacet
  facet normal 0.043621 -0.000000 0.999048
    outer loop
      vertex 123.531380 368.680786 -146.262405
      vertex 124.197128 378.205780 -146.291473
      vertex 123.531380 378.205780 -146.262405
    endloop
  endfacet
  facet normal 0.300713 -0.000000 0.953715
    outer loop
      vertex 122.895828 368.680786 -146.062012
      vertex 123.531380 378.205780 -146.262405
      vertex 122.895828 378.205780 -146.062012
    endloop
  endfacet
  facet normal 0.537301 -0.000000 0.843390
    outer loop
      vertex 122.333809 368.680786 -145.703964
      vertex 122.895828 368.680786 -146.062012
      vertex 122.333809 378.205780 -145.703964
    endloop
  endfacet
  facet normal 0.737266 0.000000 0.675602
    outer loop
      vertex 121.883598 368.680786 -145.212662
      vertex 122.333809 368.680786 -145.703964
      vertex 122.333809 378.205780 -145.703964
    endloop
  endfacet
  facet normal 0.537301 -0.000000 0.843390
    outer loop
      vertex 122.895828 368.680786 -146.062012
      vertex 122.895828 378.205780 -146.062012
      vertex 122.333809 378.205780 -145.703964
    endloop
  endfacet
  facet normal 0.737266 -0.000000 0.675602
    outer loop
      vertex 121.883598 368.680786 -145.212662
      vertex 122.333809 378.205780 -145.703964
      vertex 121.883598 378.205780 -145.212662
    endloop
  endfacet
  facet normal 0.887013 -0.000000 0.461745
    outer loop
      vertex 121.575897 368.680786 -144.621567
      vertex 121.883598 368.680786 -145.212662
      vertex 121.575897 378.205780 -144.621567
    endloop
  endfacet
  facet normal 0.976297 0.000000 0.216437
    outer loop
      vertex 121.431664 368.680786 -143.970963
      vertex 121.575897 368.680786 -144.621567
      vertex 121.575897 378.205780 -144.621567
    endloop
  endfacet
  facet normal 0.887013 -0.000000 0.461745
    outer loop
      vertex 121.883598 368.680786 -145.212662
      vertex 121.883598 378.205780 -145.212662
      vertex 121.575897 378.205780 -144.621567
    endloop
  endfacet
  facet normal 0.976297 -0.000000 0.216437
    outer loop
      vertex 121.431664 368.680786 -143.970963
      vertex 121.575897 378.205780 -144.621567
      vertex 121.431664 378.205780 -143.970963
    endloop
  endfacet
  facet normal 0.999048 0.000000 -0.043621
    outer loop
      vertex 121.460732 368.680786 -143.305222
      vertex 121.431664 368.680786 -143.970963
      vertex 121.460732 378.205780 -143.305222
    endloop
  endfacet
  facet normal 0.953719 0.000000 -0.300699
    outer loop
      vertex 121.661118 368.680786 -142.669662
      vertex 121.460732 368.680786 -143.305222
      vertex 121.460732 378.205780 -143.305222
    endloop
  endfacet
  facet normal 0.999048 0.000000 -0.043621
    outer loop
      vertex 121.431664 368.680786 -143.970963
      vertex 121.431664 378.205780 -143.970963
      vertex 121.460732 378.205780 -143.305222
    endloop
  endfacet
  facet normal 0.953719 0.000000 -0.300699
    outer loop
      vertex 121.661118 368.680786 -142.669662
      vertex 121.460732 378.205780 -143.305222
      vertex 121.661118 378.205780 -142.669662
    endloop
  endfacet
  facet normal 0.843387 0.000000 -0.537307
    outer loop
      vertex 122.019165 368.680786 -142.107651
      vertex 121.661118 368.680786 -142.669662
      vertex 122.019165 378.205780 -142.107651
    endloop
  endfacet
  facet normal 0.675591 0.000000 -0.737277
    outer loop
      vertex 122.510483 368.680786 -141.657440
      vertex 122.019165 368.680786 -142.107651
      vertex 122.019165 378.205780 -142.107651
    endloop
  endfacet
  facet normal 0.843387 0.000000 -0.537307
    outer loop
      vertex 121.661118 368.680786 -142.669662
      vertex 121.661118 378.205780 -142.669662
      vertex 122.019165 378.205780 -142.107651
    endloop
  endfacet
  facet normal 0.675591 0.000000 -0.737277
    outer loop
      vertex 122.510483 368.680786 -141.657440
      vertex 122.019165 378.205780 -142.107651
      vertex 122.510483 378.205780 -141.657440
    endloop
  endfacet
  facet normal 0.461754 0.000000 -0.887008
    outer loop
      vertex 123.101578 368.680786 -141.349731
      vertex 122.510483 368.680786 -141.657440
      vertex 123.101578 378.205780 -141.349731
    endloop
  endfacet
  facet normal 0.461754 0.000000 -0.887008
    outer loop
      vertex 122.510483 368.680786 -141.657440
      vertex 122.510483 378.205780 -141.657440
      vertex 123.101578 378.205780 -141.349731
    endloop
  endfacet
  facet normal 0.216431 0.000000 -0.976298
    outer loop
      vertex 123.752167 368.680786 -141.205505
      vertex 123.101578 368.680786 -141.349731
      vertex 123.752167 378.205780 -141.205505
    endloop
  endfacet
  facet normal 0.216431 0.000000 -0.976298
    outer loop
      vertex 123.101578 368.680786 -141.349731
      vertex 123.101578 378.205780 -141.349731
      vertex 123.752167 378.205780 -141.205505
    endloop
  endfacet
  facet normal -0.043620 0.000000 -0.999048
    outer loop
      vertex 124.417923 368.680786 -141.234573
      vertex 123.752167 368.680786 -141.205505
      vertex 124.417923 378.205780 -141.234573
    endloop
  endfacet
  facet normal -0.043620 0.000000 -0.999048
    outer loop
      vertex 123.752167 368.680786 -141.205505
      vertex 123.752167 378.205780 -141.205505
      vertex 124.417923 378.205780 -141.234573
    endloop
  endfacet
  facet normal -0.300695 0.000000 -0.953720
    outer loop
      vertex 125.053467 368.680786 -141.434952
      vertex 124.417923 368.680786 -141.234573
      vertex 125.053467 378.205780 -141.434952
    endloop
  endfacet
  facet normal -0.300695 0.000000 -0.953720
    outer loop
      vertex 124.417923 368.680786 -141.234573
      vertex 124.417923 378.205780 -141.234573
      vertex 125.053467 378.205780 -141.434952
    endloop
  endfacet
  facet normal -0.537296 0.000000 -0.843394
    outer loop
      vertex 125.615494 368.680786 -141.792999
      vertex 125.053467 368.680786 -141.434952
      vertex 125.615494 378.205780 -141.792999
    endloop
  endfacet
  facet normal -0.537296 0.000000 -0.843394
    outer loop
      vertex 125.053467 368.680786 -141.434952
      vertex 125.053467 378.205780 -141.434952
      vertex 125.615494 378.205780 -141.792999
    endloop
  endfacet
  facet normal -0.737282 0.000000 -0.675585
    outer loop
      vertex 126.065697 368.680786 -142.284317
      vertex 125.615494 368.680786 -141.792999
      vertex 126.065697 378.205780 -142.284317
    endloop
  endfacet
  facet normal -0.737282 0.000000 -0.675585
    outer loop
      vertex 125.615494 368.680786 -141.792999
      vertex 125.615494 378.205780 -141.792999
      vertex 126.065697 378.205780 -142.284317
    endloop
  endfacet
  facet normal -0.887008 0.000000 -0.461754
    outer loop
      vertex 126.373405 368.680786 -142.875412
      vertex 126.065697 368.680786 -142.284317
      vertex 126.373405 378.205780 -142.875412
    endloop
  endfacet
  facet normal -0.887008 0.000000 -0.461754
    outer loop
      vertex 126.065697 368.680786 -142.284317
      vertex 126.065697 378.205780 -142.284317
      vertex 126.373405 378.205780 -142.875412
    endloop
  endfacet
  facet normal -0.976296 0.000000 -0.216442
    outer loop
      vertex 126.517639 368.680786 -143.526001
      vertex 126.373405 368.680786 -142.875412
      vertex 126.517639 378.205780 -143.526001
    endloop
  endfacet
  facet normal -0.976296 0.000000 -0.216442
    outer loop
      vertex 126.373405 368.680786 -142.875412
      vertex 126.373405 378.205780 -142.875412
      vertex 126.517639 378.205780 -143.526001
    endloop
  endfacet
  facet normal -0.999048 0.000000 0.043620
    outer loop
      vertex 126.488571 368.680786 -144.191757
      vertex 126.517639 368.680786 -143.526001
      vertex 126.488571 378.205780 -144.191757
    endloop
  endfacet
  facet normal -0.999048 0.000000 0.043620
    outer loop
      vertex 126.517639 368.680786 -143.526001
      vertex 126.517639 378.205780 -143.526001
      vertex 126.488571 378.205780 -144.191757
    endloop
  endfacet
  facet normal -0.953714 0.000000 0.300716
    outer loop
      vertex 126.288177 368.680786 -144.827301
      vertex 126.488571 368.680786 -144.191757
      vertex 126.288177 378.205780 -144.827301
    endloop
  endfacet
  facet normal -0.953714 0.000000 0.300716
    outer loop
      vertex 126.488571 368.680786 -144.191757
      vertex 126.488571 378.205780 -144.191757
      vertex 126.288177 378.205780 -144.827301
    endloop
  endfacet
  facet normal -0.843394 0.000000 0.537296
    outer loop
      vertex 125.930130 368.680786 -145.389328
      vertex 126.288177 368.680786 -144.827301
      vertex 125.930130 378.205780 -145.389328
    endloop
  endfacet
  facet normal -0.843394 0.000000 0.537296
    outer loop
      vertex 126.288177 368.680786 -144.827301
      vertex 126.288177 378.205780 -144.827301
      vertex 125.930130 378.205780 -145.389328
    endloop
  endfacet
  facet normal -0.675597 0.000000 0.737272
    outer loop
      vertex 125.438820 368.680786 -145.839539
      vertex 125.930130 368.680786 -145.389328
      vertex 125.438820 378.205780 -145.839539
    endloop
  endfacet
  facet normal -0.675597 0.000000 0.737272
    outer loop
      vertex 125.930130 368.680786 -145.389328
      vertex 125.930130 378.205780 -145.389328
      vertex 125.438820 378.205780 -145.839539
    endloop
  endfacet
  facet normal -0.461754 0.000000 0.887008
    outer loop
      vertex 124.847725 368.680786 -146.147247
      vertex 125.438820 368.680786 -145.839539
      vertex 124.847725 378.205780 -146.147247
    endloop
  endfacet
  facet normal -0.461754 0.000000 0.887008
    outer loop
      vertex 125.438820 368.680786 -145.839539
      vertex 125.438820 378.205780 -145.839539
      vertex 124.847725 378.205780 -146.147247
    endloop
  endfacet
  facet normal 0.000000 1.000000 -0.000000
    outer loop
      vertex 127.940048 378.205780 -156.575058
      vertex 124.847725 378.205780 -146.147247
      vertex 128.531143 378.205780 -156.267349
    endloop
  endfacet
  facet normal 0.000000 1.000000 0.000000
    outer loop
      vertex 127.940048 378.205780 -156.575058
      vertex 124.197128 378.205780 -146.291473
      vertex 124.847725 378.205780 -146.147247
    endloop
  endfacet
  facet normal 0.000000 1.000000 0.000000
    outer loop
      vertex 127.940048 378.205780 -156.575058
      vertex 123.531380 378.205780 -146.262405
      vertex 124.197128 378.205780 -146.291473
    endloop
  endfacet
  facet normal -0.000000 1.000000 0.000000
    outer loop
      vertex 124.417923 378.205780 -141.234573
      vertex 127.782784 378.205780 -134.929153
      vertex 125.053467 378.205780 -141.434952
    endloop
  endfacet
  facet normal 0.000000 1.000000 -0.000000
    outer loop
      vertex 127.448738 378.205780 -157.025269
      vertex 123.531380 378.205780 -146.262405
      vertex 127.940048 378.205780 -156.575058
    endloop
  endfacet
  facet normal 0.000000 1.000000 -0.000000
    outer loop
      vertex 125.615494 378.205780 -141.792999
      vertex 125.053467 378.205780 -141.434952
      vertex 127.782784 378.205780 -134.929153
    endloop
  endfacet
  facet normal 0.000000 1.000000 0.000000
    outer loop
      vertex 127.448738 378.205780 -157.025269
      vertex 122.895828 378.205780 -146.062012
      vertex 123.531380 378.205780 -146.262405
    endloop
  endfacet
  facet normal -0.000000 1.000000 0.000000
    outer loop
      vertex 123.752167 378.205780 -141.205505
      vertex 127.782784 378.205780 -134.929153
      vertex 124.417923 378.205780 -141.234573
    endloop
  endfacet
  facet normal 0.000000 1.000000 0.000000
    outer loop
      vertex 137.556015 378.205780 -161.780869
      vertex 131.802979 378.205780 -157.793030
      vertex 131.495270 378.205780 -157.201935
    endloop
  endfacet
  facet normal 0.000000 1.000000 -0.000000
    outer loop
      vertex 126.065697 378.205780 -142.284317
      vertex 125.615494 378.205780 -141.792999
      vertex 127.782784 378.205780 -134.929153
    endloop
  endfacet
  facet normal 0.000000 1.000000 0.000000
    outer loop
      vertex 137.556015 378.205780 -161.780869
      vertex 131.947205 378.205780 -158.443619
      vertex 131.802979 378.205780 -157.793030
    endloop
  endfacet
  facet normal 0.000000 1.000000 0.000000
    outer loop
      vertex 137.556015 378.205780 -161.780869
      vertex 131.918137 378.205780 -159.109375
      vertex 131.947205 378.205780 -158.443619
    endloop
  endfacet
  facet normal 0.000000 1.000000 0.000000
    outer loop
      vertex 137.556015 378.205780 -161.780869
      vertex 126.517639 378.205780 -143.526001
      vertex 127.782784 378.205780 -134.929153
    endloop
  endfacet
  facet normal 0.000000 1.000000 -0.000000
    outer loop
      vertex 126.373405 378.205780 -142.875412
      vertex 126.065697 378.205780 -142.284317
      vertex 127.782784 378.205780 -134.929153
    endloop
  endfacet
  facet normal 0.000000 1.000000 0.000000
    outer loop
      vertex 137.556015 378.205780 -161.780869
      vertex 131.495270 378.205780 -157.201935
      vertex 126.517639 378.205780 -143.526001
    endloop
  endfacet
  facet normal 0.000000 1.000000 -0.000000
    outer loop
      vertex 127.090691 378.205780 -157.587296
      vertex 122.895828 378.205780 -146.062012
      vertex 127.448738 378.205780 -157.025269
    endloop
  endfacet
  facet normal 0.000000 1.000000 0.000000
    outer loop
      vertex 127.090691 378.205780 -157.587296
      vertex 122.333809 378.205780 -145.703964
      vertex 122.895828 378.205780 -146.062012
    endloop
  endfacet
  facet normal 0.000000 1.000000 0.000000
    outer loop
      vertex 123.101578 378.205780 -141.349731
      vertex 127.782784 378.205780 -134.929153
      vertex 123.752167 378.205780 -141.205505
    endloop
  endfacet
  facet normal -0.000000 1.000000 0.000000
    outer loop
      vertex 131.717758 378.205780 -159.744919
      vertex 131.918137 378.205780 -159.109375
      vertex 137.556015 378.205780 -161.780869
    endloop
  endfacet
  facet normal 0.000000 1.000000 -0.000000
    outer loop
      vertex 126.890297 378.205780 -158.222839
      vertex 122.333809 378.205780 -145.703964
      vertex 127.090691 378.205780 -157.587296
    endloop
  endfacet
  facet normal 0.000000 1.000000 0.000000
    outer loop
      vertex 126.890297 378.205780 -158.222839
      vertex 121.883598 378.205780 -145.212662
      vertex 122.333809 378.205780 -145.703964
    endloop
  endfacet
  facet normal -0.000000 1.000000 0.000000
    outer loop
      vertex 131.359695 378.205780 -160.306946
      vertex 131.717758 378.205780 -159.744919
      vertex 137.556015 378.205780 -161.780869
    endloop
  endfacet
  facet normal 0.000000 1.000000 -0.000000
    outer loop
      vertex 126.517639 378.205780 -143.526001
      vertex 126.373405 378.205780 -142.875412
      vertex 127.782784 378.205780 -134.929153
    endloop
  endfacet
  facet normal -0.000000 1.000000 0.000000
    outer loop
      vertex 130.868393 378.205780 -160.757156
      vertex 131.359695 378.205780 -160.306946
      vertex 137.556015 378.205780 -161.780869
    endloop
  endfacet
  facet normal 0.000000 1.000000 0.000000
    outer loop
      vertex 115.848686 378.205780 -139.272812
      vertex 122.510483 378.205780 -141.657440
      vertex 122.019165 378.205780 -142.107651
    endloop
  endfacet
  facet normal 0.000000 1.000000 0.000000
    outer loop
      vertex 115.848686 378.205780 -139.272812
      vertex 123.101578 378.205780 -141.349731
      vertex 122.510483 378.205780 -141.657440
    endloop
  endfacet
  facet normal 0.000000 1.000000 -0.000000
    outer loop
      vertex 126.861237 378.205780 -158.888596
      vertex 121.883598 378.205780 -145.212662
      vertex 126.890297 378.205780 -158.222839
    endloop
  endfacet
  facet normal -0.000000 1.000000 0.000000
    outer loop
      vertex 115.848686 378.205780 -139.272812
      vertex 127.782784 378.205780 -134.929153
      vertex 123.101578 378.205780 -141.349731
    endloop
  endfacet
  facet normal 0.000000 1.000000 -0.000000
    outer loop
      vertex 121.661118 378.205780 -142.669662
      vertex 115.848686 378.205780 -139.272812
      vertex 122.019165 378.205780 -142.107651
    endloop
  endfacet
  facet normal -0.000000 1.000000 0.000000
    outer loop
      vertex 130.277298 378.205780 -161.064865
      vertex 130.868393 378.205780 -160.757156
      vertex 137.556015 378.205780 -161.780869
    endloop
  endfacet
  facet normal 0.000000 1.000000 -0.000000
    outer loop
      vertex 121.460732 378.205780 -143.305222
      vertex 115.848686 378.205780 -139.272812
      vertex 121.661118 378.205780 -142.669662
    endloop
  endfacet
  facet normal 0.000000 1.000000 -0.000000
    outer loop
      vertex 121.431664 378.205780 -143.970963
      vertex 115.848686 378.205780 -139.272812
      vertex 121.460732 378.205780 -143.305222
    endloop
  endfacet
  facet normal 0.000000 1.000000 0.000000
    outer loop
      vertex 131.863174 378.205780 -173.989182
      vertex 129.626709 378.205780 -161.209091
      vertex 130.277298 378.205780 -161.064865
    endloop
  endfacet
  facet normal 0.000000 1.000000 0.000000
    outer loop
      vertex 131.863174 378.205780 -173.989182
      vertex 128.960953 378.205780 -161.180023
      vertex 129.626709 378.205780 -161.209091
    endloop
  endfacet
  facet normal 0.000000 1.000000 -0.000000
    outer loop
      vertex 131.863174 378.205780 -173.989182
      vertex 130.277298 378.205780 -161.064865
      vertex 137.556015 378.205780 -161.780869
    endloop
  endfacet
  facet normal 0.000000 1.000000 0.000000
    outer loop
      vertex 121.575897 378.205780 -144.621567
      vertex 115.848686 378.205780 -139.272812
      vertex 121.431664 378.205780 -143.970963
    endloop
  endfacet
  facet normal 0.000000 1.000000 -0.000000
    outer loop
      vertex 128.879654 378.205780 -175.075104
      vertex 128.325409 378.205780 -160.979645
      vertex 128.960953 378.205780 -161.180023
    endloop
  endfacet
  facet normal 0.000000 1.000000 0.000000
    outer loop
      vertex 128.879654 378.205780 -175.075104
      vertex 127.763374 378.205780 -160.621582
      vertex 128.325409 378.205780 -160.979645
    endloop
  endfacet
  facet normal 0.000000 1.000000 0.000000
    outer loop
      vertex 128.879654 378.205780 -175.075104
      vertex 127.313171 378.205780 -160.130280
      vertex 127.763374 378.205780 -160.621582
    endloop
  endfacet
  facet normal 0.000000 1.000000 0.000000
    outer loop
      vertex 121.883598 378.205780 -145.212662
      vertex 115.848686 378.205780 -139.272812
      vertex 121.575897 378.205780 -144.621567
    endloop
  endfacet
  facet normal 0.000000 1.000000 0.000000
    outer loop
      vertex 128.879654 378.205780 -175.075104
      vertex 127.005463 378.205780 -159.539185
      vertex 127.313171 378.205780 -160.130280
    endloop
  endfacet
  facet normal 0.000000 1.000000 0.000000
    outer loop
      vertex 128.879654 378.205780 -175.075104
      vertex 128.960953 378.205780 -161.180023
      vertex 131.863174 378.205780 -173.989182
    endloop
  endfacet
  facet normal 0.000000 1.000000 0.000000
    outer loop
      vertex 128.879654 378.205780 -175.075104
      vertex 115.848686 378.205780 -139.272812
      vertex 127.005463 378.205780 -159.539185
    endloop
  endfacet
  facet normal 0.000000 1.000000 0.000000
    outer loop
      vertex 127.005463 378.205780 -159.539185
      vertex 115.848686 378.205780 -139.272812
      vertex 126.861237 378.205780 -158.888596
    endloop
  endfacet
  facet normal 0.000000 1.000000 0.000000
    outer loop
      vertex 126.861237 378.205780 -158.888596
      vertex 115.848686 378.205780 -139.272812
      vertex 121.883598 378.205780 -145.212662
    endloop
  endfacet
  facet normal 0.000000 1.000000 0.000000
    outer loop
      vertex 130.483032 378.205780 -156.352570
      vertex 125.930130 378.205780 -145.389328
      vertex 126.288177 378.205780 -144.827301
    endloop
  endfacet
  facet normal 0.000000 1.000000 0.000000
    outer loop
      vertex 131.045059 378.205780 -156.710632
      vertex 126.288177 378.205780 -144.827301
      vertex 126.488571 378.205780 -144.191757
    endloop
  endfacet
  facet normal 0.000000 1.000000 0.000000
    outer loop
      vertex 131.045059 378.205780 -156.710632
      vertex 130.483032 378.205780 -156.352570
      vertex 126.288177 378.205780 -144.827301
    endloop
  endfacet
  facet normal 0.000000 1.000000 0.000000
    outer loop
      vertex 129.847488 378.205780 -156.152191
      vertex 125.438820 378.205780 -145.839539
      vertex 125.930130 378.205780 -145.389328
    endloop
  endfacet
  facet normal -0.000000 1.000000 -0.000000
    outer loop
      vertex 129.847488 378.205780 -156.152191
      vertex 125.930130 378.205780 -145.389328
      vertex 130.483032 378.205780 -156.352570
    endloop
  endfacet
  facet normal 0.000000 1.000000 0.000000
    outer loop
      vertex 131.495270 378.205780 -157.201935
      vertex 131.045059 378.205780 -156.710632
      vertex 126.488571 378.205780 -144.191757
    endloop
  endfacet
  facet normal 0.000000 1.000000 0.000000
    outer loop
      vertex 131.495270 378.205780 -157.201935
      vertex 126.488571 378.205780 -144.191757
      vertex 126.517639 378.205780 -143.526001
    endloop
  endfacet
  facet normal -0.000000 1.000000 -0.000000
    outer loop
      vertex 129.181732 378.205780 -156.123123
      vertex 125.438820 378.205780 -145.839539
      vertex 129.847488 378.205780 -156.152191
    endloop
  endfacet
  facet normal 0.000000 1.000000 0.000000
    outer loop
      vertex 129.181732 378.205780 -156.123123
      vertex 124.847725 378.205780 -146.147247
      vertex 125.438820 378.205780 -145.839539
    endloop
  endfacet
  facet normal 0.000000 1.000000 -0.000000
    outer loop
      vertex 128.531143 378.205780 -156.267349
      vertex 124.847725 378.205780 -146.147247
      vertex 129.181732 378.205780 -156.123123
    endloop
  endfacet
  facet normal -0.216431 0.000000 0.976298
    outer loop
      vertex 129.626709 368.680786 -161.209091
      vertex 130.277298 368.680786 -161.064865
      vertex 129.626709 378.205780 -161.209091
    endloop
  endfacet
  facet normal -0.216431 0.000000 0.976298
    outer loop
      vertex 130.277298 368.680786 -161.064865
      vertex 130.277298 378.205780 -161.064865
      vertex 129.626709 378.205780 -161.209091
    endloop
  endfacet
  facet normal 0.043620 -0.000000 0.999048
    outer loop
      vertex 128.960953 368.680786 -161.180023
      vertex 129.626709 368.680786 -161.209091
      vertex 128.960953 378.205780 -161.180023
    endloop
  endfacet
  facet normal 0.043620 -0.000000 0.999048
    outer loop
      vertex 129.626709 368.680786 -161.209091
      vertex 129.626709 378.205780 -161.209091
      vertex 128.960953 378.205780 -161.180023
    endloop
  endfacet
  facet normal 0.300695 -0.000000 0.953720
    outer loop
      vertex 128.325409 368.680786 -160.979645
      vertex 128.960953 368.680786 -161.180023
      vertex 128.325409 378.205780 -160.979645
    endloop
  endfacet
  facet normal 0.300695 -0.000000 0.953720
    outer loop
      vertex 128.960953 368.680786 -161.180023
      vertex 128.960953 378.205780 -161.180023
      vertex 128.325409 378.205780 -160.979645
    endloop
  endfacet
  facet normal 0.537307 -0.000000 0.843387
    outer loop
      vertex 127.763374 368.680786 -160.621582
      vertex 128.325409 368.680786 -160.979645
      vertex 127.763374 378.205780 -160.621582
    endloop
  endfacet
  facet normal 0.537307 -0.000000 0.843387
    outer loop
      vertex 128.325409 368.680786 -160.979645
      vertex 128.325409 378.205780 -160.979645
      vertex 127.763374 378.205780 -160.621582
    endloop
  endfacet
  facet normal 0.737272 -0.000000 0.675596
    outer loop
      vertex 127.313171 368.680786 -160.130280
      vertex 127.763374 368.680786 -160.621582
      vertex 127.313171 378.205780 -160.130280
    endloop
  endfacet
  facet normal 0.737272 -0.000000 0.675596
    outer loop
      vertex 127.763374 368.680786 -160.621582
      vertex 127.763374 378.205780 -160.621582
      vertex 127.313171 378.205780 -160.130280
    endloop
  endfacet
  facet normal 0.887008 -0.000000 0.461754
    outer loop
      vertex 127.005463 368.680786 -159.539185
      vertex 127.313171 368.680786 -160.130280
      vertex 127.005463 378.205780 -159.539185
    endloop
  endfacet
  facet normal 0.887008 -0.000000 0.461754
    outer loop
      vertex 127.313171 368.680786 -160.130280
      vertex 127.313171 378.205780 -160.130280
      vertex 127.005463 378.205780 -159.539185
    endloop
  endfacet
  facet normal 0.976298 -0.000000 0.216431
    outer loop
      vertex 126.861237 368.680786 -158.888596
      vertex 127.005463 368.680786 -159.539185
      vertex 126.861237 378.205780 -158.888596
    endloop
  endfacet
  facet normal 0.976298 -0.000000 0.216431
    outer loop
      vertex 127.005463 368.680786 -159.539185
      vertex 127.005463 378.205780 -159.539185
      vertex 126.861237 378.205780 -158.888596
    endloop
  endfacet
  facet normal 0.999049 0.000000 -0.043609
    outer loop
      vertex 126.890297 368.680786 -158.222839
      vertex 126.861237 368.680786 -158.888596
      vertex 126.890297 378.205780 -158.222839
    endloop
  endfacet
  facet normal 0.953714 0.000000 -0.300716
    outer loop
      vertex 127.090691 368.680786 -157.587296
      vertex 126.890297 368.680786 -158.222839
      vertex 126.890297 378.205780 -158.222839
    endloop
  endfacet
  facet normal 0.999049 0.000000 -0.043609
    outer loop
      vertex 126.861237 368.680786 -158.888596
      vertex 126.861237 378.205780 -158.888596
      vertex 126.890297 378.205780 -158.222839
    endloop
  endfacet
  facet normal 0.953714 0.000000 -0.300716
    outer loop
      vertex 127.090691 368.680786 -157.587296
      vertex 126.890297 378.205780 -158.222839
      vertex 127.090691 378.205780 -157.587296
    endloop
  endfacet
  facet normal 0.843394 0.000000 -0.537296
    outer loop
      vertex 127.448738 368.680786 -157.025269
      vertex 127.090691 368.680786 -157.587296
      vertex 127.448738 378.205780 -157.025269
    endloop
  endfacet
  facet normal 0.843394 0.000000 -0.537296
    outer loop
      vertex 127.090691 368.680786 -157.587296
      vertex 127.090691 378.205780 -157.587296
      vertex 127.448738 378.205780 -157.025269
    endloop
  endfacet
  facet normal 0.675597 0.000000 -0.737272
    outer loop
      vertex 127.940048 368.680786 -156.575058
      vertex 127.448738 368.680786 -157.025269
      vertex 127.940048 378.205780 -156.575058
    endloop
  endfacet
  facet normal 0.675597 0.000000 -0.737272
    outer loop
      vertex 127.448738 368.680786 -157.025269
      vertex 127.448738 378.205780 -157.025269
      vertex 127.940048 378.205780 -156.575058
    endloop
  endfacet
  facet normal 0.461754 0.000000 -0.887008
    outer loop
      vertex 128.531143 368.680786 -156.267349
      vertex 127.940048 368.680786 -156.575058
      vertex 128.531143 378.205780 -156.267349
    endloop
  endfacet
  facet normal 0.461754 0.000000 -0.887008
    outer loop
      vertex 127.940048 368.680786 -156.575058
      vertex 127.940048 378.205780 -156.575058
      vertex 128.531143 378.205780 -156.267349
    endloop
  endfacet
  facet normal 0.216431 0.000000 -0.976298
    outer loop
      vertex 129.181732 368.680786 -156.123123
      vertex 128.531143 368.680786 -156.267349
      vertex 129.181732 378.205780 -156.123123
    endloop
  endfacet
  facet normal 0.216431 0.000000 -0.976298
    outer loop
      vertex 128.531143 368.680786 -156.267349
      vertex 128.531143 378.205780 -156.267349
      vertex 129.181732 378.205780 -156.123123
    endloop
  endfacet
  facet normal -0.043620 0.000000 -0.999048
    outer loop
      vertex 129.847488 368.680786 -156.152191
      vertex 129.181732 368.680786 -156.123123
      vertex 129.847488 378.205780 -156.152191
    endloop
  endfacet
  facet normal -0.043620 0.000000 -0.999048
    outer loop
      vertex 129.181732 368.680786 -156.123123
      vertex 129.181732 378.205780 -156.123123
      vertex 129.847488 378.205780 -156.152191
    endloop
  endfacet
  facet normal -0.300695 0.000000 -0.953720
    outer loop
      vertex 130.483032 368.680786 -156.352570
      vertex 129.847488 368.680786 -156.152191
      vertex 130.483032 378.205780 -156.352570
    endloop
  endfacet
  facet normal -0.300695 0.000000 -0.953720
    outer loop
      vertex 129.847488 368.680786 -156.152191
      vertex 129.847488 378.205780 -156.152191
      vertex 130.483032 378.205780 -156.352570
    endloop
  endfacet
  facet normal -0.537313 0.000000 -0.843383
    outer loop
      vertex 131.045059 368.680786 -156.710632
      vertex 130.483032 368.680786 -156.352570
      vertex 131.045059 378.205780 -156.710632
    endloop
  endfacet
  facet normal -0.537313 0.000000 -0.843383
    outer loop
      vertex 130.483032 368.680786 -156.352570
      vertex 130.483032 378.205780 -156.352570
      vertex 131.045059 378.205780 -156.710632
    endloop
  endfacet
  facet normal -0.737266 0.000000 -0.675602
    outer loop
      vertex 131.495270 368.680786 -157.201935
      vertex 131.045059 368.680786 -156.710632
      vertex 131.495270 378.205780 -157.201935
    endloop
  endfacet
  facet normal -0.887008 0.000000 -0.461754
    outer loop
      vertex 131.802979 368.680786 -157.793030
      vertex 131.495270 368.680786 -157.201935
      vertex 131.495270 378.205780 -157.201935
    endloop
  endfacet
  facet normal -0.737266 0.000000 -0.675602
    outer loop
      vertex 131.045059 368.680786 -156.710632
      vertex 131.045059 378.205780 -156.710632
      vertex 131.495270 378.205780 -157.201935
    endloop
  endfacet
  facet normal -0.887008 0.000000 -0.461754
    outer loop
      vertex 131.802979 368.680786 -157.793030
      vertex 131.495270 378.205780 -157.201935
      vertex 131.802979 378.205780 -157.793030
    endloop
  endfacet
  facet normal -0.976298 0.000000 -0.216431
    outer loop
      vertex 131.947205 368.680786 -158.443619
      vertex 131.802979 368.680786 -157.793030
      vertex 131.947205 378.205780 -158.443619
    endloop
  endfacet
  facet normal -0.976298 0.000000 -0.216431
    outer loop
      vertex 131.802979 368.680786 -157.793030
      vertex 131.802979 378.205780 -157.793030
      vertex 131.947205 378.205780 -158.443619
    endloop
  endfacet
  facet normal -0.999048 0.000000 0.043620
    outer loop
      vertex 131.918137 368.680786 -159.109375
      vertex 131.947205 368.680786 -158.443619
      vertex 131.918137 378.205780 -159.109375
    endloop
  endfacet
  facet normal -0.999048 0.000000 0.043620
    outer loop
      vertex 131.947205 368.680786 -158.443619
      vertex 131.947205 378.205780 -158.443619
      vertex 131.918137 378.205780 -159.109375
    endloop
  endfacet
  facet normal -0.953720 0.000000 0.300695
    outer loop
      vertex 131.717758 368.680786 -159.744919
      vertex 131.918137 368.680786 -159.109375
      vertex 131.717758 378.205780 -159.744919
    endloop
  endfacet
  facet normal -0.953720 0.000000 0.300695
    outer loop
      vertex 131.918137 368.680786 -159.109375
      vertex 131.918137 378.205780 -159.109375
      vertex 131.717758 378.205780 -159.744919
    endloop
  endfacet
  facet normal -0.843383 0.000000 0.537313
    outer loop
      vertex 131.359695 368.680786 -160.306946
      vertex 131.717758 368.680786 -159.744919
      vertex 131.359695 378.205780 -160.306946
    endloop
  endfacet
  facet normal -0.843383 0.000000 0.537313
    outer loop
      vertex 131.717758 368.680786 -159.744919
      vertex 131.717758 378.205780 -159.744919
      vertex 131.359695 378.205780 -160.306946
    endloop
  endfacet
  facet normal -0.675602 0.000000 0.737266
    outer loop
      vertex 130.868393 368.680786 -160.757156
      vertex 131.359695 368.680786 -160.306946
      vertex 130.868393 378.205780 -160.757156
    endloop
  endfacet
  facet normal -0.675602 0.000000 0.737266
    outer loop
      vertex 131.359695 368.680786 -160.306946
      vertex 131.359695 378.205780 -160.306946
      vertex 130.868393 378.205780 -160.757156
    endloop
  endfacet
  facet normal -0.461754 0.000000 0.887008
    outer loop
      vertex 130.277298 368.680786 -161.064865
      vertex 130.868393 368.680786 -160.757156
      vertex 130.277298 378.205780 -161.064865
    endloop
  endfacet
  facet normal -0.461754 0.000000 0.887008
    outer loop
      vertex 130.868393 368.680786 -160.757156
      vertex 130.868393 378.205780 -160.757156
      vertex 130.277298 378.205780 -161.064865
    endloop
  endfacet
  facet normal 0.906307 0.000000 -0.422619
    outer loop
      vertex 131.863174 378.205780 -173.989182
      vertex 137.556015 378.205780 -161.780869
      vertex 137.556015 368.680786 -161.780869
    endloop
  endfacet
  facet normal 0.906307 0.000000 -0.422619
    outer loop
      vertex 131.863174 368.680786 -173.989182
      vertex 131.863174 378.205780 -173.989182
      vertex 137.556015 368.680786 -161.780869
    endloop
  endfacet
  facet normal 0.939693 0.000000 0.342020
    outer loop
      vertex 137.556015 378.205780 -161.780869
      vertex 127.782784 368.680786 -134.929153
      vertex 137.556015 368.680786 -161.780869
    endloop
  endfacet
  facet normal 0.939693 0.000000 0.342020
    outer loop
      vertex 137.556015 378.205780 -161.780869
      vertex 127.782784 378.205780 -134.929153
      vertex 127.782784 368.680786 -134.929153
    endloop
  endfacet
  facet normal -0.342020 0.000000 0.939692
    outer loop
      vertex 127.782784 378.205780 -134.929153
      vertex 115.848686 368.680786 -139.272812
      vertex 127.782784 368.680786 -134.929153
    endloop
  endfacet
  facet normal -0.342020 0.000000 0.939692
    outer loop
      vertex 127.782784 378.205780 -134.929153
      vertex 115.848686 378.205780 -139.272812
      vertex 115.848686 368.680786 -139.272812
    endloop
  endfacet
  facet normal -0.939693 0.000000 -0.342020
    outer loop
      vertex 115.848686 368.680786 -139.272812
      vertex 128.879654 378.205780 -175.075104
      vertex 128.879654 368.680786 -175.075104
    endloop
  endfacet
  facet normal -0.939693 -0.000000 -0.342020
    outer loop
      vertex 115.848686 378.205780 -139.272812
      vertex 128.879654 378.205780 -175.075104
      vertex 115.848686 368.680786 -139.272812
    endloop
  endfacet
  facet normal 0.342023 0.000000 -0.939692
    outer loop
      vertex 131.863174 378.205780 -173.989182
      vertex 131.863174 368.680786 -173.989182
      vertex 128.879654 368.680786 -175.075104
    endloop
  endfacet
  facet normal 0.342023 0.000000 -0.939692
    outer loop
      vertex 128.879654 378.205780 -175.075104
      vertex 131.863174 378.205780 -173.989182
      vertex 128.879654 368.680786 -175.075104
    endloop
  endfacet
endsolid Mesh
