solid Mesh  
  facet normal -0.000000 1.000000 0.000000
    outer loop
      vertex -128.539734 378.205780 -156.264236
      vertex -124.856308 378.205780 -146.144119
      vertex -127.948639 378.205780 -156.571930
    endloop
  endfacet
  facet normal 0.000000 1.000000 0.000000
    outer loop
      vertex -124.856308 378.205780 -146.144119
      vertex -124.205719 378.205780 -146.288345
      vertex -127.948639 378.205780 -156.571930
    endloop
  endfacet
  facet normal 0.000000 1.000000 -0.000000
    outer loop
      vertex -125.062050 378.205780 -141.431824
      vertex -127.791367 378.205780 -134.926041
      vertex -124.426506 378.205780 -141.231445
    endloop
  endfacet
  facet normal -0.000000 1.000000 0.000000
    outer loop
      vertex -124.205719 378.205780 -146.288345
      vertex -123.539963 378.205780 -146.259277
      vertex -127.948639 378.205780 -156.571930
    endloop
  endfacet
  facet normal 0.000000 1.000000 0.000000
    outer loop
      vertex -127.791367 378.205780 -134.926041
      vertex -125.062050 378.205780 -141.431824
      vertex -125.624077 378.205780 -141.789886
    endloop
  endfacet
  facet normal -0.000000 1.000000 0.000000
    outer loop
      vertex -127.948639 378.205780 -156.571930
      vertex -123.539963 378.205780 -146.259277
      vertex -127.457321 378.205780 -157.022141
    endloop
  endfacet
  facet normal -0.000000 1.000000 0.000000
    outer loop
      vertex -123.539963 378.205780 -146.259277
      vertex -122.904419 378.205780 -146.058899
      vertex -127.457321 378.205780 -157.022141
    endloop
  endfacet
  facet normal 0.000000 1.000000 0.000000
    outer loop
      vertex -127.791367 378.205780 -134.926041
      vertex -125.624077 378.205780 -141.789886
      vertex -126.074287 378.205780 -142.281189
    endloop
  endfacet
  facet normal 0.000000 1.000000 -0.000000
    outer loop
      vertex -124.426506 378.205780 -141.231445
      vertex -127.791367 378.205780 -134.926041
      vertex -123.760750 378.205780 -141.202377
    endloop
  endfacet
  facet normal 0.000000 1.000000 0.000000
    outer loop
      vertex -131.503860 378.205780 -157.198822
      vertex -131.811554 378.205780 -157.789902
      vertex -137.564590 378.205780 -161.777756
    endloop
  endfacet
  facet normal 0.000000 1.000000 0.000000
    outer loop
      vertex -131.811554 378.205780 -157.789902
      vertex -131.955795 378.205780 -158.440506
      vertex -137.564590 378.205780 -161.777756
    endloop
  endfacet
  facet normal 0.000000 1.000000 0.000000
    outer loop
      vertex -131.955795 378.205780 -158.440506
      vertex -131.926727 378.205780 -159.106262
      vertex -137.564590 378.205780 -161.777756
    endloop
  endfacet
  facet normal 0.000000 1.000000 0.000000
    outer loop
      vertex -127.791367 378.205780 -134.926041
      vertex -126.074287 378.205780 -142.281189
      vertex -126.381989 378.205780 -142.872284
    endloop
  endfacet
  facet normal 0.000000 1.000000 0.000000
    outer loop
      vertex -127.791367 378.205780 -134.926041
      vertex -126.526222 378.205780 -143.522873
      vertex -137.564590 378.205780 -161.777756
    endloop
  endfacet
  facet normal 0.000000 1.000000 0.000000
    outer loop
      vertex -126.526222 378.205780 -143.522873
      vertex -131.503860 378.205780 -157.198822
      vertex -137.564590 378.205780 -161.777756
    endloop
  endfacet
  facet normal 0.000000 1.000000 0.000000
    outer loop
      vertex -137.564590 378.205780 -161.777756
      vertex -131.926727 378.205780 -159.106262
      vertex -131.726334 378.205780 -159.741806
    endloop
  endfacet
  facet normal -0.000000 1.000000 -0.000000
    outer loop
      vertex -123.760750 378.205780 -141.202377
      vertex -127.791367 378.205780 -134.926041
      vertex -123.110161 378.205780 -141.346603
    endloop
  endfacet
  facet normal -0.000000 1.000000 0.000000
    outer loop
      vertex -127.457321 378.205780 -157.022141
      vertex -122.904419 378.205780 -146.058899
      vertex -127.099274 378.205780 -157.584167
    endloop
  endfacet
  facet normal -0.000000 1.000000 0.000000
    outer loop
      vertex -122.904419 378.205780 -146.058899
      vertex -122.342392 378.205780 -145.700851
      vertex -127.099274 378.205780 -157.584167
    endloop
  endfacet
  facet normal -0.000000 1.000000 0.000000
    outer loop
      vertex -122.342392 378.205780 -145.700851
      vertex -121.892181 378.205780 -145.209534
      vertex -126.898888 378.205780 -158.219711
    endloop
  endfacet
  facet normal 0.000000 1.000000 0.000000
    outer loop
      vertex -127.791367 378.205780 -134.926041
      vertex -126.381989 378.205780 -142.872284
      vertex -126.526222 378.205780 -143.522873
    endloop
  endfacet
  facet normal -0.000000 1.000000 0.000000
    outer loop
      vertex -127.099274 378.205780 -157.584167
      vertex -122.342392 378.205780 -145.700851
      vertex -126.898888 378.205780 -158.219711
    endloop
  endfacet
  facet normal 0.000000 1.000000 0.000000
    outer loop
      vertex -137.564590 378.205780 -161.777756
      vertex -131.726334 378.205780 -159.741806
      vertex -131.368286 378.205780 -160.303833
    endloop
  endfacet
  facet normal -0.000000 1.000000 0.000000
    outer loop
      vertex -126.898888 378.205780 -158.219711
      vertex -121.892181 378.205780 -145.209534
      vertex -126.869820 378.205780 -158.885468
    endloop
  endfacet
  facet normal 0.000000 1.000000 -0.000000
    outer loop
      vertex -122.027756 378.205780 -142.104523
      vertex -122.519066 378.205780 -141.654312
      vertex -115.857269 378.205780 -139.269684
    endloop
  endfacet
  facet normal 0.000000 1.000000 -0.000000
    outer loop
      vertex -122.519066 378.205780 -141.654312
      vertex -123.110161 378.205780 -141.346603
      vertex -115.857269 378.205780 -139.269684
    endloop
  endfacet
  facet normal 0.000000 1.000000 0.000000
    outer loop
      vertex -137.564590 378.205780 -161.777756
      vertex -131.368286 378.205780 -160.303833
      vertex -130.876968 378.205780 -160.754028
    endloop
  endfacet
  facet normal 0.000000 1.000000 -0.000000
    outer loop
      vertex -123.110161 378.205780 -141.346603
      vertex -127.791367 378.205780 -134.926041
      vertex -115.857269 378.205780 -139.269684
    endloop
  endfacet
  facet normal -0.000000 1.000000 0.000000
    outer loop
      vertex -122.027756 378.205780 -142.104523
      vertex -115.857269 378.205780 -139.269684
      vertex -121.669701 378.205780 -142.666550
    endloop
  endfacet
  facet normal 0.000000 1.000000 0.000000
    outer loop
      vertex -137.564590 378.205780 -161.777756
      vertex -130.876968 378.205780 -160.754028
      vertex -130.285873 378.205780 -161.061737
    endloop
  endfacet
  facet normal -0.000000 1.000000 0.000000
    outer loop
      vertex -121.669701 378.205780 -142.666550
      vertex -115.857269 378.205780 -139.269684
      vertex -121.469315 378.205780 -143.302094
    endloop
  endfacet
  facet normal -0.000000 1.000000 0.000000
    outer loop
      vertex -121.469315 378.205780 -143.302094
      vertex -115.857269 378.205780 -139.269684
      vertex -121.440247 378.205780 -143.967850
    endloop
  endfacet
  facet normal 0.000000 1.000000 0.000000
    outer loop
      vertex -130.285873 378.205780 -161.061737
      vertex -129.635284 378.205780 -161.205963
      vertex -131.871765 378.205780 -173.986069
    endloop
  endfacet
  facet normal -0.000000 1.000000 0.000000
    outer loop
      vertex -129.635284 378.205780 -161.205963
      vertex -128.969528 378.205780 -161.176895
      vertex -131.871765 378.205780 -173.986069
    endloop
  endfacet
  facet normal -0.000000 1.000000 0.000000
    outer loop
      vertex -137.564590 378.205780 -161.777756
      vertex -130.285873 378.205780 -161.061737
      vertex -131.871765 378.205780 -173.986069
    endloop
  endfacet
  facet normal -0.000000 1.000000 0.000000
    outer loop
      vertex -121.440247 378.205780 -143.967850
      vertex -115.857269 378.205780 -139.269684
      vertex -121.584480 378.205780 -144.618439
    endloop
  endfacet
  facet normal -0.000000 1.000000 0.000000
    outer loop
      vertex -128.969528 378.205780 -161.176895
      vertex -128.333984 378.205780 -160.976517
      vertex -128.888245 378.205780 -175.071976
    endloop
  endfacet
  facet normal -0.000000 1.000000 0.000000
    outer loop
      vertex -128.333984 378.205780 -160.976517
      vertex -127.771957 378.205780 -160.618469
      vertex -128.888245 378.205780 -175.071976
    endloop
  endfacet
  facet normal -0.000000 1.000000 0.000000
    outer loop
      vertex -127.771957 378.205780 -160.618469
      vertex -127.321754 378.205780 -160.127151
      vertex -128.888245 378.205780 -175.071976
    endloop
  endfacet
  facet normal -0.000000 1.000000 0.000000
    outer loop
      vertex -127.321754 378.205780 -160.127151
      vertex -127.014053 378.205780 -159.536057
      vertex -128.888245 378.205780 -175.071976
    endloop
  endfacet
  facet normal -0.000000 1.000000 0.000000
    outer loop
      vertex -121.584480 378.205780 -144.618439
      vertex -115.857269 378.205780 -139.269684
      vertex -121.892181 378.205780 -145.209534
    endloop
  endfacet
  facet normal -0.000000 1.000000 0.000000
    outer loop
      vertex -131.871765 378.205780 -173.986069
      vertex -128.969528 378.205780 -161.176895
      vertex -128.888245 378.205780 -175.071976
    endloop
  endfacet
  facet normal -0.000000 1.000000 0.000000
    outer loop
      vertex -127.014053 378.205780 -159.536057
      vertex -115.857269 378.205780 -139.269684
      vertex -128.888245 378.205780 -175.071976
    endloop
  endfacet
  facet normal -0.000000 1.000000 0.000000
    outer loop
      vertex -126.869820 378.205780 -158.885468
      vertex -115.857269 378.205780 -139.269684
      vertex -127.014053 378.205780 -159.536057
    endloop
  endfacet
  facet normal -0.000000 1.000000 0.000000
    outer loop
      vertex -121.892181 378.205780 -145.209534
      vertex -115.857269 378.205780 -139.269684
      vertex -126.869820 378.205780 -158.885468
    endloop
  endfacet
  facet normal 0.000000 1.000000 0.000000
    outer loop
      vertex -126.497154 378.205780 -144.188629
      vertex -126.296768 378.205780 -144.824173
      vertex -130.491623 378.205780 -156.349457
    endloop
  endfacet
  facet normal 0.000000 1.000000 0.000000
    outer loop
      vertex -126.497154 378.205780 -144.188629
      vertex -130.491623 378.205780 -156.349457
      vertex -131.053650 378.205780 -156.707504
    endloop
  endfacet
  facet normal 0.000000 1.000000 0.000000
    outer loop
      vertex -126.296768 378.205780 -144.824173
      vertex -125.938713 378.205780 -145.386200
      vertex -129.856079 378.205780 -156.149063
    endloop
  endfacet
  facet normal 0.000000 1.000000 0.000000
    outer loop
      vertex -130.491623 378.205780 -156.349457
      vertex -126.296768 378.205780 -144.824173
      vertex -129.856079 378.205780 -156.149063
    endloop
  endfacet
  facet normal 0.000000 1.000000 0.000000
    outer loop
      vertex -125.938713 378.205780 -145.386200
      vertex -125.447403 378.205780 -145.836411
      vertex -129.190323 378.205780 -156.119995
    endloop
  endfacet
  facet normal 0.000000 1.000000 0.000000
    outer loop
      vertex -125.447403 378.205780 -145.836411
      vertex -124.856308 378.205780 -146.144119
      vertex -129.190323 378.205780 -156.119995
    endloop
  endfacet
  facet normal 0.000000 1.000000 0.000000
    outer loop
      vertex -129.856079 378.205780 -156.149063
      vertex -125.938713 378.205780 -145.386200
      vertex -129.190323 378.205780 -156.119995
    endloop
  endfacet
  facet normal 0.000000 1.000000 0.000000
    outer loop
      vertex -126.497154 378.205780 -144.188629
      vertex -131.053650 378.205780 -156.707504
      vertex -131.503860 378.205780 -157.198822
    endloop
  endfacet
  facet normal 0.000000 1.000000 0.000000
    outer loop
      vertex -126.526222 378.205780 -143.522873
      vertex -126.497154 378.205780 -144.188629
      vertex -131.503860 378.205780 -157.198822
    endloop
  endfacet
  facet normal -0.000000 1.000000 0.000000
    outer loop
      vertex -129.190323 378.205780 -156.119995
      vertex -124.856308 378.205780 -146.144119
      vertex -128.539734 378.205780 -156.264236
    endloop
  endfacet
  facet normal 0.216431 0.000000 0.976298
    outer loop
      vertex -124.205719 378.205780 -146.288345
      vertex -124.856308 378.205780 -146.144119
      vertex -124.205719 368.680786 -146.288345
    endloop
  endfacet
  facet normal -0.043620 0.000000 0.999048
    outer loop
      vertex -123.539963 378.205780 -146.259277
      vertex -124.205719 378.205780 -146.288345
      vertex -124.205719 368.680786 -146.288345
    endloop
  endfacet
  facet normal 0.216431 0.000000 0.976298
    outer loop
      vertex -124.856308 378.205780 -146.144119
      vertex -124.856308 368.680786 -146.144119
      vertex -124.205719 368.680786 -146.288345
    endloop
  endfacet
  facet normal -0.300695 0.000000 0.953720
    outer loop
      vertex -122.904419 378.205780 -146.058899
      vertex -123.539963 378.205780 -146.259277
      vertex -123.539963 368.680786 -146.259277
    endloop
  endfacet
  facet normal -0.043620 0.000000 0.999048
    outer loop
      vertex -123.539963 378.205780 -146.259277
      vertex -124.205719 368.680786 -146.288345
      vertex -123.539963 368.680786 -146.259277
    endloop
  endfacet
  facet normal -0.300695 0.000000 0.953720
    outer loop
      vertex -122.904419 378.205780 -146.058899
      vertex -123.539963 368.680786 -146.259277
      vertex -122.904419 368.680786 -146.058899
    endloop
  endfacet
  facet normal -0.537296 0.000000 0.843394
    outer loop
      vertex -122.342392 378.205780 -145.700851
      vertex -122.904419 378.205780 -146.058899
      vertex -122.342392 368.680786 -145.700851
    endloop
  endfacet
  facet normal -0.737277 0.000000 0.675591
    outer loop
      vertex -121.892181 378.205780 -145.209534
      vertex -122.342392 378.205780 -145.700851
      vertex -122.342392 368.680786 -145.700851
    endloop
  endfacet
  facet normal -0.537296 0.000000 0.843394
    outer loop
      vertex -122.904419 378.205780 -146.058899
      vertex -122.904419 368.680786 -146.058899
      vertex -122.342392 368.680786 -145.700851
    endloop
  endfacet
  facet normal -0.737277 0.000000 0.675591
    outer loop
      vertex -121.892181 378.205780 -145.209534
      vertex -122.342392 368.680786 -145.700851
      vertex -121.892181 368.680786 -145.209534
    endloop
  endfacet
  facet normal -0.887013 0.000000 0.461745
    outer loop
      vertex -121.584480 378.205780 -144.618439
      vertex -121.892181 378.205780 -145.209534
      vertex -121.584480 368.680786 -144.618439
    endloop
  endfacet
  facet normal -0.976296 0.000000 0.216442
    outer loop
      vertex -121.440247 378.205780 -143.967850
      vertex -121.584480 378.205780 -144.618439
      vertex -121.584480 368.680786 -144.618439
    endloop
  endfacet
  facet normal -0.887013 0.000000 0.461745
    outer loop
      vertex -121.892181 378.205780 -145.209534
      vertex -121.892181 368.680786 -145.209534
      vertex -121.584480 368.680786 -144.618439
    endloop
  endfacet
  facet normal -0.976296 0.000000 0.216442
    outer loop
      vertex -121.440247 378.205780 -143.967850
      vertex -121.584480 368.680786 -144.618439
      vertex -121.440247 368.680786 -143.967850
    endloop
  endfacet
  facet normal -0.999048 -0.000000 -0.043620
    outer loop
      vertex -121.469315 378.205780 -143.302094
      vertex -121.440247 378.205780 -143.967850
      vertex -121.469315 368.680786 -143.302094
    endloop
  endfacet
  facet normal -0.953717 0.000000 -0.300706
    outer loop
      vertex -121.669701 378.205780 -142.666550
      vertex -121.469315 378.205780 -143.302094
      vertex -121.469315 368.680786 -143.302094
    endloop
  endfacet
  facet normal -0.999048 -0.000000 -0.043620
    outer loop
      vertex -121.440247 378.205780 -143.967850
      vertex -121.440247 368.680786 -143.967850
      vertex -121.469315 368.680786 -143.302094
    endloop
  endfacet
  facet normal -0.953717 -0.000000 -0.300706
    outer loop
      vertex -121.669701 378.205780 -142.666550
      vertex -121.469315 368.680786 -143.302094
      vertex -121.669701 368.680786 -142.666550
    endloop
  endfacet
  facet normal -0.843388 -0.000000 -0.537304
    outer loop
      vertex -122.027756 378.205780 -142.104523
      vertex -121.669701 378.205780 -142.666550
      vertex -122.027756 368.680786 -142.104523
    endloop
  endfacet
  facet normal -0.675597 0.000000 -0.737272
    outer loop
      vertex -122.519066 378.205780 -141.654312
      vertex -122.027756 378.205780 -142.104523
      vertex -122.027756 368.680786 -142.104523
    endloop
  endfacet
  facet normal -0.843388 -0.000000 -0.537304
    outer loop
      vertex -121.669701 378.205780 -142.666550
      vertex -121.669701 368.680786 -142.666550
      vertex -122.027756 368.680786 -142.104523
    endloop
  endfacet
  facet normal -0.675597 -0.000000 -0.737272
    outer loop
      vertex -122.519066 378.205780 -141.654312
      vertex -122.027756 368.680786 -142.104523
      vertex -122.519066 368.680786 -141.654312
    endloop
  endfacet
  facet normal -0.461754 -0.000000 -0.887008
    outer loop
      vertex -123.110161 378.205780 -141.346603
      vertex -122.519066 378.205780 -141.654312
      vertex -123.110161 368.680786 -141.346603
    endloop
  endfacet
  facet normal -0.461754 -0.000000 -0.887008
    outer loop
      vertex -122.519066 378.205780 -141.654312
      vertex -122.519066 368.680786 -141.654312
      vertex -123.110161 368.680786 -141.346603
    endloop
  endfacet
  facet normal -0.216431 -0.000000 -0.976298
    outer loop
      vertex -123.760750 378.205780 -141.202377
      vertex -123.110161 378.205780 -141.346603
      vertex -123.760750 368.680786 -141.202377
    endloop
  endfacet
  facet normal -0.216431 -0.000000 -0.976298
    outer loop
      vertex -123.110161 378.205780 -141.346603
      vertex -123.110161 368.680786 -141.346603
      vertex -123.760750 368.680786 -141.202377
    endloop
  endfacet
  facet normal 0.043620 0.000000 -0.999048
    outer loop
      vertex -124.426506 378.205780 -141.231445
      vertex -123.760750 378.205780 -141.202377
      vertex -124.426506 368.680786 -141.231445
    endloop
  endfacet
  facet normal 0.043620 0.000000 -0.999048
    outer loop
      vertex -123.760750 378.205780 -141.202377
      vertex -123.760750 368.680786 -141.202377
      vertex -124.426506 368.680786 -141.231445
    endloop
  endfacet
  facet normal 0.300695 0.000000 -0.953720
    outer loop
      vertex -125.062050 378.205780 -141.431824
      vertex -124.426506 378.205780 -141.231445
      vertex -125.062050 368.680786 -141.431824
    endloop
  endfacet
  facet normal 0.300695 0.000000 -0.953720
    outer loop
      vertex -124.426506 378.205780 -141.231445
      vertex -124.426506 368.680786 -141.231445
      vertex -125.062050 368.680786 -141.431824
    endloop
  endfacet
  facet normal 0.537313 0.000000 -0.843383
    outer loop
      vertex -125.624077 378.205780 -141.789886
      vertex -125.062050 378.205780 -141.431824
      vertex -125.624077 368.680786 -141.789886
    endloop
  endfacet
  facet normal 0.537313 0.000000 -0.843383
    outer loop
      vertex -125.062050 378.205780 -141.431824
      vertex -125.062050 368.680786 -141.431824
      vertex -125.624077 368.680786 -141.789886
    endloop
  endfacet
  facet normal 0.737266 0.000000 -0.675602
    outer loop
      vertex -126.074287 378.205780 -142.281189
      vertex -125.624077 378.205780 -141.789886
      vertex -126.074287 368.680786 -142.281189
    endloop
  endfacet
  facet normal 0.737266 0.000000 -0.675602
    outer loop
      vertex -125.624077 378.205780 -141.789886
      vertex -125.624077 368.680786 -141.789886
      vertex -126.074287 368.680786 -142.281189
    endloop
  endfacet
  facet normal 0.887013 0.000000 -0.461745
    outer loop
      vertex -126.381989 378.205780 -142.872284
      vertex -126.074287 378.205780 -142.281189
      vertex -126.381989 368.680786 -142.872284
    endloop
  endfacet
  facet normal 0.887013 0.000000 -0.461745
    outer loop
      vertex -126.074287 378.205780 -142.281189
      vertex -126.074287 368.680786 -142.281189
      vertex -126.381989 368.680786 -142.872284
    endloop
  endfacet
  facet normal 0.976296 0.000000 -0.216442
    outer loop
      vertex -126.526222 378.205780 -143.522873
      vertex -126.381989 378.205780 -142.872284
      vertex -126.526222 368.680786 -143.522873
    endloop
  endfacet
  facet normal 0.976296 0.000000 -0.216442
    outer loop
      vertex -126.381989 378.205780 -142.872284
      vertex -126.381989 368.680786 -142.872284
      vertex -126.526222 368.680786 -143.522873
    endloop
  endfacet
  facet normal 0.999048 0.000000 0.043620
    outer loop
      vertex -126.497154 378.205780 -144.188629
      vertex -126.526222 378.205780 -143.522873
      vertex -126.497154 368.680786 -144.188629
    endloop
  endfacet
  facet normal 0.999048 0.000000 0.043620
    outer loop
      vertex -126.526222 378.205780 -143.522873
      vertex -126.526222 368.680786 -143.522873
      vertex -126.497154 368.680786 -144.188629
    endloop
  endfacet
  facet normal 0.953717 0.000000 0.300706
    outer loop
      vertex -126.296768 378.205780 -144.824173
      vertex -126.497154 378.205780 -144.188629
      vertex -126.296768 368.680786 -144.824173
    endloop
  endfacet
  facet normal 0.953717 0.000000 0.300706
    outer loop
      vertex -126.497154 378.205780 -144.188629
      vertex -126.497154 368.680786 -144.188629
      vertex -126.296768 368.680786 -144.824173
    endloop
  endfacet
  facet normal 0.843388 0.000000 0.537304
    outer loop
      vertex -125.938713 378.205780 -145.386200
      vertex -126.296768 378.205780 -144.824173
      vertex -125.938713 368.680786 -145.386200
    endloop
  endfacet
  facet normal 0.843388 0.000000 0.537304
    outer loop
      vertex -126.296768 378.205780 -144.824173
      vertex -126.296768 368.680786 -144.824173
      vertex -125.938713 368.680786 -145.386200
    endloop
  endfacet
  facet normal 0.675597 0.000000 0.737272
    outer loop
      vertex -125.447403 378.205780 -145.836411
      vertex -125.938713 378.205780 -145.386200
      vertex -125.447403 368.680786 -145.836411
    endloop
  endfacet
  facet normal 0.675597 0.000000 0.737272
    outer loop
      vertex -125.938713 378.205780 -145.386200
      vertex -125.938713 368.680786 -145.386200
      vertex -125.447403 368.680786 -145.836411
    endloop
  endfacet
  facet normal 0.461754 0.000000 0.887008
    outer loop
      vertex -124.856308 378.205780 -146.144119
      vertex -125.447403 378.205780 -145.836411
      vertex -124.856308 368.680786 -146.144119
    endloop
  endfacet
  facet normal 0.461754 0.000000 0.887008
    outer loop
      vertex -125.447403 378.205780 -145.836411
      vertex -125.447403 368.680786 -145.836411
      vertex -124.856308 368.680786 -146.144119
    endloop
  endfacet
  facet normal 0.000000 -1.000000 0.000000
    outer loop
      vertex -127.948639 368.680786 -156.571930
      vertex -124.856308 368.680786 -146.144119
      vertex -128.539734 368.680786 -156.264236
    endloop
  endfacet
  facet normal 0.000000 -1.000000 0.000000
    outer loop
      vertex -127.948639 368.680786 -156.571930
      vertex -124.205719 368.680786 -146.288345
      vertex -124.856308 368.680786 -146.144119
    endloop
  endfacet
  facet normal 0.000000 -1.000000 0.000000
    outer loop
      vertex -127.948639 368.680786 -156.571930
      vertex -123.539963 368.680786 -146.259277
      vertex -124.205719 368.680786 -146.288345
    endloop
  endfacet
  facet normal -0.000000 -1.000000 0.000000
    outer loop
      vertex -124.426506 368.680786 -141.231445
      vertex -127.791367 368.680786 -134.926041
      vertex -125.062050 368.680786 -141.431824
    endloop
  endfacet
  facet normal 0.000000 -1.000000 0.000000
    outer loop
      vertex -127.457321 368.680786 -157.022141
      vertex -123.539963 368.680786 -146.259277
      vertex -127.948639 368.680786 -156.571930
    endloop
  endfacet
  facet normal 0.000000 -1.000000 0.000000
    outer loop
      vertex -125.624077 368.680786 -141.789886
      vertex -125.062050 368.680786 -141.431824
      vertex -127.791367 368.680786 -134.926041
    endloop
  endfacet
  facet normal 0.000000 -1.000000 0.000000
    outer loop
      vertex -127.457321 368.680786 -157.022141
      vertex -122.904419 368.680786 -146.058899
      vertex -123.539963 368.680786 -146.259277
    endloop
  endfacet
  facet normal -0.000000 -1.000000 0.000000
    outer loop
      vertex -123.760750 368.680786 -141.202377
      vertex -127.791367 368.680786 -134.926041
      vertex -124.426506 368.680786 -141.231445
    endloop
  endfacet
  facet normal 0.000000 -1.000000 0.000000
    outer loop
      vertex -137.564590 368.680786 -161.777756
      vertex -131.811554 368.680786 -157.789902
      vertex -131.503860 368.680786 -157.198822
    endloop
  endfacet
  facet normal 0.000000 -1.000000 0.000000
    outer loop
      vertex -126.074287 368.680786 -142.281189
      vertex -125.624077 368.680786 -141.789886
      vertex -127.791367 368.680786 -134.926041
    endloop
  endfacet
  facet normal 0.000000 -1.000000 0.000000
    outer loop
      vertex -137.564590 368.680786 -161.777756
      vertex -131.955795 368.680786 -158.440506
      vertex -131.811554 368.680786 -157.789902
    endloop
  endfacet
  facet normal 0.000000 -1.000000 0.000000
    outer loop
      vertex -137.564590 368.680786 -161.777756
      vertex -131.926727 368.680786 -159.106262
      vertex -131.955795 368.680786 -158.440506
    endloop
  endfacet
  facet normal 0.000000 -1.000000 0.000000
    outer loop
      vertex -137.564590 368.680786 -161.777756
      vertex -126.526222 368.680786 -143.522873
      vertex -127.791367 368.680786 -134.926041
    endloop
  endfacet
  facet normal 0.000000 -1.000000 0.000000
    outer loop
      vertex -126.381989 368.680786 -142.872284
      vertex -126.074287 368.680786 -142.281189
      vertex -127.791367 368.680786 -134.926041
    endloop
  endfacet
  facet normal 0.000000 -1.000000 0.000000
    outer loop
      vertex -137.564590 368.680786 -161.777756
      vertex -131.503860 368.680786 -157.198822
      vertex -126.526222 368.680786 -143.522873
    endloop
  endfacet
  facet normal 0.000000 -1.000000 0.000000
    outer loop
      vertex -127.099274 368.680786 -157.584167
      vertex -122.904419 368.680786 -146.058899
      vertex -127.457321 368.680786 -157.022141
    endloop
  endfacet
  facet normal 0.000000 -1.000000 0.000000
    outer loop
      vertex -127.099274 368.680786 -157.584167
      vertex -122.342392 368.680786 -145.700851
      vertex -122.904419 368.680786 -146.058899
    endloop
  endfacet
  facet normal 0.000000 -1.000000 0.000000
    outer loop
      vertex -123.110161 368.680786 -141.346603
      vertex -127.791367 368.680786 -134.926041
      vertex -123.760750 368.680786 -141.202377
    endloop
  endfacet
  facet normal -0.000000 -1.000000 0.000000
    outer loop
      vertex -131.726334 368.680786 -159.741806
      vertex -131.926727 368.680786 -159.106262
      vertex -137.564590 368.680786 -161.777756
    endloop
  endfacet
  facet normal 0.000000 -1.000000 0.000000
    outer loop
      vertex -126.898888 368.680786 -158.219711
      vertex -122.342392 368.680786 -145.700851
      vertex -127.099274 368.680786 -157.584167
    endloop
  endfacet
  facet normal 0.000000 -1.000000 0.000000
    outer loop
      vertex -126.898888 368.680786 -158.219711
      vertex -121.892181 368.680786 -145.209534
      vertex -122.342392 368.680786 -145.700851
    endloop
  endfacet
  facet normal -0.000000 -1.000000 0.000000
    outer loop
      vertex -131.368286 368.680786 -160.303833
      vertex -131.726334 368.680786 -159.741806
      vertex -137.564590 368.680786 -161.777756
    endloop
  endfacet
  facet normal 0.000000 -1.000000 0.000000
    outer loop
      vertex -126.526222 368.680786 -143.522873
      vertex -126.381989 368.680786 -142.872284
      vertex -127.791367 368.680786 -134.926041
    endloop
  endfacet
  facet normal -0.000000 -1.000000 0.000000
    outer loop
      vertex -130.876968 368.680786 -160.754028
      vertex -131.368286 368.680786 -160.303833
      vertex -137.564590 368.680786 -161.777756
    endloop
  endfacet
  facet normal 0.000000 -1.000000 0.000000
    outer loop
      vertex -115.857269 368.680786 -139.269684
      vertex -122.519066 368.680786 -141.654312
      vertex -122.027756 368.680786 -142.104523
    endloop
  endfacet
  facet normal 0.000000 -1.000000 0.000000
    outer loop
      vertex -115.857269 368.680786 -139.269684
      vertex -123.110161 368.680786 -141.346603
      vertex -122.519066 368.680786 -141.654312
    endloop
  endfacet
  facet normal 0.000000 -1.000000 0.000000
    outer loop
      vertex -126.869820 368.680786 -158.885468
      vertex -121.892181 368.680786 -145.209534
      vertex -126.898888 368.680786 -158.219711
    endloop
  endfacet
  facet normal -0.000000 -1.000000 0.000000
    outer loop
      vertex -115.857269 368.680786 -139.269684
      vertex -127.791367 368.680786 -134.926041
      vertex -123.110161 368.680786 -141.346603
    endloop
  endfacet
  facet normal 0.000000 -1.000000 0.000000
    outer loop
      vertex -121.669701 368.680786 -142.666550
      vertex -115.857269 368.680786 -139.269684
      vertex -122.027756 368.680786 -142.104523
    endloop
  endfacet
  facet normal -0.000000 -1.000000 0.000000
    outer loop
      vertex -130.285873 368.680786 -161.061737
      vertex -130.876968 368.680786 -160.754028
      vertex -137.564590 368.680786 -161.777756
    endloop
  endfacet
  facet normal 0.000000 -1.000000 0.000000
    outer loop
      vertex -121.469315 368.680786 -143.302094
      vertex -115.857269 368.680786 -139.269684
      vertex -121.669701 368.680786 -142.666550
    endloop
  endfacet
  facet normal 0.000000 -1.000000 0.000000
    outer loop
      vertex -121.440247 368.680786 -143.967850
      vertex -115.857269 368.680786 -139.269684
      vertex -121.469315 368.680786 -143.302094
    endloop
  endfacet
  facet normal 0.000000 -1.000000 0.000000
    outer loop
      vertex -131.871765 368.680786 -173.986069
      vertex -129.635284 368.680786 -161.205963
      vertex -130.285873 368.680786 -161.061737
    endloop
  endfacet
  facet normal 0.000000 -1.000000 0.000000
    outer loop
      vertex -131.871765 368.680786 -173.986069
      vertex -128.969528 368.680786 -161.176895
      vertex -129.635284 368.680786 -161.205963
    endloop
  endfacet
  facet normal 0.000000 -1.000000 0.000000
    outer loop
      vertex -131.871765 368.680786 -173.986069
      vertex -130.285873 368.680786 -161.061737
      vertex -137.564590 368.680786 -161.777756
    endloop
  endfacet
  facet normal 0.000000 -1.000000 0.000000
    outer loop
      vertex -121.584480 368.680786 -144.618439
      vertex -115.857269 368.680786 -139.269684
      vertex -121.440247 368.680786 -143.967850
    endloop
  endfacet
  facet normal 0.000000 -1.000000 0.000000
    outer loop
      vertex -128.888245 368.680786 -175.071976
      vertex -128.333984 368.680786 -160.976517
      vertex -128.969528 368.680786 -161.176895
    endloop
  endfacet
  facet normal 0.000000 -1.000000 0.000000
    outer loop
      vertex -128.888245 368.680786 -175.071976
      vertex -127.771957 368.680786 -160.618469
      vertex -128.333984 368.680786 -160.976517
    endloop
  endfacet
  facet normal 0.000000 -1.000000 0.000000
    outer loop
      vertex -128.888245 368.680786 -175.071976
      vertex -127.321754 368.680786 -160.127151
      vertex -127.771957 368.680786 -160.618469
    endloop
  endfacet
  facet normal 0.000000 -1.000000 0.000000
    outer loop
      vertex -121.892181 368.680786 -145.209534
      vertex -115.857269 368.680786 -139.269684
      vertex -121.584480 368.680786 -144.618439
    endloop
  endfacet
  facet normal 0.000000 -1.000000 0.000000
    outer loop
      vertex -128.888245 368.680786 -175.071976
      vertex -127.014053 368.680786 -159.536057
      vertex -127.321754 368.680786 -160.127151
    endloop
  endfacet
  facet normal 0.000000 -1.000000 0.000000
    outer loop
      vertex -128.888245 368.680786 -175.071976
      vertex -128.969528 368.680786 -161.176895
      vertex -131.871765 368.680786 -173.986069
    endloop
  endfacet
  facet normal 0.000000 -1.000000 0.000000
    outer loop
      vertex -128.888245 368.680786 -175.071976
      vertex -115.857269 368.680786 -139.269684
      vertex -127.014053 368.680786 -159.536057
    endloop
  endfacet
  facet normal 0.000000 -1.000000 0.000000
    outer loop
      vertex -127.014053 368.680786 -159.536057
      vertex -115.857269 368.680786 -139.269684
      vertex -126.869820 368.680786 -158.885468
    endloop
  endfacet
  facet normal 0.000000 -1.000000 0.000000
    outer loop
      vertex -126.869820 368.680786 -158.885468
      vertex -115.857269 368.680786 -139.269684
      vertex -121.892181 368.680786 -145.209534
    endloop
  endfacet
  facet normal 0.000000 -1.000000 0.000000
    outer loop
      vertex -130.491623 368.680786 -156.349457
      vertex -125.938713 368.680786 -145.386200
      vertex -126.296768 368.680786 -144.824173
    endloop
  endfacet
  facet normal 0.000000 -1.000000 0.000000
    outer loop
      vertex -131.053650 368.680786 -156.707504
      vertex -126.296768 368.680786 -144.824173
      vertex -126.497154 368.680786 -144.188629
    endloop
  endfacet
  facet normal 0.000000 -1.000000 0.000000
    outer loop
      vertex -131.053650 368.680786 -156.707504
      vertex -130.491623 368.680786 -156.349457
      vertex -126.296768 368.680786 -144.824173
    endloop
  endfacet
  facet normal 0.000000 -1.000000 0.000000
    outer loop
      vertex -129.856079 368.680786 -156.149063
      vertex -125.447403 368.680786 -145.836411
      vertex -125.938713 368.680786 -145.386200
    endloop
  endfacet
  facet normal -0.000000 -1.000000 0.000000
    outer loop
      vertex -129.856079 368.680786 -156.149063
      vertex -125.938713 368.680786 -145.386200
      vertex -130.491623 368.680786 -156.349457
    endloop
  endfacet
  facet normal 0.000000 -1.000000 0.000000
    outer loop
      vertex -131.503860 368.680786 -157.198822
      vertex -131.053650 368.680786 -156.707504
      vertex -126.497154 368.680786 -144.188629
    endloop
  endfacet
  facet normal 0.000000 -1.000000 0.000000
    outer loop
      vertex -131.503860 368.680786 -157.198822
      vertex -126.497154 368.680786 -144.188629
      vertex -126.526222 368.680786 -143.522873
    endloop
  endfacet
  facet normal -0.000000 -1.000000 0.000000
    outer loop
      vertex -129.190323 368.680786 -156.119995
      vertex -125.447403 368.680786 -145.836411
      vertex -129.856079 368.680786 -156.149063
    endloop
  endfacet
  facet normal 0.000000 -1.000000 0.000000
    outer loop
      vertex -129.190323 368.680786 -156.119995
      vertex -124.856308 368.680786 -146.144119
      vertex -125.447403 368.680786 -145.836411
    endloop
  endfacet
  facet normal 0.000000 -1.000000 0.000000
    outer loop
      vertex -128.539734 368.680786 -156.264236
      vertex -124.856308 368.680786 -146.144119
      vertex -129.190323 368.680786 -156.119995
    endloop
  endfacet
  facet normal 0.216431 0.000000 0.976298
    outer loop
      vertex -129.635284 378.205780 -161.205963
      vertex -130.285873 378.205780 -161.061737
      vertex -129.635284 368.680786 -161.205963
    endloop
  endfacet
  facet normal 0.216431 0.000000 0.976298
    outer loop
      vertex -130.285873 378.205780 -161.061737
      vertex -130.285873 368.680786 -161.061737
      vertex -129.635284 368.680786 -161.205963
    endloop
  endfacet
  facet normal -0.043620 0.000000 0.999048
    outer loop
      vertex -128.969528 378.205780 -161.176895
      vertex -129.635284 378.205780 -161.205963
      vertex -128.969528 368.680786 -161.176895
    endloop
  endfacet
  facet normal -0.043620 0.000000 0.999048
    outer loop
      vertex -129.635284 378.205780 -161.205963
      vertex -129.635284 368.680786 -161.205963
      vertex -128.969528 368.680786 -161.176895
    endloop
  endfacet
  facet normal -0.300695 0.000000 0.953720
    outer loop
      vertex -128.333984 378.205780 -160.976517
      vertex -128.969528 378.205780 -161.176895
      vertex -128.333984 368.680786 -160.976517
    endloop
  endfacet
  facet normal -0.300695 0.000000 0.953720
    outer loop
      vertex -128.969528 378.205780 -161.176895
      vertex -128.969528 368.680786 -161.176895
      vertex -128.333984 368.680786 -160.976517
    endloop
  endfacet
  facet normal -0.537296 0.000000 0.843394
    outer loop
      vertex -127.771957 378.205780 -160.618469
      vertex -128.333984 378.205780 -160.976517
      vertex -127.771957 368.680786 -160.618469
    endloop
  endfacet
  facet normal -0.537296 0.000000 0.843394
    outer loop
      vertex -128.333984 378.205780 -160.976517
      vertex -128.333984 368.680786 -160.976517
      vertex -127.771957 368.680786 -160.618469
    endloop
  endfacet
  facet normal -0.737282 0.000000 0.675585
    outer loop
      vertex -127.321754 378.205780 -160.127151
      vertex -127.771957 378.205780 -160.618469
      vertex -127.321754 368.680786 -160.127151
    endloop
  endfacet
  facet normal -0.737282 0.000000 0.675585
    outer loop
      vertex -127.771957 378.205780 -160.618469
      vertex -127.771957 368.680786 -160.618469
      vertex -127.321754 368.680786 -160.127151
    endloop
  endfacet
  facet normal -0.887013 0.000000 0.461745
    outer loop
      vertex -127.014053 378.205780 -159.536057
      vertex -127.321754 378.205780 -160.127151
      vertex -127.014053 368.680786 -159.536057
    endloop
  endfacet
  facet normal -0.887013 0.000000 0.461745
    outer loop
      vertex -127.321754 378.205780 -160.127151
      vertex -127.321754 368.680786 -160.127151
      vertex -127.014053 368.680786 -159.536057
    endloop
  endfacet
  facet normal -0.976296 0.000000 0.216442
    outer loop
      vertex -126.869820 378.205780 -158.885468
      vertex -127.014053 378.205780 -159.536057
      vertex -126.869820 368.680786 -158.885468
    endloop
  endfacet
  facet normal -0.976296 0.000000 0.216442
    outer loop
      vertex -127.014053 378.205780 -159.536057
      vertex -127.014053 368.680786 -159.536057
      vertex -126.869820 368.680786 -158.885468
    endloop
  endfacet
  facet normal -0.999048 -0.000000 -0.043620
    outer loop
      vertex -126.898888 378.205780 -158.219711
      vertex -126.869820 378.205780 -158.885468
      vertex -126.898888 368.680786 -158.219711
    endloop
  endfacet
  facet normal -0.953717 0.000000 -0.300706
    outer loop
      vertex -127.099274 378.205780 -157.584167
      vertex -126.898888 378.205780 -158.219711
      vertex -126.898888 368.680786 -158.219711
    endloop
  endfacet
  facet normal -0.999048 -0.000000 -0.043620
    outer loop
      vertex -126.869820 378.205780 -158.885468
      vertex -126.869820 368.680786 -158.885468
      vertex -126.898888 368.680786 -158.219711
    endloop
  endfacet
  facet normal -0.953717 -0.000000 -0.300706
    outer loop
      vertex -127.099274 378.205780 -157.584167
      vertex -126.898888 368.680786 -158.219711
      vertex -127.099274 368.680786 -157.584167
    endloop
  endfacet
  facet normal -0.843394 -0.000000 -0.537296
    outer loop
      vertex -127.457321 378.205780 -157.022141
      vertex -127.099274 378.205780 -157.584167
      vertex -127.457321 368.680786 -157.022141
    endloop
  endfacet
  facet normal -0.843394 -0.000000 -0.537296
    outer loop
      vertex -127.099274 378.205780 -157.584167
      vertex -127.099274 368.680786 -157.584167
      vertex -127.457321 368.680786 -157.022141
    endloop
  endfacet
  facet normal -0.675591 -0.000000 -0.737277
    outer loop
      vertex -127.948639 378.205780 -156.571930
      vertex -127.457321 378.205780 -157.022141
      vertex -127.948639 368.680786 -156.571930
    endloop
  endfacet
  facet normal -0.675591 -0.000000 -0.737277
    outer loop
      vertex -127.457321 378.205780 -157.022141
      vertex -127.457321 368.680786 -157.022141
      vertex -127.948639 368.680786 -156.571930
    endloop
  endfacet
  facet normal -0.461736 -0.000000 -0.887018
    outer loop
      vertex -128.539734 378.205780 -156.264236
      vertex -127.948639 378.205780 -156.571930
      vertex -128.539734 368.680786 -156.264236
    endloop
  endfacet
  facet normal -0.461736 -0.000000 -0.887018
    outer loop
      vertex -127.948639 378.205780 -156.571930
      vertex -127.948639 368.680786 -156.571930
      vertex -128.539734 368.680786 -156.264236
    endloop
  endfacet
  facet normal -0.216453 -0.000000 -0.976293
    outer loop
      vertex -129.190323 378.205780 -156.119995
      vertex -128.539734 378.205780 -156.264236
      vertex -129.190323 368.680786 -156.119995
    endloop
  endfacet
  facet normal -0.216453 -0.000000 -0.976293
    outer loop
      vertex -128.539734 378.205780 -156.264236
      vertex -128.539734 368.680786 -156.264236
      vertex -129.190323 368.680786 -156.119995
    endloop
  endfacet
  facet normal 0.043620 0.000000 -0.999048
    outer loop
      vertex -129.856079 378.205780 -156.149063
      vertex -129.190323 378.205780 -156.119995
      vertex -129.856079 368.680786 -156.149063
    endloop
  endfacet
  facet normal 0.043620 0.000000 -0.999048
    outer loop
      vertex -129.190323 378.205780 -156.119995
      vertex -129.190323 368.680786 -156.119995
      vertex -129.856079 368.680786 -156.149063
    endloop
  endfacet
  facet normal 0.300716 0.000000 -0.953714
    outer loop
      vertex -130.491623 378.205780 -156.349457
      vertex -129.856079 378.205780 -156.149063
      vertex -130.491623 368.680786 -156.349457
    endloop
  endfacet
  facet normal 0.300716 0.000000 -0.953714
    outer loop
      vertex -129.856079 378.205780 -156.149063
      vertex -129.856079 368.680786 -156.149063
      vertex -130.491623 368.680786 -156.349457
    endloop
  endfacet
  facet normal 0.537296 0.000000 -0.843394
    outer loop
      vertex -131.053650 378.205780 -156.707504
      vertex -130.491623 378.205780 -156.349457
      vertex -131.053650 368.680786 -156.707504
    endloop
  endfacet
  facet normal 0.537296 0.000000 -0.843394
    outer loop
      vertex -130.491623 378.205780 -156.349457
      vertex -130.491623 368.680786 -156.349457
      vertex -131.053650 368.680786 -156.707504
    endloop
  endfacet
  facet normal 0.737277 0.000000 -0.675591
    outer loop
      vertex -131.503860 378.205780 -157.198822
      vertex -131.053650 378.205780 -156.707504
      vertex -131.503860 368.680786 -157.198822
    endloop
  endfacet
  facet normal 0.887013 0.000000 -0.461745
    outer loop
      vertex -131.811554 378.205780 -157.789902
      vertex -131.503860 378.205780 -157.198822
      vertex -131.503860 368.680786 -157.198822
    endloop
  endfacet
  facet normal 0.737277 0.000000 -0.675591
    outer loop
      vertex -131.053650 378.205780 -156.707504
      vertex -131.053650 368.680786 -156.707504
      vertex -131.503860 368.680786 -157.198822
    endloop
  endfacet
  facet normal 0.887013 0.000000 -0.461745
    outer loop
      vertex -131.811554 378.205780 -157.789902
      vertex -131.503860 368.680786 -157.198822
      vertex -131.811554 368.680786 -157.789902
    endloop
  endfacet
  facet normal 0.976294 0.000000 -0.216448
    outer loop
      vertex -131.955795 378.205780 -158.440506
      vertex -131.811554 378.205780 -157.789902
      vertex -131.955795 368.680786 -158.440506
    endloop
  endfacet
  facet normal 0.976294 0.000000 -0.216448
    outer loop
      vertex -131.811554 378.205780 -157.789902
      vertex -131.811554 368.680786 -157.789902
      vertex -131.955795 368.680786 -158.440506
    endloop
  endfacet
  facet normal 0.999048 0.000000 0.043620
    outer loop
      vertex -131.926727 378.205780 -159.106262
      vertex -131.955795 378.205780 -158.440506
      vertex -131.926727 368.680786 -159.106262
    endloop
  endfacet
  facet normal 0.999048 0.000000 0.043620
    outer loop
      vertex -131.955795 378.205780 -158.440506
      vertex -131.955795 368.680786 -158.440506
      vertex -131.926727 368.680786 -159.106262
    endloop
  endfacet
  facet normal 0.953714 0.000000 0.300716
    outer loop
      vertex -131.726334 378.205780 -159.741806
      vertex -131.926727 378.205780 -159.106262
      vertex -131.726334 368.680786 -159.741806
    endloop
  endfacet
  facet normal 0.953714 0.000000 0.300716
    outer loop
      vertex -131.926727 378.205780 -159.106262
      vertex -131.926727 368.680786 -159.106262
      vertex -131.726334 368.680786 -159.741806
    endloop
  endfacet
  facet normal 0.843394 0.000000 0.537296
    outer loop
      vertex -131.368286 378.205780 -160.303833
      vertex -131.726334 378.205780 -159.741806
      vertex -131.368286 368.680786 -160.303833
    endloop
  endfacet
  facet normal 0.843394 0.000000 0.537296
    outer loop
      vertex -131.726334 378.205780 -159.741806
      vertex -131.726334 368.680786 -159.741806
      vertex -131.368286 368.680786 -160.303833
    endloop
  endfacet
  facet normal 0.675578 0.000000 0.737288
    outer loop
      vertex -130.876968 378.205780 -160.754028
      vertex -131.368286 378.205780 -160.303833
      vertex -130.876968 368.680786 -160.754028
    endloop
  endfacet
  facet normal 0.675578 0.000000 0.737288
    outer loop
      vertex -131.368286 378.205780 -160.303833
      vertex -131.368286 368.680786 -160.303833
      vertex -130.876968 368.680786 -160.754028
    endloop
  endfacet
  facet normal 0.461754 0.000000 0.887008
    outer loop
      vertex -130.285873 378.205780 -161.061737
      vertex -130.876968 378.205780 -160.754028
      vertex -130.285873 368.680786 -161.061737
    endloop
  endfacet
  facet normal 0.461754 0.000000 0.887008
    outer loop
      vertex -130.876968 378.205780 -160.754028
      vertex -130.876968 368.680786 -160.754028
      vertex -130.285873 368.680786 -161.061737
    endloop
  endfacet
  facet normal -0.906308 0.000000 -0.422618
    outer loop
      vertex -131.871765 368.680786 -173.986069
      vertex -137.564590 368.680786 -161.777756
      vertex -137.564590 378.205780 -161.777756
    endloop
  endfacet
  facet normal -0.906308 -0.000000 -0.422618
    outer loop
      vertex -131.871765 378.205780 -173.986069
      vertex -131.871765 368.680786 -173.986069
      vertex -137.564590 378.205780 -161.777756
    endloop
  endfacet
  facet normal -0.939693 0.000000 0.342020
    outer loop
      vertex -137.564590 368.680786 -161.777756
      vertex -127.791367 378.205780 -134.926041
      vertex -137.564590 378.205780 -161.777756
    endloop
  endfacet
  facet normal -0.939693 0.000000 0.342020
    outer loop
      vertex -137.564590 368.680786 -161.777756
      vertex -127.791367 368.680786 -134.926041
      vertex -127.791367 378.205780 -134.926041
    endloop
  endfacet
  facet normal 0.342019 -0.000000 0.939693
    outer loop
      vertex -127.791367 368.680786 -134.926041
      vertex -115.857269 378.205780 -139.269684
      vertex -127.791367 378.205780 -134.926041
    endloop
  endfacet
  facet normal 0.342019 0.000000 0.939693
    outer loop
      vertex -127.791367 368.680786 -134.926041
      vertex -115.857269 368.680786 -139.269684
      vertex -115.857269 378.205780 -139.269684
    endloop
  endfacet
  facet normal 0.939693 0.000000 -0.342020
    outer loop
      vertex -115.857269 378.205780 -139.269684
      vertex -128.888245 368.680786 -175.071976
      vertex -128.888245 378.205780 -175.071976
    endloop
  endfacet
  facet normal 0.939693 0.000000 -0.342020
    outer loop
      vertex -115.857269 368.680786 -139.269684
      vertex -128.888245 368.680786 -175.071976
      vertex -115.857269 378.205780 -139.269684
    endloop
  endfacet
  facet normal -0.342019 0.000000 -0.939693
    outer loop
      vertex -131.871765 368.680786 -173.986069
      vertex -131.871765 378.205780 -173.986069
      vertex -128.888245 378.205780 -175.071976
    endloop
  endfacet
  facet normal -0.342019 0.000000 -0.939693
    outer loop
      vertex -128.888245 368.680786 -175.071976
      vertex -131.871765 368.680786 -173.986069
      vertex -128.888245 378.205780 -175.071976
    endloop
  endfacet
endsolid Mesh 
