solid Mesh
  facet normal -0.991445 0.000000 0.130526
    outer loop
      vertex 53.986950 0.000000 -124.206001
      vertex 53.986950 9.744521 -124.206001
      vertex 53.878765 9.744521 -125.027748
    endloop
  endfacet
  facet normal -0.991445 0.000000 0.130526
    outer loop
      vertex 53.878765 0.000000 -125.027748
      vertex 53.986950 0.000000 -124.206001
      vertex 53.878765 9.744521 -125.027748
    endloop
  endfacet
  facet normal -0.923880 0.000000 0.382682
    outer loop
      vertex 53.561581 0.000000 -125.793503
      vertex 53.878765 0.000000 -125.027748
      vertex 53.561581 9.744521 -125.793503
    endloop
  endfacet
  facet normal -0.923880 0.000000 0.382682
    outer loop
      vertex 53.878765 0.000000 -125.027748
      vertex 53.878765 9.744521 -125.027748
      vertex 53.561581 9.744521 -125.793503
    endloop
  endfacet
  facet normal -0.793353 0.000000 0.608762
    outer loop
      vertex 53.057014 0.000000 -126.451065
      vertex 53.561581 0.000000 -125.793503
      vertex 53.057014 9.744521 -126.451065
    endloop
  endfacet
  facet normal -0.793353 0.000000 0.608762
    outer loop
      vertex 53.561581 0.000000 -125.793503
      vertex 53.561581 9.744521 -125.793503
      vertex 53.057014 9.744521 -126.451065
    endloop
  endfacet
  facet normal -0.608757 0.000000 0.793357
    outer loop
      vertex 52.399448 0.000000 -126.955627
      vertex 53.057014 0.000000 -126.451065
      vertex 52.399448 9.744521 -126.955627
    endloop
  endfacet
  facet normal -0.608757 0.000000 0.793357
    outer loop
      vertex 53.057014 0.000000 -126.451065
      vertex 53.057014 9.744521 -126.451065
      vertex 52.399448 9.744521 -126.955627
    endloop
  endfacet
  facet normal -0.382685 0.000000 0.923879
    outer loop
      vertex 51.633701 0.000000 -127.272812
      vertex 52.399448 0.000000 -126.955627
      vertex 51.633701 9.744521 -127.272812
    endloop
  endfacet
  facet normal -0.382685 0.000000 0.923879
    outer loop
      vertex 52.399448 0.000000 -126.955627
      vertex 52.399448 9.744521 -126.955627
      vertex 51.633701 9.744521 -127.272812
    endloop
  endfacet
  facet normal -0.130525 0.000000 0.991445
    outer loop
      vertex 50.811951 0.000000 -127.380997
      vertex 51.633701 0.000000 -127.272812
      vertex 50.811951 9.744521 -127.380997
    endloop
  endfacet
  facet normal -0.130525 0.000000 0.991445
    outer loop
      vertex 51.633701 0.000000 -127.272812
      vertex 51.633701 9.744521 -127.272812
      vertex 50.811951 9.744521 -127.380997
    endloop
  endfacet
  facet normal 0.130525 -0.000000 0.991445
    outer loop
      vertex 49.990200 0.000000 -127.272812
      vertex 50.811951 0.000000 -127.380997
      vertex 49.990200 9.744521 -127.272812
    endloop
  endfacet
  facet normal 0.130525 -0.000000 0.991445
    outer loop
      vertex 50.811951 0.000000 -127.380997
      vertex 50.811951 9.744521 -127.380997
      vertex 49.990200 9.744521 -127.272812
    endloop
  endfacet
  facet normal 0.382683 -0.000000 0.923880
    outer loop
      vertex 49.224449 0.000000 -126.955627
      vertex 49.990200 0.000000 -127.272812
      vertex 49.224449 9.744521 -126.955627
    endloop
  endfacet
  facet normal 0.608759 0.000000 0.793355
    outer loop
      vertex 48.566887 0.000000 -126.451065
      vertex 49.224449 0.000000 -126.955627
      vertex 49.224449 9.744521 -126.955627
    endloop
  endfacet
  facet normal 0.382683 -0.000000 0.923880
    outer loop
      vertex 49.990200 0.000000 -127.272812
      vertex 49.990200 9.744521 -127.272812
      vertex 49.224449 9.744521 -126.955627
    endloop
  endfacet
  facet normal 0.793353 0.000000 0.608762
    outer loop
      vertex 48.062321 0.000000 -125.793503
      vertex 48.566887 0.000000 -126.451065
      vertex 48.566887 9.744521 -126.451065
    endloop
  endfacet
  facet normal 0.608759 -0.000000 0.793355
    outer loop
      vertex 48.566887 0.000000 -126.451065
      vertex 49.224449 9.744521 -126.955627
      vertex 48.566887 9.744521 -126.451065
    endloop
  endfacet
  facet normal 0.923880 0.000000 0.382682
    outer loop
      vertex 47.745136 0.000000 -125.027748
      vertex 48.062321 0.000000 -125.793503
      vertex 48.062321 9.744521 -125.793503
    endloop
  endfacet
  facet normal 0.793353 -0.000000 0.608762
    outer loop
      vertex 48.062321 0.000000 -125.793503
      vertex 48.566887 9.744521 -126.451065
      vertex 48.062321 9.744521 -125.793503
    endloop
  endfacet
  facet normal 0.923880 -0.000000 0.382682
    outer loop
      vertex 47.745136 0.000000 -125.027748
      vertex 48.062321 9.744521 -125.793503
      vertex 47.745136 9.744521 -125.027748
    endloop
  endfacet
  facet normal 0.991445 -0.000000 0.130526
    outer loop
      vertex 47.636951 0.000000 -124.206001
      vertex 47.745136 0.000000 -125.027748
      vertex 47.636951 9.744521 -124.206001
    endloop
  endfacet
  facet normal 0.991445 -0.000000 0.130526
    outer loop
      vertex 47.745136 0.000000 -125.027748
      vertex 47.745136 9.744521 -125.027748
      vertex 47.636951 9.744521 -124.206001
    endloop
  endfacet
  facet normal 0.991445 0.000000 -0.130525
    outer loop
      vertex 47.745136 0.000000 -123.384247
      vertex 47.636951 0.000000 -124.206001
      vertex 47.636951 9.744521 -124.206001
    endloop
  endfacet
  facet normal 0.923879 0.000000 -0.382685
    outer loop
      vertex 48.062321 0.000000 -122.618500
      vertex 47.745136 0.000000 -123.384247
      vertex 47.745136 9.744521 -123.384247
    endloop
  endfacet
  facet normal 0.991445 0.000000 -0.130525
    outer loop
      vertex 47.745136 0.000000 -123.384247
      vertex 47.636951 9.744521 -124.206001
      vertex 47.745136 9.744521 -123.384247
    endloop
  endfacet
  facet normal 0.793353 0.000000 -0.608762
    outer loop
      vertex 48.566887 0.000000 -121.960938
      vertex 48.062321 0.000000 -122.618500
      vertex 48.062321 9.744521 -122.618500
    endloop
  endfacet
  facet normal 0.923879 0.000000 -0.382685
    outer loop
      vertex 48.062321 0.000000 -122.618500
      vertex 47.745136 9.744521 -123.384247
      vertex 48.062321 9.744521 -122.618500
    endloop
  endfacet
  facet normal 0.608765 0.000000 -0.793351
    outer loop
      vertex 49.224449 0.000000 -121.456367
      vertex 48.566887 0.000000 -121.960938
      vertex 48.566887 9.744521 -121.960938
    endloop
  endfacet
  facet normal 0.793353 0.000000 -0.608762
    outer loop
      vertex 48.566887 0.000000 -121.960938
      vertex 48.062321 9.744521 -122.618500
      vertex 48.566887 9.744521 -121.960938
    endloop
  endfacet
  facet normal 0.382683 0.000000 -0.923880
    outer loop
      vertex 49.990200 0.000000 -121.139183
      vertex 49.224449 0.000000 -121.456367
      vertex 49.224449 9.744521 -121.456367
    endloop
  endfacet
  facet normal 0.608765 0.000000 -0.793351
    outer loop
      vertex 49.224449 0.000000 -121.456367
      vertex 48.566887 9.744521 -121.960938
      vertex 49.224449 9.744521 -121.456367
    endloop
  endfacet
  facet normal 0.130525 0.000000 -0.991445
    outer loop
      vertex 50.811951 0.000000 -121.030998
      vertex 49.990200 0.000000 -121.139183
      vertex 49.990200 9.744521 -121.139183
    endloop
  endfacet
  facet normal 0.382683 0.000000 -0.923880
    outer loop
      vertex 49.990200 0.000000 -121.139183
      vertex 49.224449 9.744521 -121.456367
      vertex 49.990200 9.744521 -121.139183
    endloop
  endfacet
  facet normal -0.130525 0.000000 -0.991445
    outer loop
      vertex 51.633701 0.000000 -121.139183
      vertex 50.811951 0.000000 -121.030998
      vertex 50.811951 9.744521 -121.030998
    endloop
  endfacet
  facet normal 0.130525 0.000000 -0.991445
    outer loop
      vertex 50.811951 0.000000 -121.030998
      vertex 49.990200 9.744521 -121.139183
      vertex 50.811951 9.744521 -121.030998
    endloop
  endfacet
  facet normal -0.382685 0.000000 -0.923879
    outer loop
      vertex 52.399448 0.000000 -121.456367
      vertex 51.633701 0.000000 -121.139183
      vertex 51.633701 9.744521 -121.139183
    endloop
  endfacet
  facet normal -0.130525 0.000000 -0.991445
    outer loop
      vertex 51.633701 0.000000 -121.139183
      vertex 50.811951 9.744521 -121.030998
      vertex 51.633701 9.744521 -121.139183
    endloop
  endfacet
  facet normal -0.608763 0.000000 -0.793352
    outer loop
      vertex 53.057014 0.000000 -121.960938
      vertex 52.399448 0.000000 -121.456367
      vertex 52.399448 9.744521 -121.456367
    endloop
  endfacet
  facet normal -0.382685 0.000000 -0.923879
    outer loop
      vertex 52.399448 0.000000 -121.456367
      vertex 51.633701 9.744521 -121.139183
      vertex 52.399448 9.744521 -121.456367
    endloop
  endfacet
  facet normal -0.793353 0.000000 -0.608762
    outer loop
      vertex 53.561581 0.000000 -122.618500
      vertex 53.057014 0.000000 -121.960938
      vertex 53.057014 9.744521 -121.960938
    endloop
  endfacet
  facet normal -0.608763 0.000000 -0.793352
    outer loop
      vertex 53.057014 0.000000 -121.960938
      vertex 52.399448 9.744521 -121.456367
      vertex 53.057014 9.744521 -121.960938
    endloop
  endfacet
  facet normal -0.923879 0.000000 -0.382685
    outer loop
      vertex 53.878765 0.000000 -123.384247
      vertex 53.561581 0.000000 -122.618500
      vertex 53.561581 9.744521 -122.618500
    endloop
  endfacet
  facet normal -0.793353 0.000000 -0.608762
    outer loop
      vertex 53.561581 0.000000 -122.618500
      vertex 53.057014 9.744521 -121.960938
      vertex 53.561581 9.744521 -122.618500
    endloop
  endfacet
  facet normal -0.991445 0.000000 -0.130525
    outer loop
      vertex 53.986950 0.000000 -124.206001
      vertex 53.878765 0.000000 -123.384247
      vertex 53.878765 9.744521 -123.384247
    endloop
  endfacet
  facet normal -0.923879 0.000000 -0.382685
    outer loop
      vertex 53.878765 0.000000 -123.384247
      vertex 53.561581 9.744521 -122.618500
      vertex 53.878765 9.744521 -123.384247
    endloop
  endfacet
  facet normal -0.991445 0.000000 -0.130525
    outer loop
      vertex 53.986950 0.000000 -124.206001
      vertex 53.878765 9.744521 -123.384247
      vertex 53.986950 9.744521 -124.206001
    endloop
  endfacet
  facet normal 0.000000 1.000000 0.000000
    outer loop
      vertex 52.399448 9.744521 -126.955627
      vertex 53.057014 9.744521 -158.028931
      vertex 52.399448 9.744521 -157.524368
    endloop
  endfacet
  facet normal 0.000000 1.000000 0.000000
    outer loop
      vertex 52.399448 9.744521 -126.955627
      vertex 52.399448 9.744521 -157.524368
      vertex 51.633701 9.744521 -127.272812
    endloop
  endfacet
  facet normal 0.000000 1.000000 0.000000
    outer loop
      vertex 48.062317 9.744521 -161.861496
      vertex 48.566883 9.744521 -162.519058
      vertex 36.887604 9.744521 -177.164993
    endloop
  endfacet
  facet normal 0.000000 1.000000 0.000000
    outer loop
      vertex 53.057014 9.744521 -126.451065
      vertex 53.561581 9.744521 -158.686493
      vertex 53.057014 9.744521 -158.028931
    endloop
  endfacet
  facet normal 0.000000 1.000000 0.000000
    outer loop
      vertex 49.224449 9.744521 -163.023636
      vertex 36.887604 9.744521 -177.164993
      vertex 48.566883 9.744521 -162.519058
    endloop
  endfacet
  facet normal 0.000000 1.000000 0.000000
    outer loop
      vertex 53.057014 9.744521 -126.451065
      vertex 53.057014 9.744521 -158.028931
      vertex 52.399448 9.744521 -126.955627
    endloop
  endfacet
  facet normal 0.000000 1.000000 0.000000
    outer loop
      vertex 47.745132 9.744521 -161.095749
      vertex 48.062317 9.744521 -161.861496
      vertex 36.887604 9.744521 -177.164993
    endloop
  endfacet
  facet normal 0.000000 1.000000 0.000000
    outer loop
      vertex 49.990200 9.744521 -163.340820
      vertex 57.136551 9.744521 -177.164993
      vertex 36.887604 9.744521 -177.164993
    endloop
  endfacet
  facet normal 0.000000 1.000000 0.000000
    outer loop
      vertex 49.990200 9.744521 -163.340820
      vertex 36.887604 9.744521 -177.164993
      vertex 49.224449 9.744521 -163.023636
    endloop
  endfacet
  facet normal 0.000000 1.000000 0.000000
    outer loop
      vertex 53.561581 9.744521 -125.793503
      vertex 53.561581 9.744521 -158.686493
      vertex 53.057014 9.744521 -126.451065
    endloop
  endfacet
  facet normal 0.000000 1.000000 0.000000
    outer loop
      vertex 47.636948 9.744521 -160.274002
      vertex 47.745132 9.744521 -161.095749
      vertex 36.887604 9.744521 -177.164993
    endloop
  endfacet
  facet normal 0.000000 1.000000 0.000000
    outer loop
      vertex 50.811951 9.744521 -163.449005
      vertex 57.136551 9.744521 -177.164993
      vertex 49.990200 9.744521 -163.340820
    endloop
  endfacet
  facet normal 0.000000 1.000000 0.000000
    outer loop
      vertex 36.887604 9.744521 -107.315002
      vertex 47.636951 9.744521 -124.206001
      vertex 47.745136 9.744521 -125.027748
    endloop
  endfacet
  facet normal 0.000000 1.000000 0.000000
    outer loop
      vertex 47.745132 9.744521 -159.452255
      vertex 47.636948 9.744521 -160.274002
      vertex 36.887604 9.744521 -177.164993
    endloop
  endfacet
  facet normal 0.000000 1.000000 0.000000
    outer loop
      vertex 36.887604 9.744521 -107.315002
      vertex 49.990200 9.744521 -121.139183
      vertex 49.224449 9.744521 -121.456367
    endloop
  endfacet
  facet normal 0.000000 1.000000 0.000000
    outer loop
      vertex 36.887604 9.744521 -107.315002
      vertex 49.224449 9.744521 -121.456367
      vertex 48.566887 9.744521 -121.960938
    endloop
  endfacet
  facet normal 0.000000 1.000000 0.000000
    outer loop
      vertex 36.887604 9.744521 -107.315002
      vertex 48.566887 9.744521 -121.960938
      vertex 48.062321 9.744521 -122.618500
    endloop
  endfacet
  facet normal 0.000000 1.000000 0.000000
    outer loop
      vertex 36.887604 9.744521 -107.315002
      vertex 48.062321 9.744521 -122.618500
      vertex 47.745136 9.744521 -123.384247
    endloop
  endfacet
  facet normal 0.000000 1.000000 0.000000
    outer loop
      vertex 36.887604 9.744521 -107.315002
      vertex 47.745136 9.744521 -123.384247
      vertex 47.636951 9.744521 -124.206001
    endloop
  endfacet
  facet normal 0.000000 1.000000 0.000000
    outer loop
      vertex 51.633698 9.744521 -163.340820
      vertex 57.136551 9.744521 -177.164993
      vertex 50.811951 9.744521 -163.449005
    endloop
  endfacet
  facet normal 0.000000 1.000000 0.000000
    outer loop
      vertex 36.887604 9.744521 -107.315002
      vertex 47.745132 9.744521 -159.452255
      vertex 36.887604 9.744521 -177.164993
    endloop
  endfacet
  facet normal 0.000000 1.000000 0.000000
    outer loop
      vertex 36.887604 9.744521 -107.315002
      vertex 47.745136 9.744521 -125.027748
      vertex 47.745132 9.744521 -159.452255
    endloop
  endfacet
  facet normal 0.000000 1.000000 0.000000
    outer loop
      vertex 52.399448 9.744521 -163.023636
      vertex 57.136551 9.744521 -177.164993
      vertex 51.633698 9.744521 -163.340820
    endloop
  endfacet
  facet normal 0.000000 1.000000 0.000000
    outer loop
      vertex 53.057014 9.744521 -162.519058
      vertex 57.136551 9.744521 -177.164993
      vertex 52.399448 9.744521 -163.023636
    endloop
  endfacet
  facet normal 0.000000 1.000000 0.000000
    outer loop
      vertex 53.561581 9.744521 -161.861496
      vertex 57.136551 9.744521 -177.164993
      vertex 53.057014 9.744521 -162.519058
    endloop
  endfacet
  facet normal 0.000000 1.000000 0.000000
    outer loop
      vertex 53.878765 9.744521 -161.095749
      vertex 57.136551 9.744521 -177.164993
      vertex 53.561581 9.744521 -161.861496
    endloop
  endfacet
  facet normal 0.000000 1.000000 0.000000
    outer loop
      vertex 57.136551 9.744521 -107.315002
      vertex 49.990200 9.744521 -121.139183
      vertex 36.887604 9.744521 -107.315002
    endloop
  endfacet
  facet normal 0.000000 1.000000 0.000000
    outer loop
      vertex 57.136551 9.744521 -107.315002
      vertex 53.986950 9.744521 -124.206001
      vertex 53.878765 9.744521 -123.384247
    endloop
  endfacet
  facet normal 0.000000 1.000000 0.000000
    outer loop
      vertex 57.136551 9.744521 -107.315002
      vertex 53.878765 9.744521 -123.384247
      vertex 53.561581 9.744521 -122.618500
    endloop
  endfacet
  facet normal 0.000000 1.000000 0.000000
    outer loop
      vertex 53.986950 9.744521 -160.274002
      vertex 57.136551 9.744521 -177.164993
      vertex 53.878765 9.744521 -161.095749
    endloop
  endfacet
  facet normal 0.000000 1.000000 0.000000
    outer loop
      vertex 57.136551 9.744521 -107.315002
      vertex 53.561581 9.744521 -122.618500
      vertex 53.057014 9.744521 -121.960938
    endloop
  endfacet
  facet normal 0.000000 1.000000 0.000000
    outer loop
      vertex 57.136551 9.744521 -107.315002
      vertex 53.057014 9.744521 -121.960938
      vertex 52.399448 9.744521 -121.456367
    endloop
  endfacet
  facet normal 0.000000 1.000000 0.000000
    outer loop
      vertex 57.136551 9.744521 -107.315002
      vertex 52.399448 9.744521 -121.456367
      vertex 51.633701 9.744521 -121.139183
    endloop
  endfacet
  facet normal 0.000000 1.000000 0.000000
    outer loop
      vertex 57.136551 9.744521 -107.315002
      vertex 51.633701 9.744521 -121.139183
      vertex 50.811951 9.744521 -121.030998
    endloop
  endfacet
  facet normal 0.000000 1.000000 0.000000
    outer loop
      vertex 57.136551 9.744521 -107.315002
      vertex 50.811951 9.744521 -121.030998
      vertex 49.990200 9.744521 -121.139183
    endloop
  endfacet
  facet normal 0.000000 1.000000 0.000000
    outer loop
      vertex 57.136551 9.744521 -107.315002
      vertex 57.136551 9.744521 -177.164993
      vertex 53.986950 9.744521 -124.206001
    endloop
  endfacet
  facet normal 0.000000 1.000000 0.000000
    outer loop
      vertex 53.986950 9.744521 -124.206001
      vertex 57.136551 9.744521 -177.164993
      vertex 53.878765 9.744521 -125.027748
    endloop
  endfacet
  facet normal 0.000000 1.000000 0.000000
    outer loop
      vertex 53.878765 9.744521 -125.027748
      vertex 57.136551 9.744521 -177.164993
      vertex 53.561581 9.744521 -125.793503
    endloop
  endfacet
  facet normal 0.000000 1.000000 0.000000
    outer loop
      vertex 53.561581 9.744521 -125.793503
      vertex 57.136551 9.744521 -177.164993
      vertex 53.986950 9.744521 -160.274002
    endloop
  endfacet
  facet normal 0.000000 1.000000 0.000000
    outer loop
      vertex 53.561581 9.744521 -125.793503
      vertex 53.986950 9.744521 -160.274002
      vertex 53.878765 9.744521 -159.452255
    endloop
  endfacet
  facet normal 0.000000 1.000000 0.000000
    outer loop
      vertex 53.561581 9.744521 -125.793503
      vertex 53.878765 9.744521 -159.452255
      vertex 53.561581 9.744521 -158.686493
    endloop
  endfacet
  facet normal 0.000000 1.000000 0.000000
    outer loop
      vertex 48.566887 9.744521 -126.451065
      vertex 49.224449 9.744521 -157.524368
      vertex 48.566883 9.744521 -158.028931
    endloop
  endfacet
  facet normal 0.000000 1.000000 0.000000
    outer loop
      vertex 49.224449 9.744521 -126.955627
      vertex 49.990200 9.744521 -157.207184
      vertex 49.224449 9.744521 -157.524368
    endloop
  endfacet
  facet normal 0.000000 1.000000 0.000000
    outer loop
      vertex 49.224449 9.744521 -126.955627
      vertex 49.224449 9.744521 -157.524368
      vertex 48.566887 9.744521 -126.451065
    endloop
  endfacet
  facet normal 0.000000 1.000000 0.000000
    outer loop
      vertex 48.062321 9.744521 -125.793503
      vertex 48.566883 9.744521 -158.028931
      vertex 48.062317 9.744521 -158.686493
    endloop
  endfacet
  facet normal 0.000000 1.000000 0.000000
    outer loop
      vertex 48.062321 9.744521 -125.793503
      vertex 48.566887 9.744521 -126.451065
      vertex 48.566883 9.744521 -158.028931
    endloop
  endfacet
  facet normal 0.000000 1.000000 0.000000
    outer loop
      vertex 49.990200 9.744521 -127.272812
      vertex 49.990200 9.744521 -157.207184
      vertex 49.224449 9.744521 -126.955627
    endloop
  endfacet
  facet normal 0.000000 1.000000 0.000000
    outer loop
      vertex 49.990200 9.744521 -127.272812
      vertex 50.811951 9.744521 -157.098999
      vertex 49.990200 9.744521 -157.207184
    endloop
  endfacet
  facet normal 0.000000 1.000000 0.000000
    outer loop
      vertex 47.745136 9.744521 -125.027748
      vertex 48.062321 9.744521 -125.793503
      vertex 48.062317 9.744521 -158.686493
    endloop
  endfacet
  facet normal 0.000000 1.000000 0.000000
    outer loop
      vertex 47.745136 9.744521 -125.027748
      vertex 48.062317 9.744521 -158.686493
      vertex 47.745132 9.744521 -159.452255
    endloop
  endfacet
  facet normal 0.000000 1.000000 0.000000
    outer loop
      vertex 50.811951 9.744521 -127.380997
      vertex 50.811951 9.744521 -157.098999
      vertex 49.990200 9.744521 -127.272812
    endloop
  endfacet
  facet normal 0.000000 1.000000 0.000000
    outer loop
      vertex 50.811951 9.744521 -127.380997
      vertex 51.633698 9.744521 -157.207184
      vertex 50.811951 9.744521 -157.098999
    endloop
  endfacet
  facet normal 0.000000 1.000000 0.000000
    outer loop
      vertex 51.633701 9.744521 -127.272812
      vertex 51.633698 9.744521 -157.207184
      vertex 50.811951 9.744521 -127.380997
    endloop
  endfacet
  facet normal 0.000000 1.000000 0.000000
    outer loop
      vertex 51.633701 9.744521 -127.272812
      vertex 52.399448 9.744521 -157.524368
      vertex 51.633698 9.744521 -157.207184
    endloop
  endfacet
  facet normal 0.000000 -0.000000 1.000000
    outer loop
      vertex 57.136551 0.000000 -107.315002
      vertex 57.136551 9.744521 -107.315002
      vertex 43.211304 5.713217 -107.315002
    endloop
  endfacet
  facet normal 0.000000 0.000000 1.000000
    outer loop
      vertex 43.211304 0.000000 -107.315002
      vertex 57.136551 0.000000 -107.315002
      vertex 43.211304 5.713217 -107.315002
    endloop
  endfacet
  facet normal 0.000000 0.000000 1.000000
    outer loop
      vertex 36.887604 5.713217 -107.315002
      vertex 43.211304 5.713217 -107.315002
      vertex 36.887604 9.744521 -107.315002
    endloop
  endfacet
  facet normal 0.000000 -0.000000 1.000000
    outer loop
      vertex 43.211304 5.713217 -107.315002
      vertex 57.136551 9.744521 -107.315002
      vertex 36.887604 9.744521 -107.315002
    endloop
  endfacet
  facet normal 1.000000 0.000000 -0.000000
    outer loop
      vertex 57.136551 0.000000 -177.164993
      vertex 57.136551 9.744521 -107.315002
      vertex 57.136551 0.000000 -107.315002
    endloop
  endfacet
  facet normal 1.000000 0.000000 -0.000000
    outer loop
      vertex 57.136551 9.744521 -177.164993
      vertex 57.136551 9.744521 -107.315002
      vertex 57.136551 0.000000 -177.164993
    endloop
  endfacet
  facet normal 0.000000 0.000000 -1.000000
    outer loop
      vertex 36.887604 5.713217 -177.164993
      vertex 36.887604 9.744521 -177.164993
      vertex 43.211304 5.713217 -177.164993
    endloop
  endfacet
  facet normal 0.000000 0.000000 -1.000000
    outer loop
      vertex 43.211304 0.000000 -177.164993
      vertex 43.211304 5.713217 -177.164993
      vertex 57.136551 0.000000 -177.164993
    endloop
  endfacet
  facet normal 0.000000 0.000000 -1.000000
    outer loop
      vertex 57.136551 0.000000 -177.164993
      vertex 43.211304 5.713217 -177.164993
      vertex 57.136551 9.744521 -177.164993
    endloop
  endfacet
  facet normal 0.000000 0.000000 -1.000000
    outer loop
      vertex 43.211304 5.713217 -177.164993
      vertex 36.887604 9.744521 -177.164993
      vertex 57.136551 9.744521 -177.164993
    endloop
  endfacet
  facet normal -1.000000 0.000000 0.000000
    outer loop
      vertex 36.887604 5.713217 -107.315002
      vertex 36.887604 9.744521 -177.164993
      vertex 36.887604 5.713217 -177.164993
    endloop
  endfacet
  facet normal -1.000000 -0.000000 -0.000000
    outer loop
      vertex 36.887604 9.744521 -107.315002
      vertex 36.887604 9.744521 -177.164993
      vertex 36.887604 5.713217 -107.315002
    endloop
  endfacet
  facet normal 0.000000 -1.000000 0.000000
    outer loop
      vertex 36.887604 5.713217 -177.164993
      vertex 43.211304 5.713217 -107.315002
      vertex 36.887604 5.713217 -107.315002
    endloop
  endfacet
  facet normal 0.000000 -1.000000 0.000000
    outer loop
      vertex 43.211304 5.713217 -177.164993
      vertex 43.211304 5.713217 -107.315002
      vertex 36.887604 5.713217 -177.164993
    endloop
  endfacet
  facet normal -1.000000 -0.000000 0.000000
    outer loop
      vertex 43.211304 5.713217 -107.315002
      vertex 43.211304 0.000000 -177.164993
      vertex 43.211304 0.000000 -107.315002
    endloop
  endfacet
  facet normal -1.000000 0.000000 -0.000000
    outer loop
      vertex 43.211304 5.713217 -107.315002
      vertex 43.211304 5.713217 -177.164993
      vertex 43.211304 0.000000 -177.164993
    endloop
  endfacet
  facet normal -0.000000 -1.000000 -0.000000
    outer loop
      vertex 50.811951 0.000000 -157.098999
      vertex 50.811951 0.000000 -127.380997
      vertex 49.990200 0.000000 -127.272812
    endloop
  endfacet
  facet normal 0.000000 -1.000000 -0.000000
    outer loop
      vertex 51.633698 0.000000 -157.207184
      vertex 50.811951 0.000000 -127.380997
      vertex 50.811951 0.000000 -157.098999
    endloop
  endfacet
  facet normal 0.000000 -1.000000 -0.000000
    outer loop
      vertex 51.633698 0.000000 -157.207184
      vertex 51.633701 0.000000 -127.272812
      vertex 50.811951 0.000000 -127.380997
    endloop
  endfacet
  facet normal 0.000000 -1.000000 -0.000000
    outer loop
      vertex 49.224449 0.000000 -121.456367
      vertex 43.211304 0.000000 -107.315002
      vertex 48.566887 0.000000 -121.960938
    endloop
  endfacet
  facet normal 0.000000 -1.000000 -0.000000
    outer loop
      vertex 48.062321 0.000000 -122.618500
      vertex 48.566887 0.000000 -121.960938
      vertex 43.211304 0.000000 -107.315002
    endloop
  endfacet
  facet normal 0.000000 -1.000000 -0.000000
    outer loop
      vertex 52.399448 0.000000 -157.524368
      vertex 51.633701 0.000000 -127.272812
      vertex 51.633698 0.000000 -157.207184
    endloop
  endfacet
  facet normal 0.000000 -1.000000 -0.000000
    outer loop
      vertex 52.399448 0.000000 -157.524368
      vertex 52.399448 0.000000 -126.955627
      vertex 51.633701 0.000000 -127.272812
    endloop
  endfacet
  facet normal 0.000000 -1.000000 -0.000000
    outer loop
      vertex 49.990200 0.000000 -121.139183
      vertex 43.211304 0.000000 -107.315002
      vertex 49.224449 0.000000 -121.456367
    endloop
  endfacet
  facet normal 0.000000 -1.000000 -0.000000
    outer loop
      vertex 47.745136 0.000000 -123.384247
      vertex 48.062321 0.000000 -122.618500
      vertex 43.211304 0.000000 -107.315002
    endloop
  endfacet
  facet normal -0.000000 -1.000000 -0.000000
    outer loop
      vertex 53.057014 0.000000 -158.028931
      vertex 52.399448 0.000000 -126.955627
      vertex 52.399448 0.000000 -157.524368
    endloop
  endfacet
  facet normal 0.000000 -1.000000 -0.000000
    outer loop
      vertex 50.811951 0.000000 -121.030998
      vertex 57.136551 0.000000 -107.315002
      vertex 43.211304 0.000000 -107.315002
    endloop
  endfacet
  facet normal 0.000000 -1.000000 -0.000000
    outer loop
      vertex 53.057014 0.000000 -158.028931
      vertex 53.057014 0.000000 -126.451065
      vertex 52.399448 0.000000 -126.955627
    endloop
  endfacet
  facet normal -0.000000 -1.000000 -0.000000
    outer loop
      vertex 50.811951 0.000000 -121.030998
      vertex 43.211304 0.000000 -107.315002
      vertex 49.990200 0.000000 -121.139183
    endloop
  endfacet
  facet normal 0.000000 -1.000000 -0.000000
    outer loop
      vertex 47.636951 0.000000 -124.206001
      vertex 47.745136 0.000000 -123.384247
      vertex 43.211304 0.000000 -107.315002
    endloop
  endfacet
  facet normal -0.000000 -1.000000 -0.000000
    outer loop
      vertex 53.561581 0.000000 -158.686493
      vertex 53.057014 0.000000 -126.451065
      vertex 53.057014 0.000000 -158.028931
    endloop
  endfacet
  facet normal 0.000000 -1.000000 -0.000000
    outer loop
      vertex 53.561581 0.000000 -158.686493
      vertex 53.561581 0.000000 -125.793503
      vertex 53.057014 0.000000 -126.451065
    endloop
  endfacet
  facet normal 0.000000 -1.000000 -0.000000
    outer loop
      vertex 51.633701 0.000000 -121.139183
      vertex 57.136551 0.000000 -107.315002
      vertex 50.811951 0.000000 -121.030998
    endloop
  endfacet
  facet normal 0.000000 -1.000000 0.000000
    outer loop
      vertex 47.745136 0.000000 -125.027748
      vertex 47.636951 0.000000 -124.206001
      vertex 43.211304 0.000000 -107.315002
    endloop
  endfacet
  facet normal -0.000000 -1.000000 -0.000000
    outer loop
      vertex 52.399448 0.000000 -121.456367
      vertex 57.136551 0.000000 -107.315002
      vertex 51.633701 0.000000 -121.139183
    endloop
  endfacet
  facet normal -0.000000 -1.000000 -0.000000
    outer loop
      vertex 53.057014 0.000000 -121.960938
      vertex 57.136551 0.000000 -107.315002
      vertex 52.399448 0.000000 -121.456367
    endloop
  endfacet
  facet normal -0.000000 -1.000000 -0.000000
    outer loop
      vertex 53.561581 0.000000 -122.618500
      vertex 57.136551 0.000000 -107.315002
      vertex 53.057014 0.000000 -121.960938
    endloop
  endfacet
  facet normal -0.000000 -1.000000 0.000000
    outer loop
      vertex 43.211304 0.000000 -177.164993
      vertex 47.636948 0.000000 -160.274002
      vertex 47.745132 0.000000 -159.452255
    endloop
  endfacet
  facet normal 0.000000 -1.000000 -0.000000
    outer loop
      vertex 43.211304 0.000000 -177.164993
      vertex 47.745132 0.000000 -159.452255
      vertex 43.211304 0.000000 -107.315002
    endloop
  endfacet
  facet normal -0.000000 -1.000000 -0.000000
    outer loop
      vertex 53.878765 0.000000 -123.384247
      vertex 57.136551 0.000000 -107.315002
      vertex 53.561581 0.000000 -122.618500
    endloop
  endfacet
  facet normal 0.000000 -1.000000 0.000000
    outer loop
      vertex 43.211304 0.000000 -177.164993
      vertex 50.811951 0.000000 -163.449005
      vertex 49.990200 0.000000 -163.340820
    endloop
  endfacet
  facet normal 0.000000 -1.000000 0.000000
    outer loop
      vertex 43.211304 0.000000 -177.164993
      vertex 49.990200 0.000000 -163.340820
      vertex 49.224449 0.000000 -163.023636
    endloop
  endfacet
  facet normal 0.000000 -1.000000 0.000000
    outer loop
      vertex 43.211304 0.000000 -177.164993
      vertex 49.224449 0.000000 -163.023636
      vertex 48.566883 0.000000 -162.519058
    endloop
  endfacet
  facet normal 0.000000 -1.000000 0.000000
    outer loop
      vertex 43.211304 0.000000 -177.164993
      vertex 48.566883 0.000000 -162.519058
      vertex 48.062317 0.000000 -161.861496
    endloop
  endfacet
  facet normal 0.000000 -1.000000 0.000000
    outer loop
      vertex 43.211304 0.000000 -177.164993
      vertex 48.062317 0.000000 -161.861496
      vertex 47.745132 0.000000 -161.095749
    endloop
  endfacet
  facet normal 0.000000 -1.000000 -0.000000
    outer loop
      vertex 43.211304 0.000000 -177.164993
      vertex 47.745132 0.000000 -161.095749
      vertex 47.636948 0.000000 -160.274002
    endloop
  endfacet
  facet normal -0.000000 -1.000000 -0.000000
    outer loop
      vertex 53.986950 0.000000 -124.206001
      vertex 57.136551 0.000000 -107.315002
      vertex 53.878765 0.000000 -123.384247
    endloop
  endfacet
  facet normal -0.000000 -1.000000 0.000000
    outer loop
      vertex 57.136551 0.000000 -177.164993
      vertex 53.986950 0.000000 -160.274002
      vertex 53.878765 0.000000 -161.095749
    endloop
  endfacet
  facet normal 0.000000 -1.000000 0.000000
    outer loop
      vertex 57.136551 0.000000 -177.164993
      vertex 53.878765 0.000000 -161.095749
      vertex 53.561581 0.000000 -161.861496
    endloop
  endfacet
  facet normal 0.000000 -1.000000 0.000000
    outer loop
      vertex 57.136551 0.000000 -177.164993
      vertex 53.561581 0.000000 -161.861496
      vertex 53.057014 0.000000 -162.519058
    endloop
  endfacet
  facet normal 0.000000 -1.000000 0.000000
    outer loop
      vertex 57.136551 0.000000 -177.164993
      vertex 53.057014 0.000000 -162.519058
      vertex 52.399448 0.000000 -163.023636
    endloop
  endfacet
  facet normal 0.000000 -1.000000 0.000000
    outer loop
      vertex 57.136551 0.000000 -177.164993
      vertex 52.399448 0.000000 -163.023636
      vertex 51.633698 0.000000 -163.340820
    endloop
  endfacet
  facet normal 0.000000 -1.000000 0.000000
    outer loop
      vertex 57.136551 0.000000 -177.164993
      vertex 51.633698 0.000000 -163.340820
      vertex 50.811951 0.000000 -163.449005
    endloop
  endfacet
  facet normal 0.000000 -1.000000 0.000000
    outer loop
      vertex 57.136551 0.000000 -177.164993
      vertex 50.811951 0.000000 -163.449005
      vertex 43.211304 0.000000 -177.164993
    endloop
  endfacet
  facet normal -0.000000 -1.000000 -0.000000
    outer loop
      vertex 57.136551 0.000000 -177.164993
      vertex 57.136551 0.000000 -107.315002
      vertex 53.986950 0.000000 -124.206001
    endloop
  endfacet
  facet normal 0.000000 -1.000000 -0.000000
    outer loop
      vertex 57.136551 0.000000 -177.164993
      vertex 53.986950 0.000000 -124.206001
      vertex 53.878765 0.000000 -125.027748
    endloop
  endfacet
  facet normal 0.000000 -1.000000 -0.000000
    outer loop
      vertex 57.136551 0.000000 -177.164993
      vertex 53.878765 0.000000 -125.027748
      vertex 53.561581 0.000000 -125.793503
    endloop
  endfacet
  facet normal -0.000000 -1.000000 -0.000000
    outer loop
      vertex 57.136551 0.000000 -177.164993
      vertex 53.561581 0.000000 -125.793503
      vertex 53.986950 0.000000 -160.274002
    endloop
  endfacet
  facet normal 0.000000 -1.000000 -0.000000
    outer loop
      vertex 53.986950 0.000000 -160.274002
      vertex 53.561581 0.000000 -125.793503
      vertex 53.878765 0.000000 -159.452255
    endloop
  endfacet
  facet normal -0.000000 -1.000000 -0.000000
    outer loop
      vertex 53.878765 0.000000 -159.452255
      vertex 53.561581 0.000000 -125.793503
      vertex 53.561581 0.000000 -158.686493
    endloop
  endfacet
  facet normal -0.000000 -1.000000 -0.000000
    outer loop
      vertex 48.566883 0.000000 -158.028931
      vertex 48.566887 0.000000 -126.451065
      vertex 48.062321 0.000000 -125.793503
    endloop
  endfacet
  facet normal -0.000000 -1.000000 -0.000000
    outer loop
      vertex 48.062317 0.000000 -158.686493
      vertex 48.062321 0.000000 -125.793503
      vertex 47.745136 0.000000 -125.027748
    endloop
  endfacet
  facet normal 0.000000 -1.000000 -0.000000
    outer loop
      vertex 48.062317 0.000000 -158.686493
      vertex 48.566883 0.000000 -158.028931
      vertex 48.062321 0.000000 -125.793503
    endloop
  endfacet
  facet normal -0.000000 -1.000000 -0.000000
    outer loop
      vertex 49.224449 0.000000 -157.524368
      vertex 49.224449 0.000000 -126.955627
      vertex 48.566887 0.000000 -126.451065
    endloop
  endfacet
  facet normal 0.000000 -1.000000 -0.000000
    outer loop
      vertex 49.224449 0.000000 -157.524368
      vertex 48.566887 0.000000 -126.451065
      vertex 48.566883 0.000000 -158.028931
    endloop
  endfacet
  facet normal 0.000000 -1.000000 -0.000000
    outer loop
      vertex 47.745132 0.000000 -159.452255
      vertex 48.062317 0.000000 -158.686493
      vertex 47.745136 0.000000 -125.027748
    endloop
  endfacet
  facet normal -0.000000 -1.000000 -0.000000
    outer loop
      vertex 47.745132 0.000000 -159.452255
      vertex 47.745136 0.000000 -125.027748
      vertex 43.211304 0.000000 -107.315002
    endloop
  endfacet
  facet normal 0.000000 -1.000000 -0.000000
    outer loop
      vertex 49.990200 0.000000 -157.207184
      vertex 49.224449 0.000000 -126.955627
      vertex 49.224449 0.000000 -157.524368
    endloop
  endfacet
  facet normal -0.000000 -1.000000 -0.000000
    outer loop
      vertex 49.990200 0.000000 -157.207184
      vertex 49.990200 0.000000 -127.272812
      vertex 49.224449 0.000000 -126.955627
    endloop
  endfacet
  facet normal 0.000000 -1.000000 -0.000000
    outer loop
      vertex 50.811951 0.000000 -157.098999
      vertex 49.990200 0.000000 -127.272812
      vertex 49.990200 0.000000 -157.207184
    endloop
  endfacet
  facet normal 0.991445 0.000000 -0.130526
    outer loop
      vertex 47.636948 0.000000 -160.274002
      vertex 47.636948 9.744521 -160.274002
      vertex 47.745132 9.744521 -159.452255
    endloop
  endfacet
  facet normal 0.991445 0.000000 -0.130526
    outer loop
      vertex 47.745132 0.000000 -159.452255
      vertex 47.636948 0.000000 -160.274002
      vertex 47.745132 9.744521 -159.452255
    endloop
  endfacet
  facet normal 0.923881 0.000000 -0.382679
    outer loop
      vertex 48.062317 0.000000 -158.686493
      vertex 47.745132 0.000000 -159.452255
      vertex 48.062317 9.744521 -158.686493
    endloop
  endfacet
  facet normal 0.923881 0.000000 -0.382679
    outer loop
      vertex 47.745132 0.000000 -159.452255
      vertex 47.745132 9.744521 -159.452255
      vertex 48.062317 9.744521 -158.686493
    endloop
  endfacet
  facet normal 0.793353 0.000000 -0.608762
    outer loop
      vertex 48.566883 0.000000 -158.028931
      vertex 48.062317 0.000000 -158.686493
      vertex 48.566883 9.744521 -158.028931
    endloop
  endfacet
  facet normal 0.793353 0.000000 -0.608762
    outer loop
      vertex 48.062317 0.000000 -158.686493
      vertex 48.062317 9.744521 -158.686493
      vertex 48.566883 9.744521 -158.028931
    endloop
  endfacet
  facet normal 0.608757 0.000000 -0.793357
    outer loop
      vertex 49.224449 0.000000 -157.524368
      vertex 48.566883 0.000000 -158.028931
      vertex 49.224449 9.744521 -157.524368
    endloop
  endfacet
  facet normal 0.608757 0.000000 -0.793357
    outer loop
      vertex 48.566883 0.000000 -158.028931
      vertex 48.566883 9.744521 -158.028931
      vertex 49.224449 9.744521 -157.524368
    endloop
  endfacet
  facet normal 0.382683 0.000000 -0.923880
    outer loop
      vertex 49.990200 0.000000 -157.207184
      vertex 49.224449 0.000000 -157.524368
      vertex 49.990200 9.744521 -157.207184
    endloop
  endfacet
  facet normal 0.382683 0.000000 -0.923880
    outer loop
      vertex 49.224449 0.000000 -157.524368
      vertex 49.224449 9.744521 -157.524368
      vertex 49.990200 9.744521 -157.207184
    endloop
  endfacet
  facet normal 0.130525 0.000000 -0.991445
    outer loop
      vertex 50.811951 0.000000 -157.098999
      vertex 49.990200 0.000000 -157.207184
      vertex 50.811951 9.744521 -157.098999
    endloop
  endfacet
  facet normal 0.130525 0.000000 -0.991445
    outer loop
      vertex 49.990200 0.000000 -157.207184
      vertex 49.990200 9.744521 -157.207184
      vertex 50.811951 9.744521 -157.098999
    endloop
  endfacet
  facet normal -0.130526 0.000000 -0.991445
    outer loop
      vertex 51.633698 0.000000 -157.207184
      vertex 50.811951 0.000000 -157.098999
      vertex 51.633698 9.744521 -157.207184
    endloop
  endfacet
  facet normal -0.130526 0.000000 -0.991445
    outer loop
      vertex 50.811951 0.000000 -157.098999
      vertex 50.811951 9.744521 -157.098999
      vertex 51.633698 9.744521 -157.207184
    endloop
  endfacet
  facet normal -0.382683 0.000000 -0.923880
    outer loop
      vertex 52.399448 0.000000 -157.524368
      vertex 51.633698 0.000000 -157.207184
      vertex 52.399448 9.744521 -157.524368
    endloop
  endfacet
  facet normal -0.382683 0.000000 -0.923880
    outer loop
      vertex 51.633698 0.000000 -157.207184
      vertex 51.633698 9.744521 -157.207184
      vertex 52.399448 9.744521 -157.524368
    endloop
  endfacet
  facet normal -0.608757 0.000000 -0.793357
    outer loop
      vertex 53.057014 0.000000 -158.028931
      vertex 52.399448 0.000000 -157.524368
      vertex 53.057014 9.744521 -158.028931
    endloop
  endfacet
  facet normal -0.608757 0.000000 -0.793357
    outer loop
      vertex 52.399448 0.000000 -157.524368
      vertex 52.399448 9.744521 -157.524368
      vertex 53.057014 9.744521 -158.028931
    endloop
  endfacet
  facet normal -0.793353 0.000000 -0.608762
    outer loop
      vertex 53.561581 0.000000 -158.686493
      vertex 53.057014 0.000000 -158.028931
      vertex 53.561581 9.744521 -158.686493
    endloop
  endfacet
  facet normal -0.793353 0.000000 -0.608762
    outer loop
      vertex 53.057014 0.000000 -158.028931
      vertex 53.057014 9.744521 -158.028931
      vertex 53.561581 9.744521 -158.686493
    endloop
  endfacet
  facet normal -0.923881 0.000000 -0.382679
    outer loop
      vertex 53.878765 0.000000 -159.452255
      vertex 53.561581 0.000000 -158.686493
      vertex 53.878765 9.744521 -159.452255
    endloop
  endfacet
  facet normal -0.991445 0.000000 -0.130526
    outer loop
      vertex 53.986950 0.000000 -160.274002
      vertex 53.878765 0.000000 -159.452255
      vertex 53.878765 9.744521 -159.452255
    endloop
  endfacet
  facet normal -0.923881 0.000000 -0.382679
    outer loop
      vertex 53.561581 0.000000 -158.686493
      vertex 53.561581 9.744521 -158.686493
      vertex 53.878765 9.744521 -159.452255
    endloop
  endfacet
  facet normal -0.991445 0.000000 -0.130526
    outer loop
      vertex 53.986950 0.000000 -160.274002
      vertex 53.878765 9.744521 -159.452255
      vertex 53.986950 9.744521 -160.274002
    endloop
  endfacet
  facet normal -0.991445 0.000000 0.130526
    outer loop
      vertex 53.986950 0.000000 -160.274002
      vertex 53.986950 9.744521 -160.274002
      vertex 53.878765 9.744521 -161.095749
    endloop
  endfacet
  facet normal -0.991445 0.000000 0.130526
    outer loop
      vertex 53.878765 0.000000 -161.095749
      vertex 53.986950 0.000000 -160.274002
      vertex 53.878765 9.744521 -161.095749
    endloop
  endfacet
  facet normal -0.923879 0.000000 0.382685
    outer loop
      vertex 53.561581 0.000000 -161.861496
      vertex 53.878765 0.000000 -161.095749
      vertex 53.561581 9.744521 -161.861496
    endloop
  endfacet
  facet normal -0.923879 0.000000 0.382685
    outer loop
      vertex 53.878765 0.000000 -161.095749
      vertex 53.878765 9.744521 -161.095749
      vertex 53.561581 9.744521 -161.861496
    endloop
  endfacet
  facet normal -0.793353 0.000000 0.608762
    outer loop
      vertex 53.057014 0.000000 -162.519058
      vertex 53.561581 0.000000 -161.861496
      vertex 53.057014 9.744521 -162.519058
    endloop
  endfacet
  facet normal -0.793353 0.000000 0.608762
    outer loop
      vertex 53.561581 0.000000 -161.861496
      vertex 53.561581 9.744521 -161.861496
      vertex 53.057014 9.744521 -162.519058
    endloop
  endfacet
  facet normal -0.608769 0.000000 0.793348
    outer loop
      vertex 52.399448 0.000000 -163.023636
      vertex 53.057014 0.000000 -162.519058
      vertex 52.399448 9.744521 -163.023636
    endloop
  endfacet
  facet normal -0.608769 0.000000 0.793348
    outer loop
      vertex 53.057014 0.000000 -162.519058
      vertex 53.057014 9.744521 -162.519058
      vertex 52.399448 9.744521 -163.023636
    endloop
  endfacet
  facet normal -0.382683 0.000000 0.923880
    outer loop
      vertex 51.633698 0.000000 -163.340820
      vertex 52.399448 0.000000 -163.023636
      vertex 51.633698 9.744521 -163.340820
    endloop
  endfacet
  facet normal -0.382683 0.000000 0.923880
    outer loop
      vertex 52.399448 0.000000 -163.023636
      vertex 52.399448 9.744521 -163.023636
      vertex 51.633698 9.744521 -163.340820
    endloop
  endfacet
  facet normal -0.130526 0.000000 0.991445
    outer loop
      vertex 50.811951 0.000000 -163.449005
      vertex 51.633698 0.000000 -163.340820
      vertex 50.811951 9.744521 -163.449005
    endloop
  endfacet
  facet normal -0.130526 0.000000 0.991445
    outer loop
      vertex 51.633698 0.000000 -163.340820
      vertex 51.633698 9.744521 -163.340820
      vertex 50.811951 9.744521 -163.449005
    endloop
  endfacet
  facet normal 0.130525 -0.000000 0.991445
    outer loop
      vertex 49.990200 0.000000 -163.340820
      vertex 50.811951 0.000000 -163.449005
      vertex 49.990200 9.744521 -163.340820
    endloop
  endfacet
  facet normal 0.130525 -0.000000 0.991445
    outer loop
      vertex 50.811951 0.000000 -163.449005
      vertex 50.811951 9.744521 -163.449005
      vertex 49.990200 9.744521 -163.340820
    endloop
  endfacet
  facet normal 0.382683 -0.000000 0.923880
    outer loop
      vertex 49.224449 0.000000 -163.023636
      vertex 49.990200 0.000000 -163.340820
      vertex 49.224449 9.744521 -163.023636
    endloop
  endfacet
  facet normal 0.382683 -0.000000 0.923880
    outer loop
      vertex 49.990200 0.000000 -163.340820
      vertex 49.990200 9.744521 -163.340820
      vertex 49.224449 9.744521 -163.023636
    endloop
  endfacet
  facet normal 0.608769 -0.000000 0.793348
    outer loop
      vertex 48.566883 0.000000 -162.519058
      vertex 49.224449 0.000000 -163.023636
      vertex 48.566883 9.744521 -162.519058
    endloop
  endfacet
  facet normal 0.608769 -0.000000 0.793348
    outer loop
      vertex 49.224449 0.000000 -163.023636
      vertex 49.224449 9.744521 -163.023636
      vertex 48.566883 9.744521 -162.519058
    endloop
  endfacet
  facet normal 0.793353 -0.000000 0.608762
    outer loop
      vertex 48.062317 0.000000 -161.861496
      vertex 48.566883 0.000000 -162.519058
      vertex 48.062317 9.744521 -161.861496
    endloop
  endfacet
  facet normal 0.793353 -0.000000 0.608762
    outer loop
      vertex 48.566883 0.000000 -162.519058
      vertex 48.566883 9.744521 -162.519058
      vertex 48.062317 9.744521 -161.861496
    endloop
  endfacet
  facet normal 0.923879 -0.000000 0.382685
    outer loop
      vertex 47.745132 0.000000 -161.095749
      vertex 48.062317 0.000000 -161.861496
      vertex 47.745132 9.744521 -161.095749
    endloop
  endfacet
  facet normal 0.923879 -0.000000 0.382685
    outer loop
      vertex 48.062317 0.000000 -161.861496
      vertex 48.062317 9.744521 -161.861496
      vertex 47.745132 9.744521 -161.095749
    endloop
  endfacet
  facet normal 0.991445 -0.000000 0.130526
    outer loop
      vertex 47.636948 0.000000 -160.274002
      vertex 47.745132 0.000000 -161.095749
      vertex 47.636948 9.744521 -160.274002
    endloop
  endfacet
  facet normal 0.991445 -0.000000 0.130526
    outer loop
      vertex 47.745132 0.000000 -161.095749
      vertex 47.745132 9.744521 -161.095749
      vertex 47.636948 9.744521 -160.274002
    endloop
  endfacet
endsolid Mesh