solid Mesh
  facet normal -0.000000 -1.000000 -0.000000
    outer loop
      vertex 50.811951 0.000000 119.888000
      vertex 50.811951 0.000000 149.606003
      vertex 49.990200 0.000000 149.714188
    endloop
  endfacet
  facet normal 0.000000 -1.000000 -0.000000
    outer loop
      vertex 51.633698 0.000000 119.779816
      vertex 50.811951 0.000000 149.606003
      vertex 50.811951 0.000000 119.888000
    endloop
  endfacet
  facet normal 0.000000 -1.000000 -0.000000
    outer loop
      vertex 49.224449 0.000000 155.530624
      vertex 43.211304 0.000000 169.671997
      vertex 48.566887 0.000000 155.026062
    endloop
  endfacet
  facet normal 0.000000 -1.000000 -0.000000
    outer loop
      vertex 51.633698 0.000000 119.779816
      vertex 51.633701 0.000000 149.714188
      vertex 50.811951 0.000000 149.606003
    endloop
  endfacet
  facet normal 0.000000 -1.000000 -0.000000
    outer loop
      vertex 48.062321 0.000000 154.368500
      vertex 48.566887 0.000000 155.026062
      vertex 43.211304 0.000000 169.671997
    endloop
  endfacet
  facet normal 0.000000 -1.000000 -0.000000
    outer loop
      vertex 52.399448 0.000000 119.462631
      vertex 51.633701 0.000000 149.714188
      vertex 51.633698 0.000000 119.779816
    endloop
  endfacet
  facet normal 0.000000 -1.000000 -0.000000
    outer loop
      vertex 49.990200 0.000000 155.847809
      vertex 43.211304 0.000000 169.671997
      vertex 49.224449 0.000000 155.530624
    endloop
  endfacet
  facet normal 0.000000 -1.000000 -0.000000
    outer loop
      vertex 52.399448 0.000000 119.462631
      vertex 52.399448 0.000000 150.031372
      vertex 51.633701 0.000000 149.714188
    endloop
  endfacet
  facet normal 0.000000 -1.000000 -0.000000
    outer loop
      vertex 47.745136 0.000000 153.602753
      vertex 48.062321 0.000000 154.368500
      vertex 43.211304 0.000000 169.671997
    endloop
  endfacet
  facet normal -0.000000 -1.000000 -0.000000
    outer loop
      vertex 53.057014 0.000000 118.958061
      vertex 52.399448 0.000000 150.031372
      vertex 52.399448 0.000000 119.462631
    endloop
  endfacet
  facet normal 0.000000 -1.000000 -0.000000
    outer loop
      vertex 50.811951 0.000000 155.955994
      vertex 57.136551 0.000000 169.671997
      vertex 43.211304 0.000000 169.671997
    endloop
  endfacet
  facet normal 0.000000 -1.000000 -0.000000
    outer loop
      vertex 53.057014 0.000000 118.958061
      vertex 53.057014 0.000000 150.535934
      vertex 52.399448 0.000000 150.031372
    endloop
  endfacet
  facet normal -0.000000 -1.000000 -0.000000
    outer loop
      vertex 50.811951 0.000000 155.955994
      vertex 43.211304 0.000000 169.671997
      vertex 49.990200 0.000000 155.847809
    endloop
  endfacet
  facet normal 0.000000 -1.000000 -0.000000
    outer loop
      vertex 47.636951 0.000000 152.781006
      vertex 47.745136 0.000000 153.602753
      vertex 43.211304 0.000000 169.671997
    endloop
  endfacet
  facet normal -0.000000 -1.000000 -0.000000
    outer loop
      vertex 53.561581 0.000000 118.300499
      vertex 53.057014 0.000000 150.535934
      vertex 53.057014 0.000000 118.958061
    endloop
  endfacet
  facet normal 0.000000 -1.000000 -0.000000
    outer loop
      vertex 53.561581 0.000000 118.300499
      vertex 53.561581 0.000000 151.193497
      vertex 53.057014 0.000000 150.535934
    endloop
  endfacet
  facet normal 0.000000 -1.000000 -0.000000
    outer loop
      vertex 51.633701 0.000000 155.847809
      vertex 57.136551 0.000000 169.671997
      vertex 50.811951 0.000000 155.955994
    endloop
  endfacet
  facet normal 0.000000 -1.000000 0.000000
    outer loop
      vertex 47.745136 0.000000 151.959244
      vertex 47.636951 0.000000 152.781006
      vertex 43.211304 0.000000 169.671997
    endloop
  endfacet
  facet normal -0.000000 -1.000000 -0.000000
    outer loop
      vertex 52.399448 0.000000 155.530624
      vertex 57.136551 0.000000 169.671997
      vertex 51.633701 0.000000 155.847809
    endloop
  endfacet
  facet normal -0.000000 -1.000000 -0.000000
    outer loop
      vertex 53.057014 0.000000 155.026062
      vertex 57.136551 0.000000 169.671997
      vertex 52.399448 0.000000 155.530624
    endloop
  endfacet
  facet normal -0.000000 -1.000000 -0.000000
    outer loop
      vertex 53.561581 0.000000 154.368500
      vertex 57.136551 0.000000 169.671997
      vertex 53.057014 0.000000 155.026062
    endloop
  endfacet
  facet normal -0.000000 -1.000000 -0.000000
    outer loop
      vertex 53.878765 0.000000 153.602753
      vertex 57.136551 0.000000 169.671997
      vertex 53.561581 0.000000 154.368500
    endloop
  endfacet
  facet normal -0.000000 -1.000000 0.000000
    outer loop
      vertex 43.211304 0.000000 99.821999
      vertex 47.636948 0.000000 116.712997
      vertex 47.745132 0.000000 117.534752
    endloop
  endfacet
  facet normal 0.000000 -1.000000 -0.000000
    outer loop
      vertex 43.211304 0.000000 99.821999
      vertex 47.745132 0.000000 117.534752
      vertex 43.211304 0.000000 169.671997
    endloop
  endfacet
  facet normal 0.000000 -1.000000 0.000000
    outer loop
      vertex 43.211304 0.000000 99.821999
      vertex 50.811951 0.000000 113.538002
      vertex 49.990200 0.000000 113.646187
    endloop
  endfacet
  facet normal 0.000000 -1.000000 0.000000
    outer loop
      vertex 43.211304 0.000000 99.821999
      vertex 49.990200 0.000000 113.646187
      vertex 49.224449 0.000000 113.963371
    endloop
  endfacet
  facet normal 0.000000 -1.000000 0.000000
    outer loop
      vertex 43.211304 0.000000 99.821999
      vertex 49.224449 0.000000 113.963371
      vertex 48.566883 0.000000 114.467934
    endloop
  endfacet
  facet normal 0.000000 -1.000000 0.000000
    outer loop
      vertex 43.211304 0.000000 99.821999
      vertex 48.566883 0.000000 114.467934
      vertex 48.062317 0.000000 115.125504
    endloop
  endfacet
  facet normal 0.000000 -1.000000 0.000000
    outer loop
      vertex 43.211304 0.000000 99.821999
      vertex 48.062317 0.000000 115.125504
      vertex 47.745132 0.000000 115.891251
    endloop
  endfacet
  facet normal 0.000000 -1.000000 -0.000000
    outer loop
      vertex 43.211304 0.000000 99.821999
      vertex 47.745132 0.000000 115.891251
      vertex 47.636948 0.000000 116.712997
    endloop
  endfacet
  facet normal -0.000000 -1.000000 0.000000
    outer loop
      vertex 57.136551 0.000000 99.821999
      vertex 53.986950 0.000000 116.712997
      vertex 53.878765 0.000000 115.891251
    endloop
  endfacet
  facet normal -0.000000 -1.000000 -0.000000
    outer loop
      vertex 53.986950 0.000000 152.781006
      vertex 57.136551 0.000000 169.671997
      vertex 53.878765 0.000000 153.602753
    endloop
  endfacet
  facet normal 0.000000 -1.000000 0.000000
    outer loop
      vertex 57.136551 0.000000 99.821999
      vertex 53.878765 0.000000 115.891251
      vertex 53.561581 0.000000 115.125504
    endloop
  endfacet
  facet normal 0.000000 -1.000000 0.000000
    outer loop
      vertex 57.136551 0.000000 99.821999
      vertex 53.561581 0.000000 115.125504
      vertex 53.057014 0.000000 114.467934
    endloop
  endfacet
  facet normal 0.000000 -1.000000 0.000000
    outer loop
      vertex 57.136551 0.000000 99.821999
      vertex 53.057014 0.000000 114.467934
      vertex 52.399448 0.000000 113.963371
    endloop
  endfacet
  facet normal 0.000000 -1.000000 0.000000
    outer loop
      vertex 57.136551 0.000000 99.821999
      vertex 52.399448 0.000000 113.963371
      vertex 51.633698 0.000000 113.646187
    endloop
  endfacet
  facet normal 0.000000 -1.000000 0.000000
    outer loop
      vertex 57.136551 0.000000 99.821999
      vertex 51.633698 0.000000 113.646187
      vertex 50.811951 0.000000 113.538002
    endloop
  endfacet
  facet normal 0.000000 -1.000000 0.000000
    outer loop
      vertex 57.136551 0.000000 99.821999
      vertex 50.811951 0.000000 113.538002
      vertex 43.211304 0.000000 99.821999
    endloop
  endfacet
  facet normal 0.000000 -1.000000 -0.000000
    outer loop
      vertex 57.136551 0.000000 99.821999
      vertex 57.136551 0.000000 169.671997
      vertex 53.986950 0.000000 152.781006
    endloop
  endfacet
  facet normal 0.000000 -1.000000 -0.000000
    outer loop
      vertex 57.136551 0.000000 99.821999
      vertex 53.986950 0.000000 152.781006
      vertex 53.878765 0.000000 151.959244
    endloop
  endfacet
  facet normal 0.000000 -1.000000 -0.000000
    outer loop
      vertex 57.136551 0.000000 99.821999
      vertex 53.878765 0.000000 151.959244
      vertex 53.561581 0.000000 151.193497
    endloop
  endfacet
  facet normal -0.000000 -1.000000 -0.000000
    outer loop
      vertex 57.136551 0.000000 99.821999
      vertex 53.561581 0.000000 151.193497
      vertex 53.986950 0.000000 116.712997
    endloop
  endfacet
  facet normal 0.000000 -1.000000 -0.000000
    outer loop
      vertex 53.986950 0.000000 116.712997
      vertex 53.561581 0.000000 151.193497
      vertex 53.878765 0.000000 117.534752
    endloop
  endfacet
  facet normal -0.000000 -1.000000 -0.000000
    outer loop
      vertex 53.878765 0.000000 117.534752
      vertex 53.561581 0.000000 151.193497
      vertex 53.561581 0.000000 118.300499
    endloop
  endfacet
  facet normal -0.000000 -1.000000 -0.000000
    outer loop
      vertex 48.566883 0.000000 118.958061
      vertex 48.566887 0.000000 150.535934
      vertex 48.062321 0.000000 151.193497
    endloop
  endfacet
  facet normal -0.000000 -1.000000 -0.000000
    outer loop
      vertex 48.062317 0.000000 118.300499
      vertex 48.062321 0.000000 151.193497
      vertex 47.745136 0.000000 151.959244
    endloop
  endfacet
  facet normal 0.000000 -1.000000 -0.000000
    outer loop
      vertex 48.062317 0.000000 118.300499
      vertex 48.566883 0.000000 118.958061
      vertex 48.062321 0.000000 151.193497
    endloop
  endfacet
  facet normal -0.000000 -1.000000 -0.000000
    outer loop
      vertex 49.224449 0.000000 119.462631
      vertex 49.224449 0.000000 150.031372
      vertex 48.566887 0.000000 150.535934
    endloop
  endfacet
  facet normal 0.000000 -1.000000 -0.000000
    outer loop
      vertex 49.224449 0.000000 119.462631
      vertex 48.566887 0.000000 150.535934
      vertex 48.566883 0.000000 118.958061
    endloop
  endfacet
  facet normal 0.000000 -1.000000 -0.000000
    outer loop
      vertex 47.745132 0.000000 117.534752
      vertex 48.062317 0.000000 118.300499
      vertex 47.745136 0.000000 151.959244
    endloop
  endfacet
  facet normal -0.000000 -1.000000 -0.000000
    outer loop
      vertex 47.745132 0.000000 117.534752
      vertex 47.745136 0.000000 151.959244
      vertex 43.211304 0.000000 169.671997
    endloop
  endfacet
  facet normal 0.000000 -1.000000 -0.000000
    outer loop
      vertex 49.990200 0.000000 119.779816
      vertex 49.224449 0.000000 150.031372
      vertex 49.224449 0.000000 119.462631
    endloop
  endfacet
  facet normal -0.000000 -1.000000 -0.000000
    outer loop
      vertex 49.990200 0.000000 119.779816
      vertex 49.990200 0.000000 149.714188
      vertex 49.224449 0.000000 150.031372
    endloop
  endfacet
  facet normal 0.000000 -1.000000 -0.000000
    outer loop
      vertex 50.811951 0.000000 119.888000
      vertex 49.990200 0.000000 149.714188
      vertex 49.990200 0.000000 119.779816
    endloop
  endfacet
  facet normal 0.000000 -0.000000 1.000000
    outer loop
      vertex 57.136551 0.000000 169.671997
      vertex 57.136551 9.744521 169.671997
      vertex 43.211304 5.713217 169.671997
    endloop
  endfacet
  facet normal 0.000000 0.000000 1.000000
    outer loop
      vertex 43.211304 0.000000 169.671997
      vertex 57.136551 0.000000 169.671997
      vertex 43.211304 5.713217 169.671997
    endloop
  endfacet
  facet normal 0.000000 0.000000 1.000000
    outer loop
      vertex 36.887604 5.713217 169.671997
      vertex 43.211304 5.713217 169.671997
      vertex 36.887604 9.744521 169.671997
    endloop
  endfacet
  facet normal 0.000000 -0.000000 1.000000
    outer loop
      vertex 43.211304 5.713217 169.671997
      vertex 57.136551 9.744521 169.671997
      vertex 36.887604 9.744521 169.671997
    endloop
  endfacet
  facet normal 0.000000 1.000000 0.000000
    outer loop
      vertex 51.633701 9.744521 149.714188
      vertex 51.633698 9.744521 119.779816
      vertex 50.811951 9.744521 149.606003
    endloop
  endfacet
  facet normal 0.000000 1.000000 0.000000
    outer loop
      vertex 51.633701 9.744521 149.714188
      vertex 52.399448 9.744521 119.462631
      vertex 51.633698 9.744521 119.779816
    endloop
  endfacet
  facet normal 0.000000 1.000000 0.000000
    outer loop
      vertex 48.062317 9.744521 115.125504
      vertex 48.566883 9.744521 114.467934
      vertex 36.887604 9.744521 99.821999
    endloop
  endfacet
  facet normal 0.000000 1.000000 0.000000
    outer loop
      vertex 52.399448 9.744521 150.031372
      vertex 52.399448 9.744521 119.462631
      vertex 51.633701 9.744521 149.714188
    endloop
  endfacet
  facet normal 0.000000 1.000000 0.000000
    outer loop
      vertex 52.399448 9.744521 150.031372
      vertex 53.057014 9.744521 118.958061
      vertex 52.399448 9.744521 119.462631
    endloop
  endfacet
  facet normal 0.000000 1.000000 0.000000
    outer loop
      vertex 49.224449 9.744521 113.963371
      vertex 36.887604 9.744521 99.821999
      vertex 48.566883 9.744521 114.467934
    endloop
  endfacet
  facet normal 0.000000 1.000000 0.000000
    outer loop
      vertex 47.745132 9.744521 115.891251
      vertex 48.062317 9.744521 115.125504
      vertex 36.887604 9.744521 99.821999
    endloop
  endfacet
  facet normal 0.000000 1.000000 0.000000
    outer loop
      vertex 49.990200 9.744521 113.646187
      vertex 57.136551 9.744521 99.821999
      vertex 36.887604 9.744521 99.821999
    endloop
  endfacet
  facet normal 0.000000 1.000000 0.000000
    outer loop
      vertex 49.990200 9.744521 113.646187
      vertex 36.887604 9.744521 99.821999
      vertex 49.224449 9.744521 113.963371
    endloop
  endfacet
  facet normal 0.000000 1.000000 0.000000
    outer loop
      vertex 53.057014 9.744521 150.535934
      vertex 53.057014 9.744521 118.958061
      vertex 52.399448 9.744521 150.031372
    endloop
  endfacet
  facet normal 0.000000 1.000000 0.000000
    outer loop
      vertex 47.636948 9.744521 116.712997
      vertex 47.745132 9.744521 115.891251
      vertex 36.887604 9.744521 99.821999
    endloop
  endfacet
  facet normal 0.000000 1.000000 0.000000
    outer loop
      vertex 53.057014 9.744521 150.535934
      vertex 53.561581 9.744521 118.300499
      vertex 53.057014 9.744521 118.958061
    endloop
  endfacet
  facet normal 0.000000 1.000000 0.000000
    outer loop
      vertex 50.811951 9.744521 113.538002
      vertex 57.136551 9.744521 99.821999
      vertex 49.990200 9.744521 113.646187
    endloop
  endfacet
  facet normal 0.000000 1.000000 0.000000
    outer loop
      vertex 53.561581 9.744521 151.193497
      vertex 53.561581 9.744521 118.300499
      vertex 53.057014 9.744521 150.535934
    endloop
  endfacet
  facet normal 0.000000 1.000000 0.000000
    outer loop
      vertex 47.745132 9.744521 117.534752
      vertex 47.636948 9.744521 116.712997
      vertex 36.887604 9.744521 99.821999
    endloop
  endfacet
  facet normal 0.000000 1.000000 0.000000
    outer loop
      vertex 51.633698 9.744521 113.646187
      vertex 57.136551 9.744521 99.821999
      vertex 50.811951 9.744521 113.538002
    endloop
  endfacet
  facet normal 0.000000 1.000000 0.000000
    outer loop
      vertex 36.887604 9.744521 169.671997
      vertex 47.745136 9.744521 151.959244
      vertex 47.745132 9.744521 117.534752
    endloop
  endfacet
  facet normal 0.000000 1.000000 0.000000
    outer loop
      vertex 36.887604 9.744521 169.671997
      vertex 47.636951 9.744521 152.781006
      vertex 47.745136 9.744521 151.959244
    endloop
  endfacet
  facet normal 0.000000 1.000000 0.000000
    outer loop
      vertex 36.887604 9.744521 169.671997
      vertex 49.990200 9.744521 155.847809
      vertex 49.224449 9.744521 155.530624
    endloop
  endfacet
  facet normal 0.000000 1.000000 0.000000
    outer loop
      vertex 36.887604 9.744521 169.671997
      vertex 49.224449 9.744521 155.530624
      vertex 48.566887 9.744521 155.026062
    endloop
  endfacet
  facet normal 0.000000 1.000000 0.000000
    outer loop
      vertex 36.887604 9.744521 169.671997
      vertex 48.566887 9.744521 155.026062
      vertex 48.062321 9.744521 154.368500
    endloop
  endfacet
  facet normal 0.000000 1.000000 0.000000
    outer loop
      vertex 36.887604 9.744521 169.671997
      vertex 48.062321 9.744521 154.368500
      vertex 47.745136 9.744521 153.602753
    endloop
  endfacet
  facet normal 0.000000 1.000000 0.000000
    outer loop
      vertex 36.887604 9.744521 169.671997
      vertex 47.745136 9.744521 153.602753
      vertex 47.636951 9.744521 152.781006
    endloop
  endfacet
  facet normal 0.000000 1.000000 0.000000
    outer loop
      vertex 36.887604 9.744521 169.671997
      vertex 47.745132 9.744521 117.534752
      vertex 36.887604 9.744521 99.821999
    endloop
  endfacet
  facet normal 0.000000 1.000000 0.000000
    outer loop
      vertex 52.399448 9.744521 113.963371
      vertex 57.136551 9.744521 99.821999
      vertex 51.633698 9.744521 113.646187
    endloop
  endfacet
  facet normal 0.000000 1.000000 0.000000
    outer loop
      vertex 53.057014 9.744521 114.467934
      vertex 57.136551 9.744521 99.821999
      vertex 52.399448 9.744521 113.963371
    endloop
  endfacet
  facet normal 0.000000 1.000000 0.000000
    outer loop
      vertex 53.561581 9.744521 115.125504
      vertex 57.136551 9.744521 99.821999
      vertex 53.057014 9.744521 114.467934
    endloop
  endfacet
  facet normal 0.000000 1.000000 0.000000
    outer loop
      vertex 53.878765 9.744521 115.891251
      vertex 57.136551 9.744521 99.821999
      vertex 53.561581 9.744521 115.125504
    endloop
  endfacet
  facet normal 0.000000 1.000000 0.000000
    outer loop
      vertex 53.986950 9.744521 116.712997
      vertex 57.136551 9.744521 99.821999
      vertex 53.878765 9.744521 115.891251
    endloop
  endfacet
  facet normal 0.000000 1.000000 0.000000
    outer loop
      vertex 57.136551 9.744521 169.671997
      vertex 49.990200 9.744521 155.847809
      vertex 36.887604 9.744521 169.671997
    endloop
  endfacet
  facet normal 0.000000 1.000000 0.000000
    outer loop
      vertex 57.136551 9.744521 169.671997
      vertex 53.986950 9.744521 152.781006
      vertex 53.878765 9.744521 153.602753
    endloop
  endfacet
  facet normal 0.000000 1.000000 0.000000
    outer loop
      vertex 57.136551 9.744521 169.671997
      vertex 53.878765 9.744521 153.602753
      vertex 53.561581 9.744521 154.368500
    endloop
  endfacet
  facet normal 0.000000 1.000000 0.000000
    outer loop
      vertex 57.136551 9.744521 169.671997
      vertex 53.561581 9.744521 154.368500
      vertex 53.057014 9.744521 155.026062
    endloop
  endfacet
  facet normal 0.000000 1.000000 0.000000
    outer loop
      vertex 57.136551 9.744521 169.671997
      vertex 53.057014 9.744521 155.026062
      vertex 52.399448 9.744521 155.530624
    endloop
  endfacet
  facet normal 0.000000 1.000000 0.000000
    outer loop
      vertex 57.136551 9.744521 169.671997
      vertex 52.399448 9.744521 155.530624
      vertex 51.633701 9.744521 155.847809
    endloop
  endfacet
  facet normal 0.000000 1.000000 0.000000
    outer loop
      vertex 57.136551 9.744521 169.671997
      vertex 51.633701 9.744521 155.847809
      vertex 50.811951 9.744521 155.955994
    endloop
  endfacet
  facet normal 0.000000 1.000000 0.000000
    outer loop
      vertex 57.136551 9.744521 169.671997
      vertex 50.811951 9.744521 155.955994
      vertex 49.990200 9.744521 155.847809
    endloop
  endfacet
  facet normal 0.000000 1.000000 0.000000
    outer loop
      vertex 57.136551 9.744521 169.671997
      vertex 57.136551 9.744521 99.821999
      vertex 53.986950 9.744521 152.781006
    endloop
  endfacet
  facet normal 0.000000 1.000000 0.000000
    outer loop
      vertex 53.986950 9.744521 152.781006
      vertex 57.136551 9.744521 99.821999
      vertex 53.878765 9.744521 151.959244
    endloop
  endfacet
  facet normal 0.000000 1.000000 0.000000
    outer loop
      vertex 53.878765 9.744521 151.959244
      vertex 57.136551 9.744521 99.821999
      vertex 53.561581 9.744521 151.193497
    endloop
  endfacet
  facet normal 0.000000 1.000000 0.000000
    outer loop
      vertex 53.561581 9.744521 151.193497
      vertex 57.136551 9.744521 99.821999
      vertex 53.986950 9.744521 116.712997
    endloop
  endfacet
  facet normal 0.000000 1.000000 0.000000
    outer loop
      vertex 53.561581 9.744521 151.193497
      vertex 53.986950 9.744521 116.712997
      vertex 53.878765 9.744521 117.534752
    endloop
  endfacet
  facet normal 0.000000 1.000000 0.000000
    outer loop
      vertex 53.561581 9.744521 151.193497
      vertex 53.878765 9.744521 117.534752
      vertex 53.561581 9.744521 118.300499
    endloop
  endfacet
  facet normal 0.000000 1.000000 0.000000
    outer loop
      vertex 48.566887 9.744521 150.535934
      vertex 49.224449 9.744521 119.462631
      vertex 48.566883 9.744521 118.958061
    endloop
  endfacet
  facet normal 0.000000 1.000000 0.000000
    outer loop
      vertex 49.224449 9.744521 150.031372
      vertex 49.990200 9.744521 119.779816
      vertex 49.224449 9.744521 119.462631
    endloop
  endfacet
  facet normal 0.000000 1.000000 0.000000
    outer loop
      vertex 49.224449 9.744521 150.031372
      vertex 49.224449 9.744521 119.462631
      vertex 48.566887 9.744521 150.535934
    endloop
  endfacet
  facet normal 0.000000 1.000000 0.000000
    outer loop
      vertex 48.062321 9.744521 151.193497
      vertex 48.566883 9.744521 118.958061
      vertex 48.062317 9.744521 118.300499
    endloop
  endfacet
  facet normal 0.000000 1.000000 0.000000
    outer loop
      vertex 48.062321 9.744521 151.193497
      vertex 48.566887 9.744521 150.535934
      vertex 48.566883 9.744521 118.958061
    endloop
  endfacet
  facet normal 0.000000 1.000000 0.000000
    outer loop
      vertex 49.990200 9.744521 149.714188
      vertex 49.990200 9.744521 119.779816
      vertex 49.224449 9.744521 150.031372
    endloop
  endfacet
  facet normal 0.000000 1.000000 0.000000
    outer loop
      vertex 49.990200 9.744521 149.714188
      vertex 50.811951 9.744521 119.888000
      vertex 49.990200 9.744521 119.779816
    endloop
  endfacet
  facet normal 0.000000 1.000000 0.000000
    outer loop
      vertex 47.745136 9.744521 151.959244
      vertex 48.062321 9.744521 151.193497
      vertex 48.062317 9.744521 118.300499
    endloop
  endfacet
  facet normal 0.000000 1.000000 0.000000
    outer loop
      vertex 47.745136 9.744521 151.959244
      vertex 48.062317 9.744521 118.300499
      vertex 47.745132 9.744521 117.534752
    endloop
  endfacet
  facet normal 0.000000 1.000000 0.000000
    outer loop
      vertex 50.811951 9.744521 149.606003
      vertex 50.811951 9.744521 119.888000
      vertex 49.990200 9.744521 149.714188
    endloop
  endfacet
  facet normal 0.000000 1.000000 0.000000
    outer loop
      vertex 50.811951 9.744521 149.606003
      vertex 51.633698 9.744521 119.779816
      vertex 50.811951 9.744521 119.888000
    endloop
  endfacet
  facet normal -1.000000 0.000000 0.000000
    outer loop
      vertex 36.887604 5.713217 169.671997
      vertex 36.887604 9.744521 99.821999
      vertex 36.887604 5.713217 99.821999
    endloop
  endfacet
  facet normal -1.000000 -0.000000 -0.000000
    outer loop
      vertex 36.887604 9.744521 169.671997
      vertex 36.887604 9.744521 99.821999
      vertex 36.887604 5.713217 169.671997
    endloop
  endfacet
  facet normal 0.000000 -1.000000 0.000000
    outer loop
      vertex 36.887604 5.713217 99.821999
      vertex 43.211304 5.713217 169.671997
      vertex 36.887604 5.713217 169.671997
    endloop
  endfacet
  facet normal 0.000000 -1.000000 0.000000
    outer loop
      vertex 43.211304 5.713217 99.821999
      vertex 43.211304 5.713217 169.671997
      vertex 36.887604 5.713217 99.821999
    endloop
  endfacet
  facet normal -1.000000 -0.000000 0.000000
    outer loop
      vertex 43.211304 5.713217 169.671997
      vertex 43.211304 0.000000 99.821999
      vertex 43.211304 0.000000 169.671997
    endloop
  endfacet
  facet normal -1.000000 0.000000 -0.000000
    outer loop
      vertex 43.211304 5.713217 169.671997
      vertex 43.211304 5.713217 99.821999
      vertex 43.211304 0.000000 99.821999
    endloop
  endfacet
  facet normal 0.000000 0.000000 -1.000000
    outer loop
      vertex 36.887604 5.713217 99.821999
      vertex 36.887604 9.744521 99.821999
      vertex 43.211304 5.713217 99.821999
    endloop
  endfacet
  facet normal 0.000000 0.000000 -1.000000
    outer loop
      vertex 43.211304 0.000000 99.821999
      vertex 43.211304 5.713217 99.821999
      vertex 57.136551 0.000000 99.821999
    endloop
  endfacet
  facet normal 0.000000 0.000000 -1.000000
    outer loop
      vertex 57.136551 0.000000 99.821999
      vertex 43.211304 5.713217 99.821999
      vertex 57.136551 9.744521 99.821999
    endloop
  endfacet
  facet normal 0.000000 0.000000 -1.000000
    outer loop
      vertex 43.211304 5.713217 99.821999
      vertex 36.887604 9.744521 99.821999
      vertex 57.136551 9.744521 99.821999
    endloop
  endfacet
  facet normal 1.000000 0.000000 -0.000000
    outer loop
      vertex 57.136551 0.000000 99.821999
      vertex 57.136551 9.744521 169.671997
      vertex 57.136551 0.000000 169.671997
    endloop
  endfacet
  facet normal 1.000000 0.000000 -0.000000
    outer loop
      vertex 57.136551 9.744521 99.821999
      vertex 57.136551 9.744521 169.671997
      vertex 57.136551 0.000000 99.821999
    endloop
  endfacet
  facet normal -0.991445 0.000000 0.130526
    outer loop
      vertex 53.986950 0.000000 116.712997
      vertex 53.986950 9.744521 116.712997
      vertex 53.878765 9.744521 115.891251
    endloop
  endfacet
  facet normal -0.991445 0.000000 0.130526
    outer loop
      vertex 53.878765 0.000000 115.891251
      vertex 53.986950 0.000000 116.712997
      vertex 53.878765 9.744521 115.891251
    endloop
  endfacet
  facet normal -0.923879 0.000000 0.382685
    outer loop
      vertex 53.561581 0.000000 115.125504
      vertex 53.878765 0.000000 115.891251
      vertex 53.561581 9.744521 115.125504
    endloop
  endfacet
  facet normal -0.923879 0.000000 0.382685
    outer loop
      vertex 53.878765 0.000000 115.891251
      vertex 53.878765 9.744521 115.891251
      vertex 53.561581 9.744521 115.125504
    endloop
  endfacet
  facet normal -0.793356 0.000000 0.608758
    outer loop
      vertex 53.057014 0.000000 114.467934
      vertex 53.561581 0.000000 115.125504
      vertex 53.057014 9.744521 114.467934
    endloop
  endfacet
  facet normal -0.793356 0.000000 0.608758
    outer loop
      vertex 53.561581 0.000000 115.125504
      vertex 53.561581 9.744521 115.125504
      vertex 53.057014 9.744521 114.467934
    endloop
  endfacet
  facet normal -0.608757 0.000000 0.793357
    outer loop
      vertex 52.399448 0.000000 113.963371
      vertex 53.057014 0.000000 114.467934
      vertex 52.399448 9.744521 113.963371
    endloop
  endfacet
  facet normal -0.608757 0.000000 0.793357
    outer loop
      vertex 53.057014 0.000000 114.467934
      vertex 53.057014 9.744521 114.467934
      vertex 52.399448 9.744521 113.963371
    endloop
  endfacet
  facet normal -0.382683 0.000000 0.923880
    outer loop
      vertex 51.633698 0.000000 113.646187
      vertex 52.399448 0.000000 113.963371
      vertex 51.633698 9.744521 113.646187
    endloop
  endfacet
  facet normal -0.382683 0.000000 0.923880
    outer loop
      vertex 52.399448 0.000000 113.963371
      vertex 52.399448 9.744521 113.963371
      vertex 51.633698 9.744521 113.646187
    endloop
  endfacet
  facet normal -0.130526 0.000000 0.991445
    outer loop
      vertex 50.811951 0.000000 113.538002
      vertex 51.633698 0.000000 113.646187
      vertex 50.811951 9.744521 113.538002
    endloop
  endfacet
  facet normal -0.130526 0.000000 0.991445
    outer loop
      vertex 51.633698 0.000000 113.646187
      vertex 51.633698 9.744521 113.646187
      vertex 50.811951 9.744521 113.538002
    endloop
  endfacet
  facet normal 0.130525 -0.000000 0.991445
    outer loop
      vertex 49.990200 0.000000 113.646187
      vertex 50.811951 0.000000 113.538002
      vertex 49.990200 9.744521 113.646187
    endloop
  endfacet
  facet normal 0.130525 -0.000000 0.991445
    outer loop
      vertex 50.811951 0.000000 113.538002
      vertex 50.811951 9.744521 113.538002
      vertex 49.990200 9.744521 113.646187
    endloop
  endfacet
  facet normal 0.382683 -0.000000 0.923880
    outer loop
      vertex 49.224449 0.000000 113.963371
      vertex 49.990200 0.000000 113.646187
      vertex 49.224449 9.744521 113.963371
    endloop
  endfacet
  facet normal 0.382683 -0.000000 0.923880
    outer loop
      vertex 49.990200 0.000000 113.646187
      vertex 49.990200 9.744521 113.646187
      vertex 49.224449 9.744521 113.963371
    endloop
  endfacet
  facet normal 0.608757 -0.000000 0.793357
    outer loop
      vertex 48.566883 0.000000 114.467934
      vertex 49.224449 0.000000 113.963371
      vertex 48.566883 9.744521 114.467934
    endloop
  endfacet
  facet normal 0.608757 -0.000000 0.793357
    outer loop
      vertex 49.224449 0.000000 113.963371
      vertex 49.224449 9.744521 113.963371
      vertex 48.566883 9.744521 114.467934
    endloop
  endfacet
  facet normal 0.793356 -0.000000 0.608758
    outer loop
      vertex 48.062317 0.000000 115.125504
      vertex 48.566883 0.000000 114.467934
      vertex 48.062317 9.744521 115.125504
    endloop
  endfacet
  facet normal 0.793356 -0.000000 0.608758
    outer loop
      vertex 48.566883 0.000000 114.467934
      vertex 48.566883 9.744521 114.467934
      vertex 48.062317 9.744521 115.125504
    endloop
  endfacet
  facet normal 0.923879 -0.000000 0.382685
    outer loop
      vertex 47.745132 0.000000 115.891251
      vertex 48.062317 0.000000 115.125504
      vertex 47.745132 9.744521 115.891251
    endloop
  endfacet
  facet normal 0.923879 -0.000000 0.382685
    outer loop
      vertex 48.062317 0.000000 115.125504
      vertex 48.062317 9.744521 115.125504
      vertex 47.745132 9.744521 115.891251
    endloop
  endfacet
  facet normal 0.991445 -0.000000 0.130526
    outer loop
      vertex 47.636948 0.000000 116.712997
      vertex 47.745132 0.000000 115.891251
      vertex 47.636948 9.744521 116.712997
    endloop
  endfacet
  facet normal 0.991445 -0.000000 0.130526
    outer loop
      vertex 47.745132 0.000000 115.891251
      vertex 47.745132 9.744521 115.891251
      vertex 47.636948 9.744521 116.712997
    endloop
  endfacet
  facet normal 0.991445 0.000000 -0.130525
    outer loop
      vertex 47.636948 0.000000 116.712997
      vertex 47.636948 9.744521 116.712997
      vertex 47.745132 9.744521 117.534752
    endloop
  endfacet
  facet normal 0.991445 0.000000 -0.130525
    outer loop
      vertex 47.745132 0.000000 117.534752
      vertex 47.636948 0.000000 116.712997
      vertex 47.745132 9.744521 117.534752
    endloop
  endfacet
  facet normal 0.923879 0.000000 -0.382685
    outer loop
      vertex 48.062317 0.000000 118.300499
      vertex 47.745132 0.000000 117.534752
      vertex 48.062317 9.744521 118.300499
    endloop
  endfacet
  facet normal 0.923879 0.000000 -0.382685
    outer loop
      vertex 47.745132 0.000000 117.534752
      vertex 47.745132 9.744521 117.534752
      vertex 48.062317 9.744521 118.300499
    endloop
  endfacet
  facet normal 0.793353 0.000000 -0.608762
    outer loop
      vertex 48.566883 0.000000 118.958061
      vertex 48.062317 0.000000 118.300499
      vertex 48.566883 9.744521 118.958061
    endloop
  endfacet
  facet normal 0.793353 0.000000 -0.608762
    outer loop
      vertex 48.062317 0.000000 118.300499
      vertex 48.062317 9.744521 118.300499
      vertex 48.566883 9.744521 118.958061
    endloop
  endfacet
  facet normal 0.608763 0.000000 -0.793352
    outer loop
      vertex 49.224449 0.000000 119.462631
      vertex 48.566883 0.000000 118.958061
      vertex 49.224449 9.744521 119.462631
    endloop
  endfacet
  facet normal 0.608763 0.000000 -0.793352
    outer loop
      vertex 48.566883 0.000000 118.958061
      vertex 48.566883 9.744521 118.958061
      vertex 49.224449 9.744521 119.462631
    endloop
  endfacet
  facet normal 0.382683 0.000000 -0.923880
    outer loop
      vertex 49.990200 0.000000 119.779816
      vertex 49.224449 0.000000 119.462631
      vertex 49.990200 9.744521 119.779816
    endloop
  endfacet
  facet normal 0.382683 0.000000 -0.923880
    outer loop
      vertex 49.224449 0.000000 119.462631
      vertex 49.224449 9.744521 119.462631
      vertex 49.990200 9.744521 119.779816
    endloop
  endfacet
  facet normal 0.130525 0.000000 -0.991445
    outer loop
      vertex 50.811951 0.000000 119.888000
      vertex 49.990200 0.000000 119.779816
      vertex 50.811951 9.744521 119.888000
    endloop
  endfacet
  facet normal 0.130525 0.000000 -0.991445
    outer loop
      vertex 49.990200 0.000000 119.779816
      vertex 49.990200 9.744521 119.779816
      vertex 50.811951 9.744521 119.888000
    endloop
  endfacet
  facet normal -0.130526 0.000000 -0.991445
    outer loop
      vertex 51.633698 0.000000 119.779816
      vertex 50.811951 0.000000 119.888000
      vertex 51.633698 9.744521 119.779816
    endloop
  endfacet
  facet normal -0.130526 0.000000 -0.991445
    outer loop
      vertex 50.811951 0.000000 119.888000
      vertex 50.811951 9.744521 119.888000
      vertex 51.633698 9.744521 119.779816
    endloop
  endfacet
  facet normal -0.382683 0.000000 -0.923880
    outer loop
      vertex 52.399448 0.000000 119.462631
      vertex 51.633698 0.000000 119.779816
      vertex 52.399448 9.744521 119.462631
    endloop
  endfacet
  facet normal -0.382683 0.000000 -0.923880
    outer loop
      vertex 51.633698 0.000000 119.779816
      vertex 51.633698 9.744521 119.779816
      vertex 52.399448 9.744521 119.462631
    endloop
  endfacet
  facet normal -0.608763 0.000000 -0.793352
    outer loop
      vertex 53.057014 0.000000 118.958061
      vertex 52.399448 0.000000 119.462631
      vertex 53.057014 9.744521 118.958061
    endloop
  endfacet
  facet normal -0.608763 0.000000 -0.793352
    outer loop
      vertex 52.399448 0.000000 119.462631
      vertex 52.399448 9.744521 119.462631
      vertex 53.057014 9.744521 118.958061
    endloop
  endfacet
  facet normal -0.793353 0.000000 -0.608762
    outer loop
      vertex 53.561581 0.000000 118.300499
      vertex 53.057014 0.000000 118.958061
      vertex 53.561581 9.744521 118.300499
    endloop
  endfacet
  facet normal -0.793353 0.000000 -0.608762
    outer loop
      vertex 53.057014 0.000000 118.958061
      vertex 53.057014 9.744521 118.958061
      vertex 53.561581 9.744521 118.300499
    endloop
  endfacet
  facet normal -0.923879 0.000000 -0.382685
    outer loop
      vertex 53.878765 0.000000 117.534752
      vertex 53.561581 0.000000 118.300499
      vertex 53.878765 9.744521 117.534752
    endloop
  endfacet
  facet normal -0.991445 0.000000 -0.130525
    outer loop
      vertex 53.986950 0.000000 116.712997
      vertex 53.878765 0.000000 117.534752
      vertex 53.878765 9.744521 117.534752
    endloop
  endfacet
  facet normal -0.923879 0.000000 -0.382685
    outer loop
      vertex 53.561581 0.000000 118.300499
      vertex 53.561581 9.744521 118.300499
      vertex 53.878765 9.744521 117.534752
    endloop
  endfacet
  facet normal -0.991445 0.000000 -0.130525
    outer loop
      vertex 53.986950 0.000000 116.712997
      vertex 53.878765 9.744521 117.534752
      vertex 53.986950 9.744521 116.712997
    endloop
  endfacet
  facet normal -0.991445 0.000000 0.130524
    outer loop
      vertex 53.986950 0.000000 152.781006
      vertex 53.986950 9.744521 152.781006
      vertex 53.878765 9.744521 151.959244
    endloop
  endfacet
  facet normal -0.991445 0.000000 0.130524
    outer loop
      vertex 53.878765 0.000000 151.959244
      vertex 53.986950 0.000000 152.781006
      vertex 53.878765 9.744521 151.959244
    endloop
  endfacet
  facet normal -0.923879 0.000000 0.382685
    outer loop
      vertex 53.561581 0.000000 151.193497
      vertex 53.878765 0.000000 151.959244
      vertex 53.561581 9.744521 151.193497
    endloop
  endfacet
  facet normal -0.923879 0.000000 0.382685
    outer loop
      vertex 53.878765 0.000000 151.959244
      vertex 53.878765 9.744521 151.959244
      vertex 53.561581 9.744521 151.193497
    endloop
  endfacet
  facet normal -0.793353 0.000000 0.608762
    outer loop
      vertex 53.057014 0.000000 150.535934
      vertex 53.561581 0.000000 151.193497
      vertex 53.057014 9.744521 150.535934
    endloop
  endfacet
  facet normal -0.793353 0.000000 0.608762
    outer loop
      vertex 53.561581 0.000000 151.193497
      vertex 53.561581 9.744521 151.193497
      vertex 53.057014 9.744521 150.535934
    endloop
  endfacet
  facet normal -0.608757 0.000000 0.793357
    outer loop
      vertex 52.399448 0.000000 150.031372
      vertex 53.057014 0.000000 150.535934
      vertex 52.399448 9.744521 150.031372
    endloop
  endfacet
  facet normal -0.608757 0.000000 0.793357
    outer loop
      vertex 53.057014 0.000000 150.535934
      vertex 53.057014 9.744521 150.535934
      vertex 52.399448 9.744521 150.031372
    endloop
  endfacet
  facet normal -0.382685 0.000000 0.923879
    outer loop
      vertex 51.633701 0.000000 149.714188
      vertex 52.399448 0.000000 150.031372
      vertex 51.633701 9.744521 149.714188
    endloop
  endfacet
  facet normal -0.382685 0.000000 0.923879
    outer loop
      vertex 52.399448 0.000000 150.031372
      vertex 52.399448 9.744521 150.031372
      vertex 51.633701 9.744521 149.714188
    endloop
  endfacet
  facet normal -0.130525 0.000000 0.991445
    outer loop
      vertex 50.811951 0.000000 149.606003
      vertex 51.633701 0.000000 149.714188
      vertex 50.811951 9.744521 149.606003
    endloop
  endfacet
  facet normal -0.130525 0.000000 0.991445
    outer loop
      vertex 51.633701 0.000000 149.714188
      vertex 51.633701 9.744521 149.714188
      vertex 50.811951 9.744521 149.606003
    endloop
  endfacet
  facet normal 0.130525 -0.000000 0.991445
    outer loop
      vertex 49.990200 0.000000 149.714188
      vertex 50.811951 0.000000 149.606003
      vertex 49.990200 9.744521 149.714188
    endloop
  endfacet
  facet normal 0.130525 -0.000000 0.991445
    outer loop
      vertex 50.811951 0.000000 149.606003
      vertex 50.811951 9.744521 149.606003
      vertex 49.990200 9.744521 149.714188
    endloop
  endfacet
  facet normal 0.382683 -0.000000 0.923880
    outer loop
      vertex 49.224449 0.000000 150.031372
      vertex 49.990200 0.000000 149.714188
      vertex 49.224449 9.744521 150.031372
    endloop
  endfacet
  facet normal 0.608759 0.000000 0.793355
    outer loop
      vertex 48.566887 0.000000 150.535934
      vertex 49.224449 0.000000 150.031372
      vertex 49.224449 9.744521 150.031372
    endloop
  endfacet
  facet normal 0.382683 -0.000000 0.923880
    outer loop
      vertex 49.990200 0.000000 149.714188
      vertex 49.990200 9.744521 149.714188
      vertex 49.224449 9.744521 150.031372
    endloop
  endfacet
  facet normal 0.793353 0.000000 0.608762
    outer loop
      vertex 48.062321 0.000000 151.193497
      vertex 48.566887 0.000000 150.535934
      vertex 48.566887 9.744521 150.535934
    endloop
  endfacet
  facet normal 0.608759 -0.000000 0.793355
    outer loop
      vertex 48.566887 0.000000 150.535934
      vertex 49.224449 9.744521 150.031372
      vertex 48.566887 9.744521 150.535934
    endloop
  endfacet
  facet normal 0.923879 0.000000 0.382685
    outer loop
      vertex 47.745136 0.000000 151.959244
      vertex 48.062321 0.000000 151.193497
      vertex 48.062321 9.744521 151.193497
    endloop
  endfacet
  facet normal 0.793353 -0.000000 0.608762
    outer loop
      vertex 48.062321 0.000000 151.193497
      vertex 48.566887 9.744521 150.535934
      vertex 48.062321 9.744521 151.193497
    endloop
  endfacet
  facet normal 0.923879 -0.000000 0.382685
    outer loop
      vertex 47.745136 0.000000 151.959244
      vertex 48.062321 9.744521 151.193497
      vertex 47.745136 9.744521 151.959244
    endloop
  endfacet
  facet normal 0.991445 -0.000000 0.130524
    outer loop
      vertex 47.636951 0.000000 152.781006
      vertex 47.745136 0.000000 151.959244
      vertex 47.636951 9.744521 152.781006
    endloop
  endfacet
  facet normal 0.991445 -0.000000 0.130524
    outer loop
      vertex 47.745136 0.000000 151.959244
      vertex 47.745136 9.744521 151.959244
      vertex 47.636951 9.744521 152.781006
    endloop
  endfacet
  facet normal 0.991445 0.000000 -0.130526
    outer loop
      vertex 47.745136 0.000000 153.602753
      vertex 47.636951 0.000000 152.781006
      vertex 47.636951 9.744521 152.781006
    endloop
  endfacet
  facet normal 0.923879 0.000000 -0.382685
    outer loop
      vertex 48.062321 0.000000 154.368500
      vertex 47.745136 0.000000 153.602753
      vertex 47.745136 9.744521 153.602753
    endloop
  endfacet
  facet normal 0.991445 0.000000 -0.130526
    outer loop
      vertex 47.745136 0.000000 153.602753
      vertex 47.636951 9.744521 152.781006
      vertex 47.745136 9.744521 153.602753
    endloop
  endfacet
  facet normal 0.793353 0.000000 -0.608762
    outer loop
      vertex 48.566887 0.000000 155.026062
      vertex 48.062321 0.000000 154.368500
      vertex 48.062321 9.744521 154.368500
    endloop
  endfacet
  facet normal 0.923879 0.000000 -0.382685
    outer loop
      vertex 48.062321 0.000000 154.368500
      vertex 47.745136 9.744521 153.602753
      vertex 48.062321 9.744521 154.368500
    endloop
  endfacet
  facet normal 0.608759 0.000000 -0.793355
    outer loop
      vertex 49.224449 0.000000 155.530624
      vertex 48.566887 0.000000 155.026062
      vertex 48.566887 9.744521 155.026062
    endloop
  endfacet
  facet normal 0.793353 0.000000 -0.608762
    outer loop
      vertex 48.566887 0.000000 155.026062
      vertex 48.062321 9.744521 154.368500
      vertex 48.566887 9.744521 155.026062
    endloop
  endfacet
  facet normal 0.382683 0.000000 -0.923880
    outer loop
      vertex 49.990200 0.000000 155.847809
      vertex 49.224449 0.000000 155.530624
      vertex 49.224449 9.744521 155.530624
    endloop
  endfacet
  facet normal 0.608759 0.000000 -0.793355
    outer loop
      vertex 49.224449 0.000000 155.530624
      vertex 48.566887 9.744521 155.026062
      vertex 49.224449 9.744521 155.530624
    endloop
  endfacet
  facet normal 0.130525 0.000000 -0.991445
    outer loop
      vertex 50.811951 0.000000 155.955994
      vertex 49.990200 0.000000 155.847809
      vertex 49.990200 9.744521 155.847809
    endloop
  endfacet
  facet normal 0.382683 0.000000 -0.923880
    outer loop
      vertex 49.990200 0.000000 155.847809
      vertex 49.224449 9.744521 155.530624
      vertex 49.990200 9.744521 155.847809
    endloop
  endfacet
  facet normal -0.130525 0.000000 -0.991445
    outer loop
      vertex 51.633701 0.000000 155.847809
      vertex 50.811951 0.000000 155.955994
      vertex 50.811951 9.744521 155.955994
    endloop
  endfacet
  facet normal 0.130525 0.000000 -0.991445
    outer loop
      vertex 50.811951 0.000000 155.955994
      vertex 49.990200 9.744521 155.847809
      vertex 50.811951 9.744521 155.955994
    endloop
  endfacet
  facet normal -0.382685 0.000000 -0.923879
    outer loop
      vertex 52.399448 0.000000 155.530624
      vertex 51.633701 0.000000 155.847809
      vertex 51.633701 9.744521 155.847809
    endloop
  endfacet
  facet normal -0.130525 0.000000 -0.991445
    outer loop
      vertex 51.633701 0.000000 155.847809
      vertex 50.811951 9.744521 155.955994
      vertex 51.633701 9.744521 155.847809
    endloop
  endfacet
  facet normal -0.608757 0.000000 -0.793357
    outer loop
      vertex 53.057014 0.000000 155.026062
      vertex 52.399448 0.000000 155.530624
      vertex 52.399448 9.744521 155.530624
    endloop
  endfacet
  facet normal -0.382685 0.000000 -0.923879
    outer loop
      vertex 52.399448 0.000000 155.530624
      vertex 51.633701 9.744521 155.847809
      vertex 52.399448 9.744521 155.530624
    endloop
  endfacet
  facet normal -0.793353 0.000000 -0.608762
    outer loop
      vertex 53.561581 0.000000 154.368500
      vertex 53.057014 0.000000 155.026062
      vertex 53.057014 9.744521 155.026062
    endloop
  endfacet
  facet normal -0.608757 0.000000 -0.793357
    outer loop
      vertex 53.057014 0.000000 155.026062
      vertex 52.399448 9.744521 155.530624
      vertex 53.057014 9.744521 155.026062
    endloop
  endfacet
  facet normal -0.923879 0.000000 -0.382685
    outer loop
      vertex 53.878765 0.000000 153.602753
      vertex 53.561581 0.000000 154.368500
      vertex 53.561581 9.744521 154.368500
    endloop
  endfacet
  facet normal -0.793353 0.000000 -0.608762
    outer loop
      vertex 53.561581 0.000000 154.368500
      vertex 53.057014 9.744521 155.026062
      vertex 53.561581 9.744521 154.368500
    endloop
  endfacet
  facet normal -0.991445 0.000000 -0.130526
    outer loop
      vertex 53.986950 0.000000 152.781006
      vertex 53.878765 0.000000 153.602753
      vertex 53.878765 9.744521 153.602753
    endloop
  endfacet
  facet normal -0.923879 0.000000 -0.382685
    outer loop
      vertex 53.878765 0.000000 153.602753
      vertex 53.561581 9.744521 154.368500
      vertex 53.878765 9.744521 153.602753
    endloop
  endfacet
  facet normal -0.991445 0.000000 -0.130526
    outer loop
      vertex 53.986950 0.000000 152.781006
      vertex 53.878765 9.744521 153.602753
      vertex 53.986950 9.744521 152.781006
    endloop
  endfacet
endsolid Mesh