solid Mesh
  facet normal 0.000000 1.000000 0.000000
    outer loop
      vertex -210.972397 127.253998 -124.459999
      vertex -210.972397 127.253998 -43.942001
      vertex -201.447403 127.253998 -43.942001
    endloop
  endfacet
  facet normal 0.000000 1.000000 -0.000000
    outer loop
      vertex -201.447403 127.253998 -124.459999
      vertex -210.972397 127.253998 -124.459999
      vertex -201.447403 127.253998 -43.942001
    endloop
  endfacet
  facet normal 1.000000 0.000000 -0.000000
    outer loop
      vertex -201.447403 71.797523 -64.579498
      vertex -201.447403 72.302086 -63.921936
      vertex -201.447403 65.278000 -40.989697
    endloop
  endfacet
  facet normal 1.000000 0.000000 0.000000
    outer loop
      vertex -201.447403 72.959656 -63.417370
      vertex -201.447403 65.278000 -40.989697
      vertex -201.447403 72.302086 -63.921936
    endloop
  endfacet
  facet normal 1.000000 0.000000 -0.000000
    outer loop
      vertex -201.447403 71.480339 -65.345253
      vertex -201.447403 71.797523 -64.579498
      vertex -201.447403 65.278000 -40.989697
    endloop
  endfacet
  facet normal 1.000000 0.000000 0.000000
    outer loop
      vertex -201.447403 73.725403 -63.100185
      vertex -201.447403 65.278000 -40.989697
      vertex -201.447403 72.959656 -63.417370
    endloop
  endfacet
  facet normal 1.000000 0.000000 -0.000000
    outer loop
      vertex -201.447403 71.372154 -66.167000
      vertex -201.447403 71.480339 -65.345253
      vertex -201.447403 65.278000 -40.989697
    endloop
  endfacet
  facet normal 1.000000 0.000000 0.000000
    outer loop
      vertex -201.447403 74.547150 -62.992001
      vertex -201.447403 65.278000 -40.989697
      vertex -201.447403 73.725403 -63.100185
    endloop
  endfacet
  facet normal 1.000000 0.000000 0.000000
    outer loop
      vertex -201.447403 75.368904 -63.100185
      vertex -201.447403 65.278000 -40.989697
      vertex -201.447403 74.547150 -62.992001
    endloop
  endfacet
  facet normal 1.000000 0.000000 0.000000
    outer loop
      vertex -201.447403 71.480339 -66.988754
      vertex -201.447403 71.372154 -66.167000
      vertex -201.447403 65.278000 -40.989697
    endloop
  endfacet
  facet normal 1.000000 0.000000 0.000000
    outer loop
      vertex -201.447403 76.134651 -63.417370
      vertex -201.447403 65.278000 -40.989697
      vertex -201.447403 75.368904 -63.100185
    endloop
  endfacet
  facet normal 1.000000 0.000000 0.000000
    outer loop
      vertex -201.447403 108.370094 -63.921936
      vertex -201.447403 76.134651 -63.417370
      vertex -201.447403 76.792213 -63.921936
    endloop
  endfacet
  facet normal 1.000000 0.000000 0.000000
    outer loop
      vertex -201.447403 71.797523 -100.647499
      vertex -201.447403 72.302086 -99.989937
      vertex -201.447403 72.302086 -68.412064
    endloop
  endfacet
  facet normal 1.000000 0.000000 0.000000
    outer loop
      vertex -201.447403 71.797523 -100.647499
      vertex -201.447403 72.302086 -68.412064
      vertex -201.447403 71.797523 -67.754501
    endloop
  endfacet
  facet normal 1.000000 0.000000 0.000000
    outer loop
      vertex -201.447403 72.959656 -99.485367
      vertex -201.447403 72.302086 -68.412064
      vertex -201.447403 72.302086 -99.989937
    endloop
  endfacet
  facet normal 1.000000 0.000000 0.000000
    outer loop
      vertex -201.447403 72.959656 -99.485367
      vertex -201.447403 73.725403 -69.233818
      vertex -201.447403 72.959656 -68.916634
    endloop
  endfacet
  facet normal 1.000000 0.000000 -0.000000
    outer loop
      vertex -201.447403 72.959656 -99.485367
      vertex -201.447403 72.959656 -68.916634
      vertex -201.447403 72.302086 -68.412064
    endloop
  endfacet
  facet normal 1.000000 0.000000 -0.000000
    outer loop
      vertex -201.447403 109.027657 -63.417370
      vertex -201.447403 124.301697 -40.989697
      vertex -201.447403 65.278000 -40.989697
    endloop
  endfacet
  facet normal 1.000000 0.000000 0.000000
    outer loop
      vertex -201.447403 109.027657 -63.417370
      vertex -201.447403 65.278000 -40.989697
      vertex -201.447403 76.134651 -63.417370
    endloop
  endfacet
  facet normal 1.000000 0.000000 0.000000
    outer loop
      vertex -201.447403 109.027657 -63.417370
      vertex -201.447403 76.134651 -63.417370
      vertex -201.447403 108.370094 -63.921936
    endloop
  endfacet
  facet normal 1.000000 0.000000 -0.000000
    outer loop
      vertex -201.447403 107.865524 -64.579498
      vertex -201.447403 108.370094 -63.921936
      vertex -201.447403 76.792213 -63.921936
    endloop
  endfacet
  facet normal 1.000000 0.000000 0.000000
    outer loop
      vertex -201.447403 107.865524 -64.579498
      vertex -201.447403 76.792213 -63.921936
      vertex -201.447403 77.296783 -64.579498
    endloop
  endfacet
  facet normal 1.000000 0.000000 -0.000000
    outer loop
      vertex -201.447403 71.480339 -101.413246
      vertex -201.447403 71.480339 -66.988754
      vertex -201.447403 65.278000 -40.989697
    endloop
  endfacet
  facet normal 1.000000 0.000000 0.000000
    outer loop
      vertex -201.447403 71.480339 -101.413246
      vertex -201.447403 71.797523 -100.647499
      vertex -201.447403 71.797523 -67.754501
    endloop
  endfacet
  facet normal 1.000000 0.000000 0.000000
    outer loop
      vertex -201.447403 71.480339 -101.413246
      vertex -201.447403 71.797523 -67.754501
      vertex -201.447403 71.480339 -66.988754
    endloop
  endfacet
  facet normal 1.000000 0.000000 -0.000000
    outer loop
      vertex -201.447403 73.725403 -99.168182
      vertex -201.447403 73.725403 -69.233818
      vertex -201.447403 72.959656 -99.485367
    endloop
  endfacet
  facet normal 1.000000 0.000000 0.000000
    outer loop
      vertex -201.447403 73.725403 -99.168182
      vertex -201.447403 74.547150 -69.342003
      vertex -201.447403 73.725403 -69.233818
    endloop
  endfacet
  facet normal 1.000000 0.000000 -0.000000
    outer loop
      vertex -201.447403 107.548340 -65.345253
      vertex -201.447403 107.865524 -64.579498
      vertex -201.447403 77.296783 -64.579498
    endloop
  endfacet
  facet normal 1.000000 0.000000 0.000000
    outer loop
      vertex -201.447403 107.548340 -65.345253
      vertex -201.447403 77.296783 -64.579498
      vertex -201.447403 77.613968 -65.345253
    endloop
  endfacet
  facet normal 1.000000 0.000000 0.000000
    outer loop
      vertex -201.447403 107.548340 -65.345253
      vertex -201.447403 77.613968 -65.345253
      vertex -201.447403 77.722153 -66.167000
    endloop
  endfacet
  facet normal 1.000000 0.000000 -0.000000
    outer loop
      vertex -201.447403 109.793404 -63.100185
      vertex -201.447403 124.301697 -40.989697
      vertex -201.447403 109.027657 -63.417370
    endloop
  endfacet
  facet normal 1.000000 0.000000 -0.000000
    outer loop
      vertex -201.447403 74.547150 -99.059998
      vertex -201.447403 74.547150 -69.342003
      vertex -201.447403 73.725403 -99.168182
    endloop
  endfacet
  facet normal 1.000000 0.000000 -0.000000
    outer loop
      vertex -201.447403 107.440155 -66.167000
      vertex -201.447403 107.548340 -65.345253
      vertex -201.447403 77.722153 -66.167000
    endloop
  endfacet
  facet normal 1.000000 0.000000 -0.000000
    outer loop
      vertex -201.447403 110.615158 -62.992001
      vertex -201.447403 124.301697 -40.989697
      vertex -201.447403 109.793404 -63.100185
    endloop
  endfacet
  facet normal 1.000000 0.000000 -0.000000
    outer loop
      vertex -201.447403 75.368904 -99.168182
      vertex -201.447403 75.368904 -69.233818
      vertex -201.447403 74.547150 -69.342003
    endloop
  endfacet
  facet normal 1.000000 0.000000 0.000000
    outer loop
      vertex -201.447403 75.368904 -99.168182
      vertex -201.447403 74.547150 -69.342003
      vertex -201.447403 74.547150 -99.059998
    endloop
  endfacet
  facet normal 1.000000 0.000000 -0.000000
    outer loop
      vertex -201.447403 111.436905 -63.100185
      vertex -201.447403 124.301697 -40.989697
      vertex -201.447403 110.615158 -62.992001
    endloop
  endfacet
  facet normal 1.000000 0.000000 0.000000
    outer loop
      vertex -201.447403 107.548340 -66.988754
      vertex -201.447403 107.440155 -66.167000
      vertex -201.447403 77.722153 -66.167000
    endloop
  endfacet
  facet normal 1.000000 0.000000 0.000000
    outer loop
      vertex -201.447403 107.548340 -66.988754
      vertex -201.447403 77.722153 -66.167000
      vertex -201.447403 77.613968 -66.988754
    endloop
  endfacet
  facet normal 1.000000 0.000000 -0.000000
    outer loop
      vertex -201.447403 76.134651 -99.485367
      vertex -201.447403 76.134651 -68.916634
      vertex -201.447403 75.368904 -69.233818
    endloop
  endfacet
  facet normal 1.000000 0.000000 0.000000
    outer loop
      vertex -201.447403 76.134651 -99.485367
      vertex -201.447403 75.368904 -69.233818
      vertex -201.447403 75.368904 -99.168182
    endloop
  endfacet
  facet normal 1.000000 0.000000 0.000000
    outer loop
      vertex -201.447403 107.865524 -67.754501
      vertex -201.447403 107.548340 -66.988754
      vertex -201.447403 77.613968 -66.988754
    endloop
  endfacet
  facet normal 1.000000 0.000000 0.000000
    outer loop
      vertex -201.447403 107.865524 -67.754501
      vertex -201.447403 77.613968 -66.988754
      vertex -201.447403 77.296783 -67.754501
    endloop
  endfacet
  facet normal 1.000000 0.000000 0.000000
    outer loop
      vertex -201.447403 107.865524 -67.754501
      vertex -201.447403 77.296783 -67.754501
      vertex -201.447403 76.792213 -68.412064
    endloop
  endfacet
  facet normal 1.000000 0.000000 0.000000
    outer loop
      vertex -201.447403 112.202652 -63.417370
      vertex -201.447403 127.253998 -43.942001
      vertex -201.447403 124.301697 -40.989697
    endloop
  endfacet
  facet normal 1.000000 0.000000 -0.000000
    outer loop
      vertex -201.447403 112.202652 -63.417370
      vertex -201.447403 124.301697 -40.989697
      vertex -201.447403 111.436905 -63.100185
    endloop
  endfacet
  facet normal 1.000000 0.000000 0.000000
    outer loop
      vertex -201.447403 76.792213 -99.989937
      vertex -201.447403 76.134651 -68.916634
      vertex -201.447403 76.134651 -99.485367
    endloop
  endfacet
  facet normal 1.000000 0.000000 -0.000000
    outer loop
      vertex -201.447403 76.792213 -99.989937
      vertex -201.447403 76.792213 -68.412064
      vertex -201.447403 76.134651 -68.916634
    endloop
  endfacet
  facet normal 1.000000 0.000000 0.000000
    outer loop
      vertex -201.447403 108.370094 -68.412064
      vertex -201.447403 107.865524 -67.754501
      vertex -201.447403 76.792213 -68.412064
    endloop
  endfacet
  facet normal 1.000000 0.000000 -0.000000
    outer loop
      vertex -201.447403 112.860222 -63.921936
      vertex -201.447403 127.253998 -43.942001
      vertex -201.447403 112.202652 -63.417370
    endloop
  endfacet
  facet normal 1.000000 0.000000 -0.000000
    outer loop
      vertex -201.447403 113.364784 -64.579498
      vertex -201.447403 127.253998 -43.942001
      vertex -201.447403 112.860222 -63.921936
    endloop
  endfacet
  facet normal 1.000000 0.000000 -0.000000
    outer loop
      vertex -201.447403 113.681969 -65.345253
      vertex -201.447403 127.253998 -43.942001
      vertex -201.447403 113.364784 -64.579498
    endloop
  endfacet
  facet normal 1.000000 0.000000 -0.000000
    outer loop
      vertex -201.447403 113.790154 -66.167000
      vertex -201.447403 127.253998 -43.942001
      vertex -201.447403 113.681969 -65.345253
    endloop
  endfacet
  facet normal 1.000000 0.000000 0.000000
    outer loop
      vertex -201.447403 113.681969 -66.988754
      vertex -201.447403 127.253998 -43.942001
      vertex -201.447403 113.790154 -66.167000
    endloop
  endfacet
  facet normal 1.000000 0.000000 0.000000
    outer loop
      vertex -201.447403 65.278000 -127.412308
      vertex -201.447403 74.547150 -105.410004
      vertex -201.447403 73.725403 -105.301811
    endloop
  endfacet
  facet normal 1.000000 0.000000 0.000000
    outer loop
      vertex -201.447403 65.278000 -127.412308
      vertex -201.447403 73.725403 -105.301811
      vertex -201.447403 72.959656 -104.984634
    endloop
  endfacet
  facet normal 1.000000 0.000000 0.000000
    outer loop
      vertex -201.447403 65.278000 -127.412308
      vertex -201.447403 72.959656 -104.984634
      vertex -201.447403 72.302086 -104.480064
    endloop
  endfacet
  facet normal 1.000000 0.000000 0.000000
    outer loop
      vertex -201.447403 65.278000 -127.412308
      vertex -201.447403 72.302086 -104.480064
      vertex -201.447403 71.797523 -103.822502
    endloop
  endfacet
  facet normal 1.000000 0.000000 0.000000
    outer loop
      vertex -201.447403 65.278000 -127.412308
      vertex -201.447403 71.797523 -103.822502
      vertex -201.447403 71.480339 -103.056747
    endloop
  endfacet
  facet normal 1.000000 0.000000 0.000000
    outer loop
      vertex -201.447403 65.278000 -127.412308
      vertex -201.447403 71.480339 -103.056747
      vertex -201.447403 71.372154 -102.235001
    endloop
  endfacet
  facet normal 1.000000 0.000000 0.000000
    outer loop
      vertex -201.447403 65.278000 -127.412308
      vertex -201.447403 71.372154 -102.235001
      vertex -201.447403 71.480339 -101.413246
    endloop
  endfacet
  facet normal 1.000000 0.000000 0.000000
    outer loop
      vertex -201.447403 65.278000 -127.412308
      vertex -201.447403 76.134651 -104.984634
      vertex -201.447403 75.368904 -105.301811
    endloop
  endfacet
  facet normal 1.000000 0.000000 0.000000
    outer loop
      vertex -201.447403 65.278000 -127.412308
      vertex -201.447403 75.368904 -105.301811
      vertex -201.447403 74.547150 -105.410004
    endloop
  endfacet
  facet normal 1.000000 0.000000 0.000000
    outer loop
      vertex -201.447403 65.278000 -127.412308
      vertex -201.447403 71.480339 -101.413246
      vertex -201.447403 65.278000 -40.989697
    endloop
  endfacet
  facet normal 1.000000 0.000000 -0.000000
    outer loop
      vertex -201.447403 108.370094 -99.989937
      vertex -201.447403 108.370094 -68.412064
      vertex -201.447403 76.792213 -68.412064
    endloop
  endfacet
  facet normal 1.000000 0.000000 0.000000
    outer loop
      vertex -201.447403 108.370094 -99.989937
      vertex -201.447403 76.792213 -99.989937
      vertex -201.447403 77.296783 -100.647499
    endloop
  endfacet
  facet normal 1.000000 0.000000 0.000000
    outer loop
      vertex -201.447403 108.370094 -99.989937
      vertex -201.447403 76.792213 -68.412064
      vertex -201.447403 76.792213 -99.989937
    endloop
  endfacet
  facet normal 1.000000 0.000000 0.000000
    outer loop
      vertex -201.447403 109.027657 -99.485367
      vertex -201.447403 108.370094 -68.412064
      vertex -201.447403 108.370094 -99.989937
    endloop
  endfacet
  facet normal 1.000000 0.000000 0.000000
    outer loop
      vertex -201.447403 109.027657 -99.485367
      vertex -201.447403 109.793404 -69.233818
      vertex -201.447403 109.027657 -68.916634
    endloop
  endfacet
  facet normal 1.000000 0.000000 -0.000000
    outer loop
      vertex -201.447403 109.027657 -99.485367
      vertex -201.447403 109.027657 -68.916634
      vertex -201.447403 108.370094 -68.412064
    endloop
  endfacet
  facet normal 1.000000 0.000000 -0.000000
    outer loop
      vertex -201.447403 107.865524 -100.647499
      vertex -201.447403 108.370094 -99.989937
      vertex -201.447403 77.296783 -100.647499
    endloop
  endfacet
  facet normal 1.000000 0.000000 0.000000
    outer loop
      vertex -201.447403 109.793404 -99.168182
      vertex -201.447403 110.615158 -69.342003
      vertex -201.447403 109.793404 -69.233818
    endloop
  endfacet
  facet normal 1.000000 0.000000 -0.000000
    outer loop
      vertex -201.447403 109.793404 -99.168182
      vertex -201.447403 109.793404 -69.233818
      vertex -201.447403 109.027657 -99.485367
    endloop
  endfacet
  facet normal 1.000000 0.000000 0.000000
    outer loop
      vertex -201.447403 107.548340 -101.413246
      vertex -201.447403 77.296783 -100.647499
      vertex -201.447403 77.613968 -101.413246
    endloop
  endfacet
  facet normal 1.000000 0.000000 0.000000
    outer loop
      vertex -201.447403 107.548340 -101.413246
      vertex -201.447403 77.613968 -101.413246
      vertex -201.447403 77.722153 -102.235001
    endloop
  endfacet
  facet normal 1.000000 0.000000 -0.000000
    outer loop
      vertex -201.447403 107.548340 -101.413246
      vertex -201.447403 107.865524 -100.647499
      vertex -201.447403 77.296783 -100.647499
    endloop
  endfacet
  facet normal 1.000000 0.000000 -0.000000
    outer loop
      vertex -201.447403 107.440155 -102.235001
      vertex -201.447403 107.548340 -101.413246
      vertex -201.447403 77.722153 -102.235001
    endloop
  endfacet
  facet normal 1.000000 0.000000 -0.000000
    outer loop
      vertex -201.447403 110.615158 -99.059998
      vertex -201.447403 110.615158 -69.342003
      vertex -201.447403 109.793404 -99.168182
    endloop
  endfacet
  facet normal 1.000000 0.000000 0.000000
    outer loop
      vertex -201.447403 111.436905 -99.168182
      vertex -201.447403 110.615158 -69.342003
      vertex -201.447403 110.615158 -99.059998
    endloop
  endfacet
  facet normal 1.000000 0.000000 -0.000000
    outer loop
      vertex -201.447403 111.436905 -99.168182
      vertex -201.447403 111.436905 -69.233818
      vertex -201.447403 110.615158 -69.342003
    endloop
  endfacet
  facet normal 1.000000 0.000000 0.000000
    outer loop
      vertex -201.447403 107.548340 -103.056747
      vertex -201.447403 77.722153 -102.235001
      vertex -201.447403 77.613968 -103.056747
    endloop
  endfacet
  facet normal 1.000000 0.000000 0.000000
    outer loop
      vertex -201.447403 107.548340 -103.056747
      vertex -201.447403 107.440155 -102.235001
      vertex -201.447403 77.722153 -102.235001
    endloop
  endfacet
  facet normal 1.000000 0.000000 0.000000
    outer loop
      vertex -201.447403 112.202652 -99.485367
      vertex -201.447403 111.436905 -69.233818
      vertex -201.447403 111.436905 -99.168182
    endloop
  endfacet
  facet normal 1.000000 0.000000 -0.000000
    outer loop
      vertex -201.447403 112.202652 -99.485367
      vertex -201.447403 112.202652 -68.916634
      vertex -201.447403 111.436905 -69.233818
    endloop
  endfacet
  facet normal 1.000000 0.000000 0.000000
    outer loop
      vertex -201.447403 107.865524 -103.822502
      vertex -201.447403 77.613968 -103.056747
      vertex -201.447403 77.296783 -103.822502
    endloop
  endfacet
  facet normal 1.000000 0.000000 0.000000
    outer loop
      vertex -201.447403 107.865524 -103.822502
      vertex -201.447403 77.296783 -103.822502
      vertex -201.447403 76.792213 -104.480064
    endloop
  endfacet
  facet normal 1.000000 0.000000 0.000000
    outer loop
      vertex -201.447403 107.865524 -103.822502
      vertex -201.447403 107.548340 -103.056747
      vertex -201.447403 77.613968 -103.056747
    endloop
  endfacet
  facet normal 1.000000 0.000000 -0.000000
    outer loop
      vertex -201.447403 112.860222 -99.989937
      vertex -201.447403 112.860222 -68.412064
      vertex -201.447403 112.202652 -68.916634
    endloop
  endfacet
  facet normal 1.000000 0.000000 0.000000
    outer loop
      vertex -201.447403 112.860222 -99.989937
      vertex -201.447403 112.202652 -68.916634
      vertex -201.447403 112.202652 -99.485367
    endloop
  endfacet
  facet normal 1.000000 0.000000 0.000000
    outer loop
      vertex -201.447403 108.370094 -104.480064
      vertex -201.447403 107.865524 -103.822502
      vertex -201.447403 76.792213 -104.480064
    endloop
  endfacet
  facet normal 1.000000 0.000000 0.000000
    outer loop
      vertex -201.447403 108.370094 -104.480064
      vertex -201.447403 76.792213 -104.480064
      vertex -201.447403 76.134651 -104.984634
    endloop
  endfacet
  facet normal 1.000000 0.000000 -0.000000
    outer loop
      vertex -201.447403 113.364784 -100.647499
      vertex -201.447403 113.364784 -67.754501
      vertex -201.447403 112.860222 -68.412064
    endloop
  endfacet
  facet normal 1.000000 0.000000 0.000000
    outer loop
      vertex -201.447403 113.364784 -100.647499
      vertex -201.447403 112.860222 -68.412064
      vertex -201.447403 112.860222 -99.989937
    endloop
  endfacet
  facet normal 1.000000 0.000000 0.000000
    outer loop
      vertex -201.447403 109.027657 -104.984634
      vertex -201.447403 76.134651 -104.984634
      vertex -201.447403 65.278000 -127.412308
    endloop
  endfacet
  facet normal 1.000000 0.000000 0.000000
    outer loop
      vertex -201.447403 109.027657 -104.984634
      vertex -201.447403 108.370094 -104.480064
      vertex -201.447403 76.134651 -104.984634
    endloop
  endfacet
  facet normal 1.000000 0.000000 0.000000
    outer loop
      vertex -201.447403 113.681969 -101.413246
      vertex -201.447403 113.364784 -67.754501
      vertex -201.447403 113.364784 -100.647499
    endloop
  endfacet
  facet normal 1.000000 0.000000 -0.000000
    outer loop
      vertex -201.447403 113.681969 -101.413246
      vertex -201.447403 113.681969 -66.988754
      vertex -201.447403 113.364784 -67.754501
    endloop
  endfacet
  facet normal 1.000000 0.000000 0.000000
    outer loop
      vertex -201.447403 127.253998 -124.459999
      vertex -201.447403 113.681969 -101.413246
      vertex -201.447403 113.790154 -102.235001
    endloop
  endfacet
  facet normal 1.000000 0.000000 0.000000
    outer loop
      vertex -201.447403 127.253998 -124.459999
      vertex -201.447403 113.790154 -102.235001
      vertex -201.447403 113.681969 -103.056747
    endloop
  endfacet
  facet normal 1.000000 0.000000 0.000000
    outer loop
      vertex -201.447403 127.253998 -124.459999
      vertex -201.447403 113.681969 -103.056747
      vertex -201.447403 113.364784 -103.822502
    endloop
  endfacet
  facet normal 1.000000 0.000000 0.000000
    outer loop
      vertex -201.447403 127.253998 -124.459999
      vertex -201.447403 113.364784 -103.822502
      vertex -201.447403 112.860222 -104.480064
    endloop
  endfacet
  facet normal 1.000000 0.000000 0.000000
    outer loop
      vertex -201.447403 127.253998 -124.459999
      vertex -201.447403 112.860222 -104.480064
      vertex -201.447403 112.202652 -104.984634
    endloop
  endfacet
  facet normal 1.000000 0.000000 -0.000000
    outer loop
      vertex -201.447403 124.301697 -127.412308
      vertex -201.447403 127.253998 -124.459999
      vertex -201.447403 112.202652 -104.984634
    endloop
  endfacet
  facet normal 1.000000 0.000000 0.000000
    outer loop
      vertex -201.447403 124.301697 -127.412308
      vertex -201.447403 109.027657 -104.984634
      vertex -201.447403 65.278000 -127.412308
    endloop
  endfacet
  facet normal 1.000000 0.000000 0.000000
    outer loop
      vertex -201.447403 124.301697 -127.412308
      vertex -201.447403 110.615158 -105.410004
      vertex -201.447403 109.793404 -105.301811
    endloop
  endfacet
  facet normal 1.000000 0.000000 0.000000
    outer loop
      vertex -201.447403 124.301697 -127.412308
      vertex -201.447403 109.793404 -105.301811
      vertex -201.447403 109.027657 -104.984634
    endloop
  endfacet
  facet normal 1.000000 0.000000 0.000000
    outer loop
      vertex -201.447403 124.301697 -127.412308
      vertex -201.447403 112.202652 -104.984634
      vertex -201.447403 111.436905 -105.301811
    endloop
  endfacet
  facet normal 1.000000 0.000000 0.000000
    outer loop
      vertex -201.447403 124.301697 -127.412308
      vertex -201.447403 111.436905 -105.301811
      vertex -201.447403 110.615158 -105.410004
    endloop
  endfacet
  facet normal 1.000000 0.000000 -0.000000
    outer loop
      vertex -201.447403 127.253998 -124.459999
      vertex -201.447403 127.253998 -43.942001
      vertex -201.447403 113.681969 -66.988754
    endloop
  endfacet
  facet normal 1.000000 0.000000 0.000000
    outer loop
      vertex -201.447403 127.253998 -124.459999
      vertex -201.447403 113.681969 -66.988754
      vertex -201.447403 113.681969 -101.413246
    endloop
  endfacet
  facet normal 0.000000 0.000000 -1.000000
    outer loop
      vertex -201.447403 65.278000 -127.412308
      vertex -210.972397 65.278000 -127.412308
      vertex -210.972397 124.301697 -127.412308
    endloop
  endfacet
  facet normal 0.000000 0.000000 -1.000000
    outer loop
      vertex -201.447403 65.278000 -127.412308
      vertex -210.972397 124.301697 -127.412308
      vertex -201.447403 124.301697 -127.412308
    endloop
  endfacet
  facet normal 0.000000 0.707108 -0.707106
    outer loop
      vertex -210.972397 124.301697 -127.412308
      vertex -210.972397 127.253998 -124.459999
      vertex -201.447403 124.301697 -127.412308
    endloop
  endfacet
  facet normal 0.000000 0.707108 -0.707106
    outer loop
      vertex -201.447403 124.301697 -127.412308
      vertex -210.972397 127.253998 -124.459999
      vertex -201.447403 127.253998 -124.459999
    endloop
  endfacet
  facet normal -1.000000 0.000000 -0.000000
    outer loop
      vertex -210.972397 71.797523 -103.822502
      vertex -210.972397 72.302086 -104.480064
      vertex -210.972397 65.278000 -127.412308
    endloop
  endfacet
  facet normal -1.000000 -0.000000 0.000000
    outer loop
      vertex -210.972397 72.959656 -104.984634
      vertex -210.972397 65.278000 -127.412308
      vertex -210.972397 72.302086 -104.480064
    endloop
  endfacet
  facet normal -1.000000 -0.000000 0.000000
    outer loop
      vertex -210.972397 73.725403 -105.301811
      vertex -210.972397 65.278000 -127.412308
      vertex -210.972397 72.959656 -104.984634
    endloop
  endfacet
  facet normal -1.000000 0.000000 -0.000000
    outer loop
      vertex -210.972397 71.480339 -103.056747
      vertex -210.972397 71.797523 -103.822502
      vertex -210.972397 65.278000 -127.412308
    endloop
  endfacet
  facet normal -1.000000 -0.000000 0.000000
    outer loop
      vertex -210.972397 74.547150 -105.410004
      vertex -210.972397 65.278000 -127.412308
      vertex -210.972397 73.725403 -105.301811
    endloop
  endfacet
  facet normal -1.000000 0.000000 -0.000000
    outer loop
      vertex -210.972397 71.372154 -102.235001
      vertex -210.972397 71.480339 -103.056747
      vertex -210.972397 65.278000 -127.412308
    endloop
  endfacet
  facet normal -1.000000 0.000000 0.000000
    outer loop
      vertex -210.972397 75.368904 -105.301811
      vertex -210.972397 65.278000 -127.412308
      vertex -210.972397 74.547150 -105.410004
    endloop
  endfacet
  facet normal -1.000000 0.000000 0.000000
    outer loop
      vertex -210.972397 71.480339 -101.413246
      vertex -210.972397 71.372154 -102.235001
      vertex -210.972397 65.278000 -127.412308
    endloop
  endfacet
  facet normal -1.000000 0.000000 0.000000
    outer loop
      vertex -210.972397 76.134651 -104.984634
      vertex -210.972397 65.278000 -127.412308
      vertex -210.972397 75.368904 -105.301811
    endloop
  endfacet
  facet normal -1.000000 0.000000 -0.000000
    outer loop
      vertex -210.972397 72.302086 -68.412064
      vertex -210.972397 72.302086 -99.989937
      vertex -210.972397 71.797523 -100.647499
    endloop
  endfacet
  facet normal -1.000000 -0.000000 0.000000
    outer loop
      vertex -210.972397 108.370094 -104.480064
      vertex -210.972397 76.134651 -104.984634
      vertex -210.972397 76.792213 -104.480064
    endloop
  endfacet
  facet normal -1.000000 -0.000000 0.000000
    outer loop
      vertex -210.972397 72.959656 -68.916634
      vertex -210.972397 72.302086 -99.989937
      vertex -210.972397 72.302086 -68.412064
    endloop
  endfacet
  facet normal -1.000000 0.000000 -0.000000
    outer loop
      vertex -210.972397 72.959656 -68.916634
      vertex -210.972397 72.959656 -99.485367
      vertex -210.972397 72.302086 -99.989937
    endloop
  endfacet
  facet normal -1.000000 0.000000 0.000000
    outer loop
      vertex -210.972397 71.797523 -67.754501
      vertex -210.972397 72.302086 -68.412064
      vertex -210.972397 71.797523 -100.647499
    endloop
  endfacet
  facet normal -1.000000 0.000000 -0.000000
    outer loop
      vertex -210.972397 109.027657 -104.984634
      vertex -210.972397 124.301697 -127.412308
      vertex -210.972397 65.278000 -127.412308
    endloop
  endfacet
  facet normal -1.000000 -0.000000 0.000000
    outer loop
      vertex -210.972397 109.027657 -104.984634
      vertex -210.972397 65.278000 -127.412308
      vertex -210.972397 76.134651 -104.984634
    endloop
  endfacet
  facet normal -1.000000 0.000000 0.000000
    outer loop
      vertex -210.972397 109.027657 -104.984634
      vertex -210.972397 76.134651 -104.984634
      vertex -210.972397 108.370094 -104.480064
    endloop
  endfacet
  facet normal -1.000000 0.000000 -0.000000
    outer loop
      vertex -210.972397 107.865524 -103.822502
      vertex -210.972397 108.370094 -104.480064
      vertex -210.972397 76.792213 -104.480064
    endloop
  endfacet
  facet normal -1.000000 -0.000000 0.000000
    outer loop
      vertex -210.972397 107.865524 -103.822502
      vertex -210.972397 76.792213 -104.480064
      vertex -210.972397 77.296783 -103.822502
    endloop
  endfacet
  facet normal -1.000000 -0.000000 0.000000
    outer loop
      vertex -210.972397 73.725403 -69.233818
      vertex -210.972397 72.959656 -99.485367
      vertex -210.972397 72.959656 -68.916634
    endloop
  endfacet
  facet normal -1.000000 0.000000 -0.000000
    outer loop
      vertex -210.972397 73.725403 -69.233818
      vertex -210.972397 73.725403 -99.168182
      vertex -210.972397 72.959656 -99.485367
    endloop
  endfacet
  facet normal -1.000000 0.000000 0.000000
    outer loop
      vertex -210.972397 71.480339 -66.988754
      vertex -210.972397 71.797523 -67.754501
      vertex -210.972397 71.797523 -100.647499
    endloop
  endfacet
  facet normal -1.000000 0.000000 0.000000
    outer loop
      vertex -210.972397 71.480339 -66.988754
      vertex -210.972397 71.797523 -100.647499
      vertex -210.972397 71.480339 -101.413246
    endloop
  endfacet
  facet normal -1.000000 -0.000000 -0.000000
    outer loop
      vertex -210.972397 109.793404 -105.301811
      vertex -210.972397 124.301697 -127.412308
      vertex -210.972397 109.027657 -104.984634
    endloop
  endfacet
  facet normal -1.000000 0.000000 -0.000000
    outer loop
      vertex -210.972397 107.548340 -103.056747
      vertex -210.972397 107.865524 -103.822502
      vertex -210.972397 77.296783 -103.822502
    endloop
  endfacet
  facet normal -1.000000 -0.000000 0.000000
    outer loop
      vertex -210.972397 107.548340 -103.056747
      vertex -210.972397 77.296783 -103.822502
      vertex -210.972397 77.613968 -103.056747
    endloop
  endfacet
  facet normal -1.000000 0.000000 0.000000
    outer loop
      vertex -210.972397 107.548340 -103.056747
      vertex -210.972397 77.613968 -103.056747
      vertex -210.972397 77.722153 -102.235001
    endloop
  endfacet
  facet normal -1.000000 -0.000000 0.000000
    outer loop
      vertex -210.972397 74.547150 -69.342003
      vertex -210.972397 73.725403 -99.168182
      vertex -210.972397 73.725403 -69.233818
    endloop
  endfacet
  facet normal -1.000000 0.000000 0.000000
    outer loop
      vertex -210.972397 74.547150 -69.342003
      vertex -210.972397 75.368904 -99.168182
      vertex -210.972397 74.547150 -99.059998
    endloop
  endfacet
  facet normal -1.000000 0.000000 -0.000000
    outer loop
      vertex -210.972397 74.547150 -69.342003
      vertex -210.972397 74.547150 -99.059998
      vertex -210.972397 73.725403 -99.168182
    endloop
  endfacet
  facet normal -1.000000 -0.000000 -0.000000
    outer loop
      vertex -210.972397 110.615158 -105.410004
      vertex -210.972397 124.301697 -127.412308
      vertex -210.972397 109.793404 -105.301811
    endloop
  endfacet
  facet normal -1.000000 -0.000000 -0.000000
    outer loop
      vertex -210.972397 107.440155 -102.235001
      vertex -210.972397 107.548340 -103.056747
      vertex -210.972397 77.722153 -102.235001
    endloop
  endfacet
  facet normal -1.000000 0.000000 -0.000000
    outer loop
      vertex -210.972397 75.368904 -69.233818
      vertex -210.972397 75.368904 -99.168182
      vertex -210.972397 74.547150 -69.342003
    endloop
  endfacet
  facet normal -1.000000 0.000000 -0.000000
    outer loop
      vertex -210.972397 111.436905 -105.301811
      vertex -210.972397 124.301697 -127.412308
      vertex -210.972397 110.615158 -105.410004
    endloop
  endfacet
  facet normal -1.000000 0.000000 0.000000
    outer loop
      vertex -210.972397 107.548340 -101.413246
      vertex -210.972397 107.440155 -102.235001
      vertex -210.972397 77.722153 -102.235001
    endloop
  endfacet
  facet normal -1.000000 -0.000000 0.000000
    outer loop
      vertex -210.972397 107.548340 -101.413246
      vertex -210.972397 77.722153 -102.235001
      vertex -210.972397 77.613968 -101.413246
    endloop
  endfacet
  facet normal -1.000000 0.000000 -0.000000
    outer loop
      vertex -210.972397 76.134651 -68.916634
      vertex -210.972397 76.134651 -99.485367
      vertex -210.972397 75.368904 -99.168182
    endloop
  endfacet
  facet normal -1.000000 0.000000 0.000000
    outer loop
      vertex -210.972397 76.134651 -68.916634
      vertex -210.972397 75.368904 -99.168182
      vertex -210.972397 75.368904 -69.233818
    endloop
  endfacet
  facet normal -1.000000 0.000000 0.000000
    outer loop
      vertex -210.972397 112.202652 -104.984634
      vertex -210.972397 127.253998 -124.459999
      vertex -210.972397 124.301697 -127.412308
    endloop
  endfacet
  facet normal -1.000000 0.000000 -0.000000
    outer loop
      vertex -210.972397 112.202652 -104.984634
      vertex -210.972397 124.301697 -127.412308
      vertex -210.972397 111.436905 -105.301811
    endloop
  endfacet
  facet normal -1.000000 -0.000000 0.000000
    outer loop
      vertex -210.972397 107.865524 -100.647499
      vertex -210.972397 77.613968 -101.413246
      vertex -210.972397 77.296783 -100.647499
    endloop
  endfacet
  facet normal -1.000000 0.000000 0.000000
    outer loop
      vertex -210.972397 107.865524 -100.647499
      vertex -210.972397 77.296783 -100.647499
      vertex -210.972397 76.792213 -99.989937
    endloop
  endfacet
  facet normal -1.000000 0.000000 0.000000
    outer loop
      vertex -210.972397 107.865524 -100.647499
      vertex -210.972397 107.548340 -101.413246
      vertex -210.972397 77.613968 -101.413246
    endloop
  endfacet
  facet normal -1.000000 0.000000 -0.000000
    outer loop
      vertex -210.972397 76.792213 -68.412064
      vertex -210.972397 76.792213 -99.989937
      vertex -210.972397 76.134651 -99.485367
    endloop
  endfacet
  facet normal -1.000000 0.000000 0.000000
    outer loop
      vertex -210.972397 76.792213 -68.412064
      vertex -210.972397 76.134651 -99.485367
      vertex -210.972397 76.134651 -68.916634
    endloop
  endfacet
  facet normal -1.000000 0.000000 -0.000000
    outer loop
      vertex -210.972397 112.860222 -104.480064
      vertex -210.972397 127.253998 -124.459999
      vertex -210.972397 112.202652 -104.984634
    endloop
  endfacet
  facet normal -1.000000 0.000000 0.000000
    outer loop
      vertex -210.972397 108.370094 -99.989937
      vertex -210.972397 76.792213 -99.989937
      vertex -210.972397 76.792213 -68.412064
    endloop
  endfacet
  facet normal -1.000000 -0.000000 0.000000
    outer loop
      vertex -210.972397 108.370094 -99.989937
      vertex -210.972397 107.865524 -100.647499
      vertex -210.972397 76.792213 -99.989937
    endloop
  endfacet
  facet normal -1.000000 0.000000 -0.000000
    outer loop
      vertex -210.972397 113.364784 -103.822502
      vertex -210.972397 127.253998 -124.459999
      vertex -210.972397 112.860222 -104.480064
    endloop
  endfacet
  facet normal -1.000000 0.000000 -0.000000
    outer loop
      vertex -210.972397 113.681969 -103.056747
      vertex -210.972397 127.253998 -124.459999
      vertex -210.972397 113.364784 -103.822502
    endloop
  endfacet
  facet normal -1.000000 0.000000 -0.000000
    outer loop
      vertex -210.972397 113.790154 -102.235001
      vertex -210.972397 127.253998 -124.459999
      vertex -210.972397 113.681969 -103.056747
    endloop
  endfacet
  facet normal -1.000000 0.000000 0.000000
    outer loop
      vertex -210.972397 113.681969 -101.413246
      vertex -210.972397 127.253998 -124.459999
      vertex -210.972397 113.790154 -102.235001
    endloop
  endfacet
  facet normal -1.000000 0.000000 0.000000
    outer loop
      vertex -210.972397 65.278000 -40.989697
      vertex -210.972397 76.134651 -63.417370
      vertex -210.972397 75.368904 -63.100185
    endloop
  endfacet
  facet normal -1.000000 0.000000 0.000000
    outer loop
      vertex -210.972397 65.278000 -40.989697
      vertex -210.972397 75.368904 -63.100185
      vertex -210.972397 74.547150 -62.992001
    endloop
  endfacet
  facet normal -1.000000 0.000000 0.000000
    outer loop
      vertex -210.972397 65.278000 -40.989697
      vertex -210.972397 74.547150 -62.992001
      vertex -210.972397 73.725403 -63.100185
    endloop
  endfacet
  facet normal -1.000000 0.000000 0.000000
    outer loop
      vertex -210.972397 65.278000 -40.989697
      vertex -210.972397 73.725403 -63.100185
      vertex -210.972397 72.959656 -63.417370
    endloop
  endfacet
  facet normal -1.000000 0.000000 0.000000
    outer loop
      vertex -210.972397 65.278000 -40.989697
      vertex -210.972397 72.959656 -63.417370
      vertex -210.972397 72.302086 -63.921936
    endloop
  endfacet
  facet normal -1.000000 0.000000 0.000000
    outer loop
      vertex -210.972397 65.278000 -40.989697
      vertex -210.972397 72.302086 -63.921936
      vertex -210.972397 71.797523 -64.579498
    endloop
  endfacet
  facet normal -1.000000 0.000000 0.000000
    outer loop
      vertex -210.972397 65.278000 -40.989697
      vertex -210.972397 71.797523 -64.579498
      vertex -210.972397 71.480339 -65.345253
    endloop
  endfacet
  facet normal -1.000000 0.000000 0.000000
    outer loop
      vertex -210.972397 65.278000 -40.989697
      vertex -210.972397 71.480339 -65.345253
      vertex -210.972397 71.372154 -66.167000
    endloop
  endfacet
  facet normal -1.000000 0.000000 0.000000
    outer loop
      vertex -210.972397 65.278000 -40.989697
      vertex -210.972397 71.480339 -101.413246
      vertex -210.972397 65.278000 -127.412308
    endloop
  endfacet
  facet normal -1.000000 0.000000 0.000000
    outer loop
      vertex -210.972397 65.278000 -40.989697
      vertex -210.972397 71.372154 -66.167000
      vertex -210.972397 71.480339 -66.988754
    endloop
  endfacet
  facet normal -1.000000 0.000000 0.000000
    outer loop
      vertex -210.972397 65.278000 -40.989697
      vertex -210.972397 71.480339 -66.988754
      vertex -210.972397 71.480339 -101.413246
    endloop
  endfacet
  facet normal -1.000000 -0.000000 -0.000000
    outer loop
      vertex -210.972397 108.370094 -68.412064
      vertex -210.972397 108.370094 -99.989937
      vertex -210.972397 76.792213 -68.412064
    endloop
  endfacet
  facet normal -1.000000 0.000000 0.000000
    outer loop
      vertex -210.972397 108.370094 -68.412064
      vertex -210.972397 76.792213 -68.412064
      vertex -210.972397 77.296783 -67.754501
    endloop
  endfacet
  facet normal -1.000000 -0.000000 0.000000
    outer loop
      vertex -210.972397 109.027657 -68.916634
      vertex -210.972397 108.370094 -99.989937
      vertex -210.972397 108.370094 -68.412064
    endloop
  endfacet
  facet normal -1.000000 0.000000 -0.000000
    outer loop
      vertex -210.972397 109.027657 -68.916634
      vertex -210.972397 109.027657 -99.485367
      vertex -210.972397 108.370094 -99.989937
    endloop
  endfacet
  facet normal -1.000000 -0.000000 -0.000000
    outer loop
      vertex -210.972397 107.865524 -67.754501
      vertex -210.972397 108.370094 -68.412064
      vertex -210.972397 77.296783 -67.754501
    endloop
  endfacet
  facet normal -1.000000 -0.000000 0.000000
    outer loop
      vertex -210.972397 109.793404 -69.233818
      vertex -210.972397 109.027657 -99.485367
      vertex -210.972397 109.027657 -68.916634
    endloop
  endfacet
  facet normal -1.000000 0.000000 -0.000000
    outer loop
      vertex -210.972397 109.793404 -69.233818
      vertex -210.972397 109.793404 -99.168182
      vertex -210.972397 109.027657 -99.485367
    endloop
  endfacet
  facet normal -1.000000 -0.000000 0.000000
    outer loop
      vertex -210.972397 107.548340 -66.988754
      vertex -210.972397 77.296783 -67.754501
      vertex -210.972397 77.613968 -66.988754
    endloop
  endfacet
  facet normal -1.000000 0.000000 0.000000
    outer loop
      vertex -210.972397 107.548340 -66.988754
      vertex -210.972397 77.613968 -66.988754
      vertex -210.972397 77.722153 -66.167000
    endloop
  endfacet
  facet normal -1.000000 0.000000 -0.000000
    outer loop
      vertex -210.972397 107.548340 -66.988754
      vertex -210.972397 107.865524 -67.754501
      vertex -210.972397 77.296783 -67.754501
    endloop
  endfacet
  facet normal -1.000000 -0.000000 0.000000
    outer loop
      vertex -210.972397 110.615158 -69.342003
      vertex -210.972397 109.793404 -99.168182
      vertex -210.972397 109.793404 -69.233818
    endloop
  endfacet
  facet normal -1.000000 0.000000 0.000000
    outer loop
      vertex -210.972397 110.615158 -69.342003
      vertex -210.972397 111.436905 -99.168182
      vertex -210.972397 110.615158 -99.059998
    endloop
  endfacet
  facet normal -1.000000 0.000000 -0.000000
    outer loop
      vertex -210.972397 110.615158 -69.342003
      vertex -210.972397 110.615158 -99.059998
      vertex -210.972397 109.793404 -99.168182
    endloop
  endfacet
  facet normal -1.000000 -0.000000 -0.000000
    outer loop
      vertex -210.972397 107.440155 -66.167000
      vertex -210.972397 107.548340 -66.988754
      vertex -210.972397 77.722153 -66.167000
    endloop
  endfacet
  facet normal -1.000000 -0.000000 0.000000
    outer loop
      vertex -210.972397 107.548340 -65.345253
      vertex -210.972397 77.722153 -66.167000
      vertex -210.972397 77.613968 -65.345253
    endloop
  endfacet
  facet normal -1.000000 0.000000 0.000000
    outer loop
      vertex -210.972397 107.548340 -65.345253
      vertex -210.972397 107.440155 -66.167000
      vertex -210.972397 77.722153 -66.167000
    endloop
  endfacet
  facet normal -1.000000 0.000000 -0.000000
    outer loop
      vertex -210.972397 111.436905 -69.233818
      vertex -210.972397 111.436905 -99.168182
      vertex -210.972397 110.615158 -69.342003
    endloop
  endfacet
  facet normal -1.000000 -0.000000 0.000000
    outer loop
      vertex -210.972397 107.865524 -64.579498
      vertex -210.972397 77.613968 -65.345253
      vertex -210.972397 77.296783 -64.579498
    endloop
  endfacet
  facet normal -1.000000 0.000000 0.000000
    outer loop
      vertex -210.972397 107.865524 -64.579498
      vertex -210.972397 77.296783 -64.579498
      vertex -210.972397 76.792213 -63.921936
    endloop
  endfacet
  facet normal -1.000000 0.000000 0.000000
    outer loop
      vertex -210.972397 107.865524 -64.579498
      vertex -210.972397 107.548340 -65.345253
      vertex -210.972397 77.613968 -65.345253
    endloop
  endfacet
  facet normal -1.000000 0.000000 0.000000
    outer loop
      vertex -210.972397 112.202652 -68.916634
      vertex -210.972397 112.860222 -99.989937
      vertex -210.972397 112.202652 -99.485367
    endloop
  endfacet
  facet normal -1.000000 0.000000 -0.000000
    outer loop
      vertex -210.972397 112.202652 -68.916634
      vertex -210.972397 112.202652 -99.485367
      vertex -210.972397 111.436905 -99.168182
    endloop
  endfacet
  facet normal -1.000000 0.000000 0.000000
    outer loop
      vertex -210.972397 112.202652 -68.916634
      vertex -210.972397 111.436905 -99.168182
      vertex -210.972397 111.436905 -69.233818
    endloop
  endfacet
  facet normal -1.000000 0.000000 0.000000
    outer loop
      vertex -210.972397 108.370094 -63.921936
      vertex -210.972397 76.792213 -63.921936
      vertex -210.972397 76.134651 -63.417370
    endloop
  endfacet
  facet normal -1.000000 -0.000000 0.000000
    outer loop
      vertex -210.972397 108.370094 -63.921936
      vertex -210.972397 107.865524 -64.579498
      vertex -210.972397 76.792213 -63.921936
    endloop
  endfacet
  facet normal -1.000000 0.000000 -0.000000
    outer loop
      vertex -210.972397 112.860222 -68.412064
      vertex -210.972397 112.860222 -99.989937
      vertex -210.972397 112.202652 -68.916634
    endloop
  endfacet
  facet normal -1.000000 0.000000 0.000000
    outer loop
      vertex -210.972397 109.027657 -63.417370
      vertex -210.972397 76.134651 -63.417370
      vertex -210.972397 65.278000 -40.989697
    endloop
  endfacet
  facet normal -1.000000 -0.000000 0.000000
    outer loop
      vertex -210.972397 109.027657 -63.417370
      vertex -210.972397 108.370094 -63.921936
      vertex -210.972397 76.134651 -63.417370
    endloop
  endfacet
  facet normal -1.000000 0.000000 0.000000
    outer loop
      vertex -210.972397 113.364784 -67.754501
      vertex -210.972397 113.681969 -101.413246
      vertex -210.972397 113.364784 -100.647499
    endloop
  endfacet
  facet normal -1.000000 0.000000 -0.000000
    outer loop
      vertex -210.972397 113.364784 -67.754501
      vertex -210.972397 113.364784 -100.647499
      vertex -210.972397 112.860222 -99.989937
    endloop
  endfacet
  facet normal -1.000000 0.000000 0.000000
    outer loop
      vertex -210.972397 113.364784 -67.754501
      vertex -210.972397 112.860222 -99.989937
      vertex -210.972397 112.860222 -68.412064
    endloop
  endfacet
  facet normal -1.000000 0.000000 -0.000000
    outer loop
      vertex -210.972397 113.681969 -66.988754
      vertex -210.972397 113.681969 -101.413246
      vertex -210.972397 113.364784 -67.754501
    endloop
  endfacet
  facet normal -1.000000 0.000000 0.000000
    outer loop
      vertex -210.972397 127.253998 -43.942001
      vertex -210.972397 113.681969 -66.988754
      vertex -210.972397 113.790154 -66.167000
    endloop
  endfacet
  facet normal -1.000000 0.000000 0.000000
    outer loop
      vertex -210.972397 127.253998 -43.942001
      vertex -210.972397 113.790154 -66.167000
      vertex -210.972397 113.681969 -65.345253
    endloop
  endfacet
  facet normal -1.000000 0.000000 0.000000
    outer loop
      vertex -210.972397 127.253998 -43.942001
      vertex -210.972397 113.681969 -65.345253
      vertex -210.972397 113.364784 -64.579498
    endloop
  endfacet
  facet normal -1.000000 0.000000 0.000000
    outer loop
      vertex -210.972397 127.253998 -43.942001
      vertex -210.972397 113.364784 -64.579498
      vertex -210.972397 112.860222 -63.921936
    endloop
  endfacet
  facet normal -1.000000 0.000000 0.000000
    outer loop
      vertex -210.972397 127.253998 -43.942001
      vertex -210.972397 112.860222 -63.921936
      vertex -210.972397 112.202652 -63.417370
    endloop
  endfacet
  facet normal -1.000000 0.000000 0.000000
    outer loop
      vertex -210.972397 124.301697 -40.989697
      vertex -210.972397 112.202652 -63.417370
      vertex -210.972397 111.436905 -63.100185
    endloop
  endfacet
  facet normal -1.000000 0.000000 0.000000
    outer loop
      vertex -210.972397 124.301697 -40.989697
      vertex -210.972397 111.436905 -63.100185
      vertex -210.972397 110.615158 -62.992001
    endloop
  endfacet
  facet normal -1.000000 0.000000 0.000000
    outer loop
      vertex -210.972397 124.301697 -40.989697
      vertex -210.972397 110.615158 -62.992001
      vertex -210.972397 109.793404 -63.100185
    endloop
  endfacet
  facet normal -1.000000 0.000000 0.000000
    outer loop
      vertex -210.972397 124.301697 -40.989697
      vertex -210.972397 109.793404 -63.100185
      vertex -210.972397 109.027657 -63.417370
    endloop
  endfacet
  facet normal -1.000000 -0.000000 0.000000
    outer loop
      vertex -210.972397 124.301697 -40.989697
      vertex -210.972397 109.027657 -63.417370
      vertex -210.972397 65.278000 -40.989697
    endloop
  endfacet
  facet normal -1.000000 0.000000 -0.000000
    outer loop
      vertex -210.972397 124.301697 -40.989697
      vertex -210.972397 127.253998 -43.942001
      vertex -210.972397 112.202652 -63.417370
    endloop
  endfacet
  facet normal -1.000000 0.000000 -0.000000
    outer loop
      vertex -210.972397 127.253998 -43.942001
      vertex -210.972397 127.253998 -124.459999
      vertex -210.972397 113.681969 -101.413246
    endloop
  endfacet
  facet normal -1.000000 0.000000 0.000000
    outer loop
      vertex -210.972397 127.253998 -43.942001
      vertex -210.972397 113.681969 -101.413246
      vertex -210.972397 113.681969 -66.988754
    endloop
  endfacet
  facet normal 0.000000 0.707107 0.707106
    outer loop
      vertex -201.447403 124.301697 -40.989697
      vertex -201.447403 127.253998 -43.942001
      vertex -210.972397 124.301697 -40.989697
    endloop
  endfacet
  facet normal 0.000000 0.707107 0.707106
    outer loop
      vertex -210.972397 124.301697 -40.989697
      vertex -201.447403 127.253998 -43.942001
      vertex -210.972397 127.253998 -43.942001
    endloop
  endfacet
  facet normal 0.000000 -0.000000 1.000000
    outer loop
      vertex -201.447403 65.278000 -40.989697
      vertex -201.447403 124.301697 -40.989697
      vertex -210.972397 124.301697 -40.989697
    endloop
  endfacet
  facet normal 0.000000 0.000000 1.000000
    outer loop
      vertex -210.972397 65.278000 -40.989697
      vertex -201.447403 65.278000 -40.989697
      vertex -210.972397 124.301697 -40.989697
    endloop
  endfacet
  facet normal 0.000000 -1.000000 0.000000
    outer loop
      vertex -201.447403 65.278000 -127.412308
      vertex -201.447403 65.278000 -40.989697
      vertex -210.972397 65.278000 -40.989697
    endloop
  endfacet
  facet normal 0.000000 -1.000000 0.000000
    outer loop
      vertex -210.972397 65.278000 -127.412308
      vertex -201.447403 65.278000 -127.412308
      vertex -210.972397 65.278000 -40.989697
    endloop
  endfacet
  facet normal -0.000000 -0.130525 -0.991445
    outer loop
      vertex -201.447403 74.547150 -62.992001
      vertex -210.972397 74.547150 -62.992001
      vertex -210.972397 75.368904 -63.100185
    endloop
  endfacet
  facet normal -0.000000 -0.130525 -0.991445
    outer loop
      vertex -201.447403 75.368904 -63.100185
      vertex -201.447403 74.547150 -62.992001
      vertex -210.972397 75.368904 -63.100185
    endloop
  endfacet
  facet normal -0.000000 -0.382685 -0.923879
    outer loop
      vertex -201.447403 76.134651 -63.417370
      vertex -201.447403 75.368904 -63.100185
      vertex -210.972397 76.134651 -63.417370
    endloop
  endfacet
  facet normal -0.000000 -0.382685 -0.923879
    outer loop
      vertex -201.447403 75.368904 -63.100185
      vertex -210.972397 75.368904 -63.100185
      vertex -210.972397 76.134651 -63.417370
    endloop
  endfacet
  facet normal -0.000000 -0.608762 -0.793353
    outer loop
      vertex -201.447403 76.792213 -63.921936
      vertex -201.447403 76.134651 -63.417370
      vertex -210.972397 76.792213 -63.921936
    endloop
  endfacet
  facet normal 0.000000 -0.793351 -0.608765
    outer loop
      vertex -201.447403 77.296783 -64.579498
      vertex -201.447403 76.792213 -63.921936
      vertex -210.972397 76.792213 -63.921936
    endloop
  endfacet
  facet normal -0.000000 -0.608762 -0.793353
    outer loop
      vertex -201.447403 76.134651 -63.417370
      vertex -210.972397 76.134651 -63.417370
      vertex -210.972397 76.792213 -63.921936
    endloop
  endfacet
  facet normal 0.000000 -0.923880 -0.382682
    outer loop
      vertex -201.447403 77.613968 -65.345253
      vertex -201.447403 77.296783 -64.579498
      vertex -210.972397 77.296783 -64.579498
    endloop
  endfacet
  facet normal -0.000000 -0.793351 -0.608765
    outer loop
      vertex -201.447403 77.296783 -64.579498
      vertex -210.972397 76.792213 -63.921936
      vertex -210.972397 77.296783 -64.579498
    endloop
  endfacet
  facet normal 0.000000 -0.991445 -0.130526
    outer loop
      vertex -201.447403 77.722153 -66.167000
      vertex -201.447403 77.613968 -65.345253
      vertex -210.972397 77.613968 -65.345253
    endloop
  endfacet
  facet normal -0.000000 -0.923880 -0.382682
    outer loop
      vertex -201.447403 77.613968 -65.345253
      vertex -210.972397 77.296783 -64.579498
      vertex -210.972397 77.613968 -65.345253
    endloop
  endfacet
  facet normal 0.000000 -0.991445 0.130525
    outer loop
      vertex -201.447403 77.613968 -66.988754
      vertex -201.447403 77.722153 -66.167000
      vertex -210.972397 77.722153 -66.167000
    endloop
  endfacet
  facet normal -0.000000 -0.991445 -0.130526
    outer loop
      vertex -201.447403 77.722153 -66.167000
      vertex -210.972397 77.613968 -65.345253
      vertex -210.972397 77.722153 -66.167000
    endloop
  endfacet
  facet normal 0.000000 -0.923879 0.382685
    outer loop
      vertex -201.447403 77.296783 -67.754501
      vertex -201.447403 77.613968 -66.988754
      vertex -210.972397 77.613968 -66.988754
    endloop
  endfacet
  facet normal 0.000000 -0.991445 0.130525
    outer loop
      vertex -201.447403 77.613968 -66.988754
      vertex -210.972397 77.722153 -66.167000
      vertex -210.972397 77.613968 -66.988754
    endloop
  endfacet
  facet normal 0.000000 -0.793351 0.608765
    outer loop
      vertex -201.447403 76.792213 -68.412064
      vertex -201.447403 77.296783 -67.754501
      vertex -210.972397 77.296783 -67.754501
    endloop
  endfacet
  facet normal 0.000000 -0.923879 0.382685
    outer loop
      vertex -201.447403 77.296783 -67.754501
      vertex -210.972397 77.613968 -66.988754
      vertex -210.972397 77.296783 -67.754501
    endloop
  endfacet
  facet normal 0.000000 -0.608765 0.793351
    outer loop
      vertex -201.447403 76.134651 -68.916634
      vertex -201.447403 76.792213 -68.412064
      vertex -210.972397 76.792213 -68.412064
    endloop
  endfacet
  facet normal 0.000000 -0.793351 0.608765
    outer loop
      vertex -201.447403 76.792213 -68.412064
      vertex -210.972397 77.296783 -67.754501
      vertex -210.972397 76.792213 -68.412064
    endloop
  endfacet
  facet normal 0.000000 -0.608765 0.793351
    outer loop
      vertex -201.447403 76.134651 -68.916634
      vertex -210.972397 76.792213 -68.412064
      vertex -210.972397 76.134651 -68.916634
    endloop
  endfacet
  facet normal 0.000000 -0.382685 0.923879
    outer loop
      vertex -201.447403 75.368904 -69.233818
      vertex -201.447403 76.134651 -68.916634
      vertex -210.972397 75.368904 -69.233818
    endloop
  endfacet
  facet normal 0.000000 -0.382685 0.923879
    outer loop
      vertex -201.447403 76.134651 -68.916634
      vertex -210.972397 76.134651 -68.916634
      vertex -210.972397 75.368904 -69.233818
    endloop
  endfacet
  facet normal 0.000000 -0.130525 0.991445
    outer loop
      vertex -201.447403 74.547150 -69.342003
      vertex -201.447403 75.368904 -69.233818
      vertex -210.972397 74.547150 -69.342003
    endloop
  endfacet
  facet normal 0.000000 -0.130525 0.991445
    outer loop
      vertex -201.447403 75.368904 -69.233818
      vertex -210.972397 75.368904 -69.233818
      vertex -210.972397 74.547150 -69.342003
    endloop
  endfacet
  facet normal 0.000000 0.130526 0.991445
    outer loop
      vertex -201.447403 74.547150 -69.342003
      vertex -210.972397 74.547150 -69.342003
      vertex -210.972397 73.725403 -69.233818
    endloop
  endfacet
  facet normal 0.000000 0.130526 0.991445
    outer loop
      vertex -201.447403 73.725403 -69.233818
      vertex -201.447403 74.547150 -69.342003
      vertex -210.972397 73.725403 -69.233818
    endloop
  endfacet
  facet normal 0.000000 0.382685 0.923879
    outer loop
      vertex -201.447403 72.959656 -68.916634
      vertex -201.447403 73.725403 -69.233818
      vertex -210.972397 72.959656 -68.916634
    endloop
  endfacet
  facet normal 0.000000 0.382685 0.923879
    outer loop
      vertex -201.447403 73.725403 -69.233818
      vertex -210.972397 73.725403 -69.233818
      vertex -210.972397 72.959656 -68.916634
    endloop
  endfacet
  facet normal 0.000000 0.608761 0.793354
    outer loop
      vertex -201.447403 72.302086 -68.412064
      vertex -201.447403 72.959656 -68.916634
      vertex -210.972397 72.302086 -68.412064
    endloop
  endfacet
  facet normal 0.000000 0.793355 0.608759
    outer loop
      vertex -201.447403 71.797523 -67.754501
      vertex -201.447403 72.302086 -68.412064
      vertex -210.972397 72.302086 -68.412064
    endloop
  endfacet
  facet normal 0.000000 0.608761 0.793354
    outer loop
      vertex -201.447403 72.959656 -68.916634
      vertex -210.972397 72.959656 -68.916634
      vertex -210.972397 72.302086 -68.412064
    endloop
  endfacet
  facet normal 0.000000 0.923879 0.382685
    outer loop
      vertex -201.447403 71.480339 -66.988754
      vertex -201.447403 71.797523 -67.754501
      vertex -210.972397 71.797523 -67.754501
    endloop
  endfacet
  facet normal 0.000000 0.793355 0.608759
    outer loop
      vertex -201.447403 71.797523 -67.754501
      vertex -210.972397 72.302086 -68.412064
      vertex -210.972397 71.797523 -67.754501
    endloop
  endfacet
  facet normal 0.000000 0.923879 0.382685
    outer loop
      vertex -201.447403 71.480339 -66.988754
      vertex -210.972397 71.797523 -67.754501
      vertex -210.972397 71.480339 -66.988754
    endloop
  endfacet
  facet normal 0.000000 0.991445 0.130525
    outer loop
      vertex -201.447403 71.372154 -66.167000
      vertex -201.447403 71.480339 -66.988754
      vertex -210.972397 71.372154 -66.167000
    endloop
  endfacet
  facet normal 0.000000 0.991445 -0.130526
    outer loop
      vertex -201.447403 71.480339 -65.345253
      vertex -201.447403 71.372154 -66.167000
      vertex -210.972397 71.372154 -66.167000
    endloop
  endfacet
  facet normal 0.000000 0.991445 0.130525
    outer loop
      vertex -201.447403 71.480339 -66.988754
      vertex -210.972397 71.480339 -66.988754
      vertex -210.972397 71.372154 -66.167000
    endloop
  endfacet
  facet normal 0.000000 0.923880 -0.382682
    outer loop
      vertex -201.447403 71.797523 -64.579498
      vertex -201.447403 71.480339 -65.345253
      vertex -210.972397 71.480339 -65.345253
    endloop
  endfacet
  facet normal 0.000000 0.991445 -0.130526
    outer loop
      vertex -201.447403 71.480339 -65.345253
      vertex -210.972397 71.372154 -66.167000
      vertex -210.972397 71.480339 -65.345253
    endloop
  endfacet
  facet normal 0.000000 0.793355 -0.608759
    outer loop
      vertex -201.447403 72.302086 -63.921936
      vertex -201.447403 71.797523 -64.579498
      vertex -210.972397 71.797523 -64.579498
    endloop
  endfacet
  facet normal 0.000000 0.923880 -0.382682
    outer loop
      vertex -201.447403 71.797523 -64.579498
      vertex -210.972397 71.480339 -65.345253
      vertex -210.972397 71.797523 -64.579498
    endloop
  endfacet
  facet normal 0.000000 0.793355 -0.608759
    outer loop
      vertex -201.447403 72.302086 -63.921936
      vertex -210.972397 71.797523 -64.579498
      vertex -210.972397 72.302086 -63.921936
    endloop
  endfacet
  facet normal 0.000000 0.608758 -0.793356
    outer loop
      vertex -201.447403 72.959656 -63.417370
      vertex -201.447403 72.302086 -63.921936
      vertex -210.972397 72.959656 -63.417370
    endloop
  endfacet
  facet normal 0.000000 0.608758 -0.793356
    outer loop
      vertex -201.447403 72.302086 -63.921936
      vertex -210.972397 72.302086 -63.921936
      vertex -210.972397 72.959656 -63.417370
    endloop
  endfacet
  facet normal 0.000000 0.382685 -0.923879
    outer loop
      vertex -201.447403 73.725403 -63.100185
      vertex -201.447403 72.959656 -63.417370
      vertex -210.972397 73.725403 -63.100185
    endloop
  endfacet
  facet normal 0.000000 0.130526 -0.991445
    outer loop
      vertex -201.447403 74.547150 -62.992001
      vertex -201.447403 73.725403 -63.100185
      vertex -210.972397 73.725403 -63.100185
    endloop
  endfacet
  facet normal 0.000000 0.382685 -0.923879
    outer loop
      vertex -201.447403 72.959656 -63.417370
      vertex -210.972397 72.959656 -63.417370
      vertex -210.972397 73.725403 -63.100185
    endloop
  endfacet
  facet normal 0.000000 0.130526 -0.991445
    outer loop
      vertex -201.447403 74.547150 -62.992001
      vertex -210.972397 73.725403 -63.100185
      vertex -210.972397 74.547150 -62.992001
    endloop
  endfacet
  facet normal -0.000000 -0.130526 -0.991445
    outer loop
      vertex -201.447403 110.615158 -62.992001
      vertex -210.972397 110.615158 -62.992001
      vertex -210.972397 111.436905 -63.100185
    endloop
  endfacet
  facet normal -0.000000 -0.130526 -0.991445
    outer loop
      vertex -201.447403 111.436905 -63.100185
      vertex -201.447403 110.615158 -62.992001
      vertex -210.972397 111.436905 -63.100185
    endloop
  endfacet
  facet normal -0.000000 -0.382685 -0.923879
    outer loop
      vertex -201.447403 112.202652 -63.417370
      vertex -201.447403 111.436905 -63.100185
      vertex -210.972397 112.202652 -63.417370
    endloop
  endfacet
  facet normal -0.000000 -0.382685 -0.923879
    outer loop
      vertex -201.447403 111.436905 -63.100185
      vertex -210.972397 111.436905 -63.100185
      vertex -210.972397 112.202652 -63.417370
    endloop
  endfacet
  facet normal -0.000000 -0.608758 -0.793356
    outer loop
      vertex -201.447403 112.860222 -63.921936
      vertex -201.447403 112.202652 -63.417370
      vertex -210.972397 112.860222 -63.921936
    endloop
  endfacet
  facet normal 0.000000 -0.793355 -0.608759
    outer loop
      vertex -201.447403 113.364784 -64.579498
      vertex -201.447403 112.860222 -63.921936
      vertex -210.972397 112.860222 -63.921936
    endloop
  endfacet
  facet normal -0.000000 -0.608758 -0.793356
    outer loop
      vertex -201.447403 112.202652 -63.417370
      vertex -210.972397 112.202652 -63.417370
      vertex -210.972397 112.860222 -63.921936
    endloop
  endfacet
  facet normal 0.000000 -0.923880 -0.382682
    outer loop
      vertex -201.447403 113.681969 -65.345253
      vertex -201.447403 113.364784 -64.579498
      vertex -210.972397 113.364784 -64.579498
    endloop
  endfacet
  facet normal -0.000000 -0.793355 -0.608759
    outer loop
      vertex -201.447403 113.364784 -64.579498
      vertex -210.972397 112.860222 -63.921936
      vertex -210.972397 113.364784 -64.579498
    endloop
  endfacet
  facet normal 0.000000 -0.991445 -0.130526
    outer loop
      vertex -201.447403 113.790154 -66.167000
      vertex -201.447403 113.681969 -65.345253
      vertex -210.972397 113.681969 -65.345253
    endloop
  endfacet
  facet normal -0.000000 -0.923880 -0.382682
    outer loop
      vertex -201.447403 113.681969 -65.345253
      vertex -210.972397 113.364784 -64.579498
      vertex -210.972397 113.681969 -65.345253
    endloop
  endfacet
  facet normal 0.000000 -0.991445 0.130525
    outer loop
      vertex -201.447403 113.681969 -66.988754
      vertex -201.447403 113.790154 -66.167000
      vertex -210.972397 113.790154 -66.167000
    endloop
  endfacet
  facet normal -0.000000 -0.991445 -0.130526
    outer loop
      vertex -201.447403 113.790154 -66.167000
      vertex -210.972397 113.681969 -65.345253
      vertex -210.972397 113.790154 -66.167000
    endloop
  endfacet
  facet normal 0.000000 -0.923879 0.382685
    outer loop
      vertex -201.447403 113.364784 -67.754501
      vertex -201.447403 113.681969 -66.988754
      vertex -210.972397 113.681969 -66.988754
    endloop
  endfacet
  facet normal 0.000000 -0.991445 0.130525
    outer loop
      vertex -201.447403 113.681969 -66.988754
      vertex -210.972397 113.790154 -66.167000
      vertex -210.972397 113.681969 -66.988754
    endloop
  endfacet
  facet normal 0.000000 -0.793355 0.608759
    outer loop
      vertex -201.447403 112.860222 -68.412064
      vertex -201.447403 113.364784 -67.754501
      vertex -210.972397 113.364784 -67.754501
    endloop
  endfacet
  facet normal 0.000000 -0.923879 0.382685
    outer loop
      vertex -201.447403 113.364784 -67.754501
      vertex -210.972397 113.681969 -66.988754
      vertex -210.972397 113.364784 -67.754501
    endloop
  endfacet
  facet normal 0.000000 -0.608761 0.793354
    outer loop
      vertex -201.447403 112.202652 -68.916634
      vertex -201.447403 112.860222 -68.412064
      vertex -210.972397 112.860222 -68.412064
    endloop
  endfacet
  facet normal 0.000000 -0.793355 0.608759
    outer loop
      vertex -201.447403 112.860222 -68.412064
      vertex -210.972397 113.364784 -67.754501
      vertex -210.972397 112.860222 -68.412064
    endloop
  endfacet
  facet normal 0.000000 -0.608761 0.793354
    outer loop
      vertex -201.447403 112.202652 -68.916634
      vertex -210.972397 112.860222 -68.412064
      vertex -210.972397 112.202652 -68.916634
    endloop
  endfacet
  facet normal 0.000000 -0.382685 0.923879
    outer loop
      vertex -201.447403 111.436905 -69.233818
      vertex -201.447403 112.202652 -68.916634
      vertex -210.972397 111.436905 -69.233818
    endloop
  endfacet
  facet normal 0.000000 -0.382685 0.923879
    outer loop
      vertex -201.447403 112.202652 -68.916634
      vertex -210.972397 112.202652 -68.916634
      vertex -210.972397 111.436905 -69.233818
    endloop
  endfacet
  facet normal 0.000000 -0.130526 0.991445
    outer loop
      vertex -201.447403 110.615158 -69.342003
      vertex -201.447403 111.436905 -69.233818
      vertex -210.972397 110.615158 -69.342003
    endloop
  endfacet
  facet normal 0.000000 -0.130526 0.991445
    outer loop
      vertex -201.447403 111.436905 -69.233818
      vertex -210.972397 111.436905 -69.233818
      vertex -210.972397 110.615158 -69.342003
    endloop
  endfacet
  facet normal 0.000000 0.130525 0.991445
    outer loop
      vertex -201.447403 110.615158 -69.342003
      vertex -210.972397 110.615158 -69.342003
      vertex -210.972397 109.793404 -69.233818
    endloop
  endfacet
  facet normal 0.000000 0.130525 0.991445
    outer loop
      vertex -201.447403 109.793404 -69.233818
      vertex -201.447403 110.615158 -69.342003
      vertex -210.972397 109.793404 -69.233818
    endloop
  endfacet
  facet normal 0.000000 0.382685 0.923879
    outer loop
      vertex -201.447403 109.027657 -68.916634
      vertex -201.447403 109.793404 -69.233818
      vertex -210.972397 109.027657 -68.916634
    endloop
  endfacet
  facet normal 0.000000 0.382685 0.923879
    outer loop
      vertex -201.447403 109.793404 -69.233818
      vertex -210.972397 109.793404 -69.233818
      vertex -210.972397 109.027657 -68.916634
    endloop
  endfacet
  facet normal 0.000000 0.608765 0.793351
    outer loop
      vertex -201.447403 108.370094 -68.412064
      vertex -201.447403 109.027657 -68.916634
      vertex -210.972397 108.370094 -68.412064
    endloop
  endfacet
  facet normal 0.000000 0.793351 0.608765
    outer loop
      vertex -201.447403 107.865524 -67.754501
      vertex -201.447403 108.370094 -68.412064
      vertex -210.972397 108.370094 -68.412064
    endloop
  endfacet
  facet normal 0.000000 0.608765 0.793351
    outer loop
      vertex -201.447403 109.027657 -68.916634
      vertex -210.972397 109.027657 -68.916634
      vertex -210.972397 108.370094 -68.412064
    endloop
  endfacet
  facet normal 0.000000 0.923879 0.382685
    outer loop
      vertex -201.447403 107.548340 -66.988754
      vertex -201.447403 107.865524 -67.754501
      vertex -210.972397 107.865524 -67.754501
    endloop
  endfacet
  facet normal 0.000000 0.793351 0.608765
    outer loop
      vertex -201.447403 107.865524 -67.754501
      vertex -210.972397 108.370094 -68.412064
      vertex -210.972397 107.865524 -67.754501
    endloop
  endfacet
  facet normal 0.000000 0.923879 0.382685
    outer loop
      vertex -201.447403 107.548340 -66.988754
      vertex -210.972397 107.865524 -67.754501
      vertex -210.972397 107.548340 -66.988754
    endloop
  endfacet
  facet normal 0.000000 0.991445 0.130525
    outer loop
      vertex -201.447403 107.440155 -66.167000
      vertex -201.447403 107.548340 -66.988754
      vertex -210.972397 107.440155 -66.167000
    endloop
  endfacet
  facet normal 0.000000 0.991445 -0.130526
    outer loop
      vertex -201.447403 107.548340 -65.345253
      vertex -201.447403 107.440155 -66.167000
      vertex -210.972397 107.440155 -66.167000
    endloop
  endfacet
  facet normal 0.000000 0.991445 0.130525
    outer loop
      vertex -201.447403 107.548340 -66.988754
      vertex -210.972397 107.548340 -66.988754
      vertex -210.972397 107.440155 -66.167000
    endloop
  endfacet
  facet normal 0.000000 0.923880 -0.382682
    outer loop
      vertex -201.447403 107.865524 -64.579498
      vertex -201.447403 107.548340 -65.345253
      vertex -210.972397 107.548340 -65.345253
    endloop
  endfacet
  facet normal 0.000000 0.991445 -0.130526
    outer loop
      vertex -201.447403 107.548340 -65.345253
      vertex -210.972397 107.440155 -66.167000
      vertex -210.972397 107.548340 -65.345253
    endloop
  endfacet
  facet normal 0.000000 0.793351 -0.608765
    outer loop
      vertex -201.447403 108.370094 -63.921936
      vertex -201.447403 107.865524 -64.579498
      vertex -210.972397 107.865524 -64.579498
    endloop
  endfacet
  facet normal 0.000000 0.923880 -0.382682
    outer loop
      vertex -201.447403 107.865524 -64.579498
      vertex -210.972397 107.548340 -65.345253
      vertex -210.972397 107.865524 -64.579498
    endloop
  endfacet
  facet normal 0.000000 0.793351 -0.608765
    outer loop
      vertex -201.447403 108.370094 -63.921936
      vertex -210.972397 107.865524 -64.579498
      vertex -210.972397 108.370094 -63.921936
    endloop
  endfacet
  facet normal 0.000000 0.608762 -0.793353
    outer loop
      vertex -201.447403 109.027657 -63.417370
      vertex -201.447403 108.370094 -63.921936
      vertex -210.972397 109.027657 -63.417370
    endloop
  endfacet
  facet normal 0.000000 0.608762 -0.793353
    outer loop
      vertex -201.447403 108.370094 -63.921936
      vertex -210.972397 108.370094 -63.921936
      vertex -210.972397 109.027657 -63.417370
    endloop
  endfacet
  facet normal 0.000000 0.382685 -0.923879
    outer loop
      vertex -201.447403 109.793404 -63.100185
      vertex -201.447403 109.027657 -63.417370
      vertex -210.972397 109.793404 -63.100185
    endloop
  endfacet
  facet normal 0.000000 0.130525 -0.991445
    outer loop
      vertex -201.447403 110.615158 -62.992001
      vertex -201.447403 109.793404 -63.100185
      vertex -210.972397 109.793404 -63.100185
    endloop
  endfacet
  facet normal 0.000000 0.382685 -0.923879
    outer loop
      vertex -201.447403 109.027657 -63.417370
      vertex -210.972397 109.027657 -63.417370
      vertex -210.972397 109.793404 -63.100185
    endloop
  endfacet
  facet normal 0.000000 0.130525 -0.991445
    outer loop
      vertex -201.447403 110.615158 -62.992001
      vertex -210.972397 109.793404 -63.100185
      vertex -210.972397 110.615158 -62.992001
    endloop
  endfacet
  facet normal -0.000000 -0.130526 -0.991445
    outer loop
      vertex -201.447403 110.615158 -99.059998
      vertex -210.972397 110.615158 -99.059998
      vertex -210.972397 111.436905 -99.168182
    endloop
  endfacet
  facet normal -0.000000 -0.130526 -0.991445
    outer loop
      vertex -201.447403 111.436905 -99.168182
      vertex -201.447403 110.615158 -99.059998
      vertex -210.972397 111.436905 -99.168182
    endloop
  endfacet
  facet normal -0.000000 -0.382685 -0.923879
    outer loop
      vertex -201.447403 112.202652 -99.485367
      vertex -201.447403 111.436905 -99.168182
      vertex -210.972397 112.202652 -99.485367
    endloop
  endfacet
  facet normal -0.000000 -0.382685 -0.923879
    outer loop
      vertex -201.447403 111.436905 -99.168182
      vertex -210.972397 111.436905 -99.168182
      vertex -210.972397 112.202652 -99.485367
    endloop
  endfacet
  facet normal -0.000000 -0.608761 -0.793354
    outer loop
      vertex -201.447403 112.860222 -99.989937
      vertex -201.447403 112.202652 -99.485367
      vertex -210.972397 112.860222 -99.989937
    endloop
  endfacet
  facet normal 0.000000 -0.793355 -0.608759
    outer loop
      vertex -201.447403 113.364784 -100.647499
      vertex -201.447403 112.860222 -99.989937
      vertex -210.972397 112.860222 -99.989937
    endloop
  endfacet
  facet normal -0.000000 -0.608761 -0.793354
    outer loop
      vertex -201.447403 112.202652 -99.485367
      vertex -210.972397 112.202652 -99.485367
      vertex -210.972397 112.860222 -99.989937
    endloop
  endfacet
  facet normal 0.000000 -0.923879 -0.382685
    outer loop
      vertex -201.447403 113.681969 -101.413246
      vertex -201.447403 113.364784 -100.647499
      vertex -210.972397 113.364784 -100.647499
    endloop
  endfacet
  facet normal -0.000000 -0.793355 -0.608759
    outer loop
      vertex -201.447403 113.364784 -100.647499
      vertex -210.972397 112.860222 -99.989937
      vertex -210.972397 113.364784 -100.647499
    endloop
  endfacet
  facet normal 0.000000 -0.991445 -0.130525
    outer loop
      vertex -201.447403 113.790154 -102.235001
      vertex -201.447403 113.681969 -101.413246
      vertex -210.972397 113.681969 -101.413246
    endloop
  endfacet
  facet normal -0.000000 -0.923879 -0.382685
    outer loop
      vertex -201.447403 113.681969 -101.413246
      vertex -210.972397 113.364784 -100.647499
      vertex -210.972397 113.681969 -101.413246
    endloop
  endfacet
  facet normal 0.000000 -0.991445 0.130526
    outer loop
      vertex -201.447403 113.681969 -103.056747
      vertex -201.447403 113.790154 -102.235001
      vertex -210.972397 113.790154 -102.235001
    endloop
  endfacet
  facet normal -0.000000 -0.991445 -0.130525
    outer loop
      vertex -201.447403 113.790154 -102.235001
      vertex -210.972397 113.681969 -101.413246
      vertex -210.972397 113.790154 -102.235001
    endloop
  endfacet
  facet normal 0.000000 -0.923880 0.382682
    outer loop
      vertex -201.447403 113.364784 -103.822502
      vertex -201.447403 113.681969 -103.056747
      vertex -210.972397 113.681969 -103.056747
    endloop
  endfacet
  facet normal 0.000000 -0.991445 0.130526
    outer loop
      vertex -201.447403 113.681969 -103.056747
      vertex -210.972397 113.790154 -102.235001
      vertex -210.972397 113.681969 -103.056747
    endloop
  endfacet
  facet normal 0.000000 -0.793355 0.608759
    outer loop
      vertex -201.447403 112.860222 -104.480064
      vertex -201.447403 113.364784 -103.822502
      vertex -210.972397 113.364784 -103.822502
    endloop
  endfacet
  facet normal 0.000000 -0.923880 0.382682
    outer loop
      vertex -201.447403 113.364784 -103.822502
      vertex -210.972397 113.681969 -103.056747
      vertex -210.972397 113.364784 -103.822502
    endloop
  endfacet
  facet normal 0.000000 -0.608761 0.793354
    outer loop
      vertex -201.447403 112.202652 -104.984634
      vertex -201.447403 112.860222 -104.480064
      vertex -210.972397 112.860222 -104.480064
    endloop
  endfacet
  facet normal 0.000000 -0.793355 0.608759
    outer loop
      vertex -201.447403 112.860222 -104.480064
      vertex -210.972397 113.364784 -103.822502
      vertex -210.972397 112.860222 -104.480064
    endloop
  endfacet
  facet normal 0.000000 -0.608761 0.793354
    outer loop
      vertex -201.447403 112.202652 -104.984634
      vertex -210.972397 112.860222 -104.480064
      vertex -210.972397 112.202652 -104.984634
    endloop
  endfacet
  facet normal 0.000000 -0.382677 0.923882
    outer loop
      vertex -201.447403 111.436905 -105.301811
      vertex -201.447403 112.202652 -104.984634
      vertex -210.972397 111.436905 -105.301811
    endloop
  endfacet
  facet normal 0.000000 -0.382677 0.923882
    outer loop
      vertex -201.447403 112.202652 -104.984634
      vertex -210.972397 112.202652 -104.984634
      vertex -210.972397 111.436905 -105.301811
    endloop
  endfacet
  facet normal 0.000000 -0.130535 0.991444
    outer loop
      vertex -201.447403 110.615158 -105.410004
      vertex -201.447403 111.436905 -105.301811
      vertex -210.972397 110.615158 -105.410004
    endloop
  endfacet
  facet normal 0.000000 -0.130535 0.991444
    outer loop
      vertex -201.447403 111.436905 -105.301811
      vertex -210.972397 111.436905 -105.301811
      vertex -210.972397 110.615158 -105.410004
    endloop
  endfacet
  facet normal 0.000000 0.130534 0.991444
    outer loop
      vertex -201.447403 110.615158 -105.410004
      vertex -210.972397 110.615158 -105.410004
      vertex -210.972397 109.793404 -105.301811
    endloop
  endfacet
  facet normal 0.000000 0.130534 0.991444
    outer loop
      vertex -201.447403 109.793404 -105.301811
      vertex -201.447403 110.615158 -105.410004
      vertex -210.972397 109.793404 -105.301811
    endloop
  endfacet
  facet normal 0.000000 0.382677 0.923882
    outer loop
      vertex -201.447403 109.027657 -104.984634
      vertex -201.447403 109.793404 -105.301811
      vertex -210.972397 109.027657 -104.984634
    endloop
  endfacet
  facet normal 0.000000 0.382677 0.923882
    outer loop
      vertex -201.447403 109.793404 -105.301811
      vertex -210.972397 109.793404 -105.301811
      vertex -210.972397 109.027657 -104.984634
    endloop
  endfacet
  facet normal 0.000000 0.608765 0.793351
    outer loop
      vertex -201.447403 108.370094 -104.480064
      vertex -201.447403 109.027657 -104.984634
      vertex -210.972397 108.370094 -104.480064
    endloop
  endfacet
  facet normal 0.000000 0.793351 0.608765
    outer loop
      vertex -201.447403 107.865524 -103.822502
      vertex -201.447403 108.370094 -104.480064
      vertex -210.972397 108.370094 -104.480064
    endloop
  endfacet
  facet normal 0.000000 0.608765 0.793351
    outer loop
      vertex -201.447403 109.027657 -104.984634
      vertex -210.972397 109.027657 -104.984634
      vertex -210.972397 108.370094 -104.480064
    endloop
  endfacet
  facet normal 0.000000 0.923880 0.382682
    outer loop
      vertex -201.447403 107.548340 -103.056747
      vertex -201.447403 107.865524 -103.822502
      vertex -210.972397 107.865524 -103.822502
    endloop
  endfacet
  facet normal 0.000000 0.793351 0.608765
    outer loop
      vertex -201.447403 107.865524 -103.822502
      vertex -210.972397 108.370094 -104.480064
      vertex -210.972397 107.865524 -103.822502
    endloop
  endfacet
  facet normal 0.000000 0.923880 0.382682
    outer loop
      vertex -201.447403 107.548340 -103.056747
      vertex -210.972397 107.865524 -103.822502
      vertex -210.972397 107.548340 -103.056747
    endloop
  endfacet
  facet normal 0.000000 0.991445 0.130526
    outer loop
      vertex -201.447403 107.440155 -102.235001
      vertex -201.447403 107.548340 -103.056747
      vertex -210.972397 107.440155 -102.235001
    endloop
  endfacet
  facet normal 0.000000 0.991445 -0.130525
    outer loop
      vertex -201.447403 107.548340 -101.413246
      vertex -201.447403 107.440155 -102.235001
      vertex -210.972397 107.440155 -102.235001
    endloop
  endfacet
  facet normal 0.000000 0.991445 0.130526
    outer loop
      vertex -201.447403 107.548340 -103.056747
      vertex -210.972397 107.548340 -103.056747
      vertex -210.972397 107.440155 -102.235001
    endloop
  endfacet
  facet normal 0.000000 0.923879 -0.382685
    outer loop
      vertex -201.447403 107.865524 -100.647499
      vertex -201.447403 107.548340 -101.413246
      vertex -210.972397 107.548340 -101.413246
    endloop
  endfacet
  facet normal 0.000000 0.991445 -0.130525
    outer loop
      vertex -201.447403 107.548340 -101.413246
      vertex -210.972397 107.440155 -102.235001
      vertex -210.972397 107.548340 -101.413246
    endloop
  endfacet
  facet normal 0.000000 0.793351 -0.608765
    outer loop
      vertex -201.447403 108.370094 -99.989937
      vertex -201.447403 107.865524 -100.647499
      vertex -210.972397 107.865524 -100.647499
    endloop
  endfacet
  facet normal 0.000000 0.923879 -0.382685
    outer loop
      vertex -201.447403 107.865524 -100.647499
      vertex -210.972397 107.548340 -101.413246
      vertex -210.972397 107.865524 -100.647499
    endloop
  endfacet
  facet normal 0.000000 0.793351 -0.608765
    outer loop
      vertex -201.447403 108.370094 -99.989937
      vertex -210.972397 107.865524 -100.647499
      vertex -210.972397 108.370094 -99.989937
    endloop
  endfacet
  facet normal 0.000000 0.608765 -0.793351
    outer loop
      vertex -201.447403 109.027657 -99.485367
      vertex -201.447403 108.370094 -99.989937
      vertex -210.972397 109.027657 -99.485367
    endloop
  endfacet
  facet normal 0.000000 0.608765 -0.793351
    outer loop
      vertex -201.447403 108.370094 -99.989937
      vertex -210.972397 108.370094 -99.989937
      vertex -210.972397 109.027657 -99.485367
    endloop
  endfacet
  facet normal 0.000000 0.382685 -0.923879
    outer loop
      vertex -201.447403 109.793404 -99.168182
      vertex -201.447403 109.027657 -99.485367
      vertex -210.972397 109.793404 -99.168182
    endloop
  endfacet
  facet normal 0.000000 0.130525 -0.991445
    outer loop
      vertex -201.447403 110.615158 -99.059998
      vertex -201.447403 109.793404 -99.168182
      vertex -210.972397 109.793404 -99.168182
    endloop
  endfacet
  facet normal 0.000000 0.382685 -0.923879
    outer loop
      vertex -201.447403 109.027657 -99.485367
      vertex -210.972397 109.027657 -99.485367
      vertex -210.972397 109.793404 -99.168182
    endloop
  endfacet
  facet normal 0.000000 0.130525 -0.991445
    outer loop
      vertex -201.447403 110.615158 -99.059998
      vertex -210.972397 109.793404 -99.168182
      vertex -210.972397 110.615158 -99.059998
    endloop
  endfacet
  facet normal -0.000000 -0.130525 -0.991445
    outer loop
      vertex -201.447403 74.547150 -99.059998
      vertex -210.972397 74.547150 -99.059998
      vertex -210.972397 75.368904 -99.168182
    endloop
  endfacet
  facet normal -0.000000 -0.130525 -0.991445
    outer loop
      vertex -201.447403 75.368904 -99.168182
      vertex -201.447403 74.547150 -99.059998
      vertex -210.972397 75.368904 -99.168182
    endloop
  endfacet
  facet normal -0.000000 -0.382685 -0.923879
    outer loop
      vertex -201.447403 76.134651 -99.485367
      vertex -201.447403 75.368904 -99.168182
      vertex -210.972397 76.134651 -99.485367
    endloop
  endfacet
  facet normal -0.000000 -0.382685 -0.923879
    outer loop
      vertex -201.447403 75.368904 -99.168182
      vertex -210.972397 75.368904 -99.168182
      vertex -210.972397 76.134651 -99.485367
    endloop
  endfacet
  facet normal -0.000000 -0.608765 -0.793351
    outer loop
      vertex -201.447403 76.792213 -99.989937
      vertex -201.447403 76.134651 -99.485367
      vertex -210.972397 76.792213 -99.989937
    endloop
  endfacet
  facet normal 0.000000 -0.793351 -0.608765
    outer loop
      vertex -201.447403 77.296783 -100.647499
      vertex -201.447403 76.792213 -99.989937
      vertex -210.972397 76.792213 -99.989937
    endloop
  endfacet
  facet normal -0.000000 -0.608765 -0.793351
    outer loop
      vertex -201.447403 76.134651 -99.485367
      vertex -210.972397 76.134651 -99.485367
      vertex -210.972397 76.792213 -99.989937
    endloop
  endfacet
  facet normal 0.000000 -0.923879 -0.382685
    outer loop
      vertex -201.447403 77.613968 -101.413246
      vertex -201.447403 77.296783 -100.647499
      vertex -210.972397 77.296783 -100.647499
    endloop
  endfacet
  facet normal -0.000000 -0.793351 -0.608765
    outer loop
      vertex -201.447403 77.296783 -100.647499
      vertex -210.972397 76.792213 -99.989937
      vertex -210.972397 77.296783 -100.647499
    endloop
  endfacet
  facet normal 0.000000 -0.991445 -0.130525
    outer loop
      vertex -201.447403 77.722153 -102.235001
      vertex -201.447403 77.613968 -101.413246
      vertex -210.972397 77.613968 -101.413246
    endloop
  endfacet
  facet normal -0.000000 -0.923879 -0.382685
    outer loop
      vertex -201.447403 77.613968 -101.413246
      vertex -210.972397 77.296783 -100.647499
      vertex -210.972397 77.613968 -101.413246
    endloop
  endfacet
  facet normal 0.000000 -0.991445 0.130526
    outer loop
      vertex -201.447403 77.613968 -103.056747
      vertex -201.447403 77.722153 -102.235001
      vertex -210.972397 77.722153 -102.235001
    endloop
  endfacet
  facet normal -0.000000 -0.991445 -0.130525
    outer loop
      vertex -201.447403 77.722153 -102.235001
      vertex -210.972397 77.613968 -101.413246
      vertex -210.972397 77.722153 -102.235001
    endloop
  endfacet
  facet normal 0.000000 -0.923880 0.382682
    outer loop
      vertex -201.447403 77.296783 -103.822502
      vertex -201.447403 77.613968 -103.056747
      vertex -210.972397 77.613968 -103.056747
    endloop
  endfacet
  facet normal 0.000000 -0.991445 0.130526
    outer loop
      vertex -201.447403 77.613968 -103.056747
      vertex -210.972397 77.722153 -102.235001
      vertex -210.972397 77.613968 -103.056747
    endloop
  endfacet
  facet normal 0.000000 -0.793351 0.608765
    outer loop
      vertex -201.447403 76.792213 -104.480064
      vertex -201.447403 77.296783 -103.822502
      vertex -210.972397 77.296783 -103.822502
    endloop
  endfacet
  facet normal 0.000000 -0.923880 0.382682
    outer loop
      vertex -201.447403 77.296783 -103.822502
      vertex -210.972397 77.613968 -103.056747
      vertex -210.972397 77.296783 -103.822502
    endloop
  endfacet
  facet normal 0.000000 -0.608765 0.793351
    outer loop
      vertex -201.447403 76.134651 -104.984634
      vertex -201.447403 76.792213 -104.480064
      vertex -210.972397 76.792213 -104.480064
    endloop
  endfacet
  facet normal 0.000000 -0.793351 0.608765
    outer loop
      vertex -201.447403 76.792213 -104.480064
      vertex -210.972397 77.296783 -103.822502
      vertex -210.972397 76.792213 -104.480064
    endloop
  endfacet
  facet normal 0.000000 -0.608765 0.793351
    outer loop
      vertex -201.447403 76.134651 -104.984634
      vertex -210.972397 76.792213 -104.480064
      vertex -210.972397 76.134651 -104.984634
    endloop
  endfacet
  facet normal 0.000000 -0.382677 0.923882
    outer loop
      vertex -201.447403 75.368904 -105.301811
      vertex -201.447403 76.134651 -104.984634
      vertex -210.972397 75.368904 -105.301811
    endloop
  endfacet
  facet normal 0.000000 -0.382677 0.923882
    outer loop
      vertex -201.447403 76.134651 -104.984634
      vertex -210.972397 76.134651 -104.984634
      vertex -210.972397 75.368904 -105.301811
    endloop
  endfacet
  facet normal 0.000000 -0.130534 0.991444
    outer loop
      vertex -201.447403 74.547150 -105.410004
      vertex -201.447403 75.368904 -105.301811
      vertex -210.972397 74.547150 -105.410004
    endloop
  endfacet
  facet normal 0.000000 -0.130534 0.991444
    outer loop
      vertex -201.447403 75.368904 -105.301811
      vertex -210.972397 75.368904 -105.301811
      vertex -210.972397 74.547150 -105.410004
    endloop
  endfacet
  facet normal 0.000000 0.130535 0.991444
    outer loop
      vertex -201.447403 74.547150 -105.410004
      vertex -210.972397 74.547150 -105.410004
      vertex -210.972397 73.725403 -105.301811
    endloop
  endfacet
  facet normal 0.000000 0.130535 0.991444
    outer loop
      vertex -201.447403 73.725403 -105.301811
      vertex -201.447403 74.547150 -105.410004
      vertex -210.972397 73.725403 -105.301811
    endloop
  endfacet
  facet normal 0.000000 0.382677 0.923882
    outer loop
      vertex -201.447403 72.959656 -104.984634
      vertex -201.447403 73.725403 -105.301811
      vertex -210.972397 72.959656 -104.984634
    endloop
  endfacet
  facet normal 0.000000 0.382677 0.923882
    outer loop
      vertex -201.447403 73.725403 -105.301811
      vertex -210.972397 73.725403 -105.301811
      vertex -210.972397 72.959656 -104.984634
    endloop
  endfacet
  facet normal 0.000000 0.608761 0.793354
    outer loop
      vertex -201.447403 72.302086 -104.480064
      vertex -201.447403 72.959656 -104.984634
      vertex -210.972397 72.302086 -104.480064
    endloop
  endfacet
  facet normal 0.000000 0.793355 0.608759
    outer loop
      vertex -201.447403 71.797523 -103.822502
      vertex -201.447403 72.302086 -104.480064
      vertex -210.972397 72.302086 -104.480064
    endloop
  endfacet
  facet normal 0.000000 0.608761 0.793354
    outer loop
      vertex -201.447403 72.959656 -104.984634
      vertex -210.972397 72.959656 -104.984634
      vertex -210.972397 72.302086 -104.480064
    endloop
  endfacet
  facet normal 0.000000 0.923880 0.382682
    outer loop
      vertex -201.447403 71.480339 -103.056747
      vertex -201.447403 71.797523 -103.822502
      vertex -210.972397 71.797523 -103.822502
    endloop
  endfacet
  facet normal 0.000000 0.793355 0.608759
    outer loop
      vertex -201.447403 71.797523 -103.822502
      vertex -210.972397 72.302086 -104.480064
      vertex -210.972397 71.797523 -103.822502
    endloop
  endfacet
  facet normal 0.000000 0.923880 0.382682
    outer loop
      vertex -201.447403 71.480339 -103.056747
      vertex -210.972397 71.797523 -103.822502
      vertex -210.972397 71.480339 -103.056747
    endloop
  endfacet
  facet normal 0.000000 0.991445 0.130526
    outer loop
      vertex -201.447403 71.372154 -102.235001
      vertex -201.447403 71.480339 -103.056747
      vertex -210.972397 71.372154 -102.235001
    endloop
  endfacet
  facet normal 0.000000 0.991445 -0.130525
    outer loop
      vertex -201.447403 71.480339 -101.413246
      vertex -201.447403 71.372154 -102.235001
      vertex -210.972397 71.372154 -102.235001
    endloop
  endfacet
  facet normal 0.000000 0.991445 0.130526
    outer loop
      vertex -201.447403 71.480339 -103.056747
      vertex -210.972397 71.480339 -103.056747
      vertex -210.972397 71.372154 -102.235001
    endloop
  endfacet
  facet normal 0.000000 0.923879 -0.382685
    outer loop
      vertex -201.447403 71.797523 -100.647499
      vertex -201.447403 71.480339 -101.413246
      vertex -210.972397 71.480339 -101.413246
    endloop
  endfacet
  facet normal 0.000000 0.991445 -0.130525
    outer loop
      vertex -201.447403 71.480339 -101.413246
      vertex -210.972397 71.372154 -102.235001
      vertex -210.972397 71.480339 -101.413246
    endloop
  endfacet
  facet normal 0.000000 0.793355 -0.608759
    outer loop
      vertex -201.447403 72.302086 -99.989937
      vertex -201.447403 71.797523 -100.647499
      vertex -210.972397 71.797523 -100.647499
    endloop
  endfacet
  facet normal 0.000000 0.923879 -0.382685
    outer loop
      vertex -201.447403 71.797523 -100.647499
      vertex -210.972397 71.480339 -101.413246
      vertex -210.972397 71.797523 -100.647499
    endloop
  endfacet
  facet normal 0.000000 0.793355 -0.608759
    outer loop
      vertex -201.447403 72.302086 -99.989937
      vertex -210.972397 71.797523 -100.647499
      vertex -210.972397 72.302086 -99.989937
    endloop
  endfacet
  facet normal 0.000000 0.608761 -0.793354
    outer loop
      vertex -201.447403 72.959656 -99.485367
      vertex -201.447403 72.302086 -99.989937
      vertex -210.972397 72.959656 -99.485367
    endloop
  endfacet
  facet normal 0.000000 0.608761 -0.793354
    outer loop
      vertex -201.447403 72.302086 -99.989937
      vertex -210.972397 72.302086 -99.989937
      vertex -210.972397 72.959656 -99.485367
    endloop
  endfacet
  facet normal 0.000000 0.382685 -0.923879
    outer loop
      vertex -201.447403 73.725403 -99.168182
      vertex -201.447403 72.959656 -99.485367
      vertex -210.972397 73.725403 -99.168182
    endloop
  endfacet
  facet normal 0.000000 0.130526 -0.991445
    outer loop
      vertex -201.447403 74.547150 -99.059998
      vertex -201.447403 73.725403 -99.168182
      vertex -210.972397 73.725403 -99.168182
    endloop
  endfacet
  facet normal 0.000000 0.382685 -0.923879
    outer loop
      vertex -201.447403 72.959656 -99.485367
      vertex -210.972397 72.959656 -99.485367
      vertex -210.972397 73.725403 -99.168182
    endloop
  endfacet
  facet normal 0.000000 0.130526 -0.991445
    outer loop
      vertex -201.447403 74.547150 -99.059998
      vertex -210.972397 73.725403 -99.168182
      vertex -210.972397 74.547150 -99.059998
    endloop
  endfacet
endsolid Mesh
