solid Mesh
  facet normal 0.130528 0.000000 -0.991445
    outer loop
      vertex -18.855749 75.022522 -30.322237
      vertex -18.034000 75.022522 -30.214050
      vertex -18.034000 65.278000 -30.214050
    endloop
  endfacet
  facet normal 0.130528 0.000000 -0.991445
    outer loop
      vertex -18.855749 75.022522 -30.322237
      vertex -18.034000 65.278000 -30.214050
      vertex -18.855749 65.278000 -30.322237
    endloop
  endfacet
  facet normal 0.382682 0.000000 -0.923880
    outer loop
      vertex -19.621500 75.022522 -30.639420
      vertex -18.855749 75.022522 -30.322237
      vertex -19.621500 65.278000 -30.639420
    endloop
  endfacet
  facet normal 0.382682 0.000000 -0.923880
    outer loop
      vertex -18.855749 75.022522 -30.322237
      vertex -18.855749 65.278000 -30.322237
      vertex -19.621500 65.278000 -30.639420
    endloop
  endfacet
  facet normal 0.608763 0.000000 -0.793353
    outer loop
      vertex -20.279064 75.022522 -31.143988
      vertex -19.621500 75.022522 -30.639420
      vertex -20.279064 65.278000 -31.143988
    endloop
  endfacet
  facet normal 0.608763 0.000000 -0.793353
    outer loop
      vertex -19.621500 75.022522 -30.639420
      vertex -19.621500 65.278000 -30.639420
      vertex -20.279064 65.278000 -31.143988
    endloop
  endfacet
  facet normal 0.793354 0.000000 -0.608761
    outer loop
      vertex -20.783630 75.022522 -31.801552
      vertex -20.279064 75.022522 -31.143988
      vertex -20.783630 65.278000 -31.801552
    endloop
  endfacet
  facet normal 0.793354 0.000000 -0.608761
    outer loop
      vertex -20.279064 75.022522 -31.143988
      vertex -20.279064 65.278000 -31.143988
      vertex -20.783630 65.278000 -31.801552
    endloop
  endfacet
  facet normal 0.923879 0.000000 -0.382685
    outer loop
      vertex -21.100815 75.022522 -32.567299
      vertex -20.783630 75.022522 -31.801552
      vertex -21.100815 65.278000 -32.567299
    endloop
  endfacet
  facet normal 0.923879 0.000000 -0.382685
    outer loop
      vertex -20.783630 75.022522 -31.801552
      vertex -20.783630 65.278000 -31.801552
      vertex -21.100815 65.278000 -32.567299
    endloop
  endfacet
  facet normal 0.991445 0.000000 -0.130525
    outer loop
      vertex -21.209000 75.022522 -33.389050
      vertex -21.100815 75.022522 -32.567299
      vertex -21.209000 65.278000 -33.389050
    endloop
  endfacet
  facet normal 0.991445 0.000000 -0.130525
    outer loop
      vertex -21.100815 75.022522 -32.567299
      vertex -21.100815 65.278000 -32.567299
      vertex -21.209000 65.278000 -33.389050
    endloop
  endfacet
  facet normal 0.991445 0.000000 0.130525
    outer loop
      vertex -21.100815 75.022522 -34.210800
      vertex -21.209000 75.022522 -33.389050
      vertex -21.100815 65.278000 -34.210800
    endloop
  endfacet
  facet normal 0.991445 0.000000 0.130525
    outer loop
      vertex -21.209000 75.022522 -33.389050
      vertex -21.209000 65.278000 -33.389050
      vertex -21.100815 65.278000 -34.210800
    endloop
  endfacet
  facet normal 0.923879 0.000000 0.382683
    outer loop
      vertex -20.783630 75.022522 -34.976551
      vertex -21.100815 75.022522 -34.210800
      vertex -20.783630 65.278000 -34.976551
    endloop
  endfacet
  facet normal 0.923879 0.000000 0.382683
    outer loop
      vertex -21.100815 75.022522 -34.210800
      vertex -21.100815 65.278000 -34.210800
      vertex -20.783630 65.278000 -34.976551
    endloop
  endfacet
  facet normal 0.793353 0.000000 0.608762
    outer loop
      vertex -20.279064 75.022522 -35.634113
      vertex -20.783630 75.022522 -34.976551
      vertex -20.279064 65.278000 -35.634113
    endloop
  endfacet
  facet normal 0.793353 0.000000 0.608762
    outer loop
      vertex -20.783630 75.022522 -34.976551
      vertex -20.783630 65.278000 -34.976551
      vertex -20.279064 65.278000 -35.634113
    endloop
  endfacet
  facet normal 0.608764 0.000000 0.793351
    outer loop
      vertex -19.621500 75.022522 -36.138683
      vertex -20.279064 75.022522 -35.634113
      vertex -19.621500 65.278000 -36.138683
    endloop
  endfacet
  facet normal 0.608764 0.000000 0.793351
    outer loop
      vertex -20.279064 75.022522 -35.634113
      vertex -20.279064 65.278000 -35.634113
      vertex -19.621500 65.278000 -36.138683
    endloop
  endfacet
  facet normal 0.382680 0.000000 0.923881
    outer loop
      vertex -18.855749 75.022522 -36.455864
      vertex -19.621500 75.022522 -36.138683
      vertex -18.855749 65.278000 -36.455864
    endloop
  endfacet
  facet normal 0.382680 0.000000 0.923881
    outer loop
      vertex -19.621500 75.022522 -36.138683
      vertex -19.621500 65.278000 -36.138683
      vertex -18.855749 65.278000 -36.455864
    endloop
  endfacet
  facet normal 0.130530 0.000000 0.991444
    outer loop
      vertex -18.034000 75.022522 -36.564053
      vertex -18.855749 75.022522 -36.455864
      vertex -18.034000 65.278000 -36.564053
    endloop
  endfacet
  facet normal 0.130530 0.000000 0.991444
    outer loop
      vertex -18.855749 75.022522 -36.455864
      vertex -18.855749 65.278000 -36.455864
      vertex -18.034000 65.278000 -36.564053
    endloop
  endfacet
  facet normal 0.000000 -1.000000 0.000000
    outer loop
      vertex -14.967185 65.278000 -34.210800
      vertex 14.967186 65.278000 -34.210800
      vertex -14.858999 65.278000 -33.389050
    endloop
  endfacet
  facet normal 0.000000 -1.000000 0.000000
    outer loop
      vertex 14.967186 65.278000 -34.210800
      vertex 14.859000 65.278000 -33.389050
      vertex -14.858999 65.278000 -33.389050
    endloop
  endfacet
  facet normal 0.000000 -1.000000 0.000000
    outer loop
      vertex 34.924999 65.278000 -40.989697
      vertex 20.279064 65.278000 -35.634113
      vertex 19.621500 65.278000 -36.138680
    endloop
  endfacet
  facet normal 0.000000 -1.000000 0.000000
    outer loop
      vertex -14.858999 65.278000 -33.389050
      vertex 14.859000 65.278000 -33.389050
      vertex -14.967185 65.278000 -32.567299
    endloop
  endfacet
  facet normal 0.000000 -1.000000 0.000000
    outer loop
      vertex 20.279064 65.278000 -35.634113
      vertex 34.924999 65.278000 -40.989697
      vertex 20.783630 65.278000 -34.976551
    endloop
  endfacet
  facet normal 0.000000 -1.000000 0.000000
    outer loop
      vertex 14.859000 65.278000 -33.389050
      vertex 14.967186 65.278000 -32.567299
      vertex -14.967185 65.278000 -32.567299
    endloop
  endfacet
  facet normal 0.000000 -1.000000 0.000000
    outer loop
      vertex 20.783630 65.278000 -34.976551
      vertex 34.924999 65.278000 -40.989697
      vertex 21.100815 65.278000 -34.210800
    endloop
  endfacet
  facet normal 0.000000 -1.000000 0.000000
    outer loop
      vertex 34.924999 65.278000 -40.989697
      vertex 19.621500 65.278000 -36.138680
      vertex 18.855751 65.278000 -36.455864
    endloop
  endfacet
  facet normal 0.000000 -1.000000 0.000000
    outer loop
      vertex -14.967185 65.278000 -32.567299
      vertex 14.967186 65.278000 -32.567299
      vertex -15.284369 65.278000 -31.801552
    endloop
  endfacet
  facet normal 0.000000 -1.000000 0.000000
    outer loop
      vertex 14.967186 65.278000 -32.567299
      vertex 15.284369 65.278000 -31.801550
      vertex -15.284369 65.278000 -31.801552
    endloop
  endfacet
  facet normal 0.000000 -1.000000 0.000000
    outer loop
      vertex 34.924999 65.278000 -40.989697
      vertex 18.855751 65.278000 -36.455864
      vertex 18.034000 65.278000 -36.564049
    endloop
  endfacet
  facet normal 0.000000 -1.000000 0.000000
    outer loop
      vertex 34.924999 65.278000 -40.989697
      vertex 34.924999 65.278000 -27.064449
      vertex 21.209000 65.278000 -33.389050
    endloop
  endfacet
  facet normal 0.000000 -1.000000 0.000000
    outer loop
      vertex 21.100815 65.278000 -34.210800
      vertex 34.924999 65.278000 -40.989697
      vertex 21.209000 65.278000 -33.389050
    endloop
  endfacet
  facet normal 0.000000 -1.000000 0.000000
    outer loop
      vertex -15.284369 65.278000 -31.801552
      vertex 15.284369 65.278000 -31.801550
      vertex -15.788936 65.278000 -31.143988
    endloop
  endfacet
  facet normal 0.000000 -1.000000 0.000000
    outer loop
      vertex 15.284369 65.278000 -31.801550
      vertex 15.788936 65.278000 -31.143986
      vertex -15.788936 65.278000 -31.143988
    endloop
  endfacet
  facet normal 0.000000 -1.000000 0.000000
    outer loop
      vertex 21.209000 65.278000 -33.389050
      vertex 34.924999 65.278000 -27.064449
      vertex 21.100815 65.278000 -32.567299
    endloop
  endfacet
  facet normal 0.000000 -1.000000 0.000000
    outer loop
      vertex -15.788936 65.278000 -31.143988
      vertex 15.788936 65.278000 -31.143986
      vertex -16.446499 65.278000 -30.639420
    endloop
  endfacet
  facet normal 0.000000 -1.000000 0.000000
    outer loop
      vertex 15.788936 65.278000 -31.143986
      vertex 16.446501 65.278000 -30.639420
      vertex -16.446499 65.278000 -30.639420
    endloop
  endfacet
  facet normal 0.000000 -1.000000 0.000000
    outer loop
      vertex 34.924999 65.278000 -40.989697
      vertex 18.034000 65.278000 -36.564049
      vertex 17.212250 65.278000 -36.455864
    endloop
  endfacet
  facet normal 0.000000 -1.000000 0.000000
    outer loop
      vertex 21.100815 65.278000 -32.567299
      vertex 34.924999 65.278000 -27.064449
      vertex 20.783630 65.278000 -31.801550
    endloop
  endfacet
  facet normal 0.000000 -1.000000 0.000000
    outer loop
      vertex 20.783630 65.278000 -31.801550
      vertex 34.924999 65.278000 -27.064449
      vertex 20.279064 65.278000 -31.143986
    endloop
  endfacet
  facet normal 0.000000 -1.000000 0.000000
    outer loop
      vertex 20.279064 65.278000 -31.143986
      vertex 34.924999 65.278000 -27.064449
      vertex 19.621500 65.278000 -30.639420
    endloop
  endfacet
  facet normal 0.000000 -1.000000 0.000000
    outer loop
      vertex 19.621500 65.278000 -30.639420
      vertex 34.924999 65.278000 -27.064449
      vertex 18.855751 65.278000 -30.322235
    endloop
  endfacet
  facet normal 0.000000 -1.000000 0.000000
    outer loop
      vertex 18.855751 65.278000 -30.322235
      vertex 34.924999 65.278000 -27.064449
      vertex 18.034000 65.278000 -30.214050
    endloop
  endfacet
  facet normal 0.000000 -1.000000 0.000000
    outer loop
      vertex -17.212250 65.278000 -36.455864
      vertex -18.034000 65.278000 -36.564053
      vertex -34.924999 65.278000 -40.989697
    endloop
  endfacet
  facet normal 0.000000 -1.000000 0.000000
    outer loop
      vertex 34.924999 65.278000 -40.989697
      vertex -17.212250 65.278000 -36.455864
      vertex -34.924999 65.278000 -40.989697
    endloop
  endfacet
  facet normal -0.000000 -1.000000 0.000000
    outer loop
      vertex -21.100815 65.278000 -34.210800
      vertex -21.209000 65.278000 -33.389050
      vertex -34.924999 65.278000 -40.989697
    endloop
  endfacet
  facet normal -0.000000 -1.000000 0.000000
    outer loop
      vertex -20.783630 65.278000 -34.976551
      vertex -21.100815 65.278000 -34.210800
      vertex -34.924999 65.278000 -40.989697
    endloop
  endfacet
  facet normal -0.000000 -1.000000 0.000000
    outer loop
      vertex -20.279064 65.278000 -35.634113
      vertex -20.783630 65.278000 -34.976551
      vertex -34.924999 65.278000 -40.989697
    endloop
  endfacet
  facet normal -0.000000 -1.000000 0.000000
    outer loop
      vertex -19.621500 65.278000 -36.138683
      vertex -20.279064 65.278000 -35.634113
      vertex -34.924999 65.278000 -40.989697
    endloop
  endfacet
  facet normal -0.000000 -1.000000 0.000000
    outer loop
      vertex -18.855749 65.278000 -36.455864
      vertex -19.621500 65.278000 -36.138683
      vertex -34.924999 65.278000 -40.989697
    endloop
  endfacet
  facet normal -0.000000 -1.000000 0.000000
    outer loop
      vertex -18.034000 65.278000 -36.564053
      vertex -18.855749 65.278000 -36.455864
      vertex -34.924999 65.278000 -40.989697
    endloop
  endfacet
  facet normal 0.000000 -1.000000 0.000000
    outer loop
      vertex -18.855749 65.278000 -30.322237
      vertex -18.034000 65.278000 -30.214050
      vertex -34.924999 65.278000 -27.064449
    endloop
  endfacet
  facet normal 0.000000 -1.000000 0.000000
    outer loop
      vertex -19.621500 65.278000 -30.639420
      vertex -18.855749 65.278000 -30.322237
      vertex -34.924999 65.278000 -27.064449
    endloop
  endfacet
  facet normal 0.000000 -1.000000 0.000000
    outer loop
      vertex -20.279064 65.278000 -31.143988
      vertex -19.621500 65.278000 -30.639420
      vertex -34.924999 65.278000 -27.064449
    endloop
  endfacet
  facet normal 0.000000 -1.000000 0.000000
    outer loop
      vertex -20.783630 65.278000 -31.801552
      vertex -20.279064 65.278000 -31.143988
      vertex -34.924999 65.278000 -27.064449
    endloop
  endfacet
  facet normal 0.000000 -1.000000 0.000000
    outer loop
      vertex -21.100815 65.278000 -32.567299
      vertex -20.783630 65.278000 -31.801552
      vertex -34.924999 65.278000 -27.064449
    endloop
  endfacet
  facet normal 0.000000 -1.000000 0.000000
    outer loop
      vertex -21.209000 65.278000 -33.389050
      vertex -21.100815 65.278000 -32.567299
      vertex -34.924999 65.278000 -27.064449
    endloop
  endfacet
  facet normal 0.000000 -1.000000 0.000000
    outer loop
      vertex -34.924999 65.278000 -40.989697
      vertex -21.209000 65.278000 -33.389050
      vertex -34.924999 65.278000 -27.064449
    endloop
  endfacet
  facet normal 0.000000 -1.000000 0.000000
    outer loop
      vertex 18.034000 65.278000 -30.214050
      vertex 34.924999 65.278000 -27.064449
      vertex -34.924999 65.278000 -27.064449
    endloop
  endfacet
  facet normal 0.000000 -1.000000 0.000000
    outer loop
      vertex 17.212250 65.278000 -30.322235
      vertex 18.034000 65.278000 -30.214050
      vertex -34.924999 65.278000 -27.064449
    endloop
  endfacet
  facet normal 0.000000 -1.000000 0.000000
    outer loop
      vertex 16.446501 65.278000 -30.639420
      vertex 17.212250 65.278000 -30.322235
      vertex -34.924999 65.278000 -27.064449
    endloop
  endfacet
  facet normal 0.000000 -1.000000 0.000000
    outer loop
      vertex -18.034000 65.278000 -30.214050
      vertex 16.446501 65.278000 -30.639420
      vertex -34.924999 65.278000 -27.064449
    endloop
  endfacet
  facet normal 0.000000 -1.000000 0.000000
    outer loop
      vertex -17.212250 65.278000 -30.322237
      vertex 16.446501 65.278000 -30.639420
      vertex -18.034000 65.278000 -30.214050
    endloop
  endfacet
  facet normal 0.000000 -1.000000 0.000000
    outer loop
      vertex -16.446499 65.278000 -30.639420
      vertex 16.446501 65.278000 -30.639420
      vertex -17.212250 65.278000 -30.322237
    endloop
  endfacet
  facet normal 0.000000 -1.000000 0.000000
    outer loop
      vertex 16.446501 65.278000 -36.138680
      vertex 15.788936 65.278000 -35.634113
      vertex -15.788936 65.278000 -35.634113
    endloop
  endfacet
  facet normal 0.000000 -1.000000 0.000000
    outer loop
      vertex 17.212250 65.278000 -36.455864
      vertex 16.446501 65.278000 -36.138680
      vertex -16.446499 65.278000 -36.138683
    endloop
  endfacet
  facet normal -0.000000 -1.000000 0.000000
    outer loop
      vertex 16.446501 65.278000 -36.138680
      vertex -15.788936 65.278000 -35.634113
      vertex -16.446499 65.278000 -36.138683
    endloop
  endfacet
  facet normal 0.000000 -1.000000 0.000000
    outer loop
      vertex 15.788936 65.278000 -35.634113
      vertex 15.284369 65.278000 -34.976551
      vertex -15.284369 65.278000 -34.976551
    endloop
  endfacet
  facet normal 0.000000 -1.000000 0.000000
    outer loop
      vertex -15.788936 65.278000 -35.634113
      vertex 15.788936 65.278000 -35.634113
      vertex -15.284369 65.278000 -34.976551
    endloop
  endfacet
  facet normal 0.000000 -1.000000 0.000000
    outer loop
      vertex 17.212250 65.278000 -36.455864
      vertex -16.446499 65.278000 -36.138683
      vertex -17.212250 65.278000 -36.455864
    endloop
  endfacet
  facet normal 0.000000 -1.000000 0.000000
    outer loop
      vertex 34.924999 65.278000 -40.989697
      vertex 17.212250 65.278000 -36.455864
      vertex -17.212250 65.278000 -36.455864
    endloop
  endfacet
  facet normal 0.000000 -1.000000 0.000000
    outer loop
      vertex -15.284369 65.278000 -34.976551
      vertex 15.284369 65.278000 -34.976551
      vertex -14.967185 65.278000 -34.210800
    endloop
  endfacet
  facet normal 0.000000 -1.000000 0.000000
    outer loop
      vertex 15.284369 65.278000 -34.976551
      vertex 14.967186 65.278000 -34.210800
      vertex -14.967185 65.278000 -34.210800
    endloop
  endfacet
  facet normal 1.000000 0.000000 0.000000
    outer loop
      vertex 34.924999 70.991219 -40.989697
      vertex 34.924999 65.278000 -27.064449
      vertex 34.924999 65.278000 -40.989697
    endloop
  endfacet
  facet normal 1.000000 0.000000 -0.000000
    outer loop
      vertex 34.924999 70.991219 -40.989697
      vertex 34.924999 75.022522 -27.064449
      vertex 34.924999 65.278000 -27.064449
    endloop
  endfacet
  facet normal 1.000000 0.000000 0.000000
    outer loop
      vertex 34.924999 75.022522 -47.313396
      vertex 34.924999 70.991219 -40.989697
      vertex 34.924999 70.991219 -47.313396
    endloop
  endfacet
  facet normal 1.000000 0.000000 -0.000000
    outer loop
      vertex 34.924999 75.022522 -47.313396
      vertex 34.924999 75.022522 -27.064449
      vertex 34.924999 70.991219 -40.989697
    endloop
  endfacet
  facet normal 0.000000 1.000000 -0.000000
    outer loop
      vertex -14.858999 75.022522 -33.389050
      vertex -14.967185 75.022522 -32.567299
      vertex 14.859000 75.022522 -33.389050
    endloop
  endfacet
  facet normal 0.000000 1.000000 0.000000
    outer loop
      vertex 14.967186 75.022522 -34.210800
      vertex -14.858999 75.022522 -33.389050
      vertex 14.859000 75.022522 -33.389050
    endloop
  endfacet
  facet normal 0.000000 1.000000 0.000000
    outer loop
      vertex -20.279064 75.022522 -35.634113
      vertex -34.924999 75.022522 -47.313396
      vertex -20.783630 75.022522 -34.976551
    endloop
  endfacet
  facet normal 0.000000 1.000000 0.000000
    outer loop
      vertex -34.924999 75.022522 -47.313396
      vertex -20.279064 75.022522 -35.634113
      vertex -19.621500 75.022522 -36.138683
    endloop
  endfacet
  facet normal 0.000000 1.000000 -0.000000
    outer loop
      vertex 14.859000 75.022522 -33.389050
      vertex -14.967185 75.022522 -32.567299
      vertex 14.967186 75.022522 -32.567299
    endloop
  endfacet
  facet normal 0.000000 1.000000 0.000000
    outer loop
      vertex -34.924999 75.022522 -47.313396
      vertex -34.924999 75.022522 -27.064449
      vertex -21.100815 75.022522 -34.210800
    endloop
  endfacet
  facet normal 0.000000 1.000000 -0.000000
    outer loop
      vertex -14.967185 75.022522 -32.567299
      vertex -15.284369 75.022522 -31.801552
      vertex 14.967186 75.022522 -32.567299
    endloop
  endfacet
  facet normal 0.000000 1.000000 0.000000
    outer loop
      vertex -20.783630 75.022522 -34.976551
      vertex -34.924999 75.022522 -47.313396
      vertex -21.100815 75.022522 -34.210800
    endloop
  endfacet
  facet normal 0.000000 1.000000 -0.000000
    outer loop
      vertex -15.284369 75.022522 -31.801552
      vertex -15.788936 75.022522 -31.143988
      vertex 15.284369 75.022522 -31.801550
    endloop
  endfacet
  facet normal 0.000000 1.000000 0.000000
    outer loop
      vertex -34.924999 75.022522 -47.313396
      vertex -19.621500 75.022522 -36.138683
      vertex -18.855749 75.022522 -36.455864
    endloop
  endfacet
  facet normal 0.000000 1.000000 -0.000000
    outer loop
      vertex 14.967186 75.022522 -32.567299
      vertex -15.284369 75.022522 -31.801552
      vertex 15.284369 75.022522 -31.801550
    endloop
  endfacet
  facet normal 0.000000 1.000000 0.000000
    outer loop
      vertex -21.100815 75.022522 -34.210800
      vertex -34.924999 75.022522 -27.064449
      vertex -21.209000 75.022522 -33.389050
    endloop
  endfacet
  facet normal 0.000000 1.000000 -0.000000
    outer loop
      vertex 15.284369 75.022522 -31.801550
      vertex -15.788936 75.022522 -31.143988
      vertex 15.788936 75.022522 -31.143986
    endloop
  endfacet
  facet normal 0.000000 1.000000 0.000000
    outer loop
      vertex -34.924999 75.022522 -47.313396
      vertex -18.855749 75.022522 -36.455864
      vertex -18.034000 75.022522 -36.564053
    endloop
  endfacet
  facet normal 0.000000 1.000000 -0.000000
    outer loop
      vertex -15.788936 75.022522 -31.143988
      vertex -16.446499 75.022522 -30.639420
      vertex 15.788936 75.022522 -31.143986
    endloop
  endfacet
  facet normal 0.000000 1.000000 -0.000000
    outer loop
      vertex -21.209000 75.022522 -33.389050
      vertex -34.924999 75.022522 -27.064449
      vertex -21.100815 75.022522 -32.567299
    endloop
  endfacet
  facet normal 0.000000 1.000000 0.000000
    outer loop
      vertex -34.924999 75.022522 -47.313396
      vertex -18.034000 75.022522 -36.564053
      vertex -17.212250 75.022522 -36.455864
    endloop
  endfacet
  facet normal 0.000000 1.000000 -0.000000
    outer loop
      vertex -21.100815 75.022522 -32.567299
      vertex -34.924999 75.022522 -27.064449
      vertex -20.783630 75.022522 -31.801552
    endloop
  endfacet
  facet normal 0.000000 1.000000 -0.000000
    outer loop
      vertex 15.788936 75.022522 -31.143986
      vertex -16.446499 75.022522 -30.639420
      vertex 16.446501 75.022522 -30.639420
    endloop
  endfacet
  facet normal -0.000000 1.000000 0.000000
    outer loop
      vertex -17.212250 75.022522 -36.455864
      vertex 17.212250 75.022522 -36.455864
      vertex 34.924999 75.022522 -47.313396
    endloop
  endfacet
  facet normal 0.000000 1.000000 0.000000
    outer loop
      vertex 17.212250 75.022522 -36.455864
      vertex 18.034000 75.022522 -36.564049
      vertex 34.924999 75.022522 -47.313396
    endloop
  endfacet
  facet normal 0.000000 1.000000 -0.000000
    outer loop
      vertex -20.783630 75.022522 -31.801552
      vertex -34.924999 75.022522 -27.064449
      vertex -20.279064 75.022522 -31.143988
    endloop
  endfacet
  facet normal -0.000000 1.000000 0.000000
    outer loop
      vertex 20.783630 75.022522 -34.976551
      vertex 21.100815 75.022522 -34.210800
      vertex 34.924999 75.022522 -47.313396
    endloop
  endfacet
  facet normal -0.000000 1.000000 0.000000
    outer loop
      vertex 20.279064 75.022522 -35.634113
      vertex 20.783630 75.022522 -34.976551
      vertex 34.924999 75.022522 -47.313396
    endloop
  endfacet
  facet normal -0.000000 1.000000 0.000000
    outer loop
      vertex 19.621500 75.022522 -36.138680
      vertex 20.279064 75.022522 -35.634113
      vertex 34.924999 75.022522 -47.313396
    endloop
  endfacet
  facet normal -0.000000 1.000000 0.000000
    outer loop
      vertex 18.855751 75.022522 -36.455864
      vertex 19.621500 75.022522 -36.138680
      vertex 34.924999 75.022522 -47.313396
    endloop
  endfacet
  facet normal -0.000000 1.000000 0.000000
    outer loop
      vertex 18.034000 75.022522 -36.564049
      vertex 18.855751 75.022522 -36.455864
      vertex 34.924999 75.022522 -47.313396
    endloop
  endfacet
  facet normal 0.000000 1.000000 0.000000
    outer loop
      vertex -34.924999 75.022522 -47.313396
      vertex -17.212250 75.022522 -36.455864
      vertex 34.924999 75.022522 -47.313396
    endloop
  endfacet
  facet normal 0.000000 1.000000 -0.000000
    outer loop
      vertex -20.279064 75.022522 -31.143988
      vertex -34.924999 75.022522 -27.064449
      vertex -19.621500 75.022522 -30.639420
    endloop
  endfacet
  facet normal 0.000000 1.000000 -0.000000
    outer loop
      vertex -19.621500 75.022522 -30.639420
      vertex -34.924999 75.022522 -27.064449
      vertex -18.855749 75.022522 -30.322237
    endloop
  endfacet
  facet normal 0.000000 1.000000 -0.000000
    outer loop
      vertex -18.855749 75.022522 -30.322237
      vertex -34.924999 75.022522 -27.064449
      vertex -18.034000 75.022522 -30.214050
    endloop
  endfacet
  facet normal 0.000000 1.000000 -0.000000
    outer loop
      vertex 34.924999 75.022522 -47.313396
      vertex 21.100815 75.022522 -34.210800
      vertex 34.924999 75.022522 -27.064449
    endloop
  endfacet
  facet normal 0.000000 1.000000 -0.000000
    outer loop
      vertex 18.855751 75.022522 -30.322235
      vertex 18.034000 75.022522 -30.214050
      vertex 34.924999 75.022522 -27.064449
    endloop
  endfacet
  facet normal 0.000000 1.000000 -0.000000
    outer loop
      vertex 19.621500 75.022522 -30.639420
      vertex 18.855751 75.022522 -30.322235
      vertex 34.924999 75.022522 -27.064449
    endloop
  endfacet
  facet normal 0.000000 1.000000 -0.000000
    outer loop
      vertex 20.279064 75.022522 -31.143986
      vertex 19.621500 75.022522 -30.639420
      vertex 34.924999 75.022522 -27.064449
    endloop
  endfacet
  facet normal 0.000000 1.000000 -0.000000
    outer loop
      vertex 20.783630 75.022522 -31.801550
      vertex 20.279064 75.022522 -31.143986
      vertex 34.924999 75.022522 -27.064449
    endloop
  endfacet
  facet normal 0.000000 1.000000 -0.000000
    outer loop
      vertex 21.100815 75.022522 -32.567299
      vertex 20.783630 75.022522 -31.801550
      vertex 34.924999 75.022522 -27.064449
    endloop
  endfacet
  facet normal 0.000000 1.000000 -0.000000
    outer loop
      vertex 21.209000 75.022522 -33.389050
      vertex 21.100815 75.022522 -32.567299
      vertex 34.924999 75.022522 -27.064449
    endloop
  endfacet
  facet normal 0.000000 1.000000 0.000000
    outer loop
      vertex 21.100815 75.022522 -34.210800
      vertex 21.209000 75.022522 -33.389050
      vertex 34.924999 75.022522 -27.064449
    endloop
  endfacet
  facet normal 0.000000 1.000000 -0.000000
    outer loop
      vertex 18.034000 75.022522 -30.214050
      vertex -34.924999 75.022522 -27.064449
      vertex 34.924999 75.022522 -27.064449
    endloop
  endfacet
  facet normal 0.000000 1.000000 -0.000000
    outer loop
      vertex 17.212250 75.022522 -30.322235
      vertex -34.924999 75.022522 -27.064449
      vertex 18.034000 75.022522 -30.214050
    endloop
  endfacet
  facet normal 0.000000 1.000000 -0.000000
    outer loop
      vertex 16.446501 75.022522 -30.639420
      vertex -34.924999 75.022522 -27.064449
      vertex 17.212250 75.022522 -30.322235
    endloop
  endfacet
  facet normal -0.000000 1.000000 -0.000000
    outer loop
      vertex -18.034000 75.022522 -30.214050
      vertex -34.924999 75.022522 -27.064449
      vertex 16.446501 75.022522 -30.639420
    endloop
  endfacet
  facet normal -0.000000 1.000000 -0.000000
    outer loop
      vertex -17.212250 75.022522 -30.322237
      vertex -18.034000 75.022522 -30.214050
      vertex 16.446501 75.022522 -30.639420
    endloop
  endfacet
  facet normal 0.000000 1.000000 -0.000000
    outer loop
      vertex -16.446499 75.022522 -30.639420
      vertex -17.212250 75.022522 -30.322237
      vertex 16.446501 75.022522 -30.639420
    endloop
  endfacet
  facet normal 0.000000 1.000000 0.000000
    outer loop
      vertex -15.788936 75.022522 -35.634113
      vertex -15.284369 75.022522 -34.976551
      vertex 15.788936 75.022522 -35.634113
    endloop
  endfacet
  facet normal 0.000000 1.000000 0.000000
    outer loop
      vertex -15.284369 75.022522 -34.976551
      vertex -14.967185 75.022522 -34.210800
      vertex 15.284369 75.022522 -34.976551
    endloop
  endfacet
  facet normal 0.000000 1.000000 0.000000
    outer loop
      vertex 15.788936 75.022522 -35.634113
      vertex -15.284369 75.022522 -34.976551
      vertex 15.284369 75.022522 -34.976551
    endloop
  endfacet
  facet normal 0.000000 1.000000 0.000000
    outer loop
      vertex -16.446499 75.022522 -36.138683
      vertex -15.788936 75.022522 -35.634113
      vertex 16.446501 75.022522 -36.138680
    endloop
  endfacet
  facet normal -0.000000 1.000000 0.000000
    outer loop
      vertex -15.788936 75.022522 -35.634113
      vertex 15.788936 75.022522 -35.634113
      vertex 16.446501 75.022522 -36.138680
    endloop
  endfacet
  facet normal -0.000000 1.000000 0.000000
    outer loop
      vertex -16.446499 75.022522 -36.138683
      vertex 16.446501 75.022522 -36.138680
      vertex 17.212250 75.022522 -36.455864
    endloop
  endfacet
  facet normal 0.000000 1.000000 0.000000
    outer loop
      vertex -17.212250 75.022522 -36.455864
      vertex -16.446499 75.022522 -36.138683
      vertex 17.212250 75.022522 -36.455864
    endloop
  endfacet
  facet normal 0.000000 1.000000 0.000000
    outer loop
      vertex 15.284369 75.022522 -34.976551
      vertex -14.967185 75.022522 -34.210800
      vertex 14.967186 75.022522 -34.210800
    endloop
  endfacet
  facet normal 0.000000 1.000000 0.000000
    outer loop
      vertex -14.967185 75.022522 -34.210800
      vertex -14.858999 75.022522 -33.389050
      vertex 14.967186 75.022522 -34.210800
    endloop
  endfacet
  facet normal 0.000000 -0.000000 1.000000
    outer loop
      vertex 34.924999 65.278000 -27.064449
      vertex 34.924999 75.022522 -27.064449
      vertex -34.924999 65.278000 -27.064449
    endloop
  endfacet
  facet normal 0.000000 0.000000 1.000000
    outer loop
      vertex -34.924999 65.278000 -27.064449
      vertex 34.924999 75.022522 -27.064449
      vertex -34.924999 75.022522 -27.064449
    endloop
  endfacet
  facet normal -1.000000 0.000000 0.000000
    outer loop
      vertex -34.924999 70.991219 -40.989697
      vertex -34.924999 75.022522 -47.313396
      vertex -34.924999 70.991219 -47.313396
    endloop
  endfacet
  facet normal -1.000000 0.000000 0.000000
    outer loop
      vertex -34.924999 65.278000 -27.064449
      vertex -34.924999 70.991219 -40.989697
      vertex -34.924999 65.278000 -40.989697
    endloop
  endfacet
  facet normal -1.000000 -0.000000 0.000000
    outer loop
      vertex -34.924999 75.022522 -27.064449
      vertex -34.924999 70.991219 -40.989697
      vertex -34.924999 65.278000 -27.064449
    endloop
  endfacet
  facet normal -1.000000 0.000000 -0.000000
    outer loop
      vertex -34.924999 75.022522 -27.064449
      vertex -34.924999 75.022522 -47.313396
      vertex -34.924999 70.991219 -40.989697
    endloop
  endfacet
  facet normal 0.000000 0.000000 -1.000000
    outer loop
      vertex -34.924999 65.278000 -40.989697
      vertex -34.924999 70.991219 -40.989697
      vertex 34.924999 70.991219 -40.989697
    endloop
  endfacet
  facet normal 0.000000 0.000000 -1.000000
    outer loop
      vertex 34.924999 65.278000 -40.989697
      vertex -34.924999 65.278000 -40.989697
      vertex 34.924999 70.991219 -40.989697
    endloop
  endfacet
  facet normal 0.000000 -1.000000 0.000000
    outer loop
      vertex 34.924999 70.991219 -47.313396
      vertex 34.924999 70.991219 -40.989697
      vertex -34.924999 70.991219 -47.313396
    endloop
  endfacet
  facet normal 0.000000 -1.000000 0.000000
    outer loop
      vertex -34.924999 70.991219 -47.313396
      vertex 34.924999 70.991219 -40.989697
      vertex -34.924999 70.991219 -40.989697
    endloop
  endfacet
  facet normal 0.000000 0.000000 -1.000000
    outer loop
      vertex -34.924999 70.991219 -47.313396
      vertex -34.924999 75.022522 -47.313396
      vertex 34.924999 70.991219 -47.313396
    endloop
  endfacet
  facet normal 0.000000 0.000000 -1.000000
    outer loop
      vertex 34.924999 70.991219 -47.313396
      vertex -34.924999 75.022522 -47.313396
      vertex 34.924999 75.022522 -47.313396
    endloop
  endfacet
  facet normal -0.130530 0.000000 0.991444
    outer loop
      vertex -17.212250 75.022522 -36.455864
      vertex -18.034000 75.022522 -36.564053
      vertex -18.034000 65.278000 -36.564053
    endloop
  endfacet
  facet normal -0.382680 0.000000 0.923881
    outer loop
      vertex -16.446499 75.022522 -36.138683
      vertex -17.212250 75.022522 -36.455864
      vertex -17.212250 65.278000 -36.455864
    endloop
  endfacet
  facet normal -0.130530 0.000000 0.991444
    outer loop
      vertex -17.212250 75.022522 -36.455864
      vertex -18.034000 65.278000 -36.564053
      vertex -17.212250 65.278000 -36.455864
    endloop
  endfacet
  facet normal -0.608764 0.000000 0.793351
    outer loop
      vertex -15.788936 75.022522 -35.634113
      vertex -16.446499 75.022522 -36.138683
      vertex -16.446499 65.278000 -36.138683
    endloop
  endfacet
  facet normal -0.382680 0.000000 0.923881
    outer loop
      vertex -16.446499 75.022522 -36.138683
      vertex -17.212250 65.278000 -36.455864
      vertex -16.446499 65.278000 -36.138683
    endloop
  endfacet
  facet normal -0.793352 0.000000 0.608763
    outer loop
      vertex -15.284369 75.022522 -34.976551
      vertex -15.788936 75.022522 -35.634113
      vertex -15.788936 65.278000 -35.634113
    endloop
  endfacet
  facet normal -0.608764 0.000000 0.793351
    outer loop
      vertex -15.788936 75.022522 -35.634113
      vertex -16.446499 65.278000 -36.138683
      vertex -15.788936 65.278000 -35.634113
    endloop
  endfacet
  facet normal -0.923880 0.000000 0.382682
    outer loop
      vertex -14.967185 75.022522 -34.210800
      vertex -15.284369 75.022522 -34.976551
      vertex -15.284369 65.278000 -34.976551
    endloop
  endfacet
  facet normal -0.793352 0.000000 0.608763
    outer loop
      vertex -15.284369 75.022522 -34.976551
      vertex -15.788936 65.278000 -35.634113
      vertex -15.284369 65.278000 -34.976551
    endloop
  endfacet
  facet normal -0.991445 0.000000 0.130526
    outer loop
      vertex -14.858999 75.022522 -33.389050
      vertex -14.967185 75.022522 -34.210800
      vertex -14.967185 65.278000 -34.210800
    endloop
  endfacet
  facet normal -0.923880 0.000000 0.382682
    outer loop
      vertex -14.967185 75.022522 -34.210800
      vertex -15.284369 65.278000 -34.976551
      vertex -14.967185 65.278000 -34.210800
    endloop
  endfacet
  facet normal -0.991445 0.000000 -0.130526
    outer loop
      vertex -14.967185 75.022522 -32.567299
      vertex -14.858999 75.022522 -33.389050
      vertex -14.858999 65.278000 -33.389050
    endloop
  endfacet
  facet normal -0.991445 0.000000 0.130526
    outer loop
      vertex -14.858999 75.022522 -33.389050
      vertex -14.967185 65.278000 -34.210800
      vertex -14.858999 65.278000 -33.389050
    endloop
  endfacet
  facet normal -0.923879 0.000000 -0.382684
    outer loop
      vertex -15.284369 75.022522 -31.801552
      vertex -14.967185 75.022522 -32.567299
      vertex -14.967185 65.278000 -32.567299
    endloop
  endfacet
  facet normal -0.991445 -0.000000 -0.130526
    outer loop
      vertex -14.967185 75.022522 -32.567299
      vertex -14.858999 65.278000 -33.389050
      vertex -14.967185 65.278000 -32.567299
    endloop
  endfacet
  facet normal -0.793353 0.000000 -0.608762
    outer loop
      vertex -15.788936 75.022522 -31.143988
      vertex -15.284369 75.022522 -31.801552
      vertex -15.284369 65.278000 -31.801552
    endloop
  endfacet
  facet normal -0.923879 -0.000000 -0.382684
    outer loop
      vertex -15.284369 75.022522 -31.801552
      vertex -14.967185 65.278000 -32.567299
      vertex -15.284369 65.278000 -31.801552
    endloop
  endfacet
  facet normal -0.608763 0.000000 -0.793352
    outer loop
      vertex -16.446499 75.022522 -30.639420
      vertex -15.788936 75.022522 -31.143988
      vertex -15.788936 65.278000 -31.143988
    endloop
  endfacet
  facet normal -0.793353 -0.000000 -0.608762
    outer loop
      vertex -15.788936 75.022522 -31.143988
      vertex -15.284369 65.278000 -31.801552
      vertex -15.788936 65.278000 -31.143988
    endloop
  endfacet
  facet normal -0.382682 0.000000 -0.923880
    outer loop
      vertex -17.212250 75.022522 -30.322237
      vertex -16.446499 75.022522 -30.639420
      vertex -16.446499 65.278000 -30.639420
    endloop
  endfacet
  facet normal -0.608763 -0.000000 -0.793352
    outer loop
      vertex -16.446499 75.022522 -30.639420
      vertex -15.788936 65.278000 -31.143988
      vertex -16.446499 65.278000 -30.639420
    endloop
  endfacet
  facet normal -0.130528 0.000000 -0.991445
    outer loop
      vertex -18.034000 75.022522 -30.214050
      vertex -17.212250 75.022522 -30.322237
      vertex -17.212250 65.278000 -30.322237
    endloop
  endfacet
  facet normal -0.382682 -0.000000 -0.923880
    outer loop
      vertex -17.212250 75.022522 -30.322237
      vertex -16.446499 65.278000 -30.639420
      vertex -17.212250 65.278000 -30.322237
    endloop
  endfacet
  facet normal -0.130528 -0.000000 -0.991445
    outer loop
      vertex -18.034000 75.022522 -30.214050
      vertex -17.212250 65.278000 -30.322237
      vertex -18.034000 65.278000 -30.214050
    endloop
  endfacet
  facet normal 0.130525 0.000000 -0.991445
    outer loop
      vertex 17.212250 75.022522 -30.322235
      vertex 18.034000 75.022522 -30.214050
      vertex 18.034000 65.278000 -30.214050
    endloop
  endfacet
  facet normal 0.382684 0.000000 -0.923879
    outer loop
      vertex 16.446501 75.022522 -30.639420
      vertex 17.212250 75.022522 -30.322235
      vertex 17.212250 65.278000 -30.322235
    endloop
  endfacet
  facet normal 0.130525 0.000000 -0.991445
    outer loop
      vertex 17.212250 75.022522 -30.322235
      vertex 18.034000 65.278000 -30.214050
      vertex 17.212250 65.278000 -30.322235
    endloop
  endfacet
  facet normal 0.608760 0.000000 -0.793354
    outer loop
      vertex 15.788936 75.022522 -31.143986
      vertex 16.446501 75.022522 -30.639420
      vertex 16.446501 65.278000 -30.639420
    endloop
  endfacet
  facet normal 0.382684 0.000000 -0.923879
    outer loop
      vertex 16.446501 75.022522 -30.639420
      vertex 17.212250 65.278000 -30.322235
      vertex 16.446501 65.278000 -30.639420
    endloop
  endfacet
  facet normal 0.608760 0.000000 -0.793354
    outer loop
      vertex 15.788936 75.022522 -31.143986
      vertex 16.446501 65.278000 -30.639420
      vertex 15.788936 65.278000 -31.143986
    endloop
  endfacet
  facet normal 0.793354 0.000000 -0.608761
    outer loop
      vertex 15.284369 75.022522 -31.801550
      vertex 15.788936 75.022522 -31.143986
      vertex 15.284369 65.278000 -31.801550
    endloop
  endfacet
  facet normal 0.793354 0.000000 -0.608761
    outer loop
      vertex 15.788936 75.022522 -31.143986
      vertex 15.788936 65.278000 -31.143986
      vertex 15.284369 65.278000 -31.801550
    endloop
  endfacet
  facet normal 0.923880 0.000000 -0.382683
    outer loop
      vertex 14.967186 75.022522 -32.567299
      vertex 15.284369 75.022522 -31.801550
      vertex 14.967186 65.278000 -32.567299
    endloop
  endfacet
  facet normal 0.923880 0.000000 -0.382683
    outer loop
      vertex 15.284369 75.022522 -31.801550
      vertex 15.284369 65.278000 -31.801550
      vertex 14.967186 65.278000 -32.567299
    endloop
  endfacet
  facet normal 0.991445 0.000000 -0.130526
    outer loop
      vertex 14.859000 75.022522 -33.389050
      vertex 14.967186 75.022522 -32.567299
      vertex 14.859000 65.278000 -33.389050
    endloop
  endfacet
  facet normal 0.991445 0.000000 -0.130526
    outer loop
      vertex 14.967186 75.022522 -32.567299
      vertex 14.967186 65.278000 -32.567299
      vertex 14.859000 65.278000 -33.389050
    endloop
  endfacet
  facet normal 0.991445 0.000000 0.130526
    outer loop
      vertex 14.967186 75.022522 -34.210800
      vertex 14.859000 75.022522 -33.389050
      vertex 14.967186 65.278000 -34.210800
    endloop
  endfacet
  facet normal 0.991445 0.000000 0.130526
    outer loop
      vertex 14.859000 75.022522 -33.389050
      vertex 14.859000 65.278000 -33.389050
      vertex 14.967186 65.278000 -34.210800
    endloop
  endfacet
  facet normal 0.923880 0.000000 0.382682
    outer loop
      vertex 15.284369 75.022522 -34.976551
      vertex 14.967186 75.022522 -34.210800
      vertex 15.284369 65.278000 -34.976551
    endloop
  endfacet
  facet normal 0.923880 0.000000 0.382682
    outer loop
      vertex 14.967186 75.022522 -34.210800
      vertex 14.967186 65.278000 -34.210800
      vertex 15.284369 65.278000 -34.976551
    endloop
  endfacet
  facet normal 0.793353 0.000000 0.608762
    outer loop
      vertex 15.788936 75.022522 -35.634113
      vertex 15.284369 75.022522 -34.976551
      vertex 15.788936 65.278000 -35.634113
    endloop
  endfacet
  facet normal 0.793353 0.000000 0.608762
    outer loop
      vertex 15.284369 75.022522 -34.976551
      vertex 15.284369 65.278000 -34.976551
      vertex 15.788936 65.278000 -35.634113
    endloop
  endfacet
  facet normal 0.608760 0.000000 0.793354
    outer loop
      vertex 16.446501 75.022522 -36.138680
      vertex 15.788936 75.022522 -35.634113
      vertex 16.446501 65.278000 -36.138680
    endloop
  endfacet
  facet normal 0.608760 0.000000 0.793354
    outer loop
      vertex 15.788936 75.022522 -35.634113
      vertex 15.788936 65.278000 -35.634113
      vertex 16.446501 65.278000 -36.138680
    endloop
  endfacet
  facet normal 0.382684 0.000000 0.923879
    outer loop
      vertex 17.212250 75.022522 -36.455864
      vertex 16.446501 75.022522 -36.138680
      vertex 17.212250 65.278000 -36.455864
    endloop
  endfacet
  facet normal 0.382684 0.000000 0.923879
    outer loop
      vertex 16.446501 75.022522 -36.138680
      vertex 16.446501 65.278000 -36.138680
      vertex 17.212250 65.278000 -36.455864
    endloop
  endfacet
  facet normal 0.130525 0.000000 0.991445
    outer loop
      vertex 18.034000 75.022522 -36.564049
      vertex 17.212250 75.022522 -36.455864
      vertex 18.034000 65.278000 -36.564049
    endloop
  endfacet
  facet normal 0.130525 0.000000 0.991445
    outer loop
      vertex 17.212250 75.022522 -36.455864
      vertex 17.212250 65.278000 -36.455864
      vertex 18.034000 65.278000 -36.564049
    endloop
  endfacet
  facet normal -0.130525 0.000000 0.991445
    outer loop
      vertex 18.855751 75.022522 -36.455864
      vertex 18.034000 75.022522 -36.564049
      vertex 18.034000 65.278000 -36.564049
    endloop
  endfacet
  facet normal -0.382684 0.000000 0.923879
    outer loop
      vertex 19.621500 75.022522 -36.138680
      vertex 18.855751 75.022522 -36.455864
      vertex 18.855751 65.278000 -36.455864
    endloop
  endfacet
  facet normal -0.130525 0.000000 0.991445
    outer loop
      vertex 18.855751 75.022522 -36.455864
      vertex 18.034000 65.278000 -36.564049
      vertex 18.855751 65.278000 -36.455864
    endloop
  endfacet
  facet normal -0.608761 0.000000 0.793354
    outer loop
      vertex 20.279064 75.022522 -35.634113
      vertex 19.621500 75.022522 -36.138680
      vertex 19.621500 65.278000 -36.138680
    endloop
  endfacet
  facet normal -0.382684 0.000000 0.923879
    outer loop
      vertex 19.621500 75.022522 -36.138680
      vertex 18.855751 65.278000 -36.455864
      vertex 19.621500 65.278000 -36.138680
    endloop
  endfacet
  facet normal -0.608761 0.000000 0.793354
    outer loop
      vertex 20.279064 75.022522 -35.634113
      vertex 19.621500 65.278000 -36.138680
      vertex 20.279064 65.278000 -35.634113
    endloop
  endfacet
  facet normal -0.793353 0.000000 0.608762
    outer loop
      vertex 20.783630 75.022522 -34.976551
      vertex 20.279064 75.022522 -35.634113
      vertex 20.783630 65.278000 -34.976551
    endloop
  endfacet
  facet normal -0.793353 0.000000 0.608762
    outer loop
      vertex 20.279064 75.022522 -35.634113
      vertex 20.279064 65.278000 -35.634113
      vertex 20.783630 65.278000 -34.976551
    endloop
  endfacet
  facet normal -0.923879 0.000000 0.382683
    outer loop
      vertex 21.100815 75.022522 -34.210800
      vertex 20.783630 75.022522 -34.976551
      vertex 21.100815 65.278000 -34.210800
    endloop
  endfacet
  facet normal -0.923879 0.000000 0.382683
    outer loop
      vertex 20.783630 75.022522 -34.976551
      vertex 20.783630 65.278000 -34.976551
      vertex 21.100815 65.278000 -34.210800
    endloop
  endfacet
  facet normal -0.991445 0.000000 -0.130525
    outer loop
      vertex 21.100815 75.022522 -32.567299
      vertex 21.209000 75.022522 -33.389050
      vertex 21.209000 65.278000 -33.389050
    endloop
  endfacet
  facet normal -0.991445 0.000000 0.130525
    outer loop
      vertex 21.209000 75.022522 -33.389050
      vertex 21.100815 75.022522 -34.210800
      vertex 21.209000 65.278000 -33.389050
    endloop
  endfacet
  facet normal -0.991445 0.000000 0.130525
    outer loop
      vertex 21.100815 75.022522 -34.210800
      vertex 21.100815 65.278000 -34.210800
      vertex 21.209000 65.278000 -33.389050
    endloop
  endfacet
  facet normal -0.991445 -0.000000 -0.130525
    outer loop
      vertex 21.100815 75.022522 -32.567299
      vertex 21.209000 65.278000 -33.389050
      vertex 21.100815 65.278000 -32.567299
    endloop
  endfacet
  facet normal -0.923879 -0.000000 -0.382684
    outer loop
      vertex 20.783630 75.022522 -31.801550
      vertex 21.100815 75.022522 -32.567299
      vertex 20.783630 65.278000 -31.801550
    endloop
  endfacet
  facet normal -0.923879 -0.000000 -0.382684
    outer loop
      vertex 21.100815 75.022522 -32.567299
      vertex 21.100815 65.278000 -32.567299
      vertex 20.783630 65.278000 -31.801550
    endloop
  endfacet
  facet normal -0.608761 0.000000 -0.793354
    outer loop
      vertex 19.621500 75.022522 -30.639420
      vertex 20.279064 75.022522 -31.143986
      vertex 20.279064 65.278000 -31.143986
    endloop
  endfacet
  facet normal -0.793354 -0.000000 -0.608761
    outer loop
      vertex 20.279064 75.022522 -31.143986
      vertex 20.783630 75.022522 -31.801550
      vertex 20.279064 65.278000 -31.143986
    endloop
  endfacet
  facet normal -0.793354 -0.000000 -0.608761
    outer loop
      vertex 20.783630 75.022522 -31.801550
      vertex 20.783630 65.278000 -31.801550
      vertex 20.279064 65.278000 -31.143986
    endloop
  endfacet
  facet normal -0.382684 0.000000 -0.923879
    outer loop
      vertex 18.855751 75.022522 -30.322235
      vertex 19.621500 75.022522 -30.639420
      vertex 19.621500 65.278000 -30.639420
    endloop
  endfacet
  facet normal -0.608761 -0.000000 -0.793354
    outer loop
      vertex 19.621500 75.022522 -30.639420
      vertex 20.279064 65.278000 -31.143986
      vertex 19.621500 65.278000 -30.639420
    endloop
  endfacet
  facet normal -0.130525 0.000000 -0.991445
    outer loop
      vertex 18.034000 75.022522 -30.214050
      vertex 18.855751 75.022522 -30.322235
      vertex 18.855751 65.278000 -30.322235
    endloop
  endfacet
  facet normal -0.382684 -0.000000 -0.923879
    outer loop
      vertex 18.855751 75.022522 -30.322235
      vertex 19.621500 65.278000 -30.639420
      vertex 18.855751 65.278000 -30.322235
    endloop
  endfacet
  facet normal -0.130525 -0.000000 -0.991445
    outer loop
      vertex 18.034000 75.022522 -30.214050
      vertex 18.855751 65.278000 -30.322235
      vertex 18.034000 65.278000 -30.214050
    endloop
  endfacet
endsolid Mesh
