solid Mesh
  facet normal 0.000000 0.000000 1.000000
    outer loop
      vertex 244.957611 72.261124 -41.401997
      vertex 254.482605 152.779129 -41.401997
      vertex 244.957611 152.779129 -41.401997
    endloop
  endfacet
  facet normal 0.000000 -0.000000 1.000000
    outer loop
      vertex 254.482605 72.261124 -41.401997
      vertex 254.482605 152.779129 -41.401997
      vertex 244.957611 72.261124 -41.401997
    endloop
  endfacet
  facet normal 1.000000 0.000000 0.000000
    outer loop
      vertex 254.482605 72.261124 -127.000000
      vertex 254.482605 152.779129 -127.000000
      vertex 254.482605 155.319122 -124.459999
    endloop
  endfacet
  facet normal 1.000000 -0.000000 0.000000
    outer loop
      vertex 254.482605 69.721123 -124.459999
      vertex 254.482605 72.261124 -127.000000
      vertex 254.482605 72.261124 -41.401997
    endloop
  endfacet
  facet normal 1.000000 -0.000000 0.000000
    outer loop
      vertex 254.482605 69.721123 -43.941998
      vertex 254.482605 69.721123 -124.459999
      vertex 254.482605 72.261124 -41.401997
    endloop
  endfacet
  facet normal 1.000000 0.000000 0.000000
    outer loop
      vertex 254.482605 72.261124 -127.000000
      vertex 254.482605 155.319122 -124.459999
      vertex 254.482605 72.261124 -41.401997
    endloop
  endfacet
  facet normal 1.000000 0.000000 0.000000
    outer loop
      vertex 254.482605 72.261124 -41.401997
      vertex 254.482605 155.319122 -124.459999
      vertex 254.482605 155.319122 -43.941998
    endloop
  endfacet
  facet normal 1.000000 -0.000000 0.000000
    outer loop
      vertex 254.482605 72.261124 -41.401997
      vertex 254.482605 155.319122 -43.941998
      vertex 254.482605 152.779129 -41.401997
    endloop
  endfacet
  facet normal 0.000000 0.707108 -0.707106
    outer loop
      vertex 254.482605 155.319122 -124.459999
      vertex 244.957611 152.779129 -127.000000
      vertex 244.957611 155.319122 -124.459999
    endloop
  endfacet
  facet normal 0.000000 0.707108 -0.707106
    outer loop
      vertex 254.482605 155.319122 -124.459999
      vertex 254.482605 152.779129 -127.000000
      vertex 244.957611 152.779129 -127.000000
    endloop
  endfacet
  facet normal 0.000000 1.000000 0.000000
    outer loop
      vertex 254.482605 155.319122 -43.941998
      vertex 244.957611 155.319122 -124.459999
      vertex 244.957611 155.319122 -43.941998
    endloop
  endfacet
  facet normal 0.000000 1.000000 0.000000
    outer loop
      vertex 254.482605 155.319122 -43.941998
      vertex 254.482605 155.319122 -124.459999
      vertex 244.957611 155.319122 -124.459999
    endloop
  endfacet
  facet normal 0.000000 0.707108 0.707106
    outer loop
      vertex 254.482605 155.319122 -43.941998
      vertex 244.957611 155.319122 -43.941998
      vertex 244.957611 152.779129 -41.401997
    endloop
  endfacet
  facet normal 0.000000 0.707108 0.707106
    outer loop
      vertex 254.482605 152.779129 -41.401997
      vertex 254.482605 155.319122 -43.941998
      vertex 244.957611 152.779129 -41.401997
    endloop
  endfacet
  facet normal -1.000000 0.000000 0.000000
    outer loop
      vertex 244.957611 69.721123 -43.941998
      vertex 244.957611 72.261124 -127.000000
      vertex 244.957611 69.721123 -124.459999
    endloop
  endfacet
  facet normal -1.000000 0.000000 0.000000
    outer loop
      vertex 244.957611 69.721123 -43.941998
      vertex 244.957611 152.779129 -127.000000
      vertex 244.957611 72.261124 -127.000000
    endloop
  endfacet
  facet normal -1.000000 -0.000000 0.000000
    outer loop
      vertex 244.957611 152.779129 -41.401997
      vertex 244.957611 69.721123 -43.941998
      vertex 244.957611 72.261124 -41.401997
    endloop
  endfacet
  facet normal -1.000000 0.000000 -0.000000
    outer loop
      vertex 244.957611 155.319122 -43.941998
      vertex 244.957611 155.319122 -124.459999
      vertex 244.957611 152.779129 -127.000000
    endloop
  endfacet
  facet normal -1.000000 -0.000000 0.000000
    outer loop
      vertex 244.957611 155.319122 -43.941998
      vertex 244.957611 152.779129 -127.000000
      vertex 244.957611 69.721123 -43.941998
    endloop
  endfacet
  facet normal -1.000000 0.000000 0.000000
    outer loop
      vertex 244.957611 155.319122 -43.941998
      vertex 244.957611 69.721123 -43.941998
      vertex 244.957611 152.779129 -41.401997
    endloop
  endfacet
  facet normal 0.000000 -0.707107 0.707107
    outer loop
      vertex 254.482605 72.261124 -41.401997
      vertex 244.957611 72.261124 -41.401997
      vertex 244.957611 69.721123 -43.941998
    endloop
  endfacet
  facet normal 0.000000 -0.707107 0.707107
    outer loop
      vertex 254.482605 69.721123 -43.941998
      vertex 254.482605 72.261124 -41.401997
      vertex 244.957611 69.721123 -43.941998
    endloop
  endfacet
  facet normal 0.000000 -1.000000 0.000000
    outer loop
      vertex 244.957611 69.721123 -124.459999
      vertex 254.482605 69.721123 -43.941998
      vertex 244.957611 69.721123 -43.941998
    endloop
  endfacet
  facet normal 0.000000 -1.000000 0.000000
    outer loop
      vertex 254.482605 69.721123 -124.459999
      vertex 254.482605 69.721123 -43.941998
      vertex 244.957611 69.721123 -124.459999
    endloop
  endfacet
  facet normal -0.000000 -0.707107 -0.707107
    outer loop
      vertex 254.482605 72.261124 -127.000000
      vertex 244.957611 69.721123 -124.459999
      vertex 244.957611 72.261124 -127.000000
    endloop
  endfacet
  facet normal 0.000000 -0.707107 -0.707107
    outer loop
      vertex 254.482605 72.261124 -127.000000
      vertex 254.482605 69.721123 -124.459999
      vertex 244.957611 69.721123 -124.459999
    endloop
  endfacet
  facet normal -0.000000 0.000000 -1.000000
    outer loop
      vertex 254.482605 152.779129 -127.000000
      vertex 244.957611 72.261124 -127.000000
      vertex 244.957611 152.779129 -127.000000
    endloop
  endfacet
  facet normal 0.000000 -0.000000 -1.000000
    outer loop
      vertex 254.482605 152.779129 -127.000000
      vertex 254.482605 72.261124 -127.000000
      vertex 244.957611 72.261124 -127.000000
    endloop
  endfacet
endsolid Mesh
