solid Mesh
  facet normal -0.342020 0.000000 -0.939693
    outer loop
      vertex -116.954147 285.426697 -126.114288
      vertex -116.954147 301.966675 -126.114288
      vertex 0.000000 301.966675 -168.682114
    endloop
  endfacet
  facet normal -0.342020 0.000000 -0.939693
    outer loop
      vertex 0.000000 285.426697 -168.682114
      vertex -116.954147 285.426697 -126.114288
      vertex 0.000000 301.966675 -168.682114
    endloop
  endfacet
  facet normal 1.000000 0.000000 -0.000000
    outer loop
      vertex 0.000000 301.966675 -156.983414
      vertex 0.000000 285.426697 -152.464050
      vertex 0.000000 285.426697 -156.983414
    endloop
  endfacet
  facet normal 1.000000 0.000000 -0.000000
    outer loop
      vertex 0.000000 301.966675 -156.983414
      vertex 0.000000 301.966675 -152.464050
      vertex 0.000000 285.426697 -152.464050
    endloop
  endfacet
  facet normal 1.000000 0.000000 -0.000000
    outer loop
      vertex 0.000000 301.966675 -168.682114
      vertex 0.000000 301.966675 -162.540939
      vertex 0.000000 285.426697 -162.540939
    endloop
  endfacet
  facet normal 1.000000 0.000000 -0.000000
    outer loop
      vertex 0.000000 301.966675 -168.682114
      vertex 0.000000 285.426697 -162.540939
      vertex 0.000000 285.426697 -168.682114
    endloop
  endfacet
  facet normal 0.130522 -0.000000 0.991445
    outer loop
      vertex 0.000000 285.426697 -162.540939
      vertex 0.000000 301.966675 -162.540939
      vertex -0.719196 301.966675 -162.446259
    endloop
  endfacet
  facet normal 0.130522 -0.000000 0.991445
    outer loop
      vertex -0.719196 285.426697 -162.446259
      vertex 0.000000 285.426697 -162.540939
      vertex -0.719196 301.966675 -162.446259
    endloop
  endfacet
  facet normal 0.382688 -0.000000 0.923878
    outer loop
      vertex -1.389380 285.426697 -162.168655
      vertex -0.719196 285.426697 -162.446259
      vertex -1.389380 301.966675 -162.168655
    endloop
  endfacet
  facet normal 0.382688 -0.000000 0.923878
    outer loop
      vertex -0.719196 285.426697 -162.446259
      vertex -0.719196 301.966675 -162.446259
      vertex -1.389380 301.966675 -162.168655
    endloop
  endfacet
  facet normal 0.608768 -0.000000 0.793348
    outer loop
      vertex -1.964880 285.426697 -161.727051
      vertex -1.389380 285.426697 -162.168655
      vertex -1.964880 301.966675 -161.727051
    endloop
  endfacet
  facet normal 0.608768 -0.000000 0.793348
    outer loop
      vertex -1.389380 285.426697 -162.168655
      vertex -1.389380 301.966675 -162.168655
      vertex -1.964880 301.966675 -161.727051
    endloop
  endfacet
  facet normal 0.793354 -0.000000 0.608761
    outer loop
      vertex -2.406477 285.426697 -161.151550
      vertex -1.964880 285.426697 -161.727051
      vertex -2.406477 301.966675 -161.151550
    endloop
  endfacet
  facet normal 0.793354 -0.000000 0.608761
    outer loop
      vertex -1.964880 285.426697 -161.727051
      vertex -1.964880 301.966675 -161.727051
      vertex -2.406477 301.966675 -161.151550
    endloop
  endfacet
  facet normal 0.923879 -0.000000 0.382685
    outer loop
      vertex -2.684076 285.426697 -160.481369
      vertex -2.406477 285.426697 -161.151550
      vertex -2.684076 301.966675 -160.481369
    endloop
  endfacet
  facet normal 0.923879 -0.000000 0.382685
    outer loop
      vertex -2.406477 285.426697 -161.151550
      vertex -2.406477 301.966675 -161.151550
      vertex -2.684076 301.966675 -160.481369
    endloop
  endfacet
  facet normal 0.991445 -0.000000 0.130527
    outer loop
      vertex -2.778760 285.426697 -159.762177
      vertex -2.684076 285.426697 -160.481369
      vertex -2.778760 301.966675 -159.762177
    endloop
  endfacet
  facet normal 0.991445 0.000000 -0.130527
    outer loop
      vertex -2.684076 285.426697 -159.042984
      vertex -2.778760 285.426697 -159.762177
      vertex -2.778760 301.966675 -159.762177
    endloop
  endfacet
  facet normal 0.991445 -0.000000 0.130527
    outer loop
      vertex -2.684076 285.426697 -160.481369
      vertex -2.684076 301.966675 -160.481369
      vertex -2.778760 301.966675 -159.762177
    endloop
  endfacet
  facet normal 0.923882 0.000000 -0.382677
    outer loop
      vertex -2.406477 285.426697 -158.372787
      vertex -2.684076 285.426697 -159.042984
      vertex -2.684076 301.966675 -159.042984
    endloop
  endfacet
  facet normal 0.991445 0.000000 -0.130527
    outer loop
      vertex -2.684076 285.426697 -159.042984
      vertex -2.778760 301.966675 -159.762177
      vertex -2.684076 301.966675 -159.042984
    endloop
  endfacet
  facet normal 0.793346 0.000000 -0.608771
    outer loop
      vertex -1.964880 285.426697 -157.797302
      vertex -2.406477 285.426697 -158.372787
      vertex -2.406477 301.966675 -158.372787
    endloop
  endfacet
  facet normal 0.923882 0.000000 -0.382677
    outer loop
      vertex -2.406477 285.426697 -158.372787
      vertex -2.684076 301.966675 -159.042984
      vertex -2.406477 301.966675 -158.372787
    endloop
  endfacet
  facet normal 0.608768 0.000000 -0.793348
    outer loop
      vertex -1.389380 285.426697 -157.355698
      vertex -1.964880 285.426697 -157.797302
      vertex -1.964880 301.966675 -157.797302
    endloop
  endfacet
  facet normal 0.793346 0.000000 -0.608771
    outer loop
      vertex -1.964880 285.426697 -157.797302
      vertex -2.406477 301.966675 -158.372787
      vertex -1.964880 301.966675 -157.797302
    endloop
  endfacet
  facet normal 0.382688 0.000000 -0.923878
    outer loop
      vertex -0.719196 285.426697 -157.078094
      vertex -1.389380 285.426697 -157.355698
      vertex -1.389380 301.966675 -157.355698
    endloop
  endfacet
  facet normal 0.608768 0.000000 -0.793348
    outer loop
      vertex -1.389380 285.426697 -157.355698
      vertex -1.964880 301.966675 -157.797302
      vertex -1.389380 301.966675 -157.355698
    endloop
  endfacet
  facet normal 0.130522 0.000000 -0.991445
    outer loop
      vertex 0.000000 285.426697 -156.983414
      vertex -0.719196 285.426697 -157.078094
      vertex -0.719196 301.966675 -157.078094
    endloop
  endfacet
  facet normal 0.382688 0.000000 -0.923878
    outer loop
      vertex -0.719196 285.426697 -157.078094
      vertex -1.389380 301.966675 -157.355698
      vertex -0.719196 301.966675 -157.078094
    endloop
  endfacet
  facet normal 0.130522 0.000000 -0.991445
    outer loop
      vertex 0.000000 285.426697 -156.983414
      vertex -0.719196 301.966675 -157.078094
      vertex 0.000000 301.966675 -156.983414
    endloop
  endfacet
  facet normal 0.000000 1.000000 0.000000
    outer loop
      vertex -0.719196 301.966675 -162.446259
      vertex 0.000000 301.966675 -162.540939
      vertex 0.000000 301.966675 -168.682114
    endloop
  endfacet
  facet normal 0.000000 1.000000 0.000000
    outer loop
      vertex -1.389380 301.966675 -162.168655
      vertex -0.719196 301.966675 -162.446259
      vertex 0.000000 301.966675 -168.682114
    endloop
  endfacet
  facet normal 0.000000 1.000000 0.000000
    outer loop
      vertex -1.964880 301.966675 -161.727051
      vertex -1.389380 301.966675 -162.168655
      vertex 0.000000 301.966675 -168.682114
    endloop
  endfacet
  facet normal 0.000000 1.000000 0.000000
    outer loop
      vertex -2.406477 301.966675 -161.151550
      vertex -1.964880 301.966675 -161.727051
      vertex 0.000000 301.966675 -168.682114
    endloop
  endfacet
  facet normal 0.000000 1.000000 0.000000
    outer loop
      vertex -2.684076 301.966675 -160.481369
      vertex -2.406477 301.966675 -161.151550
      vertex 0.000000 301.966675 -168.682114
    endloop
  endfacet
  facet normal 0.000000 1.000000 0.000000
    outer loop
      vertex 0.000000 301.966675 -152.464050
      vertex 0.000000 301.966675 -156.983414
      vertex -0.719196 301.966675 -157.078094
    endloop
  endfacet
  facet normal 0.000000 1.000000 0.000000
    outer loop
      vertex 0.000000 301.966675 -152.464050
      vertex -0.719196 301.966675 -157.078094
      vertex -1.389380 301.966675 -157.355698
    endloop
  endfacet
  facet normal 0.000000 1.000000 0.000000
    outer loop
      vertex 0.000000 301.966675 -152.464050
      vertex -1.389380 301.966675 -157.355698
      vertex -1.964880 301.966675 -157.797302
    endloop
  endfacet
  facet normal 0.000000 1.000000 0.000000
    outer loop
      vertex 0.000000 301.966675 -152.464050
      vertex -1.964880 301.966675 -157.797302
      vertex -2.406477 301.966675 -158.372787
    endloop
  endfacet
  facet normal 0.000000 1.000000 0.000000
    outer loop
      vertex -116.954147 301.966675 -126.114288
      vertex -2.778760 301.966675 -159.762177
      vertex -2.684076 301.966675 -160.481369
    endloop
  endfacet
  facet normal 0.000000 1.000000 0.000000
    outer loop
      vertex -116.954147 301.966675 -126.114288
      vertex -2.684076 301.966675 -160.481369
      vertex 0.000000 301.966675 -168.682114
    endloop
  endfacet
  facet normal 0.000000 1.000000 0.000000
    outer loop
      vertex -112.561798 301.966675 -121.082481
      vertex -2.778760 301.966675 -159.762177
      vertex -116.954147 301.966675 -126.114288
    endloop
  endfacet
  facet normal 0.000000 1.000000 0.000000
    outer loop
      vertex -112.561798 301.966675 -121.082481
      vertex -116.954147 301.966675 -126.114288
      vertex -113.173592 301.966675 -121.472237
    endloop
  endfacet
  facet normal -0.000000 1.000000 0.000000
    outer loop
      vertex -113.865425 301.966675 -121.690376
      vertex -113.173592 301.966675 -121.472237
      vertex -116.954147 301.966675 -126.114288
    endloop
  endfacet
  facet normal 0.000000 1.000000 0.000000
    outer loop
      vertex -112.071724 301.966675 -120.547661
      vertex -2.684076 301.966675 -159.042984
      vertex -2.778760 301.966675 -159.762177
    endloop
  endfacet
  facet normal 0.000000 1.000000 0.000000
    outer loop
      vertex -112.071724 301.966675 -120.547661
      vertex -2.778760 301.966675 -159.762177
      vertex -112.561798 301.966675 -121.082481
    endloop
  endfacet
  facet normal -0.000000 1.000000 0.000000
    outer loop
      vertex -114.590134 301.966675 -121.722015
      vertex -113.865425 301.966675 -121.690376
      vertex -116.954147 301.966675 -126.114288
    endloop
  endfacet
  facet normal 0.000000 1.000000 0.000000
    outer loop
      vertex -115.298340 301.966675 -121.565010
      vertex -114.590134 301.966675 -121.722015
      vertex -116.954147 301.966675 -126.114288
    endloop
  endfacet
  facet normal 0.000000 1.000000 0.000000
    outer loop
      vertex -111.736771 301.966675 -119.904221
      vertex -2.406477 301.966675 -158.372787
      vertex -2.684076 301.966675 -159.042984
    endloop
  endfacet
  facet normal 0.000000 1.000000 0.000000
    outer loop
      vertex -111.736771 301.966675 -119.904221
      vertex 0.000000 301.966675 -152.464050
      vertex -2.406477 301.966675 -158.372787
    endloop
  endfacet
  facet normal 0.000000 1.000000 0.000000
    outer loop
      vertex -111.736771 301.966675 -119.904221
      vertex -2.684076 301.966675 -159.042984
      vertex -112.071724 301.966675 -120.547661
    endloop
  endfacet
  facet normal 0.000000 1.000000 0.000000
    outer loop
      vertex -111.579765 301.966675 -119.196014
      vertex 0.000000 301.966675 -152.464050
      vertex -111.736771 301.966675 -119.904221
    endloop
  endfacet
  facet normal 0.000000 1.000000 0.000000
    outer loop
      vertex -111.611404 301.966675 -118.471298
      vertex 0.000000 301.966675 -152.464050
      vertex -111.579765 301.966675 -119.196014
    endloop
  endfacet
  facet normal 0.000000 1.000000 0.000000
    outer loop
      vertex -111.741760 301.966675 -111.793373
      vertex -111.611404 301.966675 -118.471298
      vertex -111.829536 301.966675 -117.779472
    endloop
  endfacet
  facet normal 0.000000 1.000000 0.000000
    outer loop
      vertex -111.741760 301.966675 -111.793373
      vertex -111.829536 301.966675 -117.779472
      vertex -112.219299 301.966675 -117.167679
    endloop
  endfacet
  facet normal 0.000000 1.000000 0.000000
    outer loop
      vertex -111.741760 301.966675 -111.793373
      vertex -112.219299 301.966675 -117.167679
      vertex -112.754120 301.966675 -116.677605
    endloop
  endfacet
  facet normal 0.000000 1.000000 0.000000
    outer loop
      vertex -111.741760 301.966675 -111.793373
      vertex -112.754120 301.966675 -116.677605
      vertex -113.397560 301.966675 -116.342651
    endloop
  endfacet
  facet normal 0.000000 1.000000 0.000000
    outer loop
      vertex -111.741760 301.966675 -111.793373
      vertex 0.000000 301.966675 -152.464050
      vertex -111.611404 301.966675 -118.471298
    endloop
  endfacet
  facet normal -0.461748 0.000000 -0.887011
    outer loop
      vertex -112.754120 285.426697 -116.677605
      vertex -113.397560 285.426697 -116.342651
      vertex -112.754120 301.966675 -116.677605
    endloop
  endfacet
  facet normal -0.461748 0.000000 -0.887011
    outer loop
      vertex -113.397560 285.426697 -116.342651
      vertex -113.397560 301.966675 -116.342651
      vertex -112.754120 301.966675 -116.677605
    endloop
  endfacet
  facet normal -0.675591 0.000000 -0.737276
    outer loop
      vertex -112.219299 285.426697 -117.167679
      vertex -112.754120 285.426697 -116.677605
      vertex -112.219299 301.966675 -117.167679
    endloop
  endfacet
  facet normal -0.675591 0.000000 -0.737276
    outer loop
      vertex -112.754120 285.426697 -116.677605
      vertex -112.754120 301.966675 -116.677605
      vertex -112.219299 301.966675 -117.167679
    endloop
  endfacet
  facet normal -0.843387 0.000000 -0.537307
    outer loop
      vertex -111.829536 285.426697 -117.779472
      vertex -112.219299 285.426697 -117.167679
      vertex -111.829536 301.966675 -117.779472
    endloop
  endfacet
  facet normal -0.953717 0.000000 -0.300706
    outer loop
      vertex -111.611404 285.426697 -118.471298
      vertex -111.829536 285.426697 -117.779472
      vertex -111.829536 301.966675 -117.779472
    endloop
  endfacet
  facet normal -0.843387 0.000000 -0.537307
    outer loop
      vertex -112.219299 285.426697 -117.167679
      vertex -112.219299 301.966675 -117.167679
      vertex -111.829536 301.966675 -117.779472
    endloop
  endfacet
  facet normal -0.999048 0.000000 -0.043616
    outer loop
      vertex -111.579765 285.426697 -119.196014
      vertex -111.611404 285.426697 -118.471298
      vertex -111.611404 301.966675 -118.471298
    endloop
  endfacet
  facet normal -0.953717 0.000000 -0.300706
    outer loop
      vertex -111.611404 285.426697 -118.471298
      vertex -111.829536 301.966675 -117.779472
      vertex -111.611404 301.966675 -118.471298
    endloop
  endfacet
  facet normal -0.976296 0.000000 0.216439
    outer loop
      vertex -111.736771 285.426697 -119.904221
      vertex -111.579765 285.426697 -119.196014
      vertex -111.579765 301.966675 -119.196014
    endloop
  endfacet
  facet normal -0.999048 0.000000 -0.043616
    outer loop
      vertex -111.579765 285.426697 -119.196014
      vertex -111.611404 301.966675 -118.471298
      vertex -111.579765 301.966675 -119.196014
    endloop
  endfacet
  facet normal -0.887011 0.000000 0.461748
    outer loop
      vertex -112.071724 285.426697 -120.547661
      vertex -111.736771 285.426697 -119.904221
      vertex -111.736771 301.966675 -119.904221
    endloop
  endfacet
  facet normal -0.976296 0.000000 0.216439
    outer loop
      vertex -111.736771 285.426697 -119.904221
      vertex -111.579765 301.966675 -119.196014
      vertex -111.736771 301.966675 -119.904221
    endloop
  endfacet
  facet normal -0.737276 0.000000 0.675591
    outer loop
      vertex -112.561798 285.426697 -121.082481
      vertex -112.071724 285.426697 -120.547661
      vertex -112.071724 301.966675 -120.547661
    endloop
  endfacet
  facet normal -0.887011 0.000000 0.461748
    outer loop
      vertex -112.071724 285.426697 -120.547661
      vertex -111.736771 301.966675 -119.904221
      vertex -112.071724 301.966675 -120.547661
    endloop
  endfacet
  facet normal -0.737276 0.000000 0.675591
    outer loop
      vertex -112.561798 285.426697 -121.082481
      vertex -112.071724 301.966675 -120.547661
      vertex -112.561798 301.966675 -121.082481
    endloop
  endfacet
  facet normal -0.537299 0.000000 0.843392
    outer loop
      vertex -113.173592 285.426697 -121.472237
      vertex -112.561798 285.426697 -121.082481
      vertex -113.173592 301.966675 -121.472237
    endloop
  endfacet
  facet normal -0.537299 0.000000 0.843392
    outer loop
      vertex -112.561798 285.426697 -121.082481
      vertex -112.561798 301.966675 -121.082481
      vertex -113.173592 301.966675 -121.472237
    endloop
  endfacet
  facet normal -0.300713 0.000000 0.953715
    outer loop
      vertex -113.865425 285.426697 -121.690376
      vertex -113.173592 285.426697 -121.472237
      vertex -113.865425 301.966675 -121.690376
    endloop
  endfacet
  facet normal -0.300713 0.000000 0.953715
    outer loop
      vertex -113.173592 285.426697 -121.472237
      vertex -113.173592 301.966675 -121.472237
      vertex -113.865425 301.966675 -121.690376
    endloop
  endfacet
  facet normal -0.043616 0.000000 0.999048
    outer loop
      vertex -114.590134 285.426697 -121.722015
      vertex -113.865425 285.426697 -121.690376
      vertex -114.590134 301.966675 -121.722015
    endloop
  endfacet
  facet normal -0.043616 0.000000 0.999048
    outer loop
      vertex -113.865425 285.426697 -121.690376
      vertex -113.865425 301.966675 -121.690376
      vertex -114.590134 301.966675 -121.722015
    endloop
  endfacet
  facet normal 0.216439 -0.000000 0.976296
    outer loop
      vertex -115.298340 285.426697 -121.565010
      vertex -114.590134 285.426697 -121.722015
      vertex -115.298340 301.966675 -121.565010
    endloop
  endfacet
  facet normal 0.216439 -0.000000 0.976296
    outer loop
      vertex -114.590134 285.426697 -121.722015
      vertex -114.590134 301.966675 -121.722015
      vertex -115.298340 301.966675 -121.565010
    endloop
  endfacet
  facet normal -0.000000 -1.000000 0.000000
    outer loop
      vertex -114.590134 285.426697 -121.722015
      vertex -115.298340 285.426697 -121.565010
      vertex -116.954147 285.426697 -126.114288
    endloop
  endfacet
  facet normal 0.000000 -1.000000 0.000000
    outer loop
      vertex -113.865425 285.426697 -121.690376
      vertex -114.590134 285.426697 -121.722015
      vertex -116.954147 285.426697 -126.114288
    endloop
  endfacet
  facet normal 0.000000 -1.000000 0.000000
    outer loop
      vertex -113.173592 285.426697 -121.472237
      vertex -113.865425 285.426697 -121.690376
      vertex -116.954147 285.426697 -126.114288
    endloop
  endfacet
  facet normal 0.000000 -1.000000 0.000000
    outer loop
      vertex -112.561798 285.426697 -121.082481
      vertex -113.173592 285.426697 -121.472237
      vertex -116.954147 285.426697 -126.114288
    endloop
  endfacet
  facet normal 0.000000 -1.000000 0.000000
    outer loop
      vertex -111.741760 285.426697 -111.793373
      vertex -113.397560 285.426697 -116.342651
      vertex -112.754120 285.426697 -116.677605
    endloop
  endfacet
  facet normal 0.000000 -1.000000 0.000000
    outer loop
      vertex -111.741760 285.426697 -111.793373
      vertex -112.754120 285.426697 -116.677605
      vertex -112.219299 285.426697 -117.167679
    endloop
  endfacet
  facet normal 0.000000 -1.000000 0.000000
    outer loop
      vertex -111.741760 285.426697 -111.793373
      vertex -112.219299 285.426697 -117.167679
      vertex -111.829536 285.426697 -117.779472
    endloop
  endfacet
  facet normal 0.000000 -1.000000 -0.000000
    outer loop
      vertex -111.741760 285.426697 -111.793373
      vertex -111.829536 285.426697 -117.779472
      vertex -111.611404 285.426697 -118.471298
    endloop
  endfacet
  facet normal -0.000000 -1.000000 -0.000000
    outer loop
      vertex -2.684076 285.426697 -160.481369
      vertex -116.954147 285.426697 -126.114288
      vertex 0.000000 285.426697 -168.682114
    endloop
  endfacet
  facet normal 0.000000 -1.000000 0.000000
    outer loop
      vertex -2.684076 285.426697 -160.481369
      vertex 0.000000 285.426697 -168.682114
      vertex -2.406477 285.426697 -161.151550
    endloop
  endfacet
  facet normal -0.000000 -1.000000 -0.000000
    outer loop
      vertex -1.964880 285.426697 -161.727051
      vertex -2.406477 285.426697 -161.151550
      vertex 0.000000 285.426697 -168.682114
    endloop
  endfacet
  facet normal 0.000000 -1.000000 0.000000
    outer loop
      vertex -2.778760 285.426697 -159.762177
      vertex -112.071724 285.426697 -120.547661
      vertex -112.561798 285.426697 -121.082481
    endloop
  endfacet
  facet normal 0.000000 -1.000000 0.000000
    outer loop
      vertex -2.778760 285.426697 -159.762177
      vertex -112.561798 285.426697 -121.082481
      vertex -116.954147 285.426697 -126.114288
    endloop
  endfacet
  facet normal -0.000000 -1.000000 -0.000000
    outer loop
      vertex -2.778760 285.426697 -159.762177
      vertex -116.954147 285.426697 -126.114288
      vertex -2.684076 285.426697 -160.481369
    endloop
  endfacet
  facet normal -0.000000 -1.000000 -0.000000
    outer loop
      vertex -1.389380 285.426697 -162.168655
      vertex -1.964880 285.426697 -161.727051
      vertex 0.000000 285.426697 -168.682114
    endloop
  endfacet
  facet normal 0.000000 -1.000000 0.000000
    outer loop
      vertex -2.684076 285.426697 -159.042984
      vertex -111.736771 285.426697 -119.904221
      vertex -112.071724 285.426697 -120.547661
    endloop
  endfacet
  facet normal -0.000000 -1.000000 0.000000
    outer loop
      vertex -2.684076 285.426697 -159.042984
      vertex -112.071724 285.426697 -120.547661
      vertex -2.778760 285.426697 -159.762177
    endloop
  endfacet
  facet normal -0.000000 -1.000000 -0.000000
    outer loop
      vertex -0.719196 285.426697 -162.446259
      vertex -1.389380 285.426697 -162.168655
      vertex 0.000000 285.426697 -168.682114
    endloop
  endfacet
  facet normal -0.000000 -1.000000 0.000000
    outer loop
      vertex -2.406477 285.426697 -158.372787
      vertex -111.736771 285.426697 -119.904221
      vertex -2.684076 285.426697 -159.042984
    endloop
  endfacet
  facet normal -0.000000 -1.000000 0.000000
    outer loop
      vertex 0.000000 285.426697 -162.540939
      vertex -0.719196 285.426697 -162.446259
      vertex 0.000000 285.426697 -168.682114
    endloop
  endfacet
  facet normal 0.000000 -1.000000 0.000000
    outer loop
      vertex 0.000000 285.426697 -152.464050
      vertex -111.611404 285.426697 -118.471298
      vertex -111.579765 285.426697 -119.196014
    endloop
  endfacet
  facet normal 0.000000 -1.000000 0.000000
    outer loop
      vertex 0.000000 285.426697 -152.464050
      vertex -111.579765 285.426697 -119.196014
      vertex -111.736771 285.426697 -119.904221
    endloop
  endfacet
  facet normal 0.000000 -1.000000 0.000000
    outer loop
      vertex 0.000000 285.426697 -152.464050
      vertex -2.406477 285.426697 -158.372787
      vertex -1.964880 285.426697 -157.797302
    endloop
  endfacet
  facet normal 0.000000 -1.000000 0.000000
    outer loop
      vertex 0.000000 285.426697 -152.464050
      vertex -1.964880 285.426697 -157.797302
      vertex -1.389380 285.426697 -157.355698
    endloop
  endfacet
  facet normal 0.000000 -1.000000 0.000000
    outer loop
      vertex 0.000000 285.426697 -152.464050
      vertex -1.389380 285.426697 -157.355698
      vertex -0.719196 285.426697 -157.078094
    endloop
  endfacet
  facet normal 0.000000 -1.000000 0.000000
    outer loop
      vertex 0.000000 285.426697 -152.464050
      vertex -0.719196 285.426697 -157.078094
      vertex 0.000000 285.426697 -156.983414
    endloop
  endfacet
  facet normal 0.000000 -1.000000 0.000000
    outer loop
      vertex 0.000000 285.426697 -152.464050
      vertex -111.741760 285.426697 -111.793373
      vertex -111.611404 285.426697 -118.471298
    endloop
  endfacet
  facet normal -0.000000 -1.000000 0.000000
    outer loop
      vertex 0.000000 285.426697 -152.464050
      vertex -111.736771 285.426697 -119.904221
      vertex -2.406477 285.426697 -158.372787
    endloop
  endfacet
  facet normal -0.939693 0.000000 0.342020
    outer loop
      vertex -113.397560 285.426697 -116.342651
      vertex -111.741760 301.966675 -111.793373
      vertex -113.397560 301.966675 -116.342651
    endloop
  endfacet
  facet normal -0.939693 0.000000 0.342020
    outer loop
      vertex -111.741760 285.426697 -111.793373
      vertex -111.741760 301.966675 -111.793373
      vertex -113.397560 285.426697 -116.342651
    endloop
  endfacet
  facet normal -0.939692 0.000000 0.342021
    outer loop
      vertex -115.298340 285.426697 -121.565010
      vertex -116.954147 301.966675 -126.114288
      vertex -116.954147 285.426697 -126.114288
    endloop
  endfacet
  facet normal -0.939692 0.000000 0.342021
    outer loop
      vertex -115.298340 285.426697 -121.565010
      vertex -115.298340 301.966675 -121.565010
      vertex -116.954147 301.966675 -126.114288
    endloop
  endfacet
  facet normal 0.342020 0.000000 0.939693
    outer loop
      vertex 0.000000 301.966675 -152.464050
      vertex -111.741760 285.426697 -111.793373
      vertex 0.000000 285.426697 -152.464050
    endloop
  endfacet
  facet normal 0.342020 0.000000 0.939693
    outer loop
      vertex 0.000000 301.966675 -152.464050
      vertex -111.741760 301.966675 -111.793373
      vertex -111.741760 285.426697 -111.793373
    endloop
  endfacet
endsolid Mesh