solid Mesh
  facet normal -0.342020 0.000000 -0.939693
    outer loop
      vertex -116.954147 303.978088 -126.114288
      vertex -116.954147 327.378082 -126.114288
      vertex 0.000000 327.378082 -168.682114
    endloop
  endfacet
  facet normal -0.342020 0.000000 -0.939693
    outer loop
      vertex 0.000000 303.978088 -168.682114
      vertex -116.954147 303.978088 -126.114288
      vertex 0.000000 327.378082 -168.682114
    endloop
  endfacet
  facet normal 1.000000 0.000000 0.000000
    outer loop
      vertex 0.000000 327.378082 -162.314880
      vertex 0.000000 303.978088 -162.314880
      vertex 0.000000 303.978088 -168.682114
    endloop
  endfacet
  facet normal 1.000000 0.000000 0.000000
    outer loop
      vertex 0.000000 327.378082 -168.682114
      vertex 0.000000 327.378082 -162.314880
      vertex 0.000000 303.978088 -168.682114
    endloop
  endfacet
  facet normal 1.000000 0.000000 0.000000
    outer loop
      vertex 0.000000 327.378082 -152.464050
      vertex 0.000000 303.978088 -152.464050
      vertex 0.000000 303.978088 -157.209473
    endloop
  endfacet
  facet normal 1.000000 0.000000 0.000000
    outer loop
      vertex 0.000000 327.378082 -157.209473
      vertex 0.000000 327.378082 -152.464050
      vertex 0.000000 303.978088 -157.209473
    endloop
  endfacet
  facet normal 0.130540 0.000000 -0.991443
    outer loop
      vertex 0.000000 327.378082 -157.209473
      vertex 0.000000 303.978088 -157.209473
      vertex -0.660687 303.978088 -157.296463
    endloop
  endfacet
  facet normal 0.130540 0.000000 -0.991443
    outer loop
      vertex -0.660687 327.378082 -157.296463
      vertex 0.000000 327.378082 -157.209473
      vertex -0.660687 303.978088 -157.296463
    endloop
  endfacet
  facet normal 0.382669 0.000000 -0.923885
    outer loop
      vertex -1.276350 327.378082 -157.551468
      vertex -0.660687 327.378082 -157.296463
      vertex -1.276350 303.978088 -157.551468
    endloop
  endfacet
  facet normal 0.382669 0.000000 -0.923885
    outer loop
      vertex -0.660687 327.378082 -157.296463
      vertex -0.660687 303.978088 -157.296463
      vertex -1.276350 303.978088 -157.551468
    endloop
  endfacet
  facet normal 0.608760 0.000000 -0.793354
    outer loop
      vertex -1.805032 327.378082 -157.957138
      vertex -1.276350 327.378082 -157.551468
      vertex -1.805032 303.978088 -157.957138
    endloop
  endfacet
  facet normal 0.608760 0.000000 -0.793354
    outer loop
      vertex -1.276350 327.378082 -157.551468
      vertex -1.276350 303.978088 -157.551468
      vertex -1.805032 303.978088 -157.957138
    endloop
  endfacet
  facet normal 0.793356 0.000000 -0.608758
    outer loop
      vertex -2.210703 327.378082 -158.485825
      vertex -1.805032 327.378082 -157.957138
      vertex -2.210703 303.978088 -158.485825
    endloop
  endfacet
  facet normal 0.793356 0.000000 -0.608758
    outer loop
      vertex -1.805032 327.378082 -157.957138
      vertex -1.805032 303.978088 -157.957138
      vertex -2.210703 303.978088 -158.485825
    endloop
  endfacet
  facet normal 0.923879 0.000000 -0.382684
    outer loop
      vertex -2.465719 327.378082 -159.101486
      vertex -2.210703 327.378082 -158.485825
      vertex -2.465719 303.978088 -159.101486
    endloop
  endfacet
  facet normal 0.923879 0.000000 -0.382684
    outer loop
      vertex -2.210703 327.378082 -158.485825
      vertex -2.210703 303.978088 -158.485825
      vertex -2.465719 303.978088 -159.101486
    endloop
  endfacet
  facet normal 0.991445 0.000000 -0.130526
    outer loop
      vertex -2.552700 327.378082 -159.762177
      vertex -2.465719 327.378082 -159.101486
      vertex -2.552700 303.978088 -159.762177
    endloop
  endfacet
  facet normal 0.991445 0.000000 0.130526
    outer loop
      vertex -2.465719 327.378082 -160.422867
      vertex -2.552700 327.378082 -159.762177
      vertex -2.552700 303.978088 -159.762177
    endloop
  endfacet
  facet normal 0.991445 0.000000 -0.130526
    outer loop
      vertex -2.465719 327.378082 -159.101486
      vertex -2.465719 303.978088 -159.101486
      vertex -2.552700 303.978088 -159.762177
    endloop
  endfacet
  facet normal 0.923879 0.000000 0.382684
    outer loop
      vertex -2.210703 327.378082 -161.038528
      vertex -2.465719 327.378082 -160.422867
      vertex -2.465719 303.978088 -160.422867
    endloop
  endfacet
  facet normal 0.991445 0.000000 0.130526
    outer loop
      vertex -2.465719 327.378082 -160.422867
      vertex -2.552700 303.978088 -159.762177
      vertex -2.465719 303.978088 -160.422867
    endloop
  endfacet
  facet normal 0.793348 0.000000 0.608769
    outer loop
      vertex -1.805032 327.378082 -161.567200
      vertex -2.210703 327.378082 -161.038528
      vertex -2.210703 303.978088 -161.038528
    endloop
  endfacet
  facet normal 0.923879 0.000000 0.382684
    outer loop
      vertex -2.210703 327.378082 -161.038528
      vertex -2.465719 303.978088 -160.422867
      vertex -2.210703 303.978088 -161.038528
    endloop
  endfacet
  facet normal 0.608774 0.000000 0.793343
    outer loop
      vertex -1.276350 327.378082 -161.972885
      vertex -1.805032 327.378082 -161.567200
      vertex -1.805032 303.978088 -161.567200
    endloop
  endfacet
  facet normal 0.793348 0.000000 0.608769
    outer loop
      vertex -1.805032 327.378082 -161.567200
      vertex -2.210703 303.978088 -161.038528
      vertex -1.805032 303.978088 -161.567200
    endloop
  endfacet
  facet normal 0.382669 0.000000 0.923885
    outer loop
      vertex -0.660687 327.378082 -162.227890
      vertex -1.276350 327.378082 -161.972885
      vertex -1.276350 303.978088 -161.972885
    endloop
  endfacet
  facet normal 0.608774 0.000000 0.793343
    outer loop
      vertex -1.276350 327.378082 -161.972885
      vertex -1.805032 303.978088 -161.567200
      vertex -1.276350 303.978088 -161.972885
    endloop
  endfacet
  facet normal 0.130540 0.000000 0.991443
    outer loop
      vertex 0.000000 327.378082 -162.314880
      vertex -0.660687 327.378082 -162.227890
      vertex -0.660687 303.978088 -162.227890
    endloop
  endfacet
  facet normal 0.382669 0.000000 0.923885
    outer loop
      vertex -0.660687 327.378082 -162.227890
      vertex -1.276350 303.978088 -161.972885
      vertex -0.660687 303.978088 -162.227890
    endloop
  endfacet
  facet normal 0.130540 0.000000 0.991443
    outer loop
      vertex 0.000000 327.378082 -162.314880
      vertex -0.660687 303.978088 -162.227890
      vertex 0.000000 303.978088 -162.314880
    endloop
  endfacet
  facet normal -0.000000 -1.000000 0.000000
    outer loop
      vertex -114.570435 303.978088 -121.496811
      vertex -115.221024 303.978088 -121.352585
      vertex -116.954147 303.978088 -126.114288
    endloop
  endfacet
  facet normal 0.000000 -1.000000 0.000000
    outer loop
      vertex -113.904678 303.978088 -121.467751
      vertex -114.570435 303.978088 -121.496811
      vertex -116.954147 303.978088 -126.114288
    endloop
  endfacet
  facet normal 0.000000 -1.000000 0.000000
    outer loop
      vertex -113.269135 303.978088 -121.267357
      vertex -113.904678 303.978088 -121.467751
      vertex -116.954147 303.978088 -126.114288
    endloop
  endfacet
  facet normal 0.000000 -1.000000 0.000000
    outer loop
      vertex -112.707108 303.978088 -120.909309
      vertex -113.269135 303.978088 -121.267357
      vertex -116.954147 303.978088 -126.114288
    endloop
  endfacet
  facet normal 0.000000 -1.000000 0.000000
    outer loop
      vertex -111.741760 303.978088 -111.793373
      vertex -113.474876 303.978088 -116.555077
      vertex -112.883781 303.978088 -116.862778
    endloop
  endfacet
  facet normal 0.000000 -1.000000 0.000000
    outer loop
      vertex -111.741760 303.978088 -111.793373
      vertex -112.883781 303.978088 -116.862778
      vertex -112.392471 303.978088 -117.312981
    endloop
  endfacet
  facet normal 0.000000 -1.000000 0.000000
    outer loop
      vertex -111.741760 303.978088 -111.793373
      vertex -112.392471 303.978088 -117.312981
      vertex -112.034416 303.978088 -117.875008
    endloop
  endfacet
  facet normal 0.000000 -1.000000 0.000000
    outer loop
      vertex -111.741760 303.978088 -111.793373
      vertex -112.034416 303.978088 -117.875008
      vertex -111.834030 303.978088 -118.510559
    endloop
  endfacet
  facet normal -0.000000 -1.000000 -0.000000
    outer loop
      vertex -2.465719 303.978088 -160.422867
      vertex -116.954147 303.978088 -126.114288
      vertex 0.000000 303.978088 -168.682114
    endloop
  endfacet
  facet normal 0.000000 -1.000000 0.000000
    outer loop
      vertex -2.465719 303.978088 -160.422867
      vertex 0.000000 303.978088 -168.682114
      vertex -2.210703 303.978088 -161.038528
    endloop
  endfacet
  facet normal -0.000000 -1.000000 -0.000000
    outer loop
      vertex -1.805032 303.978088 -161.567200
      vertex -2.210703 303.978088 -161.038528
      vertex 0.000000 303.978088 -168.682114
    endloop
  endfacet
  facet normal 0.000000 -1.000000 0.000000
    outer loop
      vertex -2.552700 303.978088 -159.762177
      vertex -112.256897 303.978088 -120.417999
      vertex -112.707108 303.978088 -120.909309
    endloop
  endfacet
  facet normal 0.000000 -1.000000 0.000000
    outer loop
      vertex -2.552700 303.978088 -159.762177
      vertex -112.707108 303.978088 -120.909309
      vertex -116.954147 303.978088 -126.114288
    endloop
  endfacet
  facet normal -0.000000 -1.000000 -0.000000
    outer loop
      vertex -2.552700 303.978088 -159.762177
      vertex -116.954147 303.978088 -126.114288
      vertex -2.465719 303.978088 -160.422867
    endloop
  endfacet
  facet normal -0.000000 -1.000000 -0.000000
    outer loop
      vertex -1.276350 303.978088 -161.972885
      vertex -1.805032 303.978088 -161.567200
      vertex 0.000000 303.978088 -168.682114
    endloop
  endfacet
  facet normal 0.000000 -1.000000 0.000000
    outer loop
      vertex -2.465719 303.978088 -159.101486
      vertex -111.949196 303.978088 -119.826904
      vertex -112.256897 303.978088 -120.417999
    endloop
  endfacet
  facet normal -0.000000 -1.000000 0.000000
    outer loop
      vertex -2.465719 303.978088 -159.101486
      vertex -112.256897 303.978088 -120.417999
      vertex -2.552700 303.978088 -159.762177
    endloop
  endfacet
  facet normal -0.000000 -1.000000 -0.000000
    outer loop
      vertex -0.660687 303.978088 -162.227890
      vertex -1.276350 303.978088 -161.972885
      vertex 0.000000 303.978088 -168.682114
    endloop
  endfacet
  facet normal -0.000000 -1.000000 0.000000
    outer loop
      vertex -2.210703 303.978088 -158.485825
      vertex -111.949196 303.978088 -119.826904
      vertex -2.465719 303.978088 -159.101486
    endloop
  endfacet
  facet normal -0.000000 -1.000000 -0.000000
    outer loop
      vertex 0.000000 303.978088 -162.314880
      vertex -0.660687 303.978088 -162.227890
      vertex 0.000000 303.978088 -168.682114
    endloop
  endfacet
  facet normal 0.000000 -1.000000 0.000000
    outer loop
      vertex 0.000000 303.978088 -152.464050
      vertex -2.210703 303.978088 -158.485825
      vertex -1.805032 303.978088 -157.957138
    endloop
  endfacet
  facet normal 0.000000 -1.000000 0.000000
    outer loop
      vertex 0.000000 303.978088 -152.464050
      vertex -1.805032 303.978088 -157.957138
      vertex -1.276350 303.978088 -157.551468
    endloop
  endfacet
  facet normal 0.000000 -1.000000 0.000000
    outer loop
      vertex 0.000000 303.978088 -152.464050
      vertex -1.276350 303.978088 -157.551468
      vertex -0.660687 303.978088 -157.296463
    endloop
  endfacet
  facet normal 0.000000 -1.000000 -0.000000
    outer loop
      vertex 0.000000 303.978088 -152.464050
      vertex -0.660687 303.978088 -157.296463
      vertex 0.000000 303.978088 -157.209473
    endloop
  endfacet
  facet normal 0.000000 -1.000000 0.000000
    outer loop
      vertex 0.000000 303.978088 -152.464050
      vertex -111.834030 303.978088 -118.510559
      vertex -111.804962 303.978088 -119.176308
    endloop
  endfacet
  facet normal 0.000000 -1.000000 0.000000
    outer loop
      vertex 0.000000 303.978088 -152.464050
      vertex -111.804962 303.978088 -119.176308
      vertex -111.949196 303.978088 -119.826904
    endloop
  endfacet
  facet normal 0.000000 -1.000000 0.000000
    outer loop
      vertex 0.000000 303.978088 -152.464050
      vertex -111.741760 303.978088 -111.793373
      vertex -111.834030 303.978088 -118.510559
    endloop
  endfacet
  facet normal -0.000000 -1.000000 0.000000
    outer loop
      vertex 0.000000 303.978088 -152.464050
      vertex -111.949196 303.978088 -119.826904
      vertex -2.210703 303.978088 -158.485825
    endloop
  endfacet
  facet normal -0.939692 0.000000 0.342021
    outer loop
      vertex -115.221024 303.978088 -121.352585
      vertex -116.954147 327.378082 -126.114288
      vertex -116.954147 303.978088 -126.114288
    endloop
  endfacet
  facet normal -0.939692 0.000000 0.342021
    outer loop
      vertex -115.221024 303.978088 -121.352585
      vertex -115.221024 327.378082 -121.352585
      vertex -116.954147 327.378082 -126.114288
    endloop
  endfacet
  facet normal -0.939693 0.000000 0.342020
    outer loop
      vertex -111.741760 303.978088 -111.793373
      vertex -113.474876 327.378082 -116.555077
      vertex -113.474876 303.978088 -116.555077
    endloop
  endfacet
  facet normal -0.939693 0.000000 0.342020
    outer loop
      vertex -111.741760 303.978088 -111.793373
      vertex -111.741760 327.378082 -111.793373
      vertex -113.474876 327.378082 -116.555077
    endloop
  endfacet
  facet normal 0.216431 0.000000 0.976298
    outer loop
      vertex -114.570435 327.378082 -121.496811
      vertex -115.221024 327.378082 -121.352585
      vertex -115.221024 303.978088 -121.352585
    endloop
  endfacet
  facet normal -0.043609 0.000000 0.999049
    outer loop
      vertex -113.904678 327.378082 -121.467751
      vertex -114.570435 327.378082 -121.496811
      vertex -114.570435 303.978088 -121.496811
    endloop
  endfacet
  facet normal 0.216431 0.000000 0.976298
    outer loop
      vertex -114.570435 327.378082 -121.496811
      vertex -115.221024 303.978088 -121.352585
      vertex -114.570435 303.978088 -121.496811
    endloop
  endfacet
  facet normal -0.300716 0.000000 0.953714
    outer loop
      vertex -113.269135 327.378082 -121.267357
      vertex -113.904678 327.378082 -121.467751
      vertex -113.904678 303.978088 -121.467751
    endloop
  endfacet
  facet normal -0.043609 0.000000 0.999049
    outer loop
      vertex -113.904678 327.378082 -121.467751
      vertex -114.570435 303.978088 -121.496811
      vertex -113.904678 303.978088 -121.467751
    endloop
  endfacet
  facet normal -0.537296 0.000000 0.843394
    outer loop
      vertex -112.707108 327.378082 -120.909309
      vertex -113.269135 327.378082 -121.267357
      vertex -113.269135 303.978088 -121.267357
    endloop
  endfacet
  facet normal -0.300716 0.000000 0.953714
    outer loop
      vertex -113.269135 327.378082 -121.267357
      vertex -113.904678 303.978088 -121.467751
      vertex -113.269135 303.978088 -121.267357
    endloop
  endfacet
  facet normal -0.737271 0.000000 0.675597
    outer loop
      vertex -112.256897 327.378082 -120.417999
      vertex -112.707108 327.378082 -120.909309
      vertex -112.707108 303.978088 -120.909309
    endloop
  endfacet
  facet normal -0.537296 0.000000 0.843394
    outer loop
      vertex -112.707108 327.378082 -120.909309
      vertex -113.269135 303.978088 -121.267357
      vertex -112.707108 303.978088 -120.909309
    endloop
  endfacet
  facet normal -0.887013 0.000000 0.461745
    outer loop
      vertex -111.949196 327.378082 -119.826904
      vertex -112.256897 327.378082 -120.417999
      vertex -112.256897 303.978088 -120.417999
    endloop
  endfacet
  facet normal -0.737271 0.000000 0.675597
    outer loop
      vertex -112.256897 327.378082 -120.417999
      vertex -112.707108 303.978088 -120.909309
      vertex -112.256897 303.978088 -120.417999
    endloop
  endfacet
  facet normal -0.976296 0.000000 0.216439
    outer loop
      vertex -111.804962 327.378082 -119.176308
      vertex -111.949196 327.378082 -119.826904
      vertex -111.949196 303.978088 -119.826904
    endloop
  endfacet
  facet normal -0.887013 0.000000 0.461745
    outer loop
      vertex -111.949196 327.378082 -119.826904
      vertex -112.256897 303.978088 -120.417999
      vertex -111.949196 303.978088 -119.826904
    endloop
  endfacet
  facet normal -0.999048 0.000000 -0.043621
    outer loop
      vertex -111.834030 327.378082 -118.510559
      vertex -111.804962 327.378082 -119.176308
      vertex -111.804962 303.978088 -119.176308
    endloop
  endfacet
  facet normal -0.976296 0.000000 0.216439
    outer loop
      vertex -111.804962 327.378082 -119.176308
      vertex -111.949196 303.978088 -119.826904
      vertex -111.804962 303.978088 -119.176308
    endloop
  endfacet
  facet normal -0.953718 0.000000 -0.300702
    outer loop
      vertex -112.034416 327.378082 -117.875008
      vertex -111.834030 327.378082 -118.510559
      vertex -111.834030 303.978088 -118.510559
    endloop
  endfacet
  facet normal -0.999048 -0.000000 -0.043621
    outer loop
      vertex -111.834030 327.378082 -118.510559
      vertex -111.804962 303.978088 -119.176308
      vertex -111.834030 303.978088 -118.510559
    endloop
  endfacet
  facet normal -0.843388 0.000000 -0.537304
    outer loop
      vertex -112.392471 327.378082 -117.312981
      vertex -112.034416 327.378082 -117.875008
      vertex -112.034416 303.978088 -117.875008
    endloop
  endfacet
  facet normal -0.953718 -0.000000 -0.300702
    outer loop
      vertex -112.034416 327.378082 -117.875008
      vertex -111.834030 303.978088 -118.510559
      vertex -112.034416 303.978088 -117.875008
    endloop
  endfacet
  facet normal -0.675590 0.000000 -0.737277
    outer loop
      vertex -112.883781 327.378082 -116.862778
      vertex -112.392471 327.378082 -117.312981
      vertex -112.392471 303.978088 -117.312981
    endloop
  endfacet
  facet normal -0.843388 -0.000000 -0.537304
    outer loop
      vertex -112.392471 327.378082 -117.312981
      vertex -112.034416 303.978088 -117.875008
      vertex -112.392471 303.978088 -117.312981
    endloop
  endfacet
  facet normal -0.461745 0.000000 -0.887013
    outer loop
      vertex -113.474876 327.378082 -116.555077
      vertex -112.883781 327.378082 -116.862778
      vertex -112.883781 303.978088 -116.862778
    endloop
  endfacet
  facet normal -0.675590 -0.000000 -0.737277
    outer loop
      vertex -112.883781 327.378082 -116.862778
      vertex -112.392471 303.978088 -117.312981
      vertex -112.883781 303.978088 -116.862778
    endloop
  endfacet
  facet normal -0.461745 -0.000000 -0.887013
    outer loop
      vertex -113.474876 327.378082 -116.555077
      vertex -112.883781 303.978088 -116.862778
      vertex -113.474876 303.978088 -116.555077
    endloop
  endfacet
  facet normal 0.000000 1.000000 0.000000
    outer loop
      vertex -0.660687 327.378082 -162.227890
      vertex 0.000000 327.378082 -162.314880
      vertex 0.000000 327.378082 -168.682114
    endloop
  endfacet
  facet normal 0.000000 1.000000 0.000000
    outer loop
      vertex -1.276350 327.378082 -161.972885
      vertex -0.660687 327.378082 -162.227890
      vertex 0.000000 327.378082 -168.682114
    endloop
  endfacet
  facet normal 0.000000 1.000000 0.000000
    outer loop
      vertex -1.805032 327.378082 -161.567200
      vertex -1.276350 327.378082 -161.972885
      vertex 0.000000 327.378082 -168.682114
    endloop
  endfacet
  facet normal 0.000000 1.000000 0.000000
    outer loop
      vertex -2.210703 327.378082 -161.038528
      vertex -1.805032 327.378082 -161.567200
      vertex 0.000000 327.378082 -168.682114
    endloop
  endfacet
  facet normal 0.000000 1.000000 0.000000
    outer loop
      vertex -2.465719 327.378082 -160.422867
      vertex -2.210703 327.378082 -161.038528
      vertex 0.000000 327.378082 -168.682114
    endloop
  endfacet
  facet normal 0.000000 1.000000 0.000000
    outer loop
      vertex 0.000000 327.378082 -152.464050
      vertex 0.000000 327.378082 -157.209473
      vertex -0.660687 327.378082 -157.296463
    endloop
  endfacet
  facet normal 0.000000 1.000000 0.000000
    outer loop
      vertex 0.000000 327.378082 -152.464050
      vertex -0.660687 327.378082 -157.296463
      vertex -1.276350 327.378082 -157.551468
    endloop
  endfacet
  facet normal 0.000000 1.000000 0.000000
    outer loop
      vertex 0.000000 327.378082 -152.464050
      vertex -1.276350 327.378082 -157.551468
      vertex -1.805032 327.378082 -157.957138
    endloop
  endfacet
  facet normal 0.000000 1.000000 0.000000
    outer loop
      vertex 0.000000 327.378082 -152.464050
      vertex -1.805032 327.378082 -157.957138
      vertex -2.210703 327.378082 -158.485825
    endloop
  endfacet
  facet normal 0.000000 1.000000 0.000000
    outer loop
      vertex -116.954147 327.378082 -126.114288
      vertex -2.552700 327.378082 -159.762177
      vertex -2.465719 327.378082 -160.422867
    endloop
  endfacet
  facet normal 0.000000 1.000000 0.000000
    outer loop
      vertex -116.954147 327.378082 -126.114288
      vertex -2.465719 327.378082 -160.422867
      vertex 0.000000 327.378082 -168.682114
    endloop
  endfacet
  facet normal 0.000000 1.000000 0.000000
    outer loop
      vertex -112.707108 327.378082 -120.909309
      vertex -2.552700 327.378082 -159.762177
      vertex -116.954147 327.378082 -126.114288
    endloop
  endfacet
  facet normal 0.000000 1.000000 0.000000
    outer loop
      vertex -112.707108 327.378082 -120.909309
      vertex -116.954147 327.378082 -126.114288
      vertex -113.269135 327.378082 -121.267357
    endloop
  endfacet
  facet normal -0.000000 1.000000 0.000000
    outer loop
      vertex -113.904678 327.378082 -121.467751
      vertex -113.269135 327.378082 -121.267357
      vertex -116.954147 327.378082 -126.114288
    endloop
  endfacet
  facet normal 0.000000 1.000000 0.000000
    outer loop
      vertex -112.256897 327.378082 -120.417999
      vertex -2.465719 327.378082 -159.101486
      vertex -2.552700 327.378082 -159.762177
    endloop
  endfacet
  facet normal 0.000000 1.000000 0.000000
    outer loop
      vertex -112.256897 327.378082 -120.417999
      vertex -2.552700 327.378082 -159.762177
      vertex -112.707108 327.378082 -120.909309
    endloop
  endfacet
  facet normal -0.000000 1.000000 0.000000
    outer loop
      vertex -114.570435 327.378082 -121.496811
      vertex -113.904678 327.378082 -121.467751
      vertex -116.954147 327.378082 -126.114288
    endloop
  endfacet
  facet normal 0.000000 1.000000 0.000000
    outer loop
      vertex -111.949196 327.378082 -119.826904
      vertex -2.210703 327.378082 -158.485825
      vertex -2.465719 327.378082 -159.101486
    endloop
  endfacet
  facet normal 0.000000 1.000000 0.000000
    outer loop
      vertex -111.949196 327.378082 -119.826904
      vertex 0.000000 327.378082 -152.464050
      vertex -2.210703 327.378082 -158.485825
    endloop
  endfacet
  facet normal 0.000000 1.000000 0.000000
    outer loop
      vertex -111.949196 327.378082 -119.826904
      vertex -2.465719 327.378082 -159.101486
      vertex -112.256897 327.378082 -120.417999
    endloop
  endfacet
  facet normal 0.000000 1.000000 0.000000
    outer loop
      vertex -115.221024 327.378082 -121.352585
      vertex -114.570435 327.378082 -121.496811
      vertex -116.954147 327.378082 -126.114288
    endloop
  endfacet
  facet normal 0.000000 1.000000 0.000000
    outer loop
      vertex -111.804962 327.378082 -119.176308
      vertex 0.000000 327.378082 -152.464050
      vertex -111.949196 327.378082 -119.826904
    endloop
  endfacet
  facet normal 0.000000 1.000000 0.000000
    outer loop
      vertex -111.834030 327.378082 -118.510559
      vertex 0.000000 327.378082 -152.464050
      vertex -111.804962 327.378082 -119.176308
    endloop
  endfacet
  facet normal 0.000000 1.000000 0.000000
    outer loop
      vertex -111.741760 327.378082 -111.793373
      vertex -111.834030 327.378082 -118.510559
      vertex -112.034416 327.378082 -117.875008
    endloop
  endfacet
  facet normal 0.000000 1.000000 0.000000
    outer loop
      vertex -111.741760 327.378082 -111.793373
      vertex -112.034416 327.378082 -117.875008
      vertex -112.392471 327.378082 -117.312981
    endloop
  endfacet
  facet normal 0.000000 1.000000 0.000000
    outer loop
      vertex -111.741760 327.378082 -111.793373
      vertex -112.392471 327.378082 -117.312981
      vertex -112.883781 327.378082 -116.862778
    endloop
  endfacet
  facet normal 0.000000 1.000000 0.000000
    outer loop
      vertex -111.741760 327.378082 -111.793373
      vertex -112.883781 327.378082 -116.862778
      vertex -113.474876 327.378082 -116.555077
    endloop
  endfacet
  facet normal 0.000000 1.000000 0.000000
    outer loop
      vertex -111.741760 327.378082 -111.793373
      vertex 0.000000 327.378082 -152.464050
      vertex -111.834030 327.378082 -118.510559
    endloop
  endfacet
  facet normal 0.342020 0.000000 0.939693
    outer loop
      vertex 0.000000 327.378082 -152.464050
      vertex -111.741760 303.978088 -111.793373
      vertex 0.000000 303.978088 -152.464050
    endloop
  endfacet
  facet normal 0.342020 0.000000 0.939693
    outer loop
      vertex 0.000000 327.378082 -152.464050
      vertex -111.741760 327.378082 -111.793373
      vertex -111.741760 303.978088 -111.793373
    endloop
  endfacet
endsolid Mesh