solid Mesh
  facet normal -0.342020 0.000000 -0.939693
    outer loop
      vertex -116.954147 329.378082 -126.114288
      vertex -116.954147 392.302765 -126.114288
      vertex 0.000000 392.302765 -168.682114
    endloop
  endfacet
  facet normal -0.342020 0.000000 -0.939693
    outer loop
      vertex 0.000000 329.378082 -168.682114
      vertex -116.954147 329.378082 -126.114288
      vertex 0.000000 392.302765 -168.682114
    endloop
  endfacet
  facet normal 1.000000 0.000000 0.000000
    outer loop
      vertex 0.000000 392.302765 -168.682114
      vertex 0.000000 392.302765 -162.314880
      vertex 0.000000 329.378082 -162.314880
    endloop
  endfacet
  facet normal 1.000000 0.000000 0.000000
    outer loop
      vertex 0.000000 392.302765 -168.682114
      vertex 0.000000 329.378082 -162.314880
      vertex 0.000000 329.378082 -168.682114
    endloop
  endfacet
  facet normal 1.000000 0.000000 0.000000
    outer loop
      vertex 0.000000 392.302765 -152.464050
      vertex 0.000000 329.378082 -152.464050
      vertex 0.000000 329.378082 -157.209473
    endloop
  endfacet
  facet normal 1.000000 0.000000 0.000000
    outer loop
      vertex 0.000000 392.302765 -157.209473
      vertex 0.000000 392.302765 -152.464050
      vertex 0.000000 329.378082 -157.209473
    endloop
  endfacet
  facet normal 0.130540 0.000000 -0.991443
    outer loop
      vertex 0.000000 392.302765 -157.209473
      vertex 0.000000 329.378082 -157.209473
      vertex -0.660687 329.378082 -157.296463
    endloop
  endfacet
  facet normal 0.130540 0.000000 -0.991443
    outer loop
      vertex -0.660687 392.302765 -157.296463
      vertex 0.000000 392.302765 -157.209473
      vertex -0.660687 329.378082 -157.296463
    endloop
  endfacet
  facet normal 0.382669 0.000000 -0.923885
    outer loop
      vertex -1.276350 392.302765 -157.551468
      vertex -0.660687 392.302765 -157.296463
      vertex -1.276350 329.378082 -157.551468
    endloop
  endfacet
  facet normal 0.382669 0.000000 -0.923885
    outer loop
      vertex -0.660687 392.302765 -157.296463
      vertex -0.660687 329.378082 -157.296463
      vertex -1.276350 329.378082 -157.551468
    endloop
  endfacet
  facet normal 0.608760 0.000000 -0.793354
    outer loop
      vertex -1.805032 392.302765 -157.957138
      vertex -1.276350 392.302765 -157.551468
      vertex -1.805032 329.378082 -157.957138
    endloop
  endfacet
  facet normal 0.608760 0.000000 -0.793354
    outer loop
      vertex -1.276350 392.302765 -157.551468
      vertex -1.276350 329.378082 -157.551468
      vertex -1.805032 329.378082 -157.957138
    endloop
  endfacet
  facet normal 0.793356 0.000000 -0.608758
    outer loop
      vertex -2.210703 392.302765 -158.485825
      vertex -1.805032 392.302765 -157.957138
      vertex -2.210703 329.378082 -158.485825
    endloop
  endfacet
  facet normal 0.793356 0.000000 -0.608758
    outer loop
      vertex -1.805032 392.302765 -157.957138
      vertex -1.805032 329.378082 -157.957138
      vertex -2.210703 329.378082 -158.485825
    endloop
  endfacet
  facet normal 0.923879 0.000000 -0.382684
    outer loop
      vertex -2.465719 392.302765 -159.101486
      vertex -2.210703 392.302765 -158.485825
      vertex -2.465719 329.378082 -159.101486
    endloop
  endfacet
  facet normal 0.923879 0.000000 -0.382684
    outer loop
      vertex -2.210703 392.302765 -158.485825
      vertex -2.210703 329.378082 -158.485825
      vertex -2.465719 329.378082 -159.101486
    endloop
  endfacet
  facet normal 0.991445 0.000000 -0.130526
    outer loop
      vertex -2.552700 392.302765 -159.762177
      vertex -2.465719 392.302765 -159.101486
      vertex -2.552700 329.378082 -159.762177
    endloop
  endfacet
  facet normal 0.991445 0.000000 0.130526
    outer loop
      vertex -2.465719 392.302765 -160.422867
      vertex -2.552700 392.302765 -159.762177
      vertex -2.552700 329.378082 -159.762177
    endloop
  endfacet
  facet normal 0.991445 0.000000 -0.130526
    outer loop
      vertex -2.465719 392.302765 -159.101486
      vertex -2.465719 329.378082 -159.101486
      vertex -2.552700 329.378082 -159.762177
    endloop
  endfacet
  facet normal 0.923879 0.000000 0.382684
    outer loop
      vertex -2.210703 392.302765 -161.038528
      vertex -2.465719 392.302765 -160.422867
      vertex -2.465719 329.378082 -160.422867
    endloop
  endfacet
  facet normal 0.991445 0.000000 0.130526
    outer loop
      vertex -2.465719 392.302765 -160.422867
      vertex -2.552700 329.378082 -159.762177
      vertex -2.465719 329.378082 -160.422867
    endloop
  endfacet
  facet normal 0.793348 0.000000 0.608769
    outer loop
      vertex -1.805032 392.302765 -161.567200
      vertex -2.210703 392.302765 -161.038528
      vertex -2.210703 329.378082 -161.038528
    endloop
  endfacet
  facet normal 0.923879 0.000000 0.382684
    outer loop
      vertex -2.210703 392.302765 -161.038528
      vertex -2.465719 329.378082 -160.422867
      vertex -2.210703 329.378082 -161.038528
    endloop
  endfacet
  facet normal 0.608774 0.000000 0.793343
    outer loop
      vertex -1.276350 392.302765 -161.972885
      vertex -1.805032 392.302765 -161.567200
      vertex -1.805032 329.378082 -161.567200
    endloop
  endfacet
  facet normal 0.793348 0.000000 0.608769
    outer loop
      vertex -1.805032 392.302765 -161.567200
      vertex -2.210703 329.378082 -161.038528
      vertex -1.805032 329.378082 -161.567200
    endloop
  endfacet
  facet normal 0.382669 0.000000 0.923885
    outer loop
      vertex -0.660687 392.302765 -162.227890
      vertex -1.276350 392.302765 -161.972885
      vertex -1.276350 329.378082 -161.972885
    endloop
  endfacet
  facet normal 0.608774 0.000000 0.793343
    outer loop
      vertex -1.276350 392.302765 -161.972885
      vertex -1.805032 329.378082 -161.567200
      vertex -1.276350 329.378082 -161.972885
    endloop
  endfacet
  facet normal 0.130540 0.000000 0.991443
    outer loop
      vertex 0.000000 392.302765 -162.314880
      vertex -0.660687 392.302765 -162.227890
      vertex -0.660687 329.378082 -162.227890
    endloop
  endfacet
  facet normal 0.382669 0.000000 0.923885
    outer loop
      vertex -0.660687 392.302765 -162.227890
      vertex -1.276350 329.378082 -161.972885
      vertex -0.660687 329.378082 -162.227890
    endloop
  endfacet
  facet normal 0.130540 0.000000 0.991443
    outer loop
      vertex 0.000000 392.302765 -162.314880
      vertex -0.660687 329.378082 -162.227890
      vertex 0.000000 329.378082 -162.314880
    endloop
  endfacet
  facet normal -0.000000 -1.000000 0.000000
    outer loop
      vertex -114.570435 329.378082 -121.496811
      vertex -115.221024 329.378082 -121.352585
      vertex -116.954147 329.378082 -126.114288
    endloop
  endfacet
  facet normal 0.000000 -1.000000 0.000000
    outer loop
      vertex -113.904678 329.378082 -121.467751
      vertex -114.570435 329.378082 -121.496811
      vertex -116.954147 329.378082 -126.114288
    endloop
  endfacet
  facet normal 0.000000 -1.000000 0.000000
    outer loop
      vertex -113.269135 329.378082 -121.267357
      vertex -113.904678 329.378082 -121.467751
      vertex -116.954147 329.378082 -126.114288
    endloop
  endfacet
  facet normal 0.000000 -1.000000 0.000000
    outer loop
      vertex -112.707108 329.378082 -120.909309
      vertex -113.269135 329.378082 -121.267357
      vertex -116.954147 329.378082 -126.114288
    endloop
  endfacet
  facet normal 0.000000 -1.000000 0.000000
    outer loop
      vertex -111.741760 329.378082 -111.793373
      vertex -113.474876 329.378082 -116.555077
      vertex -112.883781 329.378082 -116.862778
    endloop
  endfacet
  facet normal 0.000000 -1.000000 0.000000
    outer loop
      vertex -111.741760 329.378082 -111.793373
      vertex -112.883781 329.378082 -116.862778
      vertex -112.392471 329.378082 -117.312981
    endloop
  endfacet
  facet normal 0.000000 -1.000000 0.000000
    outer loop
      vertex -111.741760 329.378082 -111.793373
      vertex -112.392471 329.378082 -117.312981
      vertex -112.034416 329.378082 -117.875008
    endloop
  endfacet
  facet normal 0.000000 -1.000000 0.000000
    outer loop
      vertex -111.741760 329.378082 -111.793373
      vertex -112.034416 329.378082 -117.875008
      vertex -111.834030 329.378082 -118.510559
    endloop
  endfacet
  facet normal -0.000000 -1.000000 -0.000000
    outer loop
      vertex -2.465719 329.378082 -160.422867
      vertex -116.954147 329.378082 -126.114288
      vertex 0.000000 329.378082 -168.682114
    endloop
  endfacet
  facet normal 0.000000 -1.000000 0.000000
    outer loop
      vertex -2.465719 329.378082 -160.422867
      vertex 0.000000 329.378082 -168.682114
      vertex -2.210703 329.378082 -161.038528
    endloop
  endfacet
  facet normal -0.000000 -1.000000 -0.000000
    outer loop
      vertex -1.805032 329.378082 -161.567200
      vertex -2.210703 329.378082 -161.038528
      vertex 0.000000 329.378082 -168.682114
    endloop
  endfacet
  facet normal 0.000000 -1.000000 0.000000
    outer loop
      vertex -2.552700 329.378082 -159.762177
      vertex -112.256897 329.378082 -120.417999
      vertex -112.707108 329.378082 -120.909309
    endloop
  endfacet
  facet normal 0.000000 -1.000000 0.000000
    outer loop
      vertex -2.552700 329.378082 -159.762177
      vertex -112.707108 329.378082 -120.909309
      vertex -116.954147 329.378082 -126.114288
    endloop
  endfacet
  facet normal -0.000000 -1.000000 -0.000000
    outer loop
      vertex -2.552700 329.378082 -159.762177
      vertex -116.954147 329.378082 -126.114288
      vertex -2.465719 329.378082 -160.422867
    endloop
  endfacet
  facet normal -0.000000 -1.000000 -0.000000
    outer loop
      vertex -1.276350 329.378082 -161.972885
      vertex -1.805032 329.378082 -161.567200
      vertex 0.000000 329.378082 -168.682114
    endloop
  endfacet
  facet normal 0.000000 -1.000000 0.000000
    outer loop
      vertex -2.465719 329.378082 -159.101486
      vertex -111.949196 329.378082 -119.826904
      vertex -112.256897 329.378082 -120.417999
    endloop
  endfacet
  facet normal -0.000000 -1.000000 0.000000
    outer loop
      vertex -2.465719 329.378082 -159.101486
      vertex -112.256897 329.378082 -120.417999
      vertex -2.552700 329.378082 -159.762177
    endloop
  endfacet
  facet normal -0.000000 -1.000000 -0.000000
    outer loop
      vertex -0.660687 329.378082 -162.227890
      vertex -1.276350 329.378082 -161.972885
      vertex 0.000000 329.378082 -168.682114
    endloop
  endfacet
  facet normal -0.000000 -1.000000 0.000000
    outer loop
      vertex -2.210703 329.378082 -158.485825
      vertex -111.949196 329.378082 -119.826904
      vertex -2.465719 329.378082 -159.101486
    endloop
  endfacet
  facet normal -0.000000 -1.000000 -0.000000
    outer loop
      vertex 0.000000 329.378082 -162.314880
      vertex -0.660687 329.378082 -162.227890
      vertex 0.000000 329.378082 -168.682114
    endloop
  endfacet
  facet normal 0.000000 -1.000000 0.000000
    outer loop
      vertex 0.000000 329.378082 -152.464050
      vertex -2.210703 329.378082 -158.485825
      vertex -1.805032 329.378082 -157.957138
    endloop
  endfacet
  facet normal 0.000000 -1.000000 0.000000
    outer loop
      vertex 0.000000 329.378082 -152.464050
      vertex -1.805032 329.378082 -157.957138
      vertex -1.276350 329.378082 -157.551468
    endloop
  endfacet
  facet normal 0.000000 -1.000000 0.000000
    outer loop
      vertex 0.000000 329.378082 -152.464050
      vertex -1.276350 329.378082 -157.551468
      vertex -0.660687 329.378082 -157.296463
    endloop
  endfacet
  facet normal 0.000000 -1.000000 -0.000000
    outer loop
      vertex 0.000000 329.378082 -152.464050
      vertex -0.660687 329.378082 -157.296463
      vertex 0.000000 329.378082 -157.209473
    endloop
  endfacet
  facet normal 0.000000 -1.000000 0.000000
    outer loop
      vertex 0.000000 329.378082 -152.464050
      vertex -111.834030 329.378082 -118.510559
      vertex -111.804962 329.378082 -119.176308
    endloop
  endfacet
  facet normal 0.000000 -1.000000 0.000000
    outer loop
      vertex 0.000000 329.378082 -152.464050
      vertex -111.804962 329.378082 -119.176308
      vertex -111.949196 329.378082 -119.826904
    endloop
  endfacet
  facet normal 0.000000 -1.000000 0.000000
    outer loop
      vertex 0.000000 329.378082 -152.464050
      vertex -111.741760 329.378082 -111.793373
      vertex -111.834030 329.378082 -118.510559
    endloop
  endfacet
  facet normal -0.000000 -1.000000 0.000000
    outer loop
      vertex 0.000000 329.378082 -152.464050
      vertex -111.949196 329.378082 -119.826904
      vertex -2.210703 329.378082 -158.485825
    endloop
  endfacet
  facet normal -0.939692 0.000000 0.342021
    outer loop
      vertex -115.221024 329.378082 -121.352585
      vertex -116.954147 392.302765 -126.114288
      vertex -116.954147 329.378082 -126.114288
    endloop
  endfacet
  facet normal -0.939692 0.000000 0.342021
    outer loop
      vertex -115.221024 329.378082 -121.352585
      vertex -115.221024 392.302765 -121.352585
      vertex -116.954147 392.302765 -126.114288
    endloop
  endfacet
  facet normal -0.939693 0.000000 0.342020
    outer loop
      vertex -111.741760 329.378082 -111.793373
      vertex -113.474876 392.302765 -116.555077
      vertex -113.474876 329.378082 -116.555077
    endloop
  endfacet
  facet normal -0.939693 0.000000 0.342020
    outer loop
      vertex -111.741760 329.378082 -111.793373
      vertex -111.741760 392.302765 -111.793373
      vertex -113.474876 392.302765 -116.555077
    endloop
  endfacet
  facet normal 0.216431 0.000000 0.976298
    outer loop
      vertex -114.570435 392.302765 -121.496811
      vertex -115.221024 392.302765 -121.352585
      vertex -115.221024 329.378082 -121.352585
    endloop
  endfacet
  facet normal -0.043609 0.000000 0.999049
    outer loop
      vertex -113.904678 392.302765 -121.467751
      vertex -114.570435 392.302765 -121.496811
      vertex -114.570435 329.378082 -121.496811
    endloop
  endfacet
  facet normal 0.216431 0.000000 0.976298
    outer loop
      vertex -114.570435 392.302765 -121.496811
      vertex -115.221024 329.378082 -121.352585
      vertex -114.570435 329.378082 -121.496811
    endloop
  endfacet
  facet normal -0.300716 0.000000 0.953714
    outer loop
      vertex -113.269135 392.302765 -121.267357
      vertex -113.904678 392.302765 -121.467751
      vertex -113.904678 329.378082 -121.467751
    endloop
  endfacet
  facet normal -0.043609 0.000000 0.999049
    outer loop
      vertex -113.904678 392.302765 -121.467751
      vertex -114.570435 329.378082 -121.496811
      vertex -113.904678 329.378082 -121.467751
    endloop
  endfacet
  facet normal -0.537296 0.000000 0.843394
    outer loop
      vertex -112.707108 392.302765 -120.909309
      vertex -113.269135 392.302765 -121.267357
      vertex -113.269135 329.378082 -121.267357
    endloop
  endfacet
  facet normal -0.300716 0.000000 0.953714
    outer loop
      vertex -113.269135 392.302765 -121.267357
      vertex -113.904678 329.378082 -121.467751
      vertex -113.269135 329.378082 -121.267357
    endloop
  endfacet
  facet normal -0.737272 0.000000 0.675597
    outer loop
      vertex -112.256897 392.302765 -120.417999
      vertex -112.707108 392.302765 -120.909309
      vertex -112.707108 329.378082 -120.909309
    endloop
  endfacet
  facet normal -0.537296 0.000000 0.843394
    outer loop
      vertex -112.707108 392.302765 -120.909309
      vertex -113.269135 329.378082 -121.267357
      vertex -112.707108 329.378082 -120.909309
    endloop
  endfacet
  facet normal -0.887013 0.000000 0.461745
    outer loop
      vertex -111.949196 392.302765 -119.826904
      vertex -112.256897 392.302765 -120.417999
      vertex -112.256897 329.378082 -120.417999
    endloop
  endfacet
  facet normal -0.737272 0.000000 0.675597
    outer loop
      vertex -112.256897 392.302765 -120.417999
      vertex -112.707108 329.378082 -120.909309
      vertex -112.256897 329.378082 -120.417999
    endloop
  endfacet
  facet normal -0.976296 0.000000 0.216439
    outer loop
      vertex -111.804962 392.302765 -119.176308
      vertex -111.949196 392.302765 -119.826904
      vertex -111.949196 329.378082 -119.826904
    endloop
  endfacet
  facet normal -0.887013 0.000000 0.461745
    outer loop
      vertex -111.949196 392.302765 -119.826904
      vertex -112.256897 329.378082 -120.417999
      vertex -111.949196 329.378082 -119.826904
    endloop
  endfacet
  facet normal -0.999048 0.000000 -0.043621
    outer loop
      vertex -111.834030 392.302765 -118.510559
      vertex -111.804962 392.302765 -119.176308
      vertex -111.804962 329.378082 -119.176308
    endloop
  endfacet
  facet normal -0.976296 0.000000 0.216439
    outer loop
      vertex -111.804962 392.302765 -119.176308
      vertex -111.949196 329.378082 -119.826904
      vertex -111.804962 329.378082 -119.176308
    endloop
  endfacet
  facet normal -0.953718 0.000000 -0.300702
    outer loop
      vertex -112.034416 392.302765 -117.875008
      vertex -111.834030 392.302765 -118.510559
      vertex -111.834030 329.378082 -118.510559
    endloop
  endfacet
  facet normal -0.999048 -0.000000 -0.043621
    outer loop
      vertex -111.834030 392.302765 -118.510559
      vertex -111.804962 329.378082 -119.176308
      vertex -111.834030 329.378082 -118.510559
    endloop
  endfacet
  facet normal -0.843388 0.000000 -0.537304
    outer loop
      vertex -112.392471 392.302765 -117.312981
      vertex -112.034416 392.302765 -117.875008
      vertex -112.034416 329.378082 -117.875008
    endloop
  endfacet
  facet normal -0.953718 -0.000000 -0.300702
    outer loop
      vertex -112.034416 392.302765 -117.875008
      vertex -111.834030 329.378082 -118.510559
      vertex -112.034416 329.378082 -117.875008
    endloop
  endfacet
  facet normal -0.675590 0.000000 -0.737277
    outer loop
      vertex -112.883781 392.302765 -116.862778
      vertex -112.392471 392.302765 -117.312981
      vertex -112.392471 329.378082 -117.312981
    endloop
  endfacet
  facet normal -0.843388 -0.000000 -0.537304
    outer loop
      vertex -112.392471 392.302765 -117.312981
      vertex -112.034416 329.378082 -117.875008
      vertex -112.392471 329.378082 -117.312981
    endloop
  endfacet
  facet normal -0.461745 0.000000 -0.887013
    outer loop
      vertex -113.474876 392.302765 -116.555077
      vertex -112.883781 392.302765 -116.862778
      vertex -112.883781 329.378082 -116.862778
    endloop
  endfacet
  facet normal -0.675590 -0.000000 -0.737277
    outer loop
      vertex -112.883781 392.302765 -116.862778
      vertex -112.392471 329.378082 -117.312981
      vertex -112.883781 329.378082 -116.862778
    endloop
  endfacet
  facet normal -0.461745 -0.000000 -0.887013
    outer loop
      vertex -113.474876 392.302765 -116.555077
      vertex -112.883781 329.378082 -116.862778
      vertex -113.474876 329.378082 -116.555077
    endloop
  endfacet
  facet normal 0.000000 1.000000 0.000000
    outer loop
      vertex -0.660687 392.302765 -162.227890
      vertex 0.000000 392.302765 -162.314880
      vertex 0.000000 392.302765 -168.682114
    endloop
  endfacet
  facet normal 0.000000 1.000000 0.000000
    outer loop
      vertex -1.276350 392.302765 -161.972885
      vertex -0.660687 392.302765 -162.227890
      vertex 0.000000 392.302765 -168.682114
    endloop
  endfacet
  facet normal 0.000000 1.000000 0.000000
    outer loop
      vertex -1.805032 392.302765 -161.567200
      vertex -1.276350 392.302765 -161.972885
      vertex 0.000000 392.302765 -168.682114
    endloop
  endfacet
  facet normal 0.000000 1.000000 0.000000
    outer loop
      vertex -2.210703 392.302765 -161.038528
      vertex -1.805032 392.302765 -161.567200
      vertex 0.000000 392.302765 -168.682114
    endloop
  endfacet
  facet normal 0.000000 1.000000 0.000000
    outer loop
      vertex -2.465719 392.302765 -160.422867
      vertex -2.210703 392.302765 -161.038528
      vertex 0.000000 392.302765 -168.682114
    endloop
  endfacet
  facet normal 0.000000 1.000000 0.000000
    outer loop
      vertex 0.000000 392.302765 -152.464050
      vertex 0.000000 392.302765 -157.209473
      vertex -0.660687 392.302765 -157.296463
    endloop
  endfacet
  facet normal 0.000000 1.000000 0.000000
    outer loop
      vertex 0.000000 392.302765 -152.464050
      vertex -0.660687 392.302765 -157.296463
      vertex -1.276350 392.302765 -157.551468
    endloop
  endfacet
  facet normal 0.000000 1.000000 0.000000
    outer loop
      vertex 0.000000 392.302765 -152.464050
      vertex -1.276350 392.302765 -157.551468
      vertex -1.805032 392.302765 -157.957138
    endloop
  endfacet
  facet normal 0.000000 1.000000 0.000000
    outer loop
      vertex 0.000000 392.302765 -152.464050
      vertex -1.805032 392.302765 -157.957138
      vertex -2.210703 392.302765 -158.485825
    endloop
  endfacet
  facet normal 0.000000 1.000000 0.000000
    outer loop
      vertex -116.954147 392.302765 -126.114288
      vertex -2.552700 392.302765 -159.762177
      vertex -2.465719 392.302765 -160.422867
    endloop
  endfacet
  facet normal 0.000000 1.000000 0.000000
    outer loop
      vertex -116.954147 392.302765 -126.114288
      vertex -2.465719 392.302765 -160.422867
      vertex 0.000000 392.302765 -168.682114
    endloop
  endfacet
  facet normal 0.000000 1.000000 0.000000
    outer loop
      vertex -112.707108 392.302765 -120.909309
      vertex -2.552700 392.302765 -159.762177
      vertex -116.954147 392.302765 -126.114288
    endloop
  endfacet
  facet normal 0.000000 1.000000 0.000000
    outer loop
      vertex -112.707108 392.302765 -120.909309
      vertex -116.954147 392.302765 -126.114288
      vertex -113.269135 392.302765 -121.267357
    endloop
  endfacet
  facet normal -0.000000 1.000000 0.000000
    outer loop
      vertex -113.904678 392.302765 -121.467751
      vertex -113.269135 392.302765 -121.267357
      vertex -116.954147 392.302765 -126.114288
    endloop
  endfacet
  facet normal 0.000000 1.000000 0.000000
    outer loop
      vertex -112.256897 392.302765 -120.417999
      vertex -2.465719 392.302765 -159.101486
      vertex -2.552700 392.302765 -159.762177
    endloop
  endfacet
  facet normal 0.000000 1.000000 0.000000
    outer loop
      vertex -112.256897 392.302765 -120.417999
      vertex -2.552700 392.302765 -159.762177
      vertex -112.707108 392.302765 -120.909309
    endloop
  endfacet
  facet normal -0.000000 1.000000 0.000000
    outer loop
      vertex -114.570435 392.302765 -121.496811
      vertex -113.904678 392.302765 -121.467751
      vertex -116.954147 392.302765 -126.114288
    endloop
  endfacet
  facet normal 0.000000 1.000000 0.000000
    outer loop
      vertex -111.949196 392.302765 -119.826904
      vertex -2.210703 392.302765 -158.485825
      vertex -2.465719 392.302765 -159.101486
    endloop
  endfacet
  facet normal 0.000000 1.000000 0.000000
    outer loop
      vertex -111.949196 392.302765 -119.826904
      vertex 0.000000 392.302765 -152.464050
      vertex -2.210703 392.302765 -158.485825
    endloop
  endfacet
  facet normal 0.000000 1.000000 0.000000
    outer loop
      vertex -111.949196 392.302765 -119.826904
      vertex -2.465719 392.302765 -159.101486
      vertex -112.256897 392.302765 -120.417999
    endloop
  endfacet
  facet normal 0.000000 1.000000 0.000000
    outer loop
      vertex -115.221024 392.302765 -121.352585
      vertex -114.570435 392.302765 -121.496811
      vertex -116.954147 392.302765 -126.114288
    endloop
  endfacet
  facet normal 0.000000 1.000000 0.000000
    outer loop
      vertex -111.804962 392.302765 -119.176308
      vertex 0.000000 392.302765 -152.464050
      vertex -111.949196 392.302765 -119.826904
    endloop
  endfacet
  facet normal 0.000000 1.000000 0.000000
    outer loop
      vertex -111.834030 392.302765 -118.510559
      vertex 0.000000 392.302765 -152.464050
      vertex -111.804962 392.302765 -119.176308
    endloop
  endfacet
  facet normal 0.000000 1.000000 0.000000
    outer loop
      vertex -111.741760 392.302765 -111.793373
      vertex -111.834030 392.302765 -118.510559
      vertex -112.034416 392.302765 -117.875008
    endloop
  endfacet
  facet normal 0.000000 1.000000 0.000000
    outer loop
      vertex -111.741760 392.302765 -111.793373
      vertex -112.034416 392.302765 -117.875008
      vertex -112.392471 392.302765 -117.312981
    endloop
  endfacet
  facet normal 0.000000 1.000000 0.000000
    outer loop
      vertex -111.741760 392.302765 -111.793373
      vertex -112.392471 392.302765 -117.312981
      vertex -112.883781 392.302765 -116.862778
    endloop
  endfacet
  facet normal 0.000000 1.000000 0.000000
    outer loop
      vertex -111.741760 392.302765 -111.793373
      vertex -112.883781 392.302765 -116.862778
      vertex -113.474876 392.302765 -116.555077
    endloop
  endfacet
  facet normal 0.000000 1.000000 0.000000
    outer loop
      vertex -111.741760 392.302765 -111.793373
      vertex 0.000000 392.302765 -152.464050
      vertex -111.834030 392.302765 -118.510559
    endloop
  endfacet
  facet normal 0.342020 0.000000 0.939693
    outer loop
      vertex 0.000000 392.302765 -152.464050
      vertex -111.741760 329.378082 -111.793373
      vertex 0.000000 329.378082 -152.464050
    endloop
  endfacet
  facet normal 0.342020 0.000000 0.939693
    outer loop
      vertex 0.000000 392.302765 -152.464050
      vertex -111.741760 392.302765 -111.793373
      vertex -111.741760 329.378082 -111.793373
    endloop
  endfacet
endsolid Mesh